%TF.GenerationSoftware,KiCad,Pcbnew,(6.0.5)*%
%TF.CreationDate,2022-07-18T02:26:31-07:00*%
%TF.ProjectId,CLOCK,434c4f43-4b2e-46b6-9963-61645f706362,rev?*%
%TF.SameCoordinates,PX4c8bb40PY8b0aba0*%
%TF.FileFunction,Legend,Bot*%
%TF.FilePolarity,Positive*%
%FSLAX46Y46*%
G04 Gerber Fmt 4.6, Leading zero omitted, Abs format (unit mm)*
G04 Created by KiCad (PCBNEW (6.0.5)) date 2022-07-18 02:26:31*
%MOMM*%
%LPD*%
G01*
G04 APERTURE LIST*
%ADD10C,0.300000*%
%ADD11C,0.150000*%
%ADD12C,0.120000*%
G04 APERTURE END LIST*
D10*
X105051437Y85586000D02*
X105185366Y85657429D01*
X105399651Y85657429D01*
X105622866Y85586000D01*
X105783580Y85443143D01*
X105872866Y85300286D01*
X105980008Y85014572D01*
X106006794Y84800286D01*
X105971080Y84514572D01*
X105917508Y84371715D01*
X105792508Y84228858D01*
X105587151Y84157429D01*
X105444294Y84157429D01*
X105221080Y84228858D01*
X105140723Y84300286D01*
X105078223Y84800286D01*
X105363937Y84800286D01*
X104042508Y85657429D02*
X103756794Y85657429D01*
X103622866Y85586000D01*
X103497866Y85443143D01*
X103462151Y85157429D01*
X103524651Y84657429D01*
X103631794Y84371715D01*
X103792508Y84228858D01*
X103944294Y84157429D01*
X104230008Y84157429D01*
X104363937Y84228858D01*
X104488937Y84371715D01*
X104524651Y84657429D01*
X104462151Y85157429D01*
X104355008Y85443143D01*
X104194294Y85586000D01*
X104042508Y85657429D01*
X102944294Y84157429D02*
X102756794Y85657429D01*
X102399651Y85657429D01*
X102194294Y85586000D01*
X102069294Y85443143D01*
X102015723Y85300286D01*
X101980008Y85014572D01*
X102006794Y84800286D01*
X102113937Y84514572D01*
X102203223Y84371715D01*
X102363937Y84228858D01*
X102587151Y84157429D01*
X102944294Y84157429D01*
X99703223Y84943143D02*
X99497866Y84871715D01*
X99435366Y84800286D01*
X99381794Y84657429D01*
X99408580Y84443143D01*
X99497866Y84300286D01*
X99578223Y84228858D01*
X99730008Y84157429D01*
X100301437Y84157429D01*
X100113937Y85657429D01*
X99613937Y85657429D01*
X99480008Y85586000D01*
X99417508Y85514572D01*
X99363937Y85371715D01*
X99381794Y85228858D01*
X99471080Y85086000D01*
X99551437Y85014572D01*
X99703223Y84943143D01*
X100203223Y84943143D01*
X97944294Y84157429D02*
X98355008Y84871715D01*
X98801437Y84157429D02*
X98613937Y85657429D01*
X98042508Y85657429D01*
X97908580Y85586000D01*
X97846080Y85514572D01*
X97792508Y85371715D01*
X97819294Y85157429D01*
X97908580Y85014572D01*
X97988937Y84943143D01*
X98140723Y84871715D01*
X98712151Y84871715D01*
X97301437Y84157429D02*
X97113937Y85657429D01*
X96587151Y84157429D02*
X96399651Y85657429D01*
X95730008Y84157429D01*
X95542508Y85657429D01*
X94051437Y85586000D02*
X94185366Y85657429D01*
X94399651Y85657429D01*
X94622866Y85586000D01*
X94783580Y85443143D01*
X94872866Y85300286D01*
X94980008Y85014572D01*
X95006794Y84800286D01*
X94971080Y84514572D01*
X94917508Y84371715D01*
X94792508Y84228858D01*
X94587151Y84157429D01*
X94444294Y84157429D01*
X94221080Y84228858D01*
X94140723Y84300286D01*
X94078223Y84800286D01*
X94363937Y84800286D01*
X93578223Y84228858D02*
X93372866Y84157429D01*
X93015723Y84157429D01*
X92863937Y84228858D01*
X92783580Y84300286D01*
X92694294Y84443143D01*
X92676437Y84586000D01*
X92730008Y84728858D01*
X92792508Y84800286D01*
X92926437Y84871715D01*
X93203223Y84943143D01*
X93337151Y85014572D01*
X93399651Y85086000D01*
X93453223Y85228858D01*
X93435366Y85371715D01*
X93346080Y85514572D01*
X93265723Y85586000D01*
X93113937Y85657429D01*
X92756794Y85657429D01*
X92551437Y85586000D01*
X90471080Y85657429D02*
X90185366Y85657429D01*
X90051437Y85586000D01*
X89926437Y85443143D01*
X89890723Y85157429D01*
X89953223Y84657429D01*
X90060366Y84371715D01*
X90221080Y84228858D01*
X90372866Y84157429D01*
X90658580Y84157429D01*
X90792508Y84228858D01*
X90917508Y84371715D01*
X90953223Y84657429D01*
X90890723Y85157429D01*
X90783580Y85443143D01*
X90622866Y85586000D01*
X90471080Y85657429D01*
X89372866Y84157429D02*
X89185366Y85657429D01*
X88613937Y85657429D01*
X88480008Y85586000D01*
X88417508Y85514572D01*
X88363937Y85371715D01*
X88390723Y85157429D01*
X88480008Y85014572D01*
X88560366Y84943143D01*
X88712151Y84871715D01*
X89283580Y84871715D01*
X87872866Y84157429D02*
X87685366Y85657429D01*
X87113937Y85657429D01*
X86980008Y85586000D01*
X86917508Y85514572D01*
X86863937Y85371715D01*
X86890723Y85157429D01*
X86980008Y85014572D01*
X87060366Y84943143D01*
X87212151Y84871715D01*
X87783580Y84871715D01*
X85899651Y85657429D02*
X85613937Y85657429D01*
X85480008Y85586000D01*
X85355008Y85443143D01*
X85319294Y85157429D01*
X85381794Y84657429D01*
X85488937Y84371715D01*
X85649651Y84228858D01*
X85801437Y84157429D01*
X86087151Y84157429D01*
X86221080Y84228858D01*
X86346080Y84371715D01*
X86381794Y84657429D01*
X86319294Y85157429D01*
X86212151Y85443143D01*
X86051437Y85586000D01*
X85899651Y85657429D01*
X83944294Y84157429D02*
X84355008Y84871715D01*
X84801437Y84157429D02*
X84613937Y85657429D01*
X84042508Y85657429D01*
X83908580Y85586000D01*
X83846080Y85514572D01*
X83792508Y85371715D01*
X83819294Y85157429D01*
X83908580Y85014572D01*
X83988937Y84943143D01*
X84140723Y84871715D01*
X84712151Y84871715D01*
X83328223Y85657429D02*
X82471080Y85657429D01*
X83087151Y84157429D02*
X82899651Y85657429D01*
X81971080Y85657429D02*
X82122866Y84443143D01*
X82069294Y84300286D01*
X82006794Y84228858D01*
X81872866Y84157429D01*
X81587151Y84157429D01*
X81435366Y84228858D01*
X81355008Y84300286D01*
X81265723Y84443143D01*
X81113937Y85657429D01*
X80587151Y84157429D02*
X80399651Y85657429D01*
X79730008Y84157429D01*
X79542508Y85657429D01*
X79015723Y84157429D02*
X78828223Y85657429D01*
X78328223Y85657429D02*
X77471080Y85657429D01*
X78087151Y84157429D02*
X77899651Y85657429D01*
X77158580Y84157429D02*
X76971080Y85657429D01*
X76346080Y84943143D02*
X75846080Y84943143D01*
X75730008Y84157429D02*
X76444294Y84157429D01*
X76256794Y85657429D01*
X75542508Y85657429D01*
X75149651Y84228858D02*
X74944294Y84157429D01*
X74587151Y84157429D01*
X74435366Y84228858D01*
X74355008Y84300286D01*
X74265723Y84443143D01*
X74247866Y84586000D01*
X74301437Y84728858D01*
X74363937Y84800286D01*
X74497866Y84871715D01*
X74774651Y84943143D01*
X74908580Y85014572D01*
X74971080Y85086000D01*
X75024651Y85228858D01*
X75006794Y85371715D01*
X74917508Y85514572D01*
X74837151Y85586000D01*
X74685366Y85657429D01*
X74328223Y85657429D01*
X74122866Y85586000D01*
X73578223Y84228858D02*
X73587151Y84157429D01*
X73676437Y84014572D01*
X73756794Y83943143D01*
X71426437Y84871715D02*
X71515723Y84157429D01*
X71828223Y85657429D02*
X71426437Y84871715D01*
X70828223Y85657429D01*
X70042508Y85657429D02*
X69756794Y85657429D01*
X69622866Y85586000D01*
X69497866Y85443143D01*
X69462151Y85157429D01*
X69524651Y84657429D01*
X69631794Y84371715D01*
X69792508Y84228858D01*
X69944294Y84157429D01*
X70230008Y84157429D01*
X70363937Y84228858D01*
X70488937Y84371715D01*
X70524651Y84657429D01*
X70462151Y85157429D01*
X70355008Y85443143D01*
X70194294Y85586000D01*
X70042508Y85657429D01*
X68756794Y85657429D02*
X68908580Y84443143D01*
X68855008Y84300286D01*
X68792508Y84228858D01*
X68658580Y84157429D01*
X68372866Y84157429D01*
X68221080Y84228858D01*
X68140723Y84300286D01*
X68051437Y84443143D01*
X67899651Y85657429D01*
X66230008Y84157429D02*
X66042508Y85657429D01*
X65685366Y85657429D01*
X65480008Y85586000D01*
X65355008Y85443143D01*
X65301437Y85300286D01*
X65265723Y85014572D01*
X65292508Y84800286D01*
X65399651Y84514572D01*
X65488937Y84371715D01*
X65649651Y84228858D01*
X65872866Y84157429D01*
X66230008Y84157429D01*
X64631794Y84943143D02*
X64131794Y84943143D01*
X64015723Y84157429D02*
X64730008Y84157429D01*
X64542508Y85657429D01*
X63828223Y85657429D01*
X62497866Y84300286D02*
X62578223Y84228858D01*
X62801437Y84157429D01*
X62944294Y84157429D01*
X63149651Y84228858D01*
X63274651Y84371715D01*
X63328223Y84514572D01*
X63363937Y84800286D01*
X63337151Y85014572D01*
X63230008Y85300286D01*
X63140723Y85443143D01*
X62980008Y85586000D01*
X62756794Y85657429D01*
X62613937Y85657429D01*
X62408580Y85586000D01*
X62346080Y85514572D01*
X61872866Y84157429D02*
X61685366Y85657429D01*
X61158580Y84157429D02*
X60971080Y85657429D01*
X60613937Y85657429D01*
X60408580Y85586000D01*
X60283580Y85443143D01*
X60230008Y85300286D01*
X60194294Y85014572D01*
X60221080Y84800286D01*
X60328223Y84514572D01*
X60417508Y84371715D01*
X60578223Y84228858D01*
X60801437Y84157429D01*
X61158580Y84157429D01*
X59560366Y84943143D02*
X59060366Y84943143D01*
X58944294Y84157429D02*
X59658580Y84157429D01*
X59471080Y85657429D01*
X58756794Y85657429D01*
X57113937Y85657429D02*
X56944294Y84157429D01*
X56524651Y85228858D01*
X56372866Y84157429D01*
X55828223Y85657429D01*
X55444294Y84157429D02*
X55256794Y85657429D01*
X55346080Y84943143D02*
X54488937Y84943143D01*
X54587151Y84157429D02*
X54399651Y85657429D01*
X53774651Y84943143D02*
X53274651Y84943143D01*
X53158580Y84157429D02*
X53872866Y84157429D01*
X53685366Y85657429D01*
X52971080Y85657429D01*
X52515723Y84157429D02*
X52328223Y85657429D01*
X51658580Y84157429D01*
X51471080Y85657429D01*
X49828223Y85657429D02*
X48971080Y85657429D01*
X49587151Y84157429D02*
X49399651Y85657429D01*
X48185366Y85657429D02*
X47899651Y85657429D01*
X47765723Y85586000D01*
X47640723Y85443143D01*
X47605008Y85157429D01*
X47667508Y84657429D01*
X47774651Y84371715D01*
X47935366Y84228858D01*
X48087151Y84157429D01*
X48372866Y84157429D01*
X48506794Y84228858D01*
X48631794Y84371715D01*
X48667508Y84657429D01*
X48605008Y85157429D01*
X48497866Y85443143D01*
X48337151Y85586000D01*
X48185366Y85657429D01*
X45971080Y85657429D02*
X45113937Y85657429D01*
X45730008Y84157429D02*
X45542508Y85657429D01*
X44819294Y84586000D02*
X44105008Y84586000D01*
X45015723Y84157429D02*
X44328223Y85657429D01*
X44015723Y84157429D01*
X43515723Y84157429D02*
X43328223Y85657429D01*
X42658580Y84157429D02*
X43194294Y85014572D01*
X42471080Y85657429D02*
X43435366Y84800286D01*
X41917508Y84943143D02*
X41417508Y84943143D01*
X41301437Y84157429D02*
X42015723Y84157429D01*
X41828223Y85657429D01*
X41113937Y85657429D01*
X39533580Y84586000D02*
X38819294Y84586000D01*
X39730008Y84157429D02*
X39042508Y85657429D01*
X38730008Y84157429D01*
X37355008Y84300286D02*
X37435366Y84228858D01*
X37658580Y84157429D01*
X37801437Y84157429D01*
X38006794Y84228858D01*
X38131794Y84371715D01*
X38185366Y84514572D01*
X38221080Y84800286D01*
X38194294Y85014572D01*
X38087151Y85300286D01*
X37997866Y85443143D01*
X37837151Y85586000D01*
X37613937Y85657429D01*
X37471080Y85657429D01*
X37265723Y85586000D01*
X37203223Y85514572D01*
X36756794Y85657429D02*
X35899651Y85657429D01*
X36515723Y84157429D02*
X36328223Y85657429D01*
X35587151Y84157429D02*
X35399651Y85657429D01*
X34399651Y85657429D02*
X34113937Y85657429D01*
X33980008Y85586000D01*
X33855008Y85443143D01*
X33819294Y85157429D01*
X33881794Y84657429D01*
X33988937Y84371715D01*
X34149651Y84228858D01*
X34301437Y84157429D01*
X34587151Y84157429D01*
X34721080Y84228858D01*
X34846080Y84371715D01*
X34881794Y84657429D01*
X34819294Y85157429D01*
X34712151Y85443143D01*
X34551437Y85586000D01*
X34399651Y85657429D01*
X33301437Y84157429D02*
X33113937Y85657429D01*
X32444294Y84157429D01*
X32256794Y85657429D01*
D11*
%TO.C,REF\u002A\u002A1*%
X10445523Y21843620D02*
X10778857Y22319810D01*
X11016952Y21843620D02*
X11016952Y22843620D01*
X10636000Y22843620D01*
X10540761Y22796000D01*
X10493142Y22748381D01*
X10445523Y22653143D01*
X10445523Y22510286D01*
X10493142Y22415048D01*
X10540761Y22367429D01*
X10636000Y22319810D01*
X11016952Y22319810D01*
X10016952Y22367429D02*
X9683619Y22367429D01*
X9540761Y21843620D02*
X10016952Y21843620D01*
X10016952Y22843620D01*
X9540761Y22843620D01*
X8778857Y22367429D02*
X9112190Y22367429D01*
X9112190Y21843620D02*
X9112190Y22843620D01*
X8636000Y22843620D01*
X8112190Y22843620D02*
X8112190Y22605524D01*
X8350285Y22700762D02*
X8112190Y22605524D01*
X7874095Y22700762D01*
X8255047Y22415048D02*
X8112190Y22605524D01*
X7969333Y22415048D01*
X7350285Y22843620D02*
X7350285Y22605524D01*
X7588380Y22700762D02*
X7350285Y22605524D01*
X7112190Y22700762D01*
X7493142Y22415048D02*
X7350285Y22605524D01*
X7207428Y22415048D01*
X6207428Y21843620D02*
X6778857Y21843620D01*
X6493142Y21843620D02*
X6493142Y22843620D01*
X6588380Y22700762D01*
X6683619Y22605524D01*
X6778857Y22557905D01*
%TO.C,D3*%
X41436000Y72686000D02*
G75*
G03*
X41436000Y72686000I-1000000J0D01*
G01*
%TO.C,D4*%
X75436000Y72686000D02*
G75*
G03*
X75436000Y72686000I-1000000J0D01*
G01*
%TO.C,D5*%
X109396000Y72686000D02*
G75*
G03*
X109396000Y72686000I-1000000J0D01*
G01*
%TO.C,D2*%
X7736000Y72686000D02*
G75*
G03*
X7736000Y72686000I-1000000J0D01*
G01*
D12*
%TO.C,REF\u002A\u002A1*%
X13136000Y21496000D02*
X13136000Y19546000D01*
X4136000Y10796000D02*
X4136000Y13546000D01*
X13136000Y10796000D02*
X4136000Y10796000D01*
X13136000Y10796000D02*
X13136000Y15046000D01*
X4136000Y21496000D02*
X4136000Y15546000D01*
X13136000Y21496000D02*
X4136000Y21496000D01*
X10836000Y19596000D02*
G75*
G03*
X5769755Y15912295I-2200000J-2300000D01*
G01*
X8636000Y14096000D02*
G75*
G03*
X10898742Y15033258I2J3199997D01*
G01*
%TD*%
M02*
