%TF.GenerationSoftware,KiCad,Pcbnew,(6.0.5)*%
%TF.CreationDate,2022-07-24T14:11:08-07:00*%
%TF.ProjectId,CLOCK,434c4f43-4b2e-46b6-9963-61645f706362,rev?*%
%TF.SameCoordinates,PX4c4db10PY8a50b10*%
%TF.FileFunction,Soldermask,Top*%
%TF.FilePolarity,Negative*%
%FSLAX46Y46*%
G04 Gerber Fmt 4.6, Leading zero omitted, Abs format (unit mm)*
G04 Created by KiCad (PCBNEW (6.0.5)) date 2022-07-24 14:11:08*
%MOMM*%
%LPD*%
G01*
G04 APERTURE LIST*
G04 Aperture macros list*
%AMRoundRect*
0 Rectangle with rounded corners*
0 $1 Rounding radius*
0 $2 $3 $4 $5 $6 $7 $8 $9 X,Y pos of 4 corners*
0 Add a 4 corners polygon primitive as box body*
4,1,4,$2,$3,$4,$5,$6,$7,$8,$9,$2,$3,0*
0 Add four circle primitives for the rounded corners*
1,1,$1+$1,$2,$3*
1,1,$1+$1,$4,$5*
1,1,$1+$1,$6,$7*
1,1,$1+$1,$8,$9*
0 Add four rect primitives between the rounded corners*
20,1,$1+$1,$2,$3,$4,$5,0*
20,1,$1+$1,$4,$5,$6,$7,0*
20,1,$1+$1,$6,$7,$8,$9,0*
20,1,$1+$1,$8,$9,$2,$3,0*%
G04 Aperture macros list end*
%ADD10R,1.400000X1.150000*%
%ADD11C,3.200000*%
%ADD12R,1.150000X1.400000*%
%ADD13C,1.524000*%
%ADD14C,2.000000*%
%ADD15R,4.500000X2.000000*%
%ADD16R,1.600000X1.400000*%
%ADD17R,3.000000X3.000000*%
%ADD18C,3.000000*%
%ADD19R,1.600000X1.600000*%
%ADD20O,1.600000X1.600000*%
%ADD21R,1.700000X1.700000*%
%ADD22O,1.700000X1.700000*%
%ADD23R,1.800000X1.000000*%
%ADD24RoundRect,0.150000X-0.825000X-0.150000X0.825000X-0.150000X0.825000X0.150000X-0.825000X0.150000X0*%
%ADD25R,1.200000X2.200000*%
%ADD26R,5.800000X6.400000*%
%ADD27RoundRect,0.243750X0.456250X-0.243750X0.456250X0.243750X-0.456250X0.243750X-0.456250X-0.243750X0*%
%ADD28RoundRect,0.500000X-1.750000X-0.500000X1.750000X-0.500000X1.750000X0.500000X-1.750000X0.500000X0*%
%ADD29RoundRect,0.500000X0.500000X-1.500000X0.500000X1.500000X-0.500000X1.500000X-0.500000X-1.500000X0*%
G04 APERTURE END LIST*
D10*
%TO.C,C9*%
X12192000Y7962000D03*
X12192000Y6262000D03*
%TD*%
D11*
%TO.C,H4*%
X134990000Y5034000D03*
%TD*%
D12*
%TO.C,R6*%
X17184000Y34034000D03*
X18884000Y34034000D03*
%TD*%
D13*
%TO.C,D2*%
X41890000Y71120000D03*
X41890000Y68580000D03*
X41890000Y66040000D03*
X41890000Y63500000D03*
X41890000Y60960000D03*
X41890000Y58420000D03*
X41890000Y55880000D03*
X41890000Y53340000D03*
X65890000Y53340000D03*
X65890000Y55880000D03*
X65890000Y58420000D03*
X65890000Y60960000D03*
X65890000Y63500000D03*
X65890000Y66040000D03*
X65890000Y68580000D03*
X65890000Y71120000D03*
%TD*%
D14*
%TO.C,GND*%
X46228000Y6096000D03*
%TD*%
D15*
%TO.C,Y1*%
X65600000Y28194000D03*
X74100000Y28194000D03*
%TD*%
D10*
%TO.C,R14*%
X48514000Y81184000D03*
X48514000Y82884000D03*
%TD*%
D16*
%TO.C,UP*%
X60990000Y79792000D03*
X52990000Y79792000D03*
X60990000Y84292000D03*
X52990000Y84292000D03*
%TD*%
D12*
%TO.C,C5*%
X60540000Y28194000D03*
X58840000Y28194000D03*
%TD*%
D10*
%TO.C,C12*%
X77490000Y32844000D03*
X77490000Y34544000D03*
%TD*%
D17*
%TO.C,BT1*%
X124460017Y6674314D03*
D18*
X124460017Y27164314D03*
%TD*%
D14*
%TO.C,DATA*%
X99822000Y30226000D03*
%TD*%
D10*
%TO.C,C13*%
X80030000Y34544000D03*
X80030000Y32844000D03*
%TD*%
D13*
%TO.C,D3*%
X73990000Y71120000D03*
X73990000Y68580000D03*
X73990000Y66040000D03*
X73990000Y63500000D03*
X73990000Y60960000D03*
X73990000Y58420000D03*
X73990000Y55880000D03*
X73990000Y53340000D03*
X97990000Y53340000D03*
X97990000Y55880000D03*
X97990000Y58420000D03*
X97990000Y60960000D03*
X97990000Y63500000D03*
X97990000Y66040000D03*
X97990000Y68580000D03*
X97990000Y71120000D03*
%TD*%
D10*
%TO.C,C7*%
X12695000Y34124000D03*
X12695000Y32424000D03*
%TD*%
D14*
%TO.C,CLK*%
X63246000Y33274000D03*
%TD*%
D19*
%TO.C,U6*%
X109210000Y10678000D03*
D20*
X109210000Y13218000D03*
X109210000Y15758000D03*
X109210000Y18298000D03*
X101590000Y18298000D03*
X101590000Y15758000D03*
X101590000Y13218000D03*
X101590000Y10678000D03*
%TD*%
D14*
%TO.C,SDA*%
X109474000Y29718000D03*
%TD*%
D21*
%TO.C,J2*%
X77470000Y6858000D03*
D22*
X80010000Y6858000D03*
X82550000Y6858000D03*
X85090000Y6858000D03*
X87630000Y6858000D03*
%TD*%
D19*
%TO.C,U5*%
X72690000Y37094000D03*
D20*
X75230000Y37094000D03*
X77770000Y37094000D03*
X80310000Y37094000D03*
X82850000Y37094000D03*
X85390000Y37094000D03*
X87930000Y37094000D03*
X90470000Y37094000D03*
X93010000Y37094000D03*
X95550000Y37094000D03*
X98090000Y37094000D03*
X100630000Y37094000D03*
X100630000Y44714000D03*
X98090000Y44714000D03*
X95550000Y44714000D03*
X93010000Y44714000D03*
X90470000Y44714000D03*
X87930000Y44714000D03*
X85390000Y44714000D03*
X82850000Y44714000D03*
X80310000Y44714000D03*
X77770000Y44714000D03*
X75230000Y44714000D03*
X72690000Y44714000D03*
%TD*%
D21*
%TO.C,J5*%
X54610000Y11923000D03*
D22*
X57150000Y11923000D03*
X54610000Y9383000D03*
X57150000Y9383000D03*
X54610000Y6843000D03*
X57150000Y6843000D03*
%TD*%
D10*
%TO.C,C6*%
X10160000Y32424000D03*
X10160000Y34124000D03*
%TD*%
%TO.C,C10*%
X46610000Y33184000D03*
X46610000Y34884000D03*
%TD*%
D23*
%TO.C,Y2*%
X112268000Y13188000D03*
X112268000Y10688000D03*
%TD*%
D10*
%TO.C,R2*%
X91690000Y23684000D03*
X91690000Y25384000D03*
%TD*%
D19*
%TO.C,U7*%
X106675000Y37094000D03*
D20*
X109215000Y37094000D03*
X111755000Y37094000D03*
X114295000Y37094000D03*
X116835000Y37094000D03*
X119375000Y37094000D03*
X121915000Y37094000D03*
X124455000Y37094000D03*
X126995000Y37094000D03*
X129535000Y37094000D03*
X132075000Y37094000D03*
X134615000Y37094000D03*
X134615000Y44714000D03*
X132075000Y44714000D03*
X129535000Y44714000D03*
X126995000Y44714000D03*
X124455000Y44714000D03*
X121915000Y44714000D03*
X119375000Y44714000D03*
X116835000Y44714000D03*
X114295000Y44714000D03*
X111755000Y44714000D03*
X109215000Y44714000D03*
X106675000Y44714000D03*
%TD*%
D12*
%TO.C,R7*%
X52920000Y34544000D03*
X51220000Y34544000D03*
%TD*%
D14*
%TO.C,VCC*%
X40132000Y6096000D03*
%TD*%
D19*
%TO.C,U1*%
X87630000Y23114000D03*
D20*
X85090000Y23114000D03*
X82550000Y23114000D03*
X80010000Y23114000D03*
X77470000Y23114000D03*
X74930000Y23114000D03*
X72390000Y23114000D03*
X69850000Y23114000D03*
X67310000Y23114000D03*
X64770000Y23114000D03*
X62230000Y23114000D03*
X59690000Y23114000D03*
X57150000Y23114000D03*
X54610000Y23114000D03*
X54610000Y15494000D03*
X57150000Y15494000D03*
X59690000Y15494000D03*
X62230000Y15494000D03*
X64770000Y15494000D03*
X67310000Y15494000D03*
X69850000Y15494000D03*
X72390000Y15494000D03*
X74930000Y15494000D03*
X77470000Y15494000D03*
X80010000Y15494000D03*
X82550000Y15494000D03*
X85090000Y15494000D03*
X87630000Y15494000D03*
%TD*%
D24*
%TO.C,U8*%
X101515000Y25939000D03*
X101515000Y24669000D03*
X101515000Y23399000D03*
X101515000Y22129000D03*
X106465000Y22129000D03*
X106465000Y23399000D03*
X106465000Y24669000D03*
X106465000Y25939000D03*
%TD*%
D10*
%TO.C,R9*%
X61468000Y7874000D03*
X61468000Y9574000D03*
%TD*%
D19*
%TO.C,U2*%
X5075000Y37094000D03*
D20*
X7615000Y37094000D03*
X10155000Y37094000D03*
X12695000Y37094000D03*
X15235000Y37094000D03*
X17775000Y37094000D03*
X20315000Y37094000D03*
X22855000Y37094000D03*
X25395000Y37094000D03*
X27935000Y37094000D03*
X30475000Y37094000D03*
X33015000Y37094000D03*
X33015000Y44714000D03*
X30475000Y44714000D03*
X27935000Y44714000D03*
X25395000Y44714000D03*
X22855000Y44714000D03*
X20315000Y44714000D03*
X17775000Y44714000D03*
X15235000Y44714000D03*
X12695000Y44714000D03*
X10155000Y44714000D03*
X7615000Y44714000D03*
X5075000Y44714000D03*
%TD*%
D12*
%TO.C,R8*%
X85940000Y34034000D03*
X84240000Y34034000D03*
%TD*%
D11*
%TO.C,H2*%
X134990000Y85034000D03*
%TD*%
D16*
%TO.C,DOWN*%
X85990000Y79784000D03*
X77990000Y79784000D03*
X85990000Y84284000D03*
X77990000Y84284000D03*
%TD*%
D10*
%TO.C,C14*%
X110490000Y32844000D03*
X110490000Y34544000D03*
%TD*%
D11*
%TO.C,H3*%
X4990000Y5034000D03*
%TD*%
D10*
%TO.C,C11*%
X43990000Y34884000D03*
X43990000Y33184000D03*
%TD*%
%TO.C,R1*%
X91690000Y29044000D03*
X91690000Y27344000D03*
%TD*%
D21*
%TO.C,J1*%
X95250000Y15494000D03*
D22*
X95250000Y18034000D03*
X95250000Y20574000D03*
X95250000Y23114000D03*
X95250000Y25654000D03*
X95250000Y28194000D03*
%TD*%
D12*
%TO.C,R3*%
X94400000Y11938000D03*
X96100000Y11938000D03*
%TD*%
D11*
%TO.C,H1*%
X4990000Y85034000D03*
%TD*%
D14*
%TO.C,SCL*%
X105918000Y30226000D03*
%TD*%
D16*
%TO.C,SELECT*%
X110990000Y79784000D03*
X102990000Y79784000D03*
X110990000Y84284000D03*
X102990000Y84284000D03*
%TD*%
D25*
%TO.C,U3*%
X19806000Y13412000D03*
D26*
X17526000Y7112000D03*
D25*
X15246000Y13412000D03*
%TD*%
D13*
%TO.C,D5*%
X106090000Y71120000D03*
X106090000Y68580000D03*
X106090000Y66040000D03*
X106090000Y63500000D03*
X106090000Y60960000D03*
X106090000Y58420000D03*
X106090000Y55880000D03*
X106090000Y53340000D03*
X130090000Y53340000D03*
X130090000Y55880000D03*
X130090000Y58420000D03*
X130090000Y60960000D03*
X130090000Y63500000D03*
X130090000Y66040000D03*
X130090000Y68580000D03*
X130090000Y71120000D03*
%TD*%
D12*
%TO.C,C2*%
X71240000Y12954000D03*
X72940000Y12954000D03*
%TD*%
D10*
%TO.C,C15*%
X114295000Y34544000D03*
X114295000Y32844000D03*
%TD*%
D12*
%TO.C,R5*%
X94400000Y9398000D03*
X96100000Y9398000D03*
%TD*%
%TO.C,C3*%
X90590000Y21082000D03*
X92290000Y21082000D03*
%TD*%
D10*
%TO.C,R12*%
X114046000Y81184000D03*
X114046000Y82884000D03*
%TD*%
D16*
%TO.C,MODE*%
X35990000Y79792000D03*
X27990000Y79792000D03*
X35990000Y84292000D03*
X27990000Y84292000D03*
%TD*%
D10*
%TO.C,C16*%
X109990000Y25884000D03*
X109990000Y24184000D03*
%TD*%
D12*
%TO.C,R4*%
X90590000Y18796000D03*
X92290000Y18796000D03*
%TD*%
%TO.C,C4*%
X80860000Y28194000D03*
X79160000Y28194000D03*
%TD*%
D14*
%TO.C,LOAD*%
X134366000Y33782000D03*
%TD*%
D27*
%TO.C,D4*%
X64516000Y7952500D03*
X64516000Y9827500D03*
%TD*%
D19*
%TO.C,U4*%
X38990000Y37094000D03*
D20*
X41530000Y37094000D03*
X44070000Y37094000D03*
X46610000Y37094000D03*
X49150000Y37094000D03*
X51690000Y37094000D03*
X54230000Y37094000D03*
X56770000Y37094000D03*
X59310000Y37094000D03*
X61850000Y37094000D03*
X64390000Y37094000D03*
X66930000Y37094000D03*
X66930000Y44714000D03*
X64390000Y44714000D03*
X61850000Y44714000D03*
X59310000Y44714000D03*
X56770000Y44714000D03*
X54230000Y44714000D03*
X51690000Y44714000D03*
X49150000Y44714000D03*
X46610000Y44714000D03*
X44070000Y44714000D03*
X41530000Y44714000D03*
X38990000Y44714000D03*
%TD*%
D12*
%TO.C,R10*%
X120440000Y34034000D03*
X118740000Y34034000D03*
%TD*%
%TO.C,C1*%
X65340000Y12954000D03*
X67040000Y12954000D03*
%TD*%
D21*
%TO.C,J3*%
X73406000Y6858000D03*
D22*
X70866000Y6858000D03*
X68326000Y6858000D03*
%TD*%
D16*
%TO.C,SW1*%
X40450000Y19268000D03*
X48450000Y19268000D03*
X40450000Y14768000D03*
X48450000Y14768000D03*
%TD*%
D10*
%TO.C,C8*%
X23622000Y8470000D03*
X23622000Y6770000D03*
%TD*%
%TO.C,R13*%
X88900000Y81184000D03*
X88900000Y82884000D03*
%TD*%
%TO.C,R11*%
X39116000Y81184000D03*
X39116000Y82884000D03*
%TD*%
D13*
%TO.C,D1*%
X9790000Y71120000D03*
X9790000Y68580000D03*
X9790000Y66040000D03*
X9790000Y63500000D03*
X9790000Y60960000D03*
X9790000Y58420000D03*
X9790000Y55880000D03*
X9790000Y53340000D03*
X33790000Y53340000D03*
X33790000Y55880000D03*
X33790000Y58420000D03*
X33790000Y60960000D03*
X33790000Y63500000D03*
X33790000Y66040000D03*
X33790000Y68580000D03*
X33790000Y71120000D03*
%TD*%
D28*
%TO.C,J4*%
X33274000Y14026000D03*
D29*
X27974000Y16326000D03*
X30474000Y20026000D03*
%TD*%
M02*
