%TF.GenerationSoftware,KiCad,Pcbnew,(6.0.5)*%
%TF.CreationDate,2022-07-24T14:03:03-07:00*%
%TF.ProjectId,CLOCK,434c4f43-4b2e-46b6-9963-61645f706362,rev?*%
%TF.SameCoordinates,PX4c4db10PY8a50b10*%
%TF.FileFunction,Legend,Top*%
%TF.FilePolarity,Positive*%
%FSLAX46Y46*%
G04 Gerber Fmt 4.6, Leading zero omitted, Abs format (unit mm)*
G04 Created by KiCad (PCBNEW (6.0.5)) date 2022-07-24 14:03:03*
%MOMM*%
%LPD*%
G01*
G04 APERTURE LIST*
G04 Aperture macros list*
%AMRoundRect*
0 Rectangle with rounded corners*
0 $1 Rounding radius*
0 $2 $3 $4 $5 $6 $7 $8 $9 X,Y pos of 4 corners*
0 Add a 4 corners polygon primitive as box body*
4,1,4,$2,$3,$4,$5,$6,$7,$8,$9,$2,$3,0*
0 Add four circle primitives for the rounded corners*
1,1,$1+$1,$2,$3*
1,1,$1+$1,$4,$5*
1,1,$1+$1,$6,$7*
1,1,$1+$1,$8,$9*
0 Add four rect primitives between the rounded corners*
20,1,$1+$1,$2,$3,$4,$5,0*
20,1,$1+$1,$4,$5,$6,$7,0*
20,1,$1+$1,$6,$7,$8,$9,0*
20,1,$1+$1,$8,$9,$2,$3,0*%
G04 Aperture macros list end*
%ADD10C,0.266700*%
%ADD11C,0.150000*%
%ADD12C,0.304800*%
%ADD13C,0.533400*%
%ADD14C,0.210000*%
%ADD15C,0.120000*%
%ADD16R,1.400000X1.150000*%
%ADD17C,3.200000*%
%ADD18R,1.150000X1.400000*%
%ADD19C,1.524000*%
%ADD20C,2.000000*%
%ADD21R,4.500000X2.000000*%
%ADD22R,1.600000X1.400000*%
%ADD23R,3.000000X3.000000*%
%ADD24C,3.000000*%
%ADD25R,1.600000X1.600000*%
%ADD26O,1.600000X1.600000*%
%ADD27R,1.700000X1.700000*%
%ADD28O,1.700000X1.700000*%
%ADD29R,1.800000X1.000000*%
%ADD30RoundRect,0.150000X-0.825000X-0.150000X0.825000X-0.150000X0.825000X0.150000X-0.825000X0.150000X0*%
%ADD31R,1.200000X2.200000*%
%ADD32R,5.800000X6.400000*%
%ADD33RoundRect,0.243750X0.456250X-0.243750X0.456250X0.243750X-0.456250X0.243750X-0.456250X-0.243750X0*%
%ADD34RoundRect,0.500000X-1.750000X-0.500000X1.750000X-0.500000X1.750000X0.500000X-1.750000X0.500000X0*%
%ADD35RoundRect,0.500000X0.500000X-1.500000X0.500000X1.500000X-0.500000X1.500000X-0.500000X-1.500000X0*%
G04 APERTURE END LIST*
D10*
X5270500Y20323024D02*
X6068785Y20323024D01*
X5669642Y18926024D02*
X5669642Y20323024D01*
X6534452Y18926024D02*
X6534452Y20323024D01*
X7199690Y18926024D02*
X7199690Y20323024D01*
X7665357Y19325167D01*
X8131023Y20323024D01*
X8131023Y18926024D01*
X8796261Y19657786D02*
X9261928Y19657786D01*
X9461500Y18926024D02*
X8796261Y18926024D01*
X8796261Y20323024D01*
X9461500Y20323024D01*
X11590261Y19657786D02*
X11789833Y19591262D01*
X11856357Y19524739D01*
X11922880Y19391691D01*
X11922880Y19192120D01*
X11856357Y19059072D01*
X11789833Y18992548D01*
X11656785Y18926024D01*
X11124595Y18926024D01*
X11124595Y20323024D01*
X11590261Y20323024D01*
X11723309Y20256500D01*
X11789833Y20189977D01*
X11856357Y20056929D01*
X11856357Y19923881D01*
X11789833Y19790834D01*
X11723309Y19724310D01*
X11590261Y19657786D01*
X11124595Y19657786D01*
X13319880Y18926024D02*
X12854214Y19591262D01*
X12521595Y18926024D02*
X12521595Y20323024D01*
X13053785Y20323024D01*
X13186833Y20256500D01*
X13253357Y20189977D01*
X13319880Y20056929D01*
X13319880Y19857358D01*
X13253357Y19724310D01*
X13186833Y19657786D01*
X13053785Y19591262D01*
X12521595Y19591262D01*
X13918595Y18926024D02*
X13918595Y20323024D01*
X14583833Y18926024D02*
X14583833Y20323024D01*
X15382119Y18926024D01*
X15382119Y20323024D01*
X16779119Y20256500D02*
X16646071Y20323024D01*
X16446500Y20323024D01*
X16246928Y20256500D01*
X16113880Y20123453D01*
X16047357Y19990405D01*
X15980833Y19724310D01*
X15980833Y19524739D01*
X16047357Y19258643D01*
X16113880Y19125596D01*
X16246928Y18992548D01*
X16446500Y18926024D01*
X16579547Y18926024D01*
X16779119Y18992548D01*
X16845642Y19059072D01*
X16845642Y19524739D01*
X16579547Y19524739D01*
X17377833Y18992548D02*
X17577404Y18926024D01*
X17910023Y18926024D01*
X18043071Y18992548D01*
X18109595Y19059072D01*
X18176119Y19192120D01*
X18176119Y19325167D01*
X18109595Y19458215D01*
X18043071Y19524739D01*
X17910023Y19591262D01*
X17643928Y19657786D01*
X17510880Y19724310D01*
X17444357Y19790834D01*
X17377833Y19923881D01*
X17377833Y20056929D01*
X17444357Y20189977D01*
X17510880Y20256500D01*
X17643928Y20323024D01*
X17976547Y20323024D01*
X18176119Y20256500D01*
X20304880Y19657786D02*
X19839214Y19657786D01*
X19839214Y18926024D02*
X19839214Y20323024D01*
X20504452Y20323024D01*
X21302738Y20323024D02*
X21568833Y20323024D01*
X21701880Y20256500D01*
X21834928Y20123453D01*
X21901452Y19857358D01*
X21901452Y19391691D01*
X21834928Y19125596D01*
X21701880Y18992548D01*
X21568833Y18926024D01*
X21302738Y18926024D01*
X21169690Y18992548D01*
X21036642Y19125596D01*
X20970119Y19391691D01*
X20970119Y19857358D01*
X21036642Y20123453D01*
X21169690Y20256500D01*
X21302738Y20323024D01*
X23298452Y19059072D02*
X23231928Y18992548D01*
X23032357Y18926024D01*
X22899309Y18926024D01*
X22699738Y18992548D01*
X22566690Y19125596D01*
X22500166Y19258643D01*
X22433642Y19524739D01*
X22433642Y19724310D01*
X22500166Y19990405D01*
X22566690Y20123453D01*
X22699738Y20256500D01*
X22899309Y20323024D01*
X23032357Y20323024D01*
X23231928Y20256500D01*
X23298452Y20189977D01*
X23897166Y20323024D02*
X23897166Y19192120D01*
X23963690Y19059072D01*
X24030214Y18992548D01*
X24163261Y18926024D01*
X24429357Y18926024D01*
X24562404Y18992548D01*
X24628928Y19059072D01*
X24695452Y19192120D01*
X24695452Y20323024D01*
X25294166Y18992548D02*
X25493738Y18926024D01*
X25826357Y18926024D01*
X25959404Y18992548D01*
X26025928Y19059072D01*
X26092452Y19192120D01*
X26092452Y19325167D01*
X26025928Y19458215D01*
X25959404Y19524739D01*
X25826357Y19591262D01*
X25560261Y19657786D01*
X25427214Y19724310D01*
X25360690Y19790834D01*
X25294166Y19923881D01*
X25294166Y20056929D01*
X25360690Y20189977D01*
X25427214Y20256500D01*
X25560261Y20323024D01*
X25892880Y20323024D01*
X26092452Y20256500D01*
D11*
X82952166Y8805334D02*
X82063166Y8805334D01*
X82063166Y9144000D01*
X82105500Y9228667D01*
X82147833Y9271000D01*
X82232500Y9313334D01*
X82359500Y9313334D01*
X82444166Y9271000D01*
X82486500Y9228667D01*
X82528833Y9144000D01*
X82528833Y8805334D01*
X82867500Y10202334D02*
X82909833Y10160000D01*
X82952166Y10033000D01*
X82952166Y9948334D01*
X82909833Y9821334D01*
X82825166Y9736667D01*
X82740500Y9694334D01*
X82571166Y9652000D01*
X82444166Y9652000D01*
X82274833Y9694334D01*
X82190166Y9736667D01*
X82105500Y9821334D01*
X82063166Y9948334D01*
X82063166Y10033000D01*
X82105500Y10160000D01*
X82147833Y10202334D01*
X82952166Y11049000D02*
X82952166Y10541000D01*
X82952166Y10795000D02*
X82063166Y10795000D01*
X82190166Y10710334D01*
X82274833Y10625667D01*
X82317166Y10541000D01*
X73808166Y8805334D02*
X72919166Y8805334D01*
X72919166Y9144000D01*
X72961500Y9228667D01*
X73003833Y9271000D01*
X73088500Y9313334D01*
X73215500Y9313334D01*
X73300166Y9271000D01*
X73342500Y9228667D01*
X73384833Y9144000D01*
X73384833Y8805334D01*
X73808166Y9694334D02*
X72919166Y9694334D01*
X72919166Y9906000D01*
X72961500Y10033000D01*
X73046166Y10117667D01*
X73130833Y10160000D01*
X73300166Y10202334D01*
X73427166Y10202334D01*
X73596500Y10160000D01*
X73681166Y10117667D01*
X73765833Y10033000D01*
X73808166Y9906000D01*
X73808166Y9694334D01*
X72919166Y10498667D02*
X72919166Y11091334D01*
X73808166Y10710334D01*
D12*
X8040914Y28054300D02*
X7874000Y28137758D01*
X7623628Y28137758D01*
X7373257Y28054300D01*
X7206342Y27887386D01*
X7122885Y27720472D01*
X7039428Y27386643D01*
X7039428Y27136272D01*
X7122885Y26802443D01*
X7206342Y26635529D01*
X7373257Y26468615D01*
X7623628Y26385158D01*
X7790542Y26385158D01*
X8040914Y26468615D01*
X8124371Y26552072D01*
X8124371Y27136272D01*
X7790542Y27136272D01*
X9209314Y28137758D02*
X9543142Y28137758D01*
X9710057Y28054300D01*
X9876971Y27887386D01*
X9960428Y27553558D01*
X9960428Y26969358D01*
X9876971Y26635529D01*
X9710057Y26468615D01*
X9543142Y26385158D01*
X9209314Y26385158D01*
X9042400Y26468615D01*
X8875485Y26635529D01*
X8792028Y26969358D01*
X8792028Y27553558D01*
X8875485Y27887386D01*
X9042400Y28054300D01*
X9209314Y28137758D01*
X11045371Y28137758D02*
X11379200Y28137758D01*
X11546114Y28054300D01*
X11713028Y27887386D01*
X11796485Y27553558D01*
X11796485Y26969358D01*
X11713028Y26635529D01*
X11546114Y26468615D01*
X11379200Y26385158D01*
X11045371Y26385158D01*
X10878457Y26468615D01*
X10711542Y26635529D01*
X10628085Y26969358D01*
X10628085Y27553558D01*
X10711542Y27887386D01*
X10878457Y28054300D01*
X11045371Y28137758D01*
X13465628Y28054300D02*
X13298714Y28137758D01*
X13048342Y28137758D01*
X12797971Y28054300D01*
X12631057Y27887386D01*
X12547600Y27720472D01*
X12464142Y27386643D01*
X12464142Y27136272D01*
X12547600Y26802443D01*
X12631057Y26635529D01*
X12797971Y26468615D01*
X13048342Y26385158D01*
X13215257Y26385158D01*
X13465628Y26468615D01*
X13549085Y26552072D01*
X13549085Y27136272D01*
X13215257Y27136272D01*
X15134771Y26385158D02*
X14300200Y26385158D01*
X14300200Y28137758D01*
X15718971Y27303186D02*
X16303171Y27303186D01*
X16553542Y26385158D02*
X15718971Y26385158D01*
X15718971Y28137758D01*
X16553542Y28137758D01*
X18639971Y26385158D02*
X18639971Y28137758D01*
X18639971Y27303186D02*
X19641457Y27303186D01*
X19641457Y26385158D02*
X19641457Y28137758D01*
X20392571Y26885900D02*
X21227142Y26885900D01*
X20225657Y26385158D02*
X20809857Y28137758D01*
X21394057Y26385158D01*
X22979742Y26385158D02*
X22395542Y27219729D01*
X21978257Y26385158D02*
X21978257Y28137758D01*
X22645914Y28137758D01*
X22812828Y28054300D01*
X22896285Y27970843D01*
X22979742Y27803929D01*
X22979742Y27553558D01*
X22896285Y27386643D01*
X22812828Y27303186D01*
X22645914Y27219729D01*
X21978257Y27219729D01*
X23730857Y26385158D02*
X23730857Y28137758D01*
X24148142Y28137758D01*
X24398514Y28054300D01*
X24565428Y27887386D01*
X24648885Y27720472D01*
X24732342Y27386643D01*
X24732342Y27136272D01*
X24648885Y26802443D01*
X24565428Y26635529D01*
X24398514Y26468615D01*
X24148142Y26385158D01*
X23730857Y26385158D01*
X25316542Y28137758D02*
X25733828Y26385158D01*
X26067657Y27637015D01*
X26401485Y26385158D01*
X26818771Y28137758D01*
X27402971Y26885900D02*
X28237542Y26885900D01*
X27236057Y26385158D02*
X27820257Y28137758D01*
X28404457Y26385158D01*
X29990142Y26385158D02*
X29405942Y27219729D01*
X28988657Y26385158D02*
X28988657Y28137758D01*
X29656314Y28137758D01*
X29823228Y28054300D01*
X29906685Y27970843D01*
X29990142Y27803929D01*
X29990142Y27553558D01*
X29906685Y27386643D01*
X29823228Y27303186D01*
X29656314Y27219729D01*
X28988657Y27219729D01*
X30741257Y27303186D02*
X31325457Y27303186D01*
X31575828Y26385158D02*
X30741257Y26385158D01*
X30741257Y28137758D01*
X31575828Y28137758D01*
X33662257Y26385158D02*
X33662257Y28137758D01*
X34329914Y28137758D01*
X34496828Y28054300D01*
X34580285Y27970843D01*
X34663742Y27803929D01*
X34663742Y27553558D01*
X34580285Y27386643D01*
X34496828Y27303186D01*
X34329914Y27219729D01*
X33662257Y27219729D01*
X36416342Y26385158D02*
X35832142Y27219729D01*
X35414857Y26385158D02*
X35414857Y28137758D01*
X36082514Y28137758D01*
X36249428Y28054300D01*
X36332885Y27970843D01*
X36416342Y27803929D01*
X36416342Y27553558D01*
X36332885Y27386643D01*
X36249428Y27303186D01*
X36082514Y27219729D01*
X35414857Y27219729D01*
X37501285Y28137758D02*
X37835114Y28137758D01*
X38002028Y28054300D01*
X38168942Y27887386D01*
X38252400Y27553558D01*
X38252400Y26969358D01*
X38168942Y26635529D01*
X38002028Y26468615D01*
X37835114Y26385158D01*
X37501285Y26385158D01*
X37334371Y26468615D01*
X37167457Y26635529D01*
X37084000Y26969358D01*
X37084000Y27553558D01*
X37167457Y27887386D01*
X37334371Y28054300D01*
X37501285Y28137758D01*
X39003514Y26385158D02*
X39003514Y28137758D01*
X39420800Y28137758D01*
X39671171Y28054300D01*
X39838085Y27887386D01*
X39921542Y27720472D01*
X40005000Y27386643D01*
X40005000Y27136272D01*
X39921542Y26802443D01*
X39838085Y26635529D01*
X39671171Y26468615D01*
X39420800Y26385158D01*
X39003514Y26385158D01*
X40756114Y28137758D02*
X40756114Y26718986D01*
X40839571Y26552072D01*
X40923028Y26468615D01*
X41089942Y26385158D01*
X41423771Y26385158D01*
X41590685Y26468615D01*
X41674142Y26552072D01*
X41757600Y26718986D01*
X41757600Y28137758D01*
X43593657Y26552072D02*
X43510200Y26468615D01*
X43259828Y26385158D01*
X43092914Y26385158D01*
X42842542Y26468615D01*
X42675628Y26635529D01*
X42592171Y26802443D01*
X42508714Y27136272D01*
X42508714Y27386643D01*
X42592171Y27720472D01*
X42675628Y27887386D01*
X42842542Y28054300D01*
X43092914Y28137758D01*
X43259828Y28137758D01*
X43510200Y28054300D01*
X43593657Y27970843D01*
X44094400Y28137758D02*
X45095885Y28137758D01*
X44595142Y26385158D02*
X44595142Y28137758D01*
X46931942Y26468615D02*
X47182314Y26385158D01*
X47599600Y26385158D01*
X47766514Y26468615D01*
X47849971Y26552072D01*
X47933428Y26718986D01*
X47933428Y26885900D01*
X47849971Y27052815D01*
X47766514Y27136272D01*
X47599600Y27219729D01*
X47265771Y27303186D01*
X47098857Y27386643D01*
X47015400Y27470100D01*
X46931942Y27637015D01*
X46931942Y27803929D01*
X47015400Y27970843D01*
X47098857Y28054300D01*
X47265771Y28137758D01*
X47683057Y28137758D01*
X47933428Y28054300D01*
X48684542Y26385158D02*
X48684542Y28137758D01*
X49352200Y28137758D01*
X49519114Y28054300D01*
X49602571Y27970843D01*
X49686028Y27803929D01*
X49686028Y27553558D01*
X49602571Y27386643D01*
X49519114Y27303186D01*
X49352200Y27219729D01*
X48684542Y27219729D01*
X51438628Y26385158D02*
X50854428Y27219729D01*
X50437142Y26385158D02*
X50437142Y28137758D01*
X51104800Y28137758D01*
X51271714Y28054300D01*
X51355171Y27970843D01*
X51438628Y27803929D01*
X51438628Y27553558D01*
X51355171Y27386643D01*
X51271714Y27303186D01*
X51104800Y27219729D01*
X50437142Y27219729D01*
X52189742Y26385158D02*
X52189742Y28137758D01*
X53024314Y26385158D02*
X53024314Y28137758D01*
X54025799Y26385158D01*
X54025799Y28137758D01*
X54610000Y28137758D02*
X55611485Y28137758D01*
X55110742Y26385158D02*
X55110742Y28137758D01*
X21082000Y24581758D02*
X21082000Y24164472D01*
X20664714Y24331386D02*
X21082000Y24164472D01*
X21499285Y24331386D01*
X20831628Y23830643D02*
X21082000Y24164472D01*
X21332371Y23830643D01*
X34752642Y23337158D02*
X34752642Y25089758D01*
X35169928Y25089758D01*
X35420300Y25006300D01*
X35587214Y24839386D01*
X35670671Y24672472D01*
X35754128Y24338643D01*
X35754128Y24088272D01*
X35670671Y23754443D01*
X35587214Y23587529D01*
X35420300Y23420615D01*
X35169928Y23337158D01*
X34752642Y23337158D01*
X36505242Y24255186D02*
X37089442Y24255186D01*
X37339814Y23337158D02*
X36505242Y23337158D01*
X36505242Y25089758D01*
X37339814Y25089758D01*
X39092414Y23504072D02*
X39008957Y23420615D01*
X38758585Y23337158D01*
X38591671Y23337158D01*
X38341300Y23420615D01*
X38174385Y23587529D01*
X38090928Y23754443D01*
X38007471Y24088272D01*
X38007471Y24338643D01*
X38090928Y24672472D01*
X38174385Y24839386D01*
X38341300Y25006300D01*
X38591671Y25089758D01*
X38758585Y25089758D01*
X39008957Y25006300D01*
X39092414Y24922843D01*
X39843528Y23337158D02*
X39843528Y25089758D01*
X40594642Y23420615D02*
X40845014Y23337158D01*
X41262300Y23337158D01*
X41429214Y23420615D01*
X41512671Y23504072D01*
X41596128Y23670986D01*
X41596128Y23837900D01*
X41512671Y24004815D01*
X41429214Y24088272D01*
X41262300Y24171729D01*
X40928471Y24255186D01*
X40761557Y24338643D01*
X40678100Y24422100D01*
X40594642Y24589015D01*
X40594642Y24755929D01*
X40678100Y24922843D01*
X40761557Y25006300D01*
X40928471Y25089758D01*
X41345757Y25089758D01*
X41596128Y25006300D01*
X42347242Y23337158D02*
X42347242Y25089758D01*
X43515642Y25089758D02*
X43849471Y25089758D01*
X44016385Y25006300D01*
X44183300Y24839386D01*
X44266757Y24505558D01*
X44266757Y23921358D01*
X44183300Y23587529D01*
X44016385Y23420615D01*
X43849471Y23337158D01*
X43515642Y23337158D01*
X43348728Y23420615D01*
X43181814Y23587529D01*
X43098357Y23921358D01*
X43098357Y24505558D01*
X43181814Y24839386D01*
X43348728Y25006300D01*
X43515642Y25089758D01*
X45017871Y23337158D02*
X45017871Y25089758D01*
X46019357Y23337158D01*
X46019357Y25089758D01*
D11*
X77872166Y8805334D02*
X76983166Y8805334D01*
X76983166Y9144000D01*
X77025500Y9228667D01*
X77067833Y9271000D01*
X77152500Y9313334D01*
X77279500Y9313334D01*
X77364166Y9271000D01*
X77406500Y9228667D01*
X77448833Y9144000D01*
X77448833Y8805334D01*
X77872166Y9694334D02*
X76983166Y9694334D01*
X76983166Y9906000D01*
X77025500Y10033000D01*
X77110166Y10117667D01*
X77194833Y10160000D01*
X77364166Y10202334D01*
X77491166Y10202334D01*
X77660500Y10160000D01*
X77745166Y10117667D01*
X77829833Y10033000D01*
X77872166Y9906000D01*
X77872166Y9694334D01*
X76983166Y10964334D02*
X76983166Y10795000D01*
X77025500Y10710334D01*
X77067833Y10668000D01*
X77194833Y10583334D01*
X77364166Y10541000D01*
X77702833Y10541000D01*
X77787500Y10583334D01*
X77829833Y10625667D01*
X77872166Y10710334D01*
X77872166Y10879667D01*
X77829833Y10964334D01*
X77787500Y11006667D01*
X77702833Y11049000D01*
X77491166Y11049000D01*
X77406500Y11006667D01*
X77364166Y10964334D01*
X77321833Y10879667D01*
X77321833Y10710334D01*
X77364166Y10625667D01*
X77406500Y10583334D01*
X77491166Y10541000D01*
X70379166Y8720667D02*
X71268166Y9017000D01*
X70379166Y9313334D01*
X71183500Y10117667D02*
X71225833Y10075334D01*
X71268166Y9948334D01*
X71268166Y9863667D01*
X71225833Y9736667D01*
X71141166Y9652000D01*
X71056500Y9609667D01*
X70887166Y9567334D01*
X70760166Y9567334D01*
X70590833Y9609667D01*
X70506166Y9652000D01*
X70421500Y9736667D01*
X70379166Y9863667D01*
X70379166Y9948334D01*
X70421500Y10075334D01*
X70463833Y10117667D01*
X71183500Y11006667D02*
X71225833Y10964334D01*
X71268166Y10837334D01*
X71268166Y10752667D01*
X71225833Y10625667D01*
X71141166Y10541000D01*
X71056500Y10498667D01*
X70887166Y10456334D01*
X70760166Y10456334D01*
X70590833Y10498667D01*
X70506166Y10541000D01*
X70421500Y10625667D01*
X70379166Y10752667D01*
X70379166Y10837334D01*
X70421500Y10964334D01*
X70463833Y11006667D01*
D12*
X30273171Y29458558D02*
X28930600Y29458558D01*
X28930600Y32277958D01*
X32555542Y29458558D02*
X31212971Y29458558D01*
X31212971Y32277958D01*
X33092571Y32277958D02*
X34032371Y29458558D01*
X34972171Y32277958D01*
X33274000Y34233758D02*
X33274000Y33816472D01*
X32856714Y33983386D02*
X33274000Y33816472D01*
X33691285Y33983386D01*
X33023628Y33482643D02*
X33274000Y33816472D01*
X33524371Y33482643D01*
D11*
X67881500Y9228667D02*
X67839166Y9144000D01*
X67839166Y9017000D01*
X67881500Y8890000D01*
X67966166Y8805334D01*
X68050833Y8763000D01*
X68220166Y8720667D01*
X68347166Y8720667D01*
X68516500Y8763000D01*
X68601166Y8805334D01*
X68685833Y8890000D01*
X68728166Y9017000D01*
X68728166Y9101667D01*
X68685833Y9228667D01*
X68643500Y9271000D01*
X68347166Y9271000D01*
X68347166Y9101667D01*
X68728166Y9652000D02*
X67839166Y9652000D01*
X68728166Y10160000D01*
X67839166Y10160000D01*
X68728166Y10583334D02*
X67839166Y10583334D01*
X67839166Y10795000D01*
X67881500Y10922000D01*
X67966166Y11006667D01*
X68050833Y11049000D01*
X68220166Y11091334D01*
X68347166Y11091334D01*
X68516500Y11049000D01*
X68601166Y11006667D01*
X68685833Y10922000D01*
X68728166Y10795000D01*
X68728166Y10583334D01*
D12*
X30226000Y34233758D02*
X30226000Y33816472D01*
X29808714Y33983386D02*
X30226000Y33816472D01*
X30643285Y33983386D01*
X29975628Y33482643D02*
X30226000Y33816472D01*
X30476371Y33482643D01*
D11*
X85492166Y8805334D02*
X84603166Y8805334D01*
X84603166Y9144000D01*
X84645500Y9228667D01*
X84687833Y9271000D01*
X84772500Y9313334D01*
X84899500Y9313334D01*
X84984166Y9271000D01*
X85026500Y9228667D01*
X85068833Y9144000D01*
X85068833Y8805334D01*
X85407500Y10202334D02*
X85449833Y10160000D01*
X85492166Y10033000D01*
X85492166Y9948334D01*
X85449833Y9821334D01*
X85365166Y9736667D01*
X85280500Y9694334D01*
X85111166Y9652000D01*
X84984166Y9652000D01*
X84814833Y9694334D01*
X84730166Y9736667D01*
X84645500Y9821334D01*
X84603166Y9948334D01*
X84603166Y10033000D01*
X84645500Y10160000D01*
X84687833Y10202334D01*
X84687833Y10541000D02*
X84645500Y10583334D01*
X84603166Y10668000D01*
X84603166Y10879667D01*
X84645500Y10964334D01*
X84687833Y11006667D01*
X84772500Y11049000D01*
X84857166Y11049000D01*
X84984166Y11006667D01*
X85492166Y10498667D01*
X85492166Y11049000D01*
D12*
X31750000Y34233758D02*
X31750000Y33816472D01*
X31332714Y33983386D02*
X31750000Y33816472D01*
X32167285Y33983386D01*
X31499628Y33482643D02*
X31750000Y33816472D01*
X32000371Y33482643D01*
X17999528Y24255186D02*
X17415328Y24255186D01*
X17415328Y23337158D02*
X17415328Y25089758D01*
X18249900Y25089758D01*
X18917557Y24255186D02*
X19501757Y24255186D01*
X19752128Y23337158D02*
X18917557Y23337158D01*
X18917557Y25089758D01*
X19752128Y25089758D01*
D11*
X80412166Y8805334D02*
X79523166Y8805334D01*
X79523166Y9144000D01*
X79565500Y9228667D01*
X79607833Y9271000D01*
X79692500Y9313334D01*
X79819500Y9313334D01*
X79904166Y9271000D01*
X79946500Y9228667D01*
X79988833Y9144000D01*
X79988833Y8805334D01*
X80327500Y10202334D02*
X80369833Y10160000D01*
X80412166Y10033000D01*
X80412166Y9948334D01*
X80369833Y9821334D01*
X80285166Y9736667D01*
X80200500Y9694334D01*
X80031166Y9652000D01*
X79904166Y9652000D01*
X79734833Y9694334D01*
X79650166Y9736667D01*
X79565500Y9821334D01*
X79523166Y9948334D01*
X79523166Y10033000D01*
X79565500Y10160000D01*
X79607833Y10202334D01*
X79523166Y10752667D02*
X79523166Y10837334D01*
X79565500Y10922000D01*
X79607833Y10964334D01*
X79692500Y11006667D01*
X79861833Y11049000D01*
X80073500Y11049000D01*
X80242833Y11006667D01*
X80327500Y10964334D01*
X80369833Y10922000D01*
X80412166Y10837334D01*
X80412166Y10752667D01*
X80369833Y10668000D01*
X80327500Y10625667D01*
X80242833Y10583334D01*
X80073500Y10541000D01*
X79861833Y10541000D01*
X79692500Y10583334D01*
X79607833Y10625667D01*
X79565500Y10668000D01*
X79523166Y10752667D01*
X88032166Y8805334D02*
X87143166Y8805334D01*
X87143166Y9144000D01*
X87185500Y9228667D01*
X87227833Y9271000D01*
X87312500Y9313334D01*
X87439500Y9313334D01*
X87524166Y9271000D01*
X87566500Y9228667D01*
X87608833Y9144000D01*
X87608833Y8805334D01*
X87947500Y10202334D02*
X87989833Y10160000D01*
X88032166Y10033000D01*
X88032166Y9948334D01*
X87989833Y9821334D01*
X87905166Y9736667D01*
X87820500Y9694334D01*
X87651166Y9652000D01*
X87524166Y9652000D01*
X87354833Y9694334D01*
X87270166Y9736667D01*
X87185500Y9821334D01*
X87143166Y9948334D01*
X87143166Y10033000D01*
X87185500Y10160000D01*
X87227833Y10202334D01*
X87143166Y10498667D02*
X87143166Y11049000D01*
X87481833Y10752667D01*
X87481833Y10879667D01*
X87524166Y10964334D01*
X87566500Y11006667D01*
X87651166Y11049000D01*
X87862833Y11049000D01*
X87947500Y11006667D01*
X87989833Y10964334D01*
X88032166Y10879667D01*
X88032166Y10625667D01*
X87989833Y10541000D01*
X87947500Y10498667D01*
D13*
X66358076Y83604705D02*
X66522571Y83769200D01*
X66851561Y83933696D01*
X67674038Y83933696D01*
X68003028Y83769200D01*
X68167523Y83604705D01*
X68332019Y83275715D01*
X68332019Y82946724D01*
X68167523Y82453239D01*
X66193580Y80479296D01*
X68332019Y80479296D01*
X71621923Y80479296D02*
X69647980Y80479296D01*
X70634952Y80479296D02*
X70634952Y83933696D01*
X70305961Y83440210D01*
X69976971Y83111220D01*
X69647980Y82946724D01*
D12*
X33274000Y24581758D02*
X33274000Y24164472D01*
X32856714Y24331386D02*
X33274000Y24164472D01*
X33691285Y24331386D01*
X33023628Y23830643D02*
X33274000Y24164472D01*
X33524371Y23830643D01*
X22462671Y23337158D02*
X22462671Y25089758D01*
X24131814Y23337158D02*
X23297242Y23337158D01*
X23297242Y25089758D01*
X24716014Y25089758D02*
X24716014Y23670986D01*
X24799471Y23504072D01*
X24882928Y23420615D01*
X25049842Y23337158D01*
X25383671Y23337158D01*
X25550585Y23420615D01*
X25634042Y23504072D01*
X25717500Y23670986D01*
X25717500Y25089758D01*
X26468614Y23420615D02*
X26718985Y23337158D01*
X27136271Y23337158D01*
X27303185Y23420615D01*
X27386642Y23504072D01*
X27470100Y23670986D01*
X27470100Y23837900D01*
X27386642Y24004815D01*
X27303185Y24088272D01*
X27136271Y24171729D01*
X26802442Y24255186D01*
X26635528Y24338643D01*
X26552071Y24422100D01*
X26468614Y24589015D01*
X26468614Y24755929D01*
X26552071Y24922843D01*
X26635528Y25006300D01*
X26802442Y25089758D01*
X27219728Y25089758D01*
X27470100Y25006300D01*
X28221214Y23337158D02*
X28221214Y25089758D01*
X29389614Y25089758D02*
X29723442Y25089758D01*
X29890357Y25006300D01*
X30057271Y24839386D01*
X30140728Y24505558D01*
X30140728Y23921358D01*
X30057271Y23587529D01*
X29890357Y23420615D01*
X29723442Y23337158D01*
X29389614Y23337158D01*
X29222700Y23420615D01*
X29055785Y23587529D01*
X28972328Y23921358D01*
X28972328Y24505558D01*
X29055785Y24839386D01*
X29222700Y25006300D01*
X29389614Y25089758D01*
X30891842Y23337158D02*
X30891842Y25089758D01*
X31893328Y23337158D01*
X31893328Y25089758D01*
D11*
%TO.C,C9*%
X10517142Y6945334D02*
X10564761Y6897715D01*
X10612380Y6754858D01*
X10612380Y6659620D01*
X10564761Y6516762D01*
X10469523Y6421524D01*
X10374285Y6373905D01*
X10183809Y6326286D01*
X10040952Y6326286D01*
X9850476Y6373905D01*
X9755238Y6421524D01*
X9660000Y6516762D01*
X9612380Y6659620D01*
X9612380Y6754858D01*
X9660000Y6897715D01*
X9707619Y6945334D01*
X10612380Y7421524D02*
X10612380Y7612000D01*
X10564761Y7707239D01*
X10517142Y7754858D01*
X10374285Y7850096D01*
X10183809Y7897715D01*
X9802857Y7897715D01*
X9707619Y7850096D01*
X9660000Y7802477D01*
X9612380Y7707239D01*
X9612380Y7516762D01*
X9660000Y7421524D01*
X9707619Y7373905D01*
X9802857Y7326286D01*
X10040952Y7326286D01*
X10136190Y7373905D01*
X10183809Y7421524D01*
X10231428Y7516762D01*
X10231428Y7707239D01*
X10183809Y7802477D01*
X10136190Y7850096D01*
X10040952Y7897715D01*
%TO.C,H4*%
X134228095Y8781620D02*
X134228095Y9781620D01*
X134228095Y9305429D02*
X134799523Y9305429D01*
X134799523Y8781620D02*
X134799523Y9781620D01*
X135704285Y9448286D02*
X135704285Y8781620D01*
X135466190Y9829239D02*
X135228095Y9114953D01*
X135847142Y9114953D01*
%TO.C,R6*%
X17867333Y31581620D02*
X17534000Y32057810D01*
X17295904Y31581620D02*
X17295904Y32581620D01*
X17676857Y32581620D01*
X17772095Y32534000D01*
X17819714Y32486381D01*
X17867333Y32391143D01*
X17867333Y32248286D01*
X17819714Y32153048D01*
X17772095Y32105429D01*
X17676857Y32057810D01*
X17295904Y32057810D01*
X18724476Y32581620D02*
X18534000Y32581620D01*
X18438761Y32534000D01*
X18391142Y32486381D01*
X18295904Y32343524D01*
X18248285Y32153048D01*
X18248285Y31772096D01*
X18295904Y31676858D01*
X18343523Y31629239D01*
X18438761Y31581620D01*
X18629238Y31581620D01*
X18724476Y31629239D01*
X18772095Y31676858D01*
X18819714Y31772096D01*
X18819714Y32010191D01*
X18772095Y32105429D01*
X18724476Y32153048D01*
X18629238Y32200667D01*
X18438761Y32200667D01*
X18343523Y32153048D01*
X18295904Y32105429D01*
X18248285Y32010191D01*
%TO.C,D2*%
X53151904Y74777620D02*
X53151904Y75777620D01*
X53390000Y75777620D01*
X53532857Y75730000D01*
X53628095Y75634762D01*
X53675714Y75539524D01*
X53723333Y75349048D01*
X53723333Y75206191D01*
X53675714Y75015715D01*
X53628095Y74920477D01*
X53532857Y74825239D01*
X53390000Y74777620D01*
X53151904Y74777620D01*
X54104285Y75682381D02*
X54151904Y75730000D01*
X54247142Y75777620D01*
X54485238Y75777620D01*
X54580476Y75730000D01*
X54628095Y75682381D01*
X54675714Y75587143D01*
X54675714Y75491905D01*
X54628095Y75349048D01*
X54056666Y74777620D01*
X54675714Y74777620D01*
X63699523Y70777620D02*
X63128095Y70777620D01*
X63413809Y70777620D02*
X63413809Y71777620D01*
X63318571Y71634762D01*
X63223333Y71539524D01*
X63128095Y71491905D01*
X64556666Y71777620D02*
X64366190Y71777620D01*
X64270952Y71730000D01*
X64223333Y71682381D01*
X64128095Y71539524D01*
X64080476Y71349048D01*
X64080476Y70968096D01*
X64128095Y70872858D01*
X64175714Y70825239D01*
X64270952Y70777620D01*
X64461428Y70777620D01*
X64556666Y70825239D01*
X64604285Y70872858D01*
X64651904Y70968096D01*
X64651904Y71206191D01*
X64604285Y71301429D01*
X64556666Y71349048D01*
X64461428Y71396667D01*
X64270952Y71396667D01*
X64175714Y71349048D01*
X64128095Y71301429D01*
X64080476Y71206191D01*
X43794761Y53349048D02*
X43699523Y53396667D01*
X43651904Y53444286D01*
X43604285Y53539524D01*
X43604285Y53587143D01*
X43651904Y53682381D01*
X43699523Y53730000D01*
X43794761Y53777620D01*
X43985238Y53777620D01*
X44080476Y53730000D01*
X44128095Y53682381D01*
X44175714Y53587143D01*
X44175714Y53539524D01*
X44128095Y53444286D01*
X44080476Y53396667D01*
X43985238Y53349048D01*
X43794761Y53349048D01*
X43699523Y53301429D01*
X43651904Y53253810D01*
X43604285Y53158572D01*
X43604285Y52968096D01*
X43651904Y52872858D01*
X43699523Y52825239D01*
X43794761Y52777620D01*
X43985238Y52777620D01*
X44080476Y52825239D01*
X44128095Y52872858D01*
X44175714Y52968096D01*
X44175714Y53158572D01*
X44128095Y53253810D01*
X44080476Y53301429D01*
X43985238Y53349048D01*
X44175714Y70777620D02*
X43604285Y70777620D01*
X43890000Y70777620D02*
X43890000Y71777620D01*
X43794761Y71634762D01*
X43699523Y71539524D01*
X43604285Y71491905D01*
X63699523Y52777620D02*
X63890000Y52777620D01*
X63985238Y52825239D01*
X64032857Y52872858D01*
X64128095Y53015715D01*
X64175714Y53206191D01*
X64175714Y53587143D01*
X64128095Y53682381D01*
X64080476Y53730000D01*
X63985238Y53777620D01*
X63794761Y53777620D01*
X63699523Y53730000D01*
X63651904Y53682381D01*
X63604285Y53587143D01*
X63604285Y53349048D01*
X63651904Y53253810D01*
X63699523Y53206191D01*
X63794761Y53158572D01*
X63985238Y53158572D01*
X64080476Y53206191D01*
X64128095Y53253810D01*
X64175714Y53349048D01*
%TO.C,GND*%
X45466095Y8593989D02*
X45370857Y8641609D01*
X45228000Y8641609D01*
X45085142Y8593989D01*
X44989904Y8498751D01*
X44942285Y8403513D01*
X44894666Y8213037D01*
X44894666Y8070180D01*
X44942285Y7879704D01*
X44989904Y7784466D01*
X45085142Y7689228D01*
X45228000Y7641609D01*
X45323238Y7641609D01*
X45466095Y7689228D01*
X45513714Y7736847D01*
X45513714Y8070180D01*
X45323238Y8070180D01*
X45942285Y7641609D02*
X45942285Y8641609D01*
X46513714Y7641609D01*
X46513714Y8641609D01*
X46989904Y7641609D02*
X46989904Y8641609D01*
X47228000Y8641609D01*
X47370857Y8593989D01*
X47466095Y8498751D01*
X47513714Y8403513D01*
X47561333Y8213037D01*
X47561333Y8070180D01*
X47513714Y7879704D01*
X47466095Y7784466D01*
X47370857Y7689228D01*
X47228000Y7641609D01*
X46989904Y7641609D01*
%TO.C,Y1*%
X69373809Y31767810D02*
X69373809Y31291620D01*
X69040476Y32291620D02*
X69373809Y31767810D01*
X69707142Y32291620D01*
X70564285Y31291620D02*
X69992857Y31291620D01*
X70278571Y31291620D02*
X70278571Y32291620D01*
X70183333Y32148762D01*
X70088095Y32053524D01*
X69992857Y32005905D01*
%TO.C,R14*%
X47871142Y84129620D02*
X47537809Y84605810D01*
X47299714Y84129620D02*
X47299714Y85129620D01*
X47680666Y85129620D01*
X47775904Y85082000D01*
X47823523Y85034381D01*
X47871142Y84939143D01*
X47871142Y84796286D01*
X47823523Y84701048D01*
X47775904Y84653429D01*
X47680666Y84605810D01*
X47299714Y84605810D01*
X48823523Y84129620D02*
X48252095Y84129620D01*
X48537809Y84129620D02*
X48537809Y85129620D01*
X48442571Y84986762D01*
X48347333Y84891524D01*
X48252095Y84843905D01*
X49680666Y84796286D02*
X49680666Y84129620D01*
X49442571Y85177239D02*
X49204476Y84462953D01*
X49823523Y84462953D01*
D14*
%TO.C,UP*%
X50600380Y81256286D02*
X51409904Y81256286D01*
X51505142Y81303905D01*
X51552761Y81351524D01*
X51600380Y81446762D01*
X51600380Y81637239D01*
X51552761Y81732477D01*
X51505142Y81780096D01*
X51409904Y81827715D01*
X50600380Y81827715D01*
X51600380Y82303905D02*
X50600380Y82303905D01*
X50600380Y82684858D01*
X50648000Y82780096D01*
X50695619Y82827715D01*
X50790857Y82875334D01*
X50933714Y82875334D01*
X51028952Y82827715D01*
X51076571Y82780096D01*
X51124190Y82684858D01*
X51124190Y82303905D01*
D11*
%TO.C,C5*%
X59523333Y26186858D02*
X59475714Y26139239D01*
X59332857Y26091620D01*
X59237619Y26091620D01*
X59094761Y26139239D01*
X58999523Y26234477D01*
X58951904Y26329715D01*
X58904285Y26520191D01*
X58904285Y26663048D01*
X58951904Y26853524D01*
X58999523Y26948762D01*
X59094761Y27044000D01*
X59237619Y27091620D01*
X59332857Y27091620D01*
X59475714Y27044000D01*
X59523333Y26996381D01*
X60428095Y27091620D02*
X59951904Y27091620D01*
X59904285Y26615429D01*
X59951904Y26663048D01*
X60047142Y26710667D01*
X60285238Y26710667D01*
X60380476Y26663048D01*
X60428095Y26615429D01*
X60475714Y26520191D01*
X60475714Y26282096D01*
X60428095Y26186858D01*
X60380476Y26139239D01*
X60285238Y26091620D01*
X60047142Y26091620D01*
X59951904Y26139239D01*
X59904285Y26186858D01*
%TO.C,C12*%
X75795142Y33051143D02*
X75842761Y33003524D01*
X75890380Y32860667D01*
X75890380Y32765429D01*
X75842761Y32622572D01*
X75747523Y32527334D01*
X75652285Y32479715D01*
X75461809Y32432096D01*
X75318952Y32432096D01*
X75128476Y32479715D01*
X75033238Y32527334D01*
X74938000Y32622572D01*
X74890380Y32765429D01*
X74890380Y32860667D01*
X74938000Y33003524D01*
X74985619Y33051143D01*
X75890380Y34003524D02*
X75890380Y33432096D01*
X75890380Y33717810D02*
X74890380Y33717810D01*
X75033238Y33622572D01*
X75128476Y33527334D01*
X75176095Y33432096D01*
X74985619Y34384477D02*
X74938000Y34432096D01*
X74890380Y34527334D01*
X74890380Y34765429D01*
X74938000Y34860667D01*
X74985619Y34908286D01*
X75080857Y34955905D01*
X75176095Y34955905D01*
X75318952Y34908286D01*
X75890380Y34336858D01*
X75890380Y34955905D01*
%TO.C,BT1*%
X119888588Y4638600D02*
X119936207Y4781457D01*
X119983826Y4829076D01*
X120079064Y4876695D01*
X120221921Y4876695D01*
X120317159Y4829076D01*
X120364778Y4781457D01*
X120412397Y4686219D01*
X120412397Y4305267D01*
X119412397Y4305267D01*
X119412397Y4638600D01*
X119460017Y4733838D01*
X119507636Y4781457D01*
X119602874Y4829076D01*
X119698112Y4829076D01*
X119793350Y4781457D01*
X119840969Y4733838D01*
X119888588Y4638600D01*
X119888588Y4305267D01*
X119412397Y5162410D02*
X119412397Y5733838D01*
X120412397Y5448124D02*
X119412397Y5448124D01*
X120412397Y6590981D02*
X120412397Y6019553D01*
X120412397Y6305267D02*
X119412397Y6305267D01*
X119555255Y6210029D01*
X119650493Y6114791D01*
X119698112Y6019553D01*
X124567159Y8852886D02*
X124567159Y9995743D01*
X125138588Y9424314D02*
X123995731Y9424314D01*
%TO.C,DATA*%
X98322000Y31771609D02*
X98322000Y32771609D01*
X98560095Y32771609D01*
X98702952Y32723989D01*
X98798190Y32628751D01*
X98845809Y32533513D01*
X98893428Y32343037D01*
X98893428Y32200180D01*
X98845809Y32009704D01*
X98798190Y31914466D01*
X98702952Y31819228D01*
X98560095Y31771609D01*
X98322000Y31771609D01*
X99274380Y32057323D02*
X99750571Y32057323D01*
X99179142Y31771609D02*
X99512476Y32771609D01*
X99845809Y31771609D01*
X100036285Y32771609D02*
X100607714Y32771609D01*
X100322000Y31771609D02*
X100322000Y32771609D01*
X100893428Y32057323D02*
X101369619Y32057323D01*
X100798190Y31771609D02*
X101131523Y32771609D01*
X101464857Y31771609D01*
%TO.C,C13*%
X82399142Y33051143D02*
X82446761Y33003524D01*
X82494380Y32860667D01*
X82494380Y32765429D01*
X82446761Y32622572D01*
X82351523Y32527334D01*
X82256285Y32479715D01*
X82065809Y32432096D01*
X81922952Y32432096D01*
X81732476Y32479715D01*
X81637238Y32527334D01*
X81542000Y32622572D01*
X81494380Y32765429D01*
X81494380Y32860667D01*
X81542000Y33003524D01*
X81589619Y33051143D01*
X82494380Y34003524D02*
X82494380Y33432096D01*
X82494380Y33717810D02*
X81494380Y33717810D01*
X81637238Y33622572D01*
X81732476Y33527334D01*
X81780095Y33432096D01*
X81494380Y34336858D02*
X81494380Y34955905D01*
X81875333Y34622572D01*
X81875333Y34765429D01*
X81922952Y34860667D01*
X81970571Y34908286D01*
X82065809Y34955905D01*
X82303904Y34955905D01*
X82399142Y34908286D01*
X82446761Y34860667D01*
X82494380Y34765429D01*
X82494380Y34479715D01*
X82446761Y34384477D01*
X82399142Y34336858D01*
%TO.C,D3*%
X85251904Y74777620D02*
X85251904Y75777620D01*
X85490000Y75777620D01*
X85632857Y75730000D01*
X85728095Y75634762D01*
X85775714Y75539524D01*
X85823333Y75349048D01*
X85823333Y75206191D01*
X85775714Y75015715D01*
X85728095Y74920477D01*
X85632857Y74825239D01*
X85490000Y74777620D01*
X85251904Y74777620D01*
X86156666Y75777620D02*
X86775714Y75777620D01*
X86442380Y75396667D01*
X86585238Y75396667D01*
X86680476Y75349048D01*
X86728095Y75301429D01*
X86775714Y75206191D01*
X86775714Y74968096D01*
X86728095Y74872858D01*
X86680476Y74825239D01*
X86585238Y74777620D01*
X86299523Y74777620D01*
X86204285Y74825239D01*
X86156666Y74872858D01*
X95799523Y70777620D02*
X95228095Y70777620D01*
X95513809Y70777620D02*
X95513809Y71777620D01*
X95418571Y71634762D01*
X95323333Y71539524D01*
X95228095Y71491905D01*
X96656666Y71777620D02*
X96466190Y71777620D01*
X96370952Y71730000D01*
X96323333Y71682381D01*
X96228095Y71539524D01*
X96180476Y71349048D01*
X96180476Y70968096D01*
X96228095Y70872858D01*
X96275714Y70825239D01*
X96370952Y70777620D01*
X96561428Y70777620D01*
X96656666Y70825239D01*
X96704285Y70872858D01*
X96751904Y70968096D01*
X96751904Y71206191D01*
X96704285Y71301429D01*
X96656666Y71349048D01*
X96561428Y71396667D01*
X96370952Y71396667D01*
X96275714Y71349048D01*
X96228095Y71301429D01*
X96180476Y71206191D01*
X75894761Y53349048D02*
X75799523Y53396667D01*
X75751904Y53444286D01*
X75704285Y53539524D01*
X75704285Y53587143D01*
X75751904Y53682381D01*
X75799523Y53730000D01*
X75894761Y53777620D01*
X76085238Y53777620D01*
X76180476Y53730000D01*
X76228095Y53682381D01*
X76275714Y53587143D01*
X76275714Y53539524D01*
X76228095Y53444286D01*
X76180476Y53396667D01*
X76085238Y53349048D01*
X75894761Y53349048D01*
X75799523Y53301429D01*
X75751904Y53253810D01*
X75704285Y53158572D01*
X75704285Y52968096D01*
X75751904Y52872858D01*
X75799523Y52825239D01*
X75894761Y52777620D01*
X76085238Y52777620D01*
X76180476Y52825239D01*
X76228095Y52872858D01*
X76275714Y52968096D01*
X76275714Y53158572D01*
X76228095Y53253810D01*
X76180476Y53301429D01*
X76085238Y53349048D01*
X95799523Y52777620D02*
X95990000Y52777620D01*
X96085238Y52825239D01*
X96132857Y52872858D01*
X96228095Y53015715D01*
X96275714Y53206191D01*
X96275714Y53587143D01*
X96228095Y53682381D01*
X96180476Y53730000D01*
X96085238Y53777620D01*
X95894761Y53777620D01*
X95799523Y53730000D01*
X95751904Y53682381D01*
X95704285Y53587143D01*
X95704285Y53349048D01*
X95751904Y53253810D01*
X95799523Y53206191D01*
X95894761Y53158572D01*
X96085238Y53158572D01*
X96180476Y53206191D01*
X96228095Y53253810D01*
X96275714Y53349048D01*
X76275714Y70777620D02*
X75704285Y70777620D01*
X75990000Y70777620D02*
X75990000Y71777620D01*
X75894761Y71634762D01*
X75799523Y71539524D01*
X75704285Y71491905D01*
%TO.C,C7*%
X15347142Y33107334D02*
X15394761Y33059715D01*
X15442380Y32916858D01*
X15442380Y32821620D01*
X15394761Y32678762D01*
X15299523Y32583524D01*
X15204285Y32535905D01*
X15013809Y32488286D01*
X14870952Y32488286D01*
X14680476Y32535905D01*
X14585238Y32583524D01*
X14490000Y32678762D01*
X14442380Y32821620D01*
X14442380Y32916858D01*
X14490000Y33059715D01*
X14537619Y33107334D01*
X14442380Y33440667D02*
X14442380Y34107334D01*
X15442380Y33678762D01*
%TO.C,CLK*%
X65698761Y32916858D02*
X65651142Y32869239D01*
X65508285Y32821620D01*
X65413047Y32821620D01*
X65270190Y32869239D01*
X65174952Y32964477D01*
X65127333Y33059715D01*
X65079714Y33250191D01*
X65079714Y33393048D01*
X65127333Y33583524D01*
X65174952Y33678762D01*
X65270190Y33774000D01*
X65413047Y33821620D01*
X65508285Y33821620D01*
X65651142Y33774000D01*
X65698761Y33726381D01*
X66603523Y32821620D02*
X66127333Y32821620D01*
X66127333Y33821620D01*
X66936857Y32821620D02*
X66936857Y33821620D01*
X67508285Y32821620D02*
X67079714Y33393048D01*
X67508285Y33821620D02*
X66936857Y33250191D01*
%TO.C,U6*%
X104638095Y8895620D02*
X104638095Y8086096D01*
X104685714Y7990858D01*
X104733333Y7943239D01*
X104828571Y7895620D01*
X105019047Y7895620D01*
X105114285Y7943239D01*
X105161904Y7990858D01*
X105209523Y8086096D01*
X105209523Y8895620D01*
X106114285Y8895620D02*
X105923809Y8895620D01*
X105828571Y8848000D01*
X105780952Y8800381D01*
X105685714Y8657524D01*
X105638095Y8467048D01*
X105638095Y8086096D01*
X105685714Y7990858D01*
X105733333Y7943239D01*
X105828571Y7895620D01*
X106019047Y7895620D01*
X106114285Y7943239D01*
X106161904Y7990858D01*
X106209523Y8086096D01*
X106209523Y8324191D01*
X106161904Y8419429D01*
X106114285Y8467048D01*
X106019047Y8514667D01*
X105828571Y8514667D01*
X105733333Y8467048D01*
X105685714Y8419429D01*
X105638095Y8324191D01*
%TO.C,SDA*%
X111307714Y29821239D02*
X111450571Y29773620D01*
X111688666Y29773620D01*
X111783904Y29821239D01*
X111831523Y29868858D01*
X111879142Y29964096D01*
X111879142Y30059334D01*
X111831523Y30154572D01*
X111783904Y30202191D01*
X111688666Y30249810D01*
X111498190Y30297429D01*
X111402952Y30345048D01*
X111355333Y30392667D01*
X111307714Y30487905D01*
X111307714Y30583143D01*
X111355333Y30678381D01*
X111402952Y30726000D01*
X111498190Y30773620D01*
X111736285Y30773620D01*
X111879142Y30726000D01*
X112307714Y29773620D02*
X112307714Y30773620D01*
X112545809Y30773620D01*
X112688666Y30726000D01*
X112783904Y30630762D01*
X112831523Y30535524D01*
X112879142Y30345048D01*
X112879142Y30202191D01*
X112831523Y30011715D01*
X112783904Y29916477D01*
X112688666Y29821239D01*
X112545809Y29773620D01*
X112307714Y29773620D01*
X113260095Y30059334D02*
X113736285Y30059334D01*
X113164857Y29773620D02*
X113498190Y30773620D01*
X113831523Y29773620D01*
%TO.C,J2*%
X83740666Y4611620D02*
X83740666Y3897334D01*
X83693047Y3754477D01*
X83597809Y3659239D01*
X83454952Y3611620D01*
X83359714Y3611620D01*
X84169238Y4516381D02*
X84216857Y4564000D01*
X84312095Y4611620D01*
X84550190Y4611620D01*
X84645428Y4564000D01*
X84693047Y4516381D01*
X84740666Y4421143D01*
X84740666Y4325905D01*
X84693047Y4183048D01*
X84121619Y3611620D01*
X84740666Y3611620D01*
%TO.C,U5*%
X69812380Y40142096D02*
X70621904Y40142096D01*
X70717142Y40189715D01*
X70764761Y40237334D01*
X70812380Y40332572D01*
X70812380Y40523048D01*
X70764761Y40618286D01*
X70717142Y40665905D01*
X70621904Y40713524D01*
X69812380Y40713524D01*
X69812380Y41665905D02*
X69812380Y41189715D01*
X70288571Y41142096D01*
X70240952Y41189715D01*
X70193333Y41284953D01*
X70193333Y41523048D01*
X70240952Y41618286D01*
X70288571Y41665905D01*
X70383809Y41713524D01*
X70621904Y41713524D01*
X70717142Y41665905D01*
X70764761Y41618286D01*
X70812380Y41523048D01*
X70812380Y41284953D01*
X70764761Y41189715D01*
X70717142Y41142096D01*
%TO.C,J5*%
X55292666Y4865620D02*
X55292666Y4151334D01*
X55245047Y4008477D01*
X55149809Y3913239D01*
X55006952Y3865620D01*
X54911714Y3865620D01*
X56245047Y4865620D02*
X55768857Y4865620D01*
X55721238Y4389429D01*
X55768857Y4437048D01*
X55864095Y4484667D01*
X56102190Y4484667D01*
X56197428Y4437048D01*
X56245047Y4389429D01*
X56292666Y4294191D01*
X56292666Y4056096D01*
X56245047Y3960858D01*
X56197428Y3913239D01*
X56102190Y3865620D01*
X55864095Y3865620D01*
X55768857Y3913239D01*
X55721238Y3960858D01*
%TO.C,C6*%
X8347142Y33107334D02*
X8394761Y33059715D01*
X8442380Y32916858D01*
X8442380Y32821620D01*
X8394761Y32678762D01*
X8299523Y32583524D01*
X8204285Y32535905D01*
X8013809Y32488286D01*
X7870952Y32488286D01*
X7680476Y32535905D01*
X7585238Y32583524D01*
X7490000Y32678762D01*
X7442380Y32821620D01*
X7442380Y32916858D01*
X7490000Y33059715D01*
X7537619Y33107334D01*
X7442380Y33964477D02*
X7442380Y33774000D01*
X7490000Y33678762D01*
X7537619Y33631143D01*
X7680476Y33535905D01*
X7870952Y33488286D01*
X8251904Y33488286D01*
X8347142Y33535905D01*
X8394761Y33583524D01*
X8442380Y33678762D01*
X8442380Y33869239D01*
X8394761Y33964477D01*
X8347142Y34012096D01*
X8251904Y34059715D01*
X8013809Y34059715D01*
X7918571Y34012096D01*
X7870952Y33964477D01*
X7823333Y33869239D01*
X7823333Y33678762D01*
X7870952Y33583524D01*
X7918571Y33535905D01*
X8013809Y33488286D01*
%TO.C,C10*%
X48871142Y33391143D02*
X48918761Y33343524D01*
X48966380Y33200667D01*
X48966380Y33105429D01*
X48918761Y32962572D01*
X48823523Y32867334D01*
X48728285Y32819715D01*
X48537809Y32772096D01*
X48394952Y32772096D01*
X48204476Y32819715D01*
X48109238Y32867334D01*
X48014000Y32962572D01*
X47966380Y33105429D01*
X47966380Y33200667D01*
X48014000Y33343524D01*
X48061619Y33391143D01*
X48966380Y34343524D02*
X48966380Y33772096D01*
X48966380Y34057810D02*
X47966380Y34057810D01*
X48109238Y33962572D01*
X48204476Y33867334D01*
X48252095Y33772096D01*
X47966380Y34962572D02*
X47966380Y35057810D01*
X48014000Y35153048D01*
X48061619Y35200667D01*
X48156857Y35248286D01*
X48347333Y35295905D01*
X48585428Y35295905D01*
X48775904Y35248286D01*
X48871142Y35200667D01*
X48918761Y35153048D01*
X48966380Y35057810D01*
X48966380Y34962572D01*
X48918761Y34867334D01*
X48871142Y34819715D01*
X48775904Y34772096D01*
X48585428Y34724477D01*
X48347333Y34724477D01*
X48156857Y34772096D01*
X48061619Y34819715D01*
X48014000Y34867334D01*
X47966380Y34962572D01*
%TO.C,Y2*%
X111791809Y8913810D02*
X111791809Y8437620D01*
X111458476Y9437620D02*
X111791809Y8913810D01*
X112125142Y9437620D01*
X112410857Y9342381D02*
X112458476Y9390000D01*
X112553714Y9437620D01*
X112791809Y9437620D01*
X112887047Y9390000D01*
X112934666Y9342381D01*
X112982285Y9247143D01*
X112982285Y9151905D01*
X112934666Y9009048D01*
X112363238Y8437620D01*
X112982285Y8437620D01*
%TO.C,R2*%
X90492380Y24367334D02*
X90016190Y24034000D01*
X90492380Y23795905D02*
X89492380Y23795905D01*
X89492380Y24176858D01*
X89540000Y24272096D01*
X89587619Y24319715D01*
X89682857Y24367334D01*
X89825714Y24367334D01*
X89920952Y24319715D01*
X89968571Y24272096D01*
X90016190Y24176858D01*
X90016190Y23795905D01*
X89587619Y24748286D02*
X89540000Y24795905D01*
X89492380Y24891143D01*
X89492380Y25129239D01*
X89540000Y25224477D01*
X89587619Y25272096D01*
X89682857Y25319715D01*
X89778095Y25319715D01*
X89920952Y25272096D01*
X90492380Y24700667D01*
X90492380Y25319715D01*
%TO.C,U7*%
X103797380Y40142096D02*
X104606904Y40142096D01*
X104702142Y40189715D01*
X104749761Y40237334D01*
X104797380Y40332572D01*
X104797380Y40523048D01*
X104749761Y40618286D01*
X104702142Y40665905D01*
X104606904Y40713524D01*
X103797380Y40713524D01*
X103797380Y41094477D02*
X103797380Y41761143D01*
X104797380Y41332572D01*
%TO.C,R7*%
X51903333Y32313620D02*
X51570000Y32789810D01*
X51331904Y32313620D02*
X51331904Y33313620D01*
X51712857Y33313620D01*
X51808095Y33266000D01*
X51855714Y33218381D01*
X51903333Y33123143D01*
X51903333Y32980286D01*
X51855714Y32885048D01*
X51808095Y32837429D01*
X51712857Y32789810D01*
X51331904Y32789810D01*
X52236666Y33313620D02*
X52903333Y33313620D01*
X52474761Y32313620D01*
%TO.C,VCC*%
X38798666Y8641609D02*
X39132000Y7641609D01*
X39465333Y8641609D01*
X40370095Y7736847D02*
X40322476Y7689228D01*
X40179619Y7641609D01*
X40084380Y7641609D01*
X39941523Y7689228D01*
X39846285Y7784466D01*
X39798666Y7879704D01*
X39751047Y8070180D01*
X39751047Y8213037D01*
X39798666Y8403513D01*
X39846285Y8498751D01*
X39941523Y8593989D01*
X40084380Y8641609D01*
X40179619Y8641609D01*
X40322476Y8593989D01*
X40370095Y8546370D01*
X41370095Y7736847D02*
X41322476Y7689228D01*
X41179619Y7641609D01*
X41084380Y7641609D01*
X40941523Y7689228D01*
X40846285Y7784466D01*
X40798666Y7879704D01*
X40751047Y8070180D01*
X40751047Y8213037D01*
X40798666Y8403513D01*
X40846285Y8498751D01*
X40941523Y8593989D01*
X41084380Y8641609D01*
X41179619Y8641609D01*
X41322476Y8593989D01*
X41370095Y8546370D01*
%TO.C,U1*%
X51522380Y18796096D02*
X52331904Y18796096D01*
X52427142Y18843715D01*
X52474761Y18891334D01*
X52522380Y18986572D01*
X52522380Y19177048D01*
X52474761Y19272286D01*
X52427142Y19319905D01*
X52331904Y19367524D01*
X51522380Y19367524D01*
X52522380Y20367524D02*
X52522380Y19796096D01*
X52522380Y20081810D02*
X51522380Y20081810D01*
X51665238Y19986572D01*
X51760476Y19891334D01*
X51808095Y19796096D01*
%TO.C,U8*%
X100584095Y28233620D02*
X100584095Y27424096D01*
X100631714Y27328858D01*
X100679333Y27281239D01*
X100774571Y27233620D01*
X100965047Y27233620D01*
X101060285Y27281239D01*
X101107904Y27328858D01*
X101155523Y27424096D01*
X101155523Y28233620D01*
X101774571Y27805048D02*
X101679333Y27852667D01*
X101631714Y27900286D01*
X101584095Y27995524D01*
X101584095Y28043143D01*
X101631714Y28138381D01*
X101679333Y28186000D01*
X101774571Y28233620D01*
X101965047Y28233620D01*
X102060285Y28186000D01*
X102107904Y28138381D01*
X102155523Y28043143D01*
X102155523Y27995524D01*
X102107904Y27900286D01*
X102060285Y27852667D01*
X101965047Y27805048D01*
X101774571Y27805048D01*
X101679333Y27757429D01*
X101631714Y27709810D01*
X101584095Y27614572D01*
X101584095Y27424096D01*
X101631714Y27328858D01*
X101679333Y27281239D01*
X101774571Y27233620D01*
X101965047Y27233620D01*
X102060285Y27281239D01*
X102107904Y27328858D01*
X102155523Y27424096D01*
X102155523Y27614572D01*
X102107904Y27709810D01*
X102060285Y27757429D01*
X101965047Y27805048D01*
%TO.C,R9*%
X61301333Y5731620D02*
X60968000Y6207810D01*
X60729904Y5731620D02*
X60729904Y6731620D01*
X61110857Y6731620D01*
X61206095Y6684000D01*
X61253714Y6636381D01*
X61301333Y6541143D01*
X61301333Y6398286D01*
X61253714Y6303048D01*
X61206095Y6255429D01*
X61110857Y6207810D01*
X60729904Y6207810D01*
X61777523Y5731620D02*
X61968000Y5731620D01*
X62063238Y5779239D01*
X62110857Y5826858D01*
X62206095Y5969715D01*
X62253714Y6160191D01*
X62253714Y6541143D01*
X62206095Y6636381D01*
X62158476Y6684000D01*
X62063238Y6731620D01*
X61872761Y6731620D01*
X61777523Y6684000D01*
X61729904Y6636381D01*
X61682285Y6541143D01*
X61682285Y6303048D01*
X61729904Y6207810D01*
X61777523Y6160191D01*
X61872761Y6112572D01*
X62063238Y6112572D01*
X62158476Y6160191D01*
X62206095Y6207810D01*
X62253714Y6303048D01*
%TO.C,U2*%
X2197380Y40142096D02*
X3006904Y40142096D01*
X3102142Y40189715D01*
X3149761Y40237334D01*
X3197380Y40332572D01*
X3197380Y40523048D01*
X3149761Y40618286D01*
X3102142Y40665905D01*
X3006904Y40713524D01*
X2197380Y40713524D01*
X2292619Y41142096D02*
X2245000Y41189715D01*
X2197380Y41284953D01*
X2197380Y41523048D01*
X2245000Y41618286D01*
X2292619Y41665905D01*
X2387857Y41713524D01*
X2483095Y41713524D01*
X2625952Y41665905D01*
X3197380Y41094477D01*
X3197380Y41713524D01*
%TO.C,R8*%
X84923333Y31805620D02*
X84590000Y32281810D01*
X84351904Y31805620D02*
X84351904Y32805620D01*
X84732857Y32805620D01*
X84828095Y32758000D01*
X84875714Y32710381D01*
X84923333Y32615143D01*
X84923333Y32472286D01*
X84875714Y32377048D01*
X84828095Y32329429D01*
X84732857Y32281810D01*
X84351904Y32281810D01*
X85494761Y32377048D02*
X85399523Y32424667D01*
X85351904Y32472286D01*
X85304285Y32567524D01*
X85304285Y32615143D01*
X85351904Y32710381D01*
X85399523Y32758000D01*
X85494761Y32805620D01*
X85685238Y32805620D01*
X85780476Y32758000D01*
X85828095Y32710381D01*
X85875714Y32615143D01*
X85875714Y32567524D01*
X85828095Y32472286D01*
X85780476Y32424667D01*
X85685238Y32377048D01*
X85494761Y32377048D01*
X85399523Y32329429D01*
X85351904Y32281810D01*
X85304285Y32186572D01*
X85304285Y31996096D01*
X85351904Y31900858D01*
X85399523Y31853239D01*
X85494761Y31805620D01*
X85685238Y31805620D01*
X85780476Y31853239D01*
X85828095Y31900858D01*
X85875714Y31996096D01*
X85875714Y32186572D01*
X85828095Y32281810D01*
X85780476Y32329429D01*
X85685238Y32377048D01*
%TO.C,H2*%
X134228095Y88781620D02*
X134228095Y89781620D01*
X134228095Y89305429D02*
X134799523Y89305429D01*
X134799523Y88781620D02*
X134799523Y89781620D01*
X135228095Y89686381D02*
X135275714Y89734000D01*
X135370952Y89781620D01*
X135609047Y89781620D01*
X135704285Y89734000D01*
X135751904Y89686381D01*
X135799523Y89591143D01*
X135799523Y89495905D01*
X135751904Y89353048D01*
X135180476Y88781620D01*
X135799523Y88781620D01*
D14*
%TO.C,DOWN*%
X76346380Y80153048D02*
X75346380Y80153048D01*
X75346380Y80391143D01*
X75394000Y80534000D01*
X75489238Y80629239D01*
X75584476Y80676858D01*
X75774952Y80724477D01*
X75917809Y80724477D01*
X76108285Y80676858D01*
X76203523Y80629239D01*
X76298761Y80534000D01*
X76346380Y80391143D01*
X76346380Y80153048D01*
X75346380Y81343524D02*
X75346380Y81534000D01*
X75394000Y81629239D01*
X75489238Y81724477D01*
X75679714Y81772096D01*
X76013047Y81772096D01*
X76203523Y81724477D01*
X76298761Y81629239D01*
X76346380Y81534000D01*
X76346380Y81343524D01*
X76298761Y81248286D01*
X76203523Y81153048D01*
X76013047Y81105429D01*
X75679714Y81105429D01*
X75489238Y81153048D01*
X75394000Y81248286D01*
X75346380Y81343524D01*
X75346380Y82105429D02*
X76346380Y82343524D01*
X75632095Y82534000D01*
X76346380Y82724477D01*
X75346380Y82962572D01*
X76346380Y83343524D02*
X75346380Y83343524D01*
X76346380Y83914953D01*
X75346380Y83914953D01*
D11*
%TO.C,C14*%
X108815142Y33051143D02*
X108862761Y33003524D01*
X108910380Y32860667D01*
X108910380Y32765429D01*
X108862761Y32622572D01*
X108767523Y32527334D01*
X108672285Y32479715D01*
X108481809Y32432096D01*
X108338952Y32432096D01*
X108148476Y32479715D01*
X108053238Y32527334D01*
X107958000Y32622572D01*
X107910380Y32765429D01*
X107910380Y32860667D01*
X107958000Y33003524D01*
X108005619Y33051143D01*
X108910380Y34003524D02*
X108910380Y33432096D01*
X108910380Y33717810D02*
X107910380Y33717810D01*
X108053238Y33622572D01*
X108148476Y33527334D01*
X108196095Y33432096D01*
X108243714Y34860667D02*
X108910380Y34860667D01*
X107862761Y34622572D02*
X108577047Y34384477D01*
X108577047Y35003524D01*
%TO.C,H3*%
X4228095Y8781620D02*
X4228095Y9781620D01*
X4228095Y9305429D02*
X4799523Y9305429D01*
X4799523Y8781620D02*
X4799523Y9781620D01*
X5180476Y9781620D02*
X5799523Y9781620D01*
X5466190Y9400667D01*
X5609047Y9400667D01*
X5704285Y9353048D01*
X5751904Y9305429D01*
X5799523Y9210191D01*
X5799523Y8972096D01*
X5751904Y8876858D01*
X5704285Y8829239D01*
X5609047Y8781620D01*
X5323333Y8781620D01*
X5228095Y8829239D01*
X5180476Y8876858D01*
%TO.C,C11*%
X42347142Y33391143D02*
X42394761Y33343524D01*
X42442380Y33200667D01*
X42442380Y33105429D01*
X42394761Y32962572D01*
X42299523Y32867334D01*
X42204285Y32819715D01*
X42013809Y32772096D01*
X41870952Y32772096D01*
X41680476Y32819715D01*
X41585238Y32867334D01*
X41490000Y32962572D01*
X41442380Y33105429D01*
X41442380Y33200667D01*
X41490000Y33343524D01*
X41537619Y33391143D01*
X42442380Y34343524D02*
X42442380Y33772096D01*
X42442380Y34057810D02*
X41442380Y34057810D01*
X41585238Y33962572D01*
X41680476Y33867334D01*
X41728095Y33772096D01*
X42442380Y35295905D02*
X42442380Y34724477D01*
X42442380Y35010191D02*
X41442380Y35010191D01*
X41585238Y34914953D01*
X41680476Y34819715D01*
X41728095Y34724477D01*
%TO.C,R1*%
X90622380Y28027334D02*
X90146190Y27694000D01*
X90622380Y27455905D02*
X89622380Y27455905D01*
X89622380Y27836858D01*
X89670000Y27932096D01*
X89717619Y27979715D01*
X89812857Y28027334D01*
X89955714Y28027334D01*
X90050952Y27979715D01*
X90098571Y27932096D01*
X90146190Y27836858D01*
X90146190Y27455905D01*
X90622380Y28979715D02*
X90622380Y28408286D01*
X90622380Y28694000D02*
X89622380Y28694000D01*
X89765238Y28598762D01*
X89860476Y28503524D01*
X89908095Y28408286D01*
%TO.C,J1*%
X97242380Y21256667D02*
X97956666Y21256667D01*
X98099523Y21209048D01*
X98194761Y21113810D01*
X98242380Y20970953D01*
X98242380Y20875715D01*
X98242380Y22256667D02*
X98242380Y21685239D01*
X98242380Y21970953D02*
X97242380Y21970953D01*
X97385238Y21875715D01*
X97480476Y21780477D01*
X97528095Y21685239D01*
%TO.C,R3*%
X92654380Y11771334D02*
X92178190Y11438000D01*
X92654380Y11199905D02*
X91654380Y11199905D01*
X91654380Y11580858D01*
X91702000Y11676096D01*
X91749619Y11723715D01*
X91844857Y11771334D01*
X91987714Y11771334D01*
X92082952Y11723715D01*
X92130571Y11676096D01*
X92178190Y11580858D01*
X92178190Y11199905D01*
X91654380Y12104667D02*
X91654380Y12723715D01*
X92035333Y12390381D01*
X92035333Y12533239D01*
X92082952Y12628477D01*
X92130571Y12676096D01*
X92225809Y12723715D01*
X92463904Y12723715D01*
X92559142Y12676096D01*
X92606761Y12628477D01*
X92654380Y12533239D01*
X92654380Y12247524D01*
X92606761Y12152286D01*
X92559142Y12104667D01*
%TO.C,H1*%
X4228095Y88781620D02*
X4228095Y89781620D01*
X4228095Y89305429D02*
X4799523Y89305429D01*
X4799523Y88781620D02*
X4799523Y89781620D01*
X5799523Y88781620D02*
X5228095Y88781620D01*
X5513809Y88781620D02*
X5513809Y89781620D01*
X5418571Y89638762D01*
X5323333Y89543524D01*
X5228095Y89495905D01*
%TO.C,SCL*%
X103711523Y32361239D02*
X103854380Y32313620D01*
X104092476Y32313620D01*
X104187714Y32361239D01*
X104235333Y32408858D01*
X104282952Y32504096D01*
X104282952Y32599334D01*
X104235333Y32694572D01*
X104187714Y32742191D01*
X104092476Y32789810D01*
X103902000Y32837429D01*
X103806761Y32885048D01*
X103759142Y32932667D01*
X103711523Y33027905D01*
X103711523Y33123143D01*
X103759142Y33218381D01*
X103806761Y33266000D01*
X103902000Y33313620D01*
X104140095Y33313620D01*
X104282952Y33266000D01*
X105282952Y32408858D02*
X105235333Y32361239D01*
X105092476Y32313620D01*
X104997238Y32313620D01*
X104854380Y32361239D01*
X104759142Y32456477D01*
X104711523Y32551715D01*
X104663904Y32742191D01*
X104663904Y32885048D01*
X104711523Y33075524D01*
X104759142Y33170762D01*
X104854380Y33266000D01*
X104997238Y33313620D01*
X105092476Y33313620D01*
X105235333Y33266000D01*
X105282952Y33218381D01*
X106187714Y32313620D02*
X105711523Y32313620D01*
X105711523Y33313620D01*
D14*
%TO.C,SELECT*%
X101298761Y79565810D02*
X101346380Y79708667D01*
X101346380Y79946762D01*
X101298761Y80042000D01*
X101251142Y80089620D01*
X101155904Y80137239D01*
X101060666Y80137239D01*
X100965428Y80089620D01*
X100917809Y80042000D01*
X100870190Y79946762D01*
X100822571Y79756286D01*
X100774952Y79661048D01*
X100727333Y79613429D01*
X100632095Y79565810D01*
X100536857Y79565810D01*
X100441619Y79613429D01*
X100394000Y79661048D01*
X100346380Y79756286D01*
X100346380Y79994381D01*
X100394000Y80137239D01*
X100822571Y80565810D02*
X100822571Y80899143D01*
X101346380Y81042000D02*
X101346380Y80565810D01*
X100346380Y80565810D01*
X100346380Y81042000D01*
X101346380Y81946762D02*
X101346380Y81470572D01*
X100346380Y81470572D01*
X100822571Y82280096D02*
X100822571Y82613429D01*
X101346380Y82756286D02*
X101346380Y82280096D01*
X100346380Y82280096D01*
X100346380Y82756286D01*
X101251142Y83756286D02*
X101298761Y83708667D01*
X101346380Y83565810D01*
X101346380Y83470572D01*
X101298761Y83327715D01*
X101203523Y83232477D01*
X101108285Y83184858D01*
X100917809Y83137239D01*
X100774952Y83137239D01*
X100584476Y83184858D01*
X100489238Y83232477D01*
X100394000Y83327715D01*
X100346380Y83470572D01*
X100346380Y83565810D01*
X100394000Y83708667D01*
X100441619Y83756286D01*
X100346380Y84042000D02*
X100346380Y84613429D01*
X101346380Y84327715D02*
X100346380Y84327715D01*
D11*
%TO.C,U3*%
X17486380Y1270096D02*
X18295904Y1270096D01*
X18391142Y1317715D01*
X18438761Y1365334D01*
X18486380Y1460572D01*
X18486380Y1651048D01*
X18438761Y1746286D01*
X18391142Y1793905D01*
X18295904Y1841524D01*
X17486380Y1841524D01*
X17486380Y2222477D02*
X17486380Y2841524D01*
X17867333Y2508191D01*
X17867333Y2651048D01*
X17914952Y2746286D01*
X17962571Y2793905D01*
X18057809Y2841524D01*
X18295904Y2841524D01*
X18391142Y2793905D01*
X18438761Y2746286D01*
X18486380Y2651048D01*
X18486380Y2365334D01*
X18438761Y2270096D01*
X18391142Y2222477D01*
%TO.C,D5*%
X117351904Y74777620D02*
X117351904Y75777620D01*
X117590000Y75777620D01*
X117732857Y75730000D01*
X117828095Y75634762D01*
X117875714Y75539524D01*
X117923333Y75349048D01*
X117923333Y75206191D01*
X117875714Y75015715D01*
X117828095Y74920477D01*
X117732857Y74825239D01*
X117590000Y74777620D01*
X117351904Y74777620D01*
X118828095Y75777620D02*
X118351904Y75777620D01*
X118304285Y75301429D01*
X118351904Y75349048D01*
X118447142Y75396667D01*
X118685238Y75396667D01*
X118780476Y75349048D01*
X118828095Y75301429D01*
X118875714Y75206191D01*
X118875714Y74968096D01*
X118828095Y74872858D01*
X118780476Y74825239D01*
X118685238Y74777620D01*
X118447142Y74777620D01*
X118351904Y74825239D01*
X118304285Y74872858D01*
X107994761Y53349048D02*
X107899523Y53396667D01*
X107851904Y53444286D01*
X107804285Y53539524D01*
X107804285Y53587143D01*
X107851904Y53682381D01*
X107899523Y53730000D01*
X107994761Y53777620D01*
X108185238Y53777620D01*
X108280476Y53730000D01*
X108328095Y53682381D01*
X108375714Y53587143D01*
X108375714Y53539524D01*
X108328095Y53444286D01*
X108280476Y53396667D01*
X108185238Y53349048D01*
X107994761Y53349048D01*
X107899523Y53301429D01*
X107851904Y53253810D01*
X107804285Y53158572D01*
X107804285Y52968096D01*
X107851904Y52872858D01*
X107899523Y52825239D01*
X107994761Y52777620D01*
X108185238Y52777620D01*
X108280476Y52825239D01*
X108328095Y52872858D01*
X108375714Y52968096D01*
X108375714Y53158572D01*
X108328095Y53253810D01*
X108280476Y53301429D01*
X108185238Y53349048D01*
X108375714Y70777620D02*
X107804285Y70777620D01*
X108090000Y70777620D02*
X108090000Y71777620D01*
X107994761Y71634762D01*
X107899523Y71539524D01*
X107804285Y71491905D01*
X127899523Y52777620D02*
X128090000Y52777620D01*
X128185238Y52825239D01*
X128232857Y52872858D01*
X128328095Y53015715D01*
X128375714Y53206191D01*
X128375714Y53587143D01*
X128328095Y53682381D01*
X128280476Y53730000D01*
X128185238Y53777620D01*
X127994761Y53777620D01*
X127899523Y53730000D01*
X127851904Y53682381D01*
X127804285Y53587143D01*
X127804285Y53349048D01*
X127851904Y53253810D01*
X127899523Y53206191D01*
X127994761Y53158572D01*
X128185238Y53158572D01*
X128280476Y53206191D01*
X128328095Y53253810D01*
X128375714Y53349048D01*
X127899523Y70777620D02*
X127328095Y70777620D01*
X127613809Y70777620D02*
X127613809Y71777620D01*
X127518571Y71634762D01*
X127423333Y71539524D01*
X127328095Y71491905D01*
X128756666Y71777620D02*
X128566190Y71777620D01*
X128470952Y71730000D01*
X128423333Y71682381D01*
X128328095Y71539524D01*
X128280476Y71349048D01*
X128280476Y70968096D01*
X128328095Y70872858D01*
X128375714Y70825239D01*
X128470952Y70777620D01*
X128661428Y70777620D01*
X128756666Y70825239D01*
X128804285Y70872858D01*
X128851904Y70968096D01*
X128851904Y71206191D01*
X128804285Y71301429D01*
X128756666Y71349048D01*
X128661428Y71396667D01*
X128470952Y71396667D01*
X128375714Y71349048D01*
X128328095Y71301429D01*
X128280476Y71206191D01*
%TO.C,C2*%
X74763333Y12596858D02*
X74715714Y12549239D01*
X74572857Y12501620D01*
X74477619Y12501620D01*
X74334761Y12549239D01*
X74239523Y12644477D01*
X74191904Y12739715D01*
X74144285Y12930191D01*
X74144285Y13073048D01*
X74191904Y13263524D01*
X74239523Y13358762D01*
X74334761Y13454000D01*
X74477619Y13501620D01*
X74572857Y13501620D01*
X74715714Y13454000D01*
X74763333Y13406381D01*
X75144285Y13406381D02*
X75191904Y13454000D01*
X75287142Y13501620D01*
X75525238Y13501620D01*
X75620476Y13454000D01*
X75668095Y13406381D01*
X75715714Y13311143D01*
X75715714Y13215905D01*
X75668095Y13073048D01*
X75096666Y12501620D01*
X75715714Y12501620D01*
%TO.C,C15*%
X116943142Y33051143D02*
X116990761Y33003524D01*
X117038380Y32860667D01*
X117038380Y32765429D01*
X116990761Y32622572D01*
X116895523Y32527334D01*
X116800285Y32479715D01*
X116609809Y32432096D01*
X116466952Y32432096D01*
X116276476Y32479715D01*
X116181238Y32527334D01*
X116086000Y32622572D01*
X116038380Y32765429D01*
X116038380Y32860667D01*
X116086000Y33003524D01*
X116133619Y33051143D01*
X117038380Y34003524D02*
X117038380Y33432096D01*
X117038380Y33717810D02*
X116038380Y33717810D01*
X116181238Y33622572D01*
X116276476Y33527334D01*
X116324095Y33432096D01*
X116038380Y34908286D02*
X116038380Y34432096D01*
X116514571Y34384477D01*
X116466952Y34432096D01*
X116419333Y34527334D01*
X116419333Y34765429D01*
X116466952Y34860667D01*
X116514571Y34908286D01*
X116609809Y34955905D01*
X116847904Y34955905D01*
X116943142Y34908286D01*
X116990761Y34860667D01*
X117038380Y34765429D01*
X117038380Y34527334D01*
X116990761Y34432096D01*
X116943142Y34384477D01*
%TO.C,R5*%
X92654380Y8723334D02*
X92178190Y8390000D01*
X92654380Y8151905D02*
X91654380Y8151905D01*
X91654380Y8532858D01*
X91702000Y8628096D01*
X91749619Y8675715D01*
X91844857Y8723334D01*
X91987714Y8723334D01*
X92082952Y8675715D01*
X92130571Y8628096D01*
X92178190Y8532858D01*
X92178190Y8151905D01*
X91654380Y9628096D02*
X91654380Y9151905D01*
X92130571Y9104286D01*
X92082952Y9151905D01*
X92035333Y9247143D01*
X92035333Y9485239D01*
X92082952Y9580477D01*
X92130571Y9628096D01*
X92225809Y9675715D01*
X92463904Y9675715D01*
X92559142Y9628096D01*
X92606761Y9580477D01*
X92654380Y9485239D01*
X92654380Y9247143D01*
X92606761Y9151905D01*
X92559142Y9104286D01*
%TO.C,C3*%
X91273333Y21994858D02*
X91225714Y21947239D01*
X91082857Y21899620D01*
X90987619Y21899620D01*
X90844761Y21947239D01*
X90749523Y22042477D01*
X90701904Y22137715D01*
X90654285Y22328191D01*
X90654285Y22471048D01*
X90701904Y22661524D01*
X90749523Y22756762D01*
X90844761Y22852000D01*
X90987619Y22899620D01*
X91082857Y22899620D01*
X91225714Y22852000D01*
X91273333Y22804381D01*
X91606666Y22899620D02*
X92225714Y22899620D01*
X91892380Y22518667D01*
X92035238Y22518667D01*
X92130476Y22471048D01*
X92178095Y22423429D01*
X92225714Y22328191D01*
X92225714Y22090096D01*
X92178095Y21994858D01*
X92130476Y21947239D01*
X92035238Y21899620D01*
X91749523Y21899620D01*
X91654285Y21947239D01*
X91606666Y21994858D01*
%TO.C,R12*%
X113403142Y84129620D02*
X113069809Y84605810D01*
X112831714Y84129620D02*
X112831714Y85129620D01*
X113212666Y85129620D01*
X113307904Y85082000D01*
X113355523Y85034381D01*
X113403142Y84939143D01*
X113403142Y84796286D01*
X113355523Y84701048D01*
X113307904Y84653429D01*
X113212666Y84605810D01*
X112831714Y84605810D01*
X114355523Y84129620D02*
X113784095Y84129620D01*
X114069809Y84129620D02*
X114069809Y85129620D01*
X113974571Y84986762D01*
X113879333Y84891524D01*
X113784095Y84843905D01*
X114736476Y85034381D02*
X114784095Y85082000D01*
X114879333Y85129620D01*
X115117428Y85129620D01*
X115212666Y85082000D01*
X115260285Y85034381D01*
X115307904Y84939143D01*
X115307904Y84843905D01*
X115260285Y84701048D01*
X114688857Y84129620D01*
X115307904Y84129620D01*
%TO.C,MODE*%
X25852380Y80232477D02*
X24852380Y80232477D01*
X25566666Y80565810D01*
X24852380Y80899143D01*
X25852380Y80899143D01*
X24852380Y81565810D02*
X24852380Y81756286D01*
X24900000Y81851524D01*
X24995238Y81946762D01*
X25185714Y81994381D01*
X25519047Y81994381D01*
X25709523Y81946762D01*
X25804761Y81851524D01*
X25852380Y81756286D01*
X25852380Y81565810D01*
X25804761Y81470572D01*
X25709523Y81375334D01*
X25519047Y81327715D01*
X25185714Y81327715D01*
X24995238Y81375334D01*
X24900000Y81470572D01*
X24852380Y81565810D01*
X25852380Y82422953D02*
X24852380Y82422953D01*
X24852380Y82661048D01*
X24900000Y82803905D01*
X24995238Y82899143D01*
X25090476Y82946762D01*
X25280952Y82994381D01*
X25423809Y82994381D01*
X25614285Y82946762D01*
X25709523Y82899143D01*
X25804761Y82803905D01*
X25852380Y82661048D01*
X25852380Y82422953D01*
X25328571Y83422953D02*
X25328571Y83756286D01*
X25852380Y83899143D02*
X25852380Y83422953D01*
X24852380Y83422953D01*
X24852380Y83899143D01*
%TO.C,C16*%
X112371142Y24391154D02*
X112418761Y24343535D01*
X112466380Y24200678D01*
X112466380Y24105440D01*
X112418761Y23962583D01*
X112323523Y23867345D01*
X112228285Y23819726D01*
X112037809Y23772107D01*
X111894952Y23772107D01*
X111704476Y23819726D01*
X111609238Y23867345D01*
X111514000Y23962583D01*
X111466380Y24105440D01*
X111466380Y24200678D01*
X111514000Y24343535D01*
X111561619Y24391154D01*
X112466380Y25343535D02*
X112466380Y24772107D01*
X112466380Y25057821D02*
X111466380Y25057821D01*
X111609238Y24962583D01*
X111704476Y24867345D01*
X111752095Y24772107D01*
X111466380Y26200678D02*
X111466380Y26010202D01*
X111514000Y25914964D01*
X111561619Y25867345D01*
X111704476Y25772107D01*
X111894952Y25724488D01*
X112275904Y25724488D01*
X112371142Y25772107D01*
X112418761Y25819726D01*
X112466380Y25914964D01*
X112466380Y26105440D01*
X112418761Y26200678D01*
X112371142Y26248297D01*
X112275904Y26295916D01*
X112037809Y26295916D01*
X111942571Y26248297D01*
X111894952Y26200678D01*
X111847333Y26105440D01*
X111847333Y25914964D01*
X111894952Y25819726D01*
X111942571Y25772107D01*
X112037809Y25724488D01*
%TO.C,R4*%
X91273333Y16565620D02*
X90940000Y17041810D01*
X90701904Y16565620D02*
X90701904Y17565620D01*
X91082857Y17565620D01*
X91178095Y17518000D01*
X91225714Y17470381D01*
X91273333Y17375143D01*
X91273333Y17232286D01*
X91225714Y17137048D01*
X91178095Y17089429D01*
X91082857Y17041810D01*
X90701904Y17041810D01*
X92130476Y17232286D02*
X92130476Y16565620D01*
X91892380Y17613239D02*
X91654285Y16898953D01*
X92273333Y16898953D01*
%TO.C,C4*%
X79843333Y26186858D02*
X79795714Y26139239D01*
X79652857Y26091620D01*
X79557619Y26091620D01*
X79414761Y26139239D01*
X79319523Y26234477D01*
X79271904Y26329715D01*
X79224285Y26520191D01*
X79224285Y26663048D01*
X79271904Y26853524D01*
X79319523Y26948762D01*
X79414761Y27044000D01*
X79557619Y27091620D01*
X79652857Y27091620D01*
X79795714Y27044000D01*
X79843333Y26996381D01*
X80700476Y26758286D02*
X80700476Y26091620D01*
X80462380Y27139239D02*
X80224285Y26424953D01*
X80843333Y26424953D01*
%TO.C,LOAD*%
X133223142Y30789620D02*
X132746952Y30789620D01*
X132746952Y31789620D01*
X133746952Y31789620D02*
X133937428Y31789620D01*
X134032666Y31742000D01*
X134127904Y31646762D01*
X134175523Y31456286D01*
X134175523Y31122953D01*
X134127904Y30932477D01*
X134032666Y30837239D01*
X133937428Y30789620D01*
X133746952Y30789620D01*
X133651714Y30837239D01*
X133556476Y30932477D01*
X133508857Y31122953D01*
X133508857Y31456286D01*
X133556476Y31646762D01*
X133651714Y31742000D01*
X133746952Y31789620D01*
X134556476Y31075334D02*
X135032666Y31075334D01*
X134461238Y30789620D02*
X134794571Y31789620D01*
X135127904Y30789620D01*
X135461238Y30789620D02*
X135461238Y31789620D01*
X135699333Y31789620D01*
X135842190Y31742000D01*
X135937428Y31646762D01*
X135985047Y31551524D01*
X136032666Y31361048D01*
X136032666Y31218191D01*
X135985047Y31027715D01*
X135937428Y30932477D01*
X135842190Y30837239D01*
X135699333Y30789620D01*
X135461238Y30789620D01*
%TO.C,D4*%
X63777904Y5897620D02*
X63777904Y6897620D01*
X64016000Y6897620D01*
X64158857Y6850000D01*
X64254095Y6754762D01*
X64301714Y6659524D01*
X64349333Y6469048D01*
X64349333Y6326191D01*
X64301714Y6135715D01*
X64254095Y6040477D01*
X64158857Y5945239D01*
X64016000Y5897620D01*
X63777904Y5897620D01*
X65206476Y6564286D02*
X65206476Y5897620D01*
X64968380Y6945239D02*
X64730285Y6230953D01*
X65349333Y6230953D01*
%TO.C,U4*%
X36112380Y40142096D02*
X36921904Y40142096D01*
X37017142Y40189715D01*
X37064761Y40237334D01*
X37112380Y40332572D01*
X37112380Y40523048D01*
X37064761Y40618286D01*
X37017142Y40665905D01*
X36921904Y40713524D01*
X36112380Y40713524D01*
X36445714Y41618286D02*
X37112380Y41618286D01*
X36064761Y41380191D02*
X36779047Y41142096D01*
X36779047Y41761143D01*
%TO.C,R10*%
X118991142Y31805620D02*
X118657809Y32281810D01*
X118419714Y31805620D02*
X118419714Y32805620D01*
X118800666Y32805620D01*
X118895904Y32758000D01*
X118943523Y32710381D01*
X118991142Y32615143D01*
X118991142Y32472286D01*
X118943523Y32377048D01*
X118895904Y32329429D01*
X118800666Y32281810D01*
X118419714Y32281810D01*
X119943523Y31805620D02*
X119372095Y31805620D01*
X119657809Y31805620D02*
X119657809Y32805620D01*
X119562571Y32662762D01*
X119467333Y32567524D01*
X119372095Y32519905D01*
X120562571Y32805620D02*
X120657809Y32805620D01*
X120753047Y32758000D01*
X120800666Y32710381D01*
X120848285Y32615143D01*
X120895904Y32424667D01*
X120895904Y32186572D01*
X120848285Y31996096D01*
X120800666Y31900858D01*
X120753047Y31853239D01*
X120657809Y31805620D01*
X120562571Y31805620D01*
X120467333Y31853239D01*
X120419714Y31900858D01*
X120372095Y31996096D01*
X120324476Y32186572D01*
X120324476Y32424667D01*
X120372095Y32615143D01*
X120419714Y32710381D01*
X120467333Y32758000D01*
X120562571Y32805620D01*
%TO.C,C1*%
X63333333Y12596858D02*
X63285714Y12549239D01*
X63142857Y12501620D01*
X63047619Y12501620D01*
X62904761Y12549239D01*
X62809523Y12644477D01*
X62761904Y12739715D01*
X62714285Y12930191D01*
X62714285Y13073048D01*
X62761904Y13263524D01*
X62809523Y13358762D01*
X62904761Y13454000D01*
X63047619Y13501620D01*
X63142857Y13501620D01*
X63285714Y13454000D01*
X63333333Y13406381D01*
X64285714Y12501620D02*
X63714285Y12501620D01*
X64000000Y12501620D02*
X64000000Y13501620D01*
X63904761Y13358762D01*
X63809523Y13263524D01*
X63714285Y13215905D01*
%TO.C,J3*%
X71294666Y4611620D02*
X71294666Y3897334D01*
X71247047Y3754477D01*
X71151809Y3659239D01*
X71008952Y3611620D01*
X70913714Y3611620D01*
X71675619Y4611620D02*
X72294666Y4611620D01*
X71961333Y4230667D01*
X72104190Y4230667D01*
X72199428Y4183048D01*
X72247047Y4135429D01*
X72294666Y4040191D01*
X72294666Y3802096D01*
X72247047Y3706858D01*
X72199428Y3659239D01*
X72104190Y3611620D01*
X71818476Y3611620D01*
X71723238Y3659239D01*
X71675619Y3706858D01*
D14*
%TO.C,SW1*%
X43116666Y20913250D02*
X43259523Y20865631D01*
X43497619Y20865631D01*
X43592857Y20913250D01*
X43640476Y20960869D01*
X43688095Y21056107D01*
X43688095Y21151345D01*
X43640476Y21246583D01*
X43592857Y21294202D01*
X43497619Y21341821D01*
X43307142Y21389440D01*
X43211904Y21437059D01*
X43164285Y21484678D01*
X43116666Y21579916D01*
X43116666Y21675154D01*
X43164285Y21770392D01*
X43211904Y21818011D01*
X43307142Y21865631D01*
X43545238Y21865631D01*
X43688095Y21818011D01*
X44021428Y21865631D02*
X44259523Y20865631D01*
X44450000Y21579916D01*
X44640476Y20865631D01*
X44878571Y21865631D01*
X45783333Y20865631D02*
X45211904Y20865631D01*
X45497619Y20865631D02*
X45497619Y21865631D01*
X45402380Y21722773D01*
X45307142Y21627535D01*
X45211904Y21579916D01*
D11*
%TO.C,C8*%
X26011142Y7453334D02*
X26058761Y7405715D01*
X26106380Y7262858D01*
X26106380Y7167620D01*
X26058761Y7024762D01*
X25963523Y6929524D01*
X25868285Y6881905D01*
X25677809Y6834286D01*
X25534952Y6834286D01*
X25344476Y6881905D01*
X25249238Y6929524D01*
X25154000Y7024762D01*
X25106380Y7167620D01*
X25106380Y7262858D01*
X25154000Y7405715D01*
X25201619Y7453334D01*
X25534952Y8024762D02*
X25487333Y7929524D01*
X25439714Y7881905D01*
X25344476Y7834286D01*
X25296857Y7834286D01*
X25201619Y7881905D01*
X25154000Y7929524D01*
X25106380Y8024762D01*
X25106380Y8215239D01*
X25154000Y8310477D01*
X25201619Y8358096D01*
X25296857Y8405715D01*
X25344476Y8405715D01*
X25439714Y8358096D01*
X25487333Y8310477D01*
X25534952Y8215239D01*
X25534952Y8024762D01*
X25582571Y7929524D01*
X25630190Y7881905D01*
X25725428Y7834286D01*
X25915904Y7834286D01*
X26011142Y7881905D01*
X26058761Y7929524D01*
X26106380Y8024762D01*
X26106380Y8215239D01*
X26058761Y8310477D01*
X26011142Y8358096D01*
X25915904Y8405715D01*
X25725428Y8405715D01*
X25630190Y8358096D01*
X25582571Y8310477D01*
X25534952Y8215239D01*
%TO.C,R13*%
X88257142Y84129620D02*
X87923809Y84605810D01*
X87685714Y84129620D02*
X87685714Y85129620D01*
X88066666Y85129620D01*
X88161904Y85082000D01*
X88209523Y85034381D01*
X88257142Y84939143D01*
X88257142Y84796286D01*
X88209523Y84701048D01*
X88161904Y84653429D01*
X88066666Y84605810D01*
X87685714Y84605810D01*
X89209523Y84129620D02*
X88638095Y84129620D01*
X88923809Y84129620D02*
X88923809Y85129620D01*
X88828571Y84986762D01*
X88733333Y84891524D01*
X88638095Y84843905D01*
X89542857Y85129620D02*
X90161904Y85129620D01*
X89828571Y84748667D01*
X89971428Y84748667D01*
X90066666Y84701048D01*
X90114285Y84653429D01*
X90161904Y84558191D01*
X90161904Y84320096D01*
X90114285Y84224858D01*
X90066666Y84177239D01*
X89971428Y84129620D01*
X89685714Y84129620D01*
X89590476Y84177239D01*
X89542857Y84224858D01*
%TO.C,R11*%
X38473142Y84129620D02*
X38139809Y84605810D01*
X37901714Y84129620D02*
X37901714Y85129620D01*
X38282666Y85129620D01*
X38377904Y85082000D01*
X38425523Y85034381D01*
X38473142Y84939143D01*
X38473142Y84796286D01*
X38425523Y84701048D01*
X38377904Y84653429D01*
X38282666Y84605810D01*
X37901714Y84605810D01*
X39425523Y84129620D02*
X38854095Y84129620D01*
X39139809Y84129620D02*
X39139809Y85129620D01*
X39044571Y84986762D01*
X38949333Y84891524D01*
X38854095Y84843905D01*
X40377904Y84129620D02*
X39806476Y84129620D01*
X40092190Y84129620D02*
X40092190Y85129620D01*
X39996952Y84986762D01*
X39901714Y84891524D01*
X39806476Y84843905D01*
%TO.C,D1*%
X21051904Y74777620D02*
X21051904Y75777620D01*
X21290000Y75777620D01*
X21432857Y75730000D01*
X21528095Y75634762D01*
X21575714Y75539524D01*
X21623333Y75349048D01*
X21623333Y75206191D01*
X21575714Y75015715D01*
X21528095Y74920477D01*
X21432857Y74825239D01*
X21290000Y74777620D01*
X21051904Y74777620D01*
X22575714Y74777620D02*
X22004285Y74777620D01*
X22290000Y74777620D02*
X22290000Y75777620D01*
X22194761Y75634762D01*
X22099523Y75539524D01*
X22004285Y75491905D01*
X12075714Y70777620D02*
X11504285Y70777620D01*
X11790000Y70777620D02*
X11790000Y71777620D01*
X11694761Y71634762D01*
X11599523Y71539524D01*
X11504285Y71491905D01*
X31599523Y52777620D02*
X31790000Y52777620D01*
X31885238Y52825239D01*
X31932857Y52872858D01*
X32028095Y53015715D01*
X32075714Y53206191D01*
X32075714Y53587143D01*
X32028095Y53682381D01*
X31980476Y53730000D01*
X31885238Y53777620D01*
X31694761Y53777620D01*
X31599523Y53730000D01*
X31551904Y53682381D01*
X31504285Y53587143D01*
X31504285Y53349048D01*
X31551904Y53253810D01*
X31599523Y53206191D01*
X31694761Y53158572D01*
X31885238Y53158572D01*
X31980476Y53206191D01*
X32028095Y53253810D01*
X32075714Y53349048D01*
X31599523Y70777620D02*
X31028095Y70777620D01*
X31313809Y70777620D02*
X31313809Y71777620D01*
X31218571Y71634762D01*
X31123333Y71539524D01*
X31028095Y71491905D01*
X32456666Y71777620D02*
X32266190Y71777620D01*
X32170952Y71730000D01*
X32123333Y71682381D01*
X32028095Y71539524D01*
X31980476Y71349048D01*
X31980476Y70968096D01*
X32028095Y70872858D01*
X32075714Y70825239D01*
X32170952Y70777620D01*
X32361428Y70777620D01*
X32456666Y70825239D01*
X32504285Y70872858D01*
X32551904Y70968096D01*
X32551904Y71206191D01*
X32504285Y71301429D01*
X32456666Y71349048D01*
X32361428Y71396667D01*
X32170952Y71396667D01*
X32075714Y71349048D01*
X32028095Y71301429D01*
X31980476Y71206191D01*
X11694761Y53349048D02*
X11599523Y53396667D01*
X11551904Y53444286D01*
X11504285Y53539524D01*
X11504285Y53587143D01*
X11551904Y53682381D01*
X11599523Y53730000D01*
X11694761Y53777620D01*
X11885238Y53777620D01*
X11980476Y53730000D01*
X12028095Y53682381D01*
X12075714Y53587143D01*
X12075714Y53539524D01*
X12028095Y53444286D01*
X11980476Y53396667D01*
X11885238Y53349048D01*
X11694761Y53349048D01*
X11599523Y53301429D01*
X11551904Y53253810D01*
X11504285Y53158572D01*
X11504285Y52968096D01*
X11551904Y52872858D01*
X11599523Y52825239D01*
X11694761Y52777620D01*
X11885238Y52777620D01*
X11980476Y52825239D01*
X12028095Y52872858D01*
X12075714Y52968096D01*
X12075714Y53158572D01*
X12028095Y53253810D01*
X11980476Y53301429D01*
X11885238Y53349048D01*
%TO.C,D2*%
X67640000Y71230000D02*
X68140000Y71230000D01*
X38890000Y47230000D02*
X38890000Y49230000D01*
X66890000Y74230000D02*
X64890000Y74230000D01*
X38890000Y63230000D02*
X39890000Y63230000D01*
X64890000Y73980000D02*
X64890000Y74480000D01*
X68890000Y77230000D02*
X68890000Y75230000D01*
X67890000Y73230000D02*
X67890000Y71230000D01*
X67890000Y70480000D02*
X67640000Y71230000D01*
X39890000Y63230000D02*
X39890000Y61230000D01*
X38890000Y77230000D02*
X40890000Y77230000D01*
X38890000Y63230000D02*
X38890000Y65230000D01*
X40890000Y47230000D02*
X38890000Y47230000D01*
X39890000Y61230000D02*
X38890000Y61230000D01*
X68890000Y47230000D02*
X66890000Y47230000D01*
X38890000Y61230000D02*
X38890000Y59230000D01*
X64890000Y74480000D02*
X64140000Y74230000D01*
X64140000Y74230000D02*
X64890000Y73980000D01*
X68140000Y71230000D02*
X67890000Y70480000D01*
X66890000Y77230000D02*
X68890000Y77230000D01*
X68890000Y49230000D02*
X68890000Y47230000D01*
X38890000Y75230000D02*
X38890000Y77230000D01*
X42890000Y71120000D02*
G75*
G03*
X42890000Y71120000I-1000000J0D01*
G01*
D15*
%TO.C,GND*%
X47428000Y6096000D02*
G75*
G03*
X47428000Y6096000I-1200000J0D01*
G01*
%TO.C,Y1*%
X75750000Y30744000D02*
X63150000Y30744000D01*
X63150000Y30744000D02*
X63150000Y25644000D01*
X63150000Y25644000D02*
X75750000Y25644000D01*
%TO.C,UP*%
X54090000Y78792000D02*
X59890000Y78792000D01*
X53890000Y80742000D02*
X53890000Y83342000D01*
X62090000Y78742000D02*
X61090000Y78742000D01*
X60090000Y80742000D02*
X60090000Y83342000D01*
X53990000Y85292000D02*
X59990000Y85292000D01*
X62090000Y79742000D02*
X62090000Y78742000D01*
%TO.C,BT1*%
X121960017Y4624314D02*
X126960017Y4624314D01*
X121410017Y7624314D02*
X121410017Y5174314D01*
X127510017Y5174314D02*
X127510017Y7624314D01*
X121410017Y7624314D02*
G75*
G03*
X120916532Y8329083I-750000J0D01*
G01*
X127980017Y8324314D02*
G75*
G03*
X123944026Y31937757I-3520000J11550000D01*
G01*
X128003502Y8329083D02*
G75*
G03*
X127510017Y7624314I256515J-704769D01*
G01*
X124976008Y31937757D02*
G75*
G03*
X120940017Y8324314I-515991J-12063443D01*
G01*
X126960017Y4624314D02*
G75*
G03*
X127510017Y5174314I1J549999D01*
G01*
X121410017Y5174314D02*
G75*
G03*
X121960017Y4624314I549999J-1D01*
G01*
%TO.C,DATA*%
X101022000Y30226000D02*
G75*
G03*
X101022000Y30226000I-1200000J0D01*
G01*
D11*
%TO.C,D3*%
X71990000Y63230000D02*
X71990000Y61230000D01*
X99990000Y73230000D02*
X99990000Y71230000D01*
X72990000Y47230000D02*
X70990000Y47230000D01*
X100990000Y77230000D02*
X100990000Y75230000D01*
X71990000Y61230000D02*
X70990000Y61230000D01*
X98990000Y77230000D02*
X100990000Y77230000D01*
X99740000Y71230000D02*
X100240000Y71230000D01*
X70990000Y47230000D02*
X70990000Y49230000D01*
X70990000Y61230000D02*
X70990000Y59230000D01*
X100240000Y71230000D02*
X99990000Y70480000D01*
X98990000Y74230000D02*
X96990000Y74230000D01*
X70990000Y75230000D02*
X70990000Y77230000D01*
X96990000Y73980000D02*
X96990000Y74480000D01*
X100990000Y49230000D02*
X100990000Y47230000D01*
X96240000Y74230000D02*
X96990000Y73980000D01*
X70990000Y63230000D02*
X70990000Y65230000D01*
X100990000Y47230000D02*
X98990000Y47230000D01*
X96990000Y74480000D02*
X96240000Y74230000D01*
X70990000Y63230000D02*
X71990000Y63230000D01*
X99990000Y70480000D02*
X99740000Y71230000D01*
X70990000Y77230000D02*
X72990000Y77230000D01*
X74990000Y71120000D02*
G75*
G03*
X74990000Y71120000I-1000000J0D01*
G01*
D15*
%TO.C,CLK*%
X64446000Y33274000D02*
G75*
G03*
X64446000Y33274000I-1200000J0D01*
G01*
%TO.C,U6*%
X102750000Y9348000D02*
X104400000Y9348000D01*
X102750000Y19628000D02*
X102750000Y9348000D01*
X108050000Y9348000D02*
X108050000Y19628000D01*
X106400000Y9348000D02*
X108050000Y9348000D01*
X108050000Y19628000D02*
X102750000Y19628000D01*
X106400000Y9348000D02*
G75*
G03*
X104400000Y9348000I-1000000J0D01*
G01*
%TO.C,SDA*%
X110674000Y29718000D02*
G75*
G03*
X110674000Y29718000I-1200000J0D01*
G01*
%TO.C,J2*%
X76140000Y5528000D02*
X76140000Y6858000D01*
X77470000Y5528000D02*
X76140000Y5528000D01*
X78740000Y8188000D02*
X88960000Y8188000D01*
X88960000Y5528000D02*
X88960000Y8188000D01*
X78740000Y5528000D02*
X88960000Y5528000D01*
X78740000Y5528000D02*
X78740000Y8188000D01*
%TO.C,U5*%
X71360000Y43554000D02*
X71360000Y41904000D01*
X101960000Y38254000D02*
X101960000Y43554000D01*
X71360000Y38254000D02*
X101960000Y38254000D01*
X101960000Y43554000D02*
X71360000Y43554000D01*
X71360000Y39904000D02*
X71360000Y38254000D01*
X71360000Y39904000D02*
G75*
G03*
X71360000Y41904000I0J1000000D01*
G01*
%TO.C,J5*%
X53280000Y5513000D02*
X58480000Y5513000D01*
X53280000Y13253000D02*
X54610000Y13253000D01*
X53280000Y10653000D02*
X53280000Y5513000D01*
X53280000Y10653000D02*
X55880000Y10653000D01*
X55880000Y13253000D02*
X58480000Y13253000D01*
X58480000Y13253000D02*
X58480000Y5513000D01*
X53280000Y11923000D02*
X53280000Y13253000D01*
X55880000Y10653000D02*
X55880000Y13253000D01*
%TO.C,Y2*%
X111318000Y12488000D02*
X111318000Y11388000D01*
X113168000Y13888000D02*
X111368000Y13888000D01*
X113218000Y12488000D02*
X113218000Y11388000D01*
%TO.C,U7*%
X135945000Y43554000D02*
X105345000Y43554000D01*
X105345000Y43554000D02*
X105345000Y41904000D01*
X135945000Y38254000D02*
X135945000Y43554000D01*
X105345000Y39904000D02*
X105345000Y38254000D01*
X105345000Y38254000D02*
X135945000Y38254000D01*
X105345000Y39904000D02*
G75*
G03*
X105345000Y41904000I0J1000000D01*
G01*
%TO.C,VCC*%
X41332000Y6096000D02*
G75*
G03*
X41332000Y6096000I-1200000J0D01*
G01*
%TO.C,U1*%
X88960000Y20304000D02*
X88960000Y21954000D01*
X53280000Y16654000D02*
X88960000Y16654000D01*
X88960000Y21954000D02*
X53280000Y21954000D01*
X53280000Y21954000D02*
X53280000Y16654000D01*
X88960000Y16654000D02*
X88960000Y18304000D01*
X88960000Y20304000D02*
G75*
G03*
X88960000Y18304000I0J-1000000D01*
G01*
%TO.C,U8*%
X103990000Y21474000D02*
X102040000Y21474000D01*
X103990000Y21474000D02*
X105940000Y21474000D01*
X103990000Y26594000D02*
X100540000Y26594000D01*
X103990000Y26594000D02*
X105940000Y26594000D01*
%TO.C,U2*%
X34345000Y38254000D02*
X34345000Y43554000D01*
X3745000Y43554000D02*
X3745000Y41904000D01*
X3745000Y39904000D02*
X3745000Y38254000D01*
X34345000Y43554000D02*
X3745000Y43554000D01*
X3745000Y38254000D02*
X34345000Y38254000D01*
X3745000Y39904000D02*
G75*
G03*
X3745000Y41904000I0J1000000D01*
G01*
%TO.C,DOWN*%
X87090000Y79734000D02*
X87090000Y78734000D01*
X79090000Y78784000D02*
X84890000Y78784000D01*
X85090000Y80734000D02*
X85090000Y83334000D01*
X78890000Y80734000D02*
X78890000Y83334000D01*
X78990000Y85284000D02*
X84990000Y85284000D01*
X87090000Y78734000D02*
X86090000Y78734000D01*
%TO.C,J1*%
X96580000Y14164000D02*
X95250000Y14164000D01*
X96580000Y29524000D02*
X93920000Y29524000D01*
X96580000Y15494000D02*
X96580000Y14164000D01*
X96580000Y16764000D02*
X96580000Y29524000D01*
X93920000Y16764000D02*
X93920000Y29524000D01*
X96580000Y16764000D02*
X93920000Y16764000D01*
%TO.C,SCL*%
X107118000Y30226000D02*
G75*
G03*
X107118000Y30226000I-1200000J0D01*
G01*
%TO.C,SELECT*%
X103890000Y80734000D02*
X103890000Y83334000D01*
X110090000Y80734000D02*
X110090000Y83334000D01*
X112090000Y78734000D02*
X111090000Y78734000D01*
X103990000Y85284000D02*
X109990000Y85284000D01*
X112090000Y79734000D02*
X112090000Y78734000D01*
X104090000Y78784000D02*
X109890000Y78784000D01*
%TO.C,U3*%
X14076000Y10182000D02*
X14076000Y11682000D01*
X14346000Y11682000D02*
X14346000Y12782000D01*
X20976000Y10182000D02*
X20976000Y11682000D01*
X20976000Y11682000D02*
X20706000Y11682000D01*
X14076000Y11682000D02*
X14346000Y11682000D01*
X20706000Y11682000D02*
X20706000Y14512000D01*
D11*
%TO.C,D5*%
X103090000Y61230000D02*
X103090000Y59230000D01*
X132090000Y73230000D02*
X132090000Y71230000D01*
X133090000Y47230000D02*
X131090000Y47230000D01*
X132090000Y70480000D02*
X131840000Y71230000D01*
X133090000Y49230000D02*
X133090000Y47230000D01*
X105090000Y47230000D02*
X103090000Y47230000D01*
X103090000Y77230000D02*
X105090000Y77230000D01*
X132340000Y71230000D02*
X132090000Y70480000D01*
X104090000Y63230000D02*
X104090000Y61230000D01*
X131090000Y77230000D02*
X133090000Y77230000D01*
X129090000Y74480000D02*
X128340000Y74230000D01*
X131840000Y71230000D02*
X132340000Y71230000D01*
X131090000Y74230000D02*
X129090000Y74230000D01*
X128340000Y74230000D02*
X129090000Y73980000D01*
X103090000Y63230000D02*
X103090000Y65230000D01*
X104090000Y61230000D02*
X103090000Y61230000D01*
X103090000Y75230000D02*
X103090000Y77230000D01*
X129090000Y73980000D02*
X129090000Y74480000D01*
X133090000Y77230000D02*
X133090000Y75230000D01*
X103090000Y63230000D02*
X104090000Y63230000D01*
X103090000Y47230000D02*
X103090000Y49230000D01*
X107090000Y71120000D02*
G75*
G03*
X107090000Y71120000I-1000000J0D01*
G01*
D15*
%TO.C,MODE*%
X28890000Y80742000D02*
X28890000Y83342000D01*
X29090000Y78792000D02*
X34890000Y78792000D01*
X28990000Y85292000D02*
X34990000Y85292000D01*
X37090000Y79742000D02*
X37090000Y78742000D01*
X35090000Y80742000D02*
X35090000Y83342000D01*
X37090000Y78742000D02*
X36090000Y78742000D01*
%TO.C,LOAD*%
X135566000Y33782000D02*
G75*
G03*
X135566000Y33782000I-1200000J0D01*
G01*
%TO.C,D4*%
X63556000Y9890000D02*
X63556000Y7205000D01*
X63556000Y7205000D02*
X65476000Y7205000D01*
X65476000Y7205000D02*
X65476000Y9890000D01*
%TO.C,U4*%
X37660000Y38254000D02*
X68260000Y38254000D01*
X37660000Y43554000D02*
X37660000Y41904000D01*
X68260000Y43554000D02*
X37660000Y43554000D01*
X37660000Y39904000D02*
X37660000Y38254000D01*
X68260000Y38254000D02*
X68260000Y43554000D01*
X37660000Y39904000D02*
G75*
G03*
X37660000Y41904000I0J1000000D01*
G01*
%TO.C,J3*%
X72136000Y8188000D02*
X72136000Y5528000D01*
X73406000Y8188000D02*
X74736000Y8188000D01*
X72136000Y5528000D02*
X66996000Y5528000D01*
X74736000Y8188000D02*
X74736000Y6858000D01*
X66996000Y8188000D02*
X66996000Y5528000D01*
X72136000Y8188000D02*
X66996000Y8188000D01*
%TO.C,SW1*%
X41350000Y18318000D02*
X41350000Y15718000D01*
X39350000Y20318000D02*
X40350000Y20318000D01*
X47550000Y18318000D02*
X47550000Y15718000D01*
X39350000Y19318000D02*
X39350000Y20318000D01*
X47350000Y20268000D02*
X41550000Y20268000D01*
X47450000Y13768000D02*
X41450000Y13768000D01*
D11*
%TO.C,D1*%
X35790000Y73230000D02*
X35790000Y71230000D01*
X7790000Y61230000D02*
X6790000Y61230000D01*
X36790000Y77230000D02*
X36790000Y75230000D01*
X35790000Y70480000D02*
X35540000Y71230000D01*
X8790000Y47230000D02*
X6790000Y47230000D01*
X6790000Y77230000D02*
X8790000Y77230000D01*
X34790000Y74230000D02*
X32790000Y74230000D01*
X7790000Y63230000D02*
X7790000Y61230000D01*
X32790000Y74480000D02*
X32040000Y74230000D01*
X6790000Y61230000D02*
X6790000Y59230000D01*
X6790000Y63230000D02*
X6790000Y65230000D01*
X36040000Y71230000D02*
X35790000Y70480000D01*
X34790000Y77230000D02*
X36790000Y77230000D01*
X32040000Y74230000D02*
X32790000Y73980000D01*
X36790000Y49230000D02*
X36790000Y47230000D01*
X36790000Y47230000D02*
X34790000Y47230000D01*
X35540000Y71230000D02*
X36040000Y71230000D01*
X6790000Y75230000D02*
X6790000Y77230000D01*
X6790000Y63230000D02*
X7790000Y63230000D01*
X32790000Y73980000D02*
X32790000Y74480000D01*
X6790000Y47230000D02*
X6790000Y49230000D01*
X10790000Y71120000D02*
G75*
G03*
X10790000Y71120000I-1000000J0D01*
G01*
%TD*%
%LPC*%
D16*
%TO.C,C9*%
X12192000Y7962000D03*
X12192000Y6262000D03*
%TD*%
D17*
%TO.C,H4*%
X134990000Y5034000D03*
%TD*%
D18*
%TO.C,R6*%
X17184000Y34034000D03*
X18884000Y34034000D03*
%TD*%
D19*
%TO.C,D2*%
X41890000Y71120000D03*
X41890000Y68580000D03*
X41890000Y66040000D03*
X41890000Y63500000D03*
X41890000Y60960000D03*
X41890000Y58420000D03*
X41890000Y55880000D03*
X41890000Y53340000D03*
X65890000Y53340000D03*
X65890000Y55880000D03*
X65890000Y58420000D03*
X65890000Y60960000D03*
X65890000Y63500000D03*
X65890000Y66040000D03*
X65890000Y68580000D03*
X65890000Y71120000D03*
%TD*%
D20*
%TO.C,GND*%
X46228000Y6096000D03*
%TD*%
D21*
%TO.C,Y1*%
X65600000Y28194000D03*
X74100000Y28194000D03*
%TD*%
D16*
%TO.C,R14*%
X48514000Y81184000D03*
X48514000Y82884000D03*
%TD*%
D22*
%TO.C,UP*%
X60990000Y79792000D03*
X52990000Y79792000D03*
X60990000Y84292000D03*
X52990000Y84292000D03*
%TD*%
D18*
%TO.C,C5*%
X60540000Y28194000D03*
X58840000Y28194000D03*
%TD*%
D16*
%TO.C,C12*%
X77490000Y32844000D03*
X77490000Y34544000D03*
%TD*%
D23*
%TO.C,BT1*%
X124460017Y6674314D03*
D24*
X124460017Y27164314D03*
%TD*%
D20*
%TO.C,DATA*%
X99822000Y30226000D03*
%TD*%
D16*
%TO.C,C13*%
X80030000Y34544000D03*
X80030000Y32844000D03*
%TD*%
D19*
%TO.C,D3*%
X73990000Y71120000D03*
X73990000Y68580000D03*
X73990000Y66040000D03*
X73990000Y63500000D03*
X73990000Y60960000D03*
X73990000Y58420000D03*
X73990000Y55880000D03*
X73990000Y53340000D03*
X97990000Y53340000D03*
X97990000Y55880000D03*
X97990000Y58420000D03*
X97990000Y60960000D03*
X97990000Y63500000D03*
X97990000Y66040000D03*
X97990000Y68580000D03*
X97990000Y71120000D03*
%TD*%
D16*
%TO.C,C7*%
X12695000Y34124000D03*
X12695000Y32424000D03*
%TD*%
D20*
%TO.C,CLK*%
X63246000Y33274000D03*
%TD*%
D25*
%TO.C,U6*%
X109210000Y10678000D03*
D26*
X109210000Y13218000D03*
X109210000Y15758000D03*
X109210000Y18298000D03*
X101590000Y18298000D03*
X101590000Y15758000D03*
X101590000Y13218000D03*
X101590000Y10678000D03*
%TD*%
D20*
%TO.C,SDA*%
X109474000Y29718000D03*
%TD*%
D27*
%TO.C,J2*%
X77470000Y6858000D03*
D28*
X80010000Y6858000D03*
X82550000Y6858000D03*
X85090000Y6858000D03*
X87630000Y6858000D03*
%TD*%
D25*
%TO.C,U5*%
X72690000Y37094000D03*
D26*
X75230000Y37094000D03*
X77770000Y37094000D03*
X80310000Y37094000D03*
X82850000Y37094000D03*
X85390000Y37094000D03*
X87930000Y37094000D03*
X90470000Y37094000D03*
X93010000Y37094000D03*
X95550000Y37094000D03*
X98090000Y37094000D03*
X100630000Y37094000D03*
X100630000Y44714000D03*
X98090000Y44714000D03*
X95550000Y44714000D03*
X93010000Y44714000D03*
X90470000Y44714000D03*
X87930000Y44714000D03*
X85390000Y44714000D03*
X82850000Y44714000D03*
X80310000Y44714000D03*
X77770000Y44714000D03*
X75230000Y44714000D03*
X72690000Y44714000D03*
%TD*%
D27*
%TO.C,J5*%
X54610000Y11923000D03*
D28*
X57150000Y11923000D03*
X54610000Y9383000D03*
X57150000Y9383000D03*
X54610000Y6843000D03*
X57150000Y6843000D03*
%TD*%
D16*
%TO.C,C6*%
X10160000Y32424000D03*
X10160000Y34124000D03*
%TD*%
%TO.C,C10*%
X46610000Y33184000D03*
X46610000Y34884000D03*
%TD*%
D29*
%TO.C,Y2*%
X112268000Y13188000D03*
X112268000Y10688000D03*
%TD*%
D16*
%TO.C,R2*%
X91690000Y23684000D03*
X91690000Y25384000D03*
%TD*%
D25*
%TO.C,U7*%
X106675000Y37094000D03*
D26*
X109215000Y37094000D03*
X111755000Y37094000D03*
X114295000Y37094000D03*
X116835000Y37094000D03*
X119375000Y37094000D03*
X121915000Y37094000D03*
X124455000Y37094000D03*
X126995000Y37094000D03*
X129535000Y37094000D03*
X132075000Y37094000D03*
X134615000Y37094000D03*
X134615000Y44714000D03*
X132075000Y44714000D03*
X129535000Y44714000D03*
X126995000Y44714000D03*
X124455000Y44714000D03*
X121915000Y44714000D03*
X119375000Y44714000D03*
X116835000Y44714000D03*
X114295000Y44714000D03*
X111755000Y44714000D03*
X109215000Y44714000D03*
X106675000Y44714000D03*
%TD*%
D18*
%TO.C,R7*%
X52920000Y34544000D03*
X51220000Y34544000D03*
%TD*%
D20*
%TO.C,VCC*%
X40132000Y6096000D03*
%TD*%
D25*
%TO.C,U1*%
X87630000Y23114000D03*
D26*
X85090000Y23114000D03*
X82550000Y23114000D03*
X80010000Y23114000D03*
X77470000Y23114000D03*
X74930000Y23114000D03*
X72390000Y23114000D03*
X69850000Y23114000D03*
X67310000Y23114000D03*
X64770000Y23114000D03*
X62230000Y23114000D03*
X59690000Y23114000D03*
X57150000Y23114000D03*
X54610000Y23114000D03*
X54610000Y15494000D03*
X57150000Y15494000D03*
X59690000Y15494000D03*
X62230000Y15494000D03*
X64770000Y15494000D03*
X67310000Y15494000D03*
X69850000Y15494000D03*
X72390000Y15494000D03*
X74930000Y15494000D03*
X77470000Y15494000D03*
X80010000Y15494000D03*
X82550000Y15494000D03*
X85090000Y15494000D03*
X87630000Y15494000D03*
%TD*%
D30*
%TO.C,U8*%
X101515000Y25939000D03*
X101515000Y24669000D03*
X101515000Y23399000D03*
X101515000Y22129000D03*
X106465000Y22129000D03*
X106465000Y23399000D03*
X106465000Y24669000D03*
X106465000Y25939000D03*
%TD*%
D16*
%TO.C,R9*%
X61468000Y7874000D03*
X61468000Y9574000D03*
%TD*%
D25*
%TO.C,U2*%
X5075000Y37094000D03*
D26*
X7615000Y37094000D03*
X10155000Y37094000D03*
X12695000Y37094000D03*
X15235000Y37094000D03*
X17775000Y37094000D03*
X20315000Y37094000D03*
X22855000Y37094000D03*
X25395000Y37094000D03*
X27935000Y37094000D03*
X30475000Y37094000D03*
X33015000Y37094000D03*
X33015000Y44714000D03*
X30475000Y44714000D03*
X27935000Y44714000D03*
X25395000Y44714000D03*
X22855000Y44714000D03*
X20315000Y44714000D03*
X17775000Y44714000D03*
X15235000Y44714000D03*
X12695000Y44714000D03*
X10155000Y44714000D03*
X7615000Y44714000D03*
X5075000Y44714000D03*
%TD*%
D18*
%TO.C,R8*%
X85940000Y34034000D03*
X84240000Y34034000D03*
%TD*%
D17*
%TO.C,H2*%
X134990000Y85034000D03*
%TD*%
D22*
%TO.C,DOWN*%
X85990000Y79784000D03*
X77990000Y79784000D03*
X85990000Y84284000D03*
X77990000Y84284000D03*
%TD*%
D16*
%TO.C,C14*%
X110490000Y32844000D03*
X110490000Y34544000D03*
%TD*%
D17*
%TO.C,H3*%
X4990000Y5034000D03*
%TD*%
D16*
%TO.C,C11*%
X43990000Y34884000D03*
X43990000Y33184000D03*
%TD*%
%TO.C,R1*%
X91690000Y29044000D03*
X91690000Y27344000D03*
%TD*%
D27*
%TO.C,J1*%
X95250000Y15494000D03*
D28*
X95250000Y18034000D03*
X95250000Y20574000D03*
X95250000Y23114000D03*
X95250000Y25654000D03*
X95250000Y28194000D03*
%TD*%
D18*
%TO.C,R3*%
X94400000Y11938000D03*
X96100000Y11938000D03*
%TD*%
D17*
%TO.C,H1*%
X4990000Y85034000D03*
%TD*%
D20*
%TO.C,SCL*%
X105918000Y30226000D03*
%TD*%
D22*
%TO.C,SELECT*%
X110990000Y79784000D03*
X102990000Y79784000D03*
X110990000Y84284000D03*
X102990000Y84284000D03*
%TD*%
D31*
%TO.C,U3*%
X19806000Y13412000D03*
D32*
X17526000Y7112000D03*
D31*
X15246000Y13412000D03*
%TD*%
D19*
%TO.C,D5*%
X106090000Y71120000D03*
X106090000Y68580000D03*
X106090000Y66040000D03*
X106090000Y63500000D03*
X106090000Y60960000D03*
X106090000Y58420000D03*
X106090000Y55880000D03*
X106090000Y53340000D03*
X130090000Y53340000D03*
X130090000Y55880000D03*
X130090000Y58420000D03*
X130090000Y60960000D03*
X130090000Y63500000D03*
X130090000Y66040000D03*
X130090000Y68580000D03*
X130090000Y71120000D03*
%TD*%
D18*
%TO.C,C2*%
X71240000Y12954000D03*
X72940000Y12954000D03*
%TD*%
D16*
%TO.C,C15*%
X114295000Y34544000D03*
X114295000Y32844000D03*
%TD*%
D18*
%TO.C,R5*%
X94400000Y9398000D03*
X96100000Y9398000D03*
%TD*%
%TO.C,C3*%
X90590000Y21082000D03*
X92290000Y21082000D03*
%TD*%
D16*
%TO.C,R12*%
X114046000Y81184000D03*
X114046000Y82884000D03*
%TD*%
D22*
%TO.C,MODE*%
X35990000Y79792000D03*
X27990000Y79792000D03*
X35990000Y84292000D03*
X27990000Y84292000D03*
%TD*%
D16*
%TO.C,C16*%
X109990000Y25884000D03*
X109990000Y24184000D03*
%TD*%
D18*
%TO.C,R4*%
X90590000Y18796000D03*
X92290000Y18796000D03*
%TD*%
%TO.C,C4*%
X80860000Y28194000D03*
X79160000Y28194000D03*
%TD*%
D20*
%TO.C,LOAD*%
X134366000Y33782000D03*
%TD*%
D33*
%TO.C,D4*%
X64516000Y7952500D03*
X64516000Y9827500D03*
%TD*%
D25*
%TO.C,U4*%
X38990000Y37094000D03*
D26*
X41530000Y37094000D03*
X44070000Y37094000D03*
X46610000Y37094000D03*
X49150000Y37094000D03*
X51690000Y37094000D03*
X54230000Y37094000D03*
X56770000Y37094000D03*
X59310000Y37094000D03*
X61850000Y37094000D03*
X64390000Y37094000D03*
X66930000Y37094000D03*
X66930000Y44714000D03*
X64390000Y44714000D03*
X61850000Y44714000D03*
X59310000Y44714000D03*
X56770000Y44714000D03*
X54230000Y44714000D03*
X51690000Y44714000D03*
X49150000Y44714000D03*
X46610000Y44714000D03*
X44070000Y44714000D03*
X41530000Y44714000D03*
X38990000Y44714000D03*
%TD*%
D18*
%TO.C,R10*%
X120440000Y34034000D03*
X118740000Y34034000D03*
%TD*%
%TO.C,C1*%
X65340000Y12954000D03*
X67040000Y12954000D03*
%TD*%
D27*
%TO.C,J3*%
X73406000Y6858000D03*
D28*
X70866000Y6858000D03*
X68326000Y6858000D03*
%TD*%
D22*
%TO.C,SW1*%
X40450000Y19268000D03*
X48450000Y19268000D03*
X40450000Y14768000D03*
X48450000Y14768000D03*
%TD*%
D16*
%TO.C,C8*%
X23622000Y8470000D03*
X23622000Y6770000D03*
%TD*%
%TO.C,R13*%
X88900000Y81184000D03*
X88900000Y82884000D03*
%TD*%
%TO.C,R11*%
X39116000Y81184000D03*
X39116000Y82884000D03*
%TD*%
D19*
%TO.C,D1*%
X9790000Y71120000D03*
X9790000Y68580000D03*
X9790000Y66040000D03*
X9790000Y63500000D03*
X9790000Y60960000D03*
X9790000Y58420000D03*
X9790000Y55880000D03*
X9790000Y53340000D03*
X33790000Y53340000D03*
X33790000Y55880000D03*
X33790000Y58420000D03*
X33790000Y60960000D03*
X33790000Y63500000D03*
X33790000Y66040000D03*
X33790000Y68580000D03*
X33790000Y71120000D03*
%TD*%
D34*
%TO.C,J4*%
X33274000Y14026000D03*
D35*
X27974000Y16326000D03*
X30474000Y20026000D03*
%TD*%
M02*
