%TF.GenerationSoftware,KiCad,Pcbnew,(6.0.5)*%
%TF.CreationDate,2022-07-22T04:36:02-07:00*%
%TF.ProjectId,CLOCK,434c4f43-4b2e-46b6-9963-61645f706362,rev?*%
%TF.SameCoordinates,PX4c4db10PY8a50b10*%
%TF.FileFunction,Soldermask,Bot*%
%TF.FilePolarity,Negative*%
%FSLAX46Y46*%
G04 Gerber Fmt 4.6, Leading zero omitted, Abs format (unit mm)*
G04 Created by KiCad (PCBNEW (6.0.5)) date 2022-07-22 04:36:02*
%MOMM*%
%LPD*%
G01*
G04 APERTURE LIST*
G04 Aperture macros list*
%AMRoundRect*
0 Rectangle with rounded corners*
0 $1 Rounding radius*
0 $2 $3 $4 $5 $6 $7 $8 $9 X,Y pos of 4 corners*
0 Add a 4 corners polygon primitive as box body*
4,1,4,$2,$3,$4,$5,$6,$7,$8,$9,$2,$3,0*
0 Add four circle primitives for the rounded corners*
1,1,$1+$1,$2,$3*
1,1,$1+$1,$4,$5*
1,1,$1+$1,$6,$7*
1,1,$1+$1,$8,$9*
0 Add four rect primitives between the rounded corners*
20,1,$1+$1,$2,$3,$4,$5,0*
20,1,$1+$1,$4,$5,$6,$7,0*
20,1,$1+$1,$6,$7,$8,$9,0*
20,1,$1+$1,$8,$9,$2,$3,0*%
G04 Aperture macros list end*
%ADD10C,3.200000*%
%ADD11C,1.524000*%
%ADD12C,2.000000*%
%ADD13R,3.000000X3.000000*%
%ADD14C,3.000000*%
%ADD15R,1.600000X1.600000*%
%ADD16O,1.600000X1.600000*%
%ADD17O,1.700000X1.700000*%
%ADD18R,1.700000X1.700000*%
%ADD19RoundRect,0.500000X-1.750000X-0.500000X1.750000X-0.500000X1.750000X0.500000X-1.750000X0.500000X0*%
%ADD20RoundRect,0.500000X0.500000X-1.500000X0.500000X1.500000X-0.500000X1.500000X-0.500000X-1.500000X0*%
G04 APERTURE END LIST*
D10*
%TO.C,H4*%
X134990000Y5034000D03*
%TD*%
D11*
%TO.C,D3*%
X66356000Y70866000D03*
X66356000Y68326000D03*
X66356000Y65786000D03*
X66356000Y63246000D03*
X66356000Y60706000D03*
X66356000Y58166000D03*
X66356000Y55626000D03*
X66356000Y53086000D03*
X42356000Y53086000D03*
X42356000Y55626000D03*
X42356000Y58166000D03*
X42356000Y60706000D03*
X42356000Y63246000D03*
X42356000Y65786000D03*
X42356000Y68326000D03*
X42356000Y70866000D03*
%TD*%
D12*
%TO.C,GND*%
X46228000Y6096000D03*
%TD*%
D13*
%TO.C,BT1*%
X124460017Y6674314D03*
D14*
X124460017Y27164314D03*
%TD*%
D12*
%TO.C,DDATA*%
X99822000Y30226000D03*
%TD*%
D11*
%TO.C,D4*%
X97598000Y70866000D03*
X97598000Y68326000D03*
X97598000Y65786000D03*
X97598000Y63246000D03*
X97598000Y60706000D03*
X97598000Y58166000D03*
X97598000Y55626000D03*
X97598000Y53086000D03*
X73598000Y53086000D03*
X73598000Y55626000D03*
X73598000Y58166000D03*
X73598000Y60706000D03*
X73598000Y63246000D03*
X73598000Y65786000D03*
X73598000Y68326000D03*
X73598000Y70866000D03*
%TD*%
D12*
%TO.C,CLK*%
X63246000Y33274000D03*
%TD*%
D15*
%TO.C,U3*%
X109210000Y10678000D03*
D16*
X109210000Y13218000D03*
X109210000Y15758000D03*
X109210000Y18298000D03*
X101590000Y18298000D03*
X101590000Y15758000D03*
X101590000Y13218000D03*
X101590000Y10678000D03*
%TD*%
D12*
%TO.C,SDA*%
X109474000Y29718000D03*
%TD*%
D17*
%TO.C,J4*%
X87630000Y6858000D03*
X85090000Y6858000D03*
X82550000Y6858000D03*
X80010000Y6858000D03*
D18*
X77470000Y6858000D03*
%TD*%
D15*
%TO.C,U6*%
X72690000Y37094000D03*
D16*
X75230000Y37094000D03*
X77770000Y37094000D03*
X80310000Y37094000D03*
X82850000Y37094000D03*
X85390000Y37094000D03*
X87930000Y37094000D03*
X90470000Y37094000D03*
X93010000Y37094000D03*
X95550000Y37094000D03*
X98090000Y37094000D03*
X100630000Y37094000D03*
X100630000Y44714000D03*
X98090000Y44714000D03*
X95550000Y44714000D03*
X93010000Y44714000D03*
X90470000Y44714000D03*
X87930000Y44714000D03*
X85390000Y44714000D03*
X82850000Y44714000D03*
X80310000Y44714000D03*
X77770000Y44714000D03*
X75230000Y44714000D03*
X72690000Y44714000D03*
%TD*%
D18*
%TO.C,J3*%
X54610000Y11923000D03*
D17*
X57150000Y11923000D03*
X54610000Y9383000D03*
X57150000Y9383000D03*
X54610000Y6843000D03*
X57150000Y6843000D03*
%TD*%
D15*
%TO.C,U7*%
X106675000Y37094000D03*
D16*
X109215000Y37094000D03*
X111755000Y37094000D03*
X114295000Y37094000D03*
X116835000Y37094000D03*
X119375000Y37094000D03*
X121915000Y37094000D03*
X124455000Y37094000D03*
X126995000Y37094000D03*
X129535000Y37094000D03*
X132075000Y37094000D03*
X134615000Y37094000D03*
X134615000Y44714000D03*
X132075000Y44714000D03*
X129535000Y44714000D03*
X126995000Y44714000D03*
X124455000Y44714000D03*
X121915000Y44714000D03*
X119375000Y44714000D03*
X116835000Y44714000D03*
X114295000Y44714000D03*
X111755000Y44714000D03*
X109215000Y44714000D03*
X106675000Y44714000D03*
%TD*%
D12*
%TO.C,VCC*%
X40132000Y6096000D03*
%TD*%
D15*
%TO.C,U1*%
X87630000Y23114000D03*
D16*
X85090000Y23114000D03*
X82550000Y23114000D03*
X80010000Y23114000D03*
X77470000Y23114000D03*
X74930000Y23114000D03*
X72390000Y23114000D03*
X69850000Y23114000D03*
X67310000Y23114000D03*
X64770000Y23114000D03*
X62230000Y23114000D03*
X59690000Y23114000D03*
X57150000Y23114000D03*
X54610000Y23114000D03*
X54610000Y15494000D03*
X57150000Y15494000D03*
X59690000Y15494000D03*
X62230000Y15494000D03*
X64770000Y15494000D03*
X67310000Y15494000D03*
X69850000Y15494000D03*
X72390000Y15494000D03*
X74930000Y15494000D03*
X77470000Y15494000D03*
X80010000Y15494000D03*
X82550000Y15494000D03*
X85090000Y15494000D03*
X87630000Y15494000D03*
%TD*%
D15*
%TO.C,U4*%
X5075000Y37094000D03*
D16*
X7615000Y37094000D03*
X10155000Y37094000D03*
X12695000Y37094000D03*
X15235000Y37094000D03*
X17775000Y37094000D03*
X20315000Y37094000D03*
X22855000Y37094000D03*
X25395000Y37094000D03*
X27935000Y37094000D03*
X30475000Y37094000D03*
X33015000Y37094000D03*
X33015000Y44714000D03*
X30475000Y44714000D03*
X27935000Y44714000D03*
X25395000Y44714000D03*
X22855000Y44714000D03*
X20315000Y44714000D03*
X17775000Y44714000D03*
X15235000Y44714000D03*
X12695000Y44714000D03*
X10155000Y44714000D03*
X7615000Y44714000D03*
X5075000Y44714000D03*
%TD*%
D10*
%TO.C,H2*%
X134990000Y85034000D03*
%TD*%
%TO.C,H3*%
X4990000Y5034000D03*
%TD*%
D18*
%TO.C,J1*%
X95250000Y15494000D03*
D17*
X95250000Y18034000D03*
X95250000Y20574000D03*
X95250000Y23114000D03*
X95250000Y25654000D03*
X95250000Y28194000D03*
%TD*%
D10*
%TO.C,H1*%
X4990000Y85034000D03*
%TD*%
D12*
%TO.C,SCL*%
X105918000Y30226000D03*
%TD*%
D11*
%TO.C,D5*%
X105094000Y70866000D03*
X105094000Y68326000D03*
X105094000Y65786000D03*
X105094000Y63246000D03*
X105094000Y60706000D03*
X105094000Y58166000D03*
X105094000Y55626000D03*
X105094000Y53086000D03*
X129094000Y53086000D03*
X129094000Y55626000D03*
X129094000Y58166000D03*
X129094000Y60706000D03*
X129094000Y63246000D03*
X129094000Y65786000D03*
X129094000Y68326000D03*
X129094000Y70866000D03*
%TD*%
D12*
%TO.C,DLOAD*%
X134366000Y33782000D03*
%TD*%
D15*
%TO.C,U5*%
X38990000Y37094000D03*
D16*
X41530000Y37094000D03*
X44070000Y37094000D03*
X46610000Y37094000D03*
X49150000Y37094000D03*
X51690000Y37094000D03*
X54230000Y37094000D03*
X56770000Y37094000D03*
X59310000Y37094000D03*
X61850000Y37094000D03*
X64390000Y37094000D03*
X66930000Y37094000D03*
X66930000Y44714000D03*
X64390000Y44714000D03*
X61850000Y44714000D03*
X59310000Y44714000D03*
X56770000Y44714000D03*
X54230000Y44714000D03*
X51690000Y44714000D03*
X49150000Y44714000D03*
X46610000Y44714000D03*
X44070000Y44714000D03*
X41530000Y44714000D03*
X38990000Y44714000D03*
%TD*%
D17*
%TO.C,J5*%
X68326000Y6858000D03*
X70866000Y6858000D03*
D18*
X73406000Y6858000D03*
%TD*%
D11*
%TO.C,D2*%
X10860000Y70866000D03*
X10860000Y68326000D03*
X10860000Y65786000D03*
X10860000Y63246000D03*
X10860000Y60706000D03*
X10860000Y58166000D03*
X10860000Y55626000D03*
X10860000Y53086000D03*
X34860000Y53086000D03*
X34860000Y55626000D03*
X34860000Y58166000D03*
X34860000Y60706000D03*
X34860000Y63246000D03*
X34860000Y65786000D03*
X34860000Y68326000D03*
X34860000Y70866000D03*
%TD*%
D19*
%TO.C,REF\u002A\u002A1*%
X33274000Y14026000D03*
D20*
X27974000Y16326000D03*
X30474000Y20026000D03*
%TD*%
M02*
