M48
; DRILL file {KiCad (6.0.5)} date Fri Jul 22 04:36:57 2022
; FORMAT={-:-/ absolute / inch / decimal}
; #@! TF.CreationDate,2022-07-22T04:36:57-07:00
; #@! TF.GenerationSoftware,Kicad,Pcbnew,(6.0.5)
; #@! TF.FileFunction,MixedPlating,1,2
FMAT,2
INCH
; #@! TA.AperFunction,Plated,PTH,ViaDrill
T1C0.0160
; #@! TA.AperFunction,Plated,PTH,ComponentDrill
T2C0.0300
; #@! TA.AperFunction,Plated,PTH,ComponentDrill
T3C0.0315
; #@! TA.AperFunction,Plated,PTH,ComponentDrill
T4C0.0394
; #@! TA.AperFunction,Plated,PTH,ComponentDrill
T5C0.0591
; #@! TA.AperFunction,NonPlated,NPTH,ComponentDrill
T6C0.1260
%
G90
G05
T1
X0.6714Y3.1414
X1.41Y3.07
X1.59Y0.69
X1.89Y3.14
X2.25Y1.11
X2.71Y3.07
X2.75Y3.07
X3.25Y1.11
X3.4823Y0.81
X3.6008Y0.21
X3.6086Y3.1414
X3.65Y0.61
X3.8415Y0.9693
X4.0259Y1.4359
X4.07Y3.07
X4.33Y0.89
X4.85Y3.14
T2
X0.4276Y2.79
X0.4276Y2.69
X0.4276Y2.59
X0.4276Y2.49
X0.4276Y2.39
X0.4276Y2.29
X0.4276Y2.19
X0.4276Y2.09
X1.3724Y2.79
X1.3724Y2.69
X1.3724Y2.59
X1.3724Y2.49
X1.3724Y2.39
X1.3724Y2.29
X1.3724Y2.19
X1.3724Y2.09
X1.6676Y2.79
X1.6676Y2.69
X1.6676Y2.59
X1.6676Y2.49
X1.6676Y2.39
X1.6676Y2.29
X1.6676Y2.19
X1.6676Y2.09
X2.6124Y2.79
X2.6124Y2.69
X2.6124Y2.59
X2.6124Y2.49
X2.6124Y2.39
X2.6124Y2.29
X2.6124Y2.19
X2.6124Y2.09
X2.8976Y2.79
X2.8976Y2.69
X2.8976Y2.59
X2.8976Y2.49
X2.8976Y2.39
X2.8976Y2.29
X2.8976Y2.19
X2.8976Y2.09
X3.8424Y2.79
X3.8424Y2.69
X3.8424Y2.59
X3.8424Y2.49
X3.8424Y2.39
X3.8424Y2.29
X3.8424Y2.19
X3.8424Y2.09
X4.1376Y2.79
X4.1376Y2.69
X4.1376Y2.59
X4.1376Y2.49
X4.1376Y2.39
X4.1376Y2.29
X4.1376Y2.19
X4.1376Y2.09
X5.0824Y2.79
X5.0824Y2.69
X5.0824Y2.59
X5.0824Y2.49
X5.0824Y2.39
X5.0824Y2.29
X5.0824Y2.19
X5.0824Y2.09
T3
X0.1998Y1.7604
X0.1998Y1.4604
X0.2998Y1.7604
X0.2998Y1.4604
X0.3998Y1.7604
X0.3998Y1.4604
X0.4998Y1.7604
X0.4998Y1.4604
X0.5998Y1.7604
X0.5998Y1.4604
X0.6998Y1.7604
X0.6998Y1.4604
X0.7998Y1.7604
X0.7998Y1.4604
X0.8998Y1.7604
X0.8998Y1.4604
X0.9998Y1.7604
X0.9998Y1.4604
X1.0998Y1.7604
X1.0998Y1.4604
X1.1998Y1.7604
X1.1998Y1.4604
X1.2998Y1.7604
X1.2998Y1.4604
X1.535Y1.7604
X1.535Y1.4604
X1.635Y1.7604
X1.635Y1.4604
X1.735Y1.7604
X1.735Y1.4604
X1.835Y1.7604
X1.835Y1.4604
X1.935Y1.7604
X1.935Y1.4604
X2.035Y1.7604
X2.035Y1.4604
X2.135Y1.7604
X2.135Y1.4604
X2.15Y0.91
X2.15Y0.61
X2.235Y1.7604
X2.235Y1.4604
X2.25Y0.91
X2.25Y0.61
X2.335Y1.7604
X2.335Y1.4604
X2.35Y0.91
X2.35Y0.61
X2.435Y1.7604
X2.435Y1.4604
X2.45Y0.91
X2.45Y0.61
X2.535Y1.7604
X2.535Y1.4604
X2.55Y0.91
X2.55Y0.61
X2.635Y1.7604
X2.635Y1.4604
X2.65Y0.91
X2.65Y0.61
X2.75Y0.91
X2.75Y0.61
X2.85Y0.91
X2.85Y0.61
X2.8618Y1.7604
X2.8618Y1.4604
X2.95Y0.91
X2.95Y0.61
X2.9618Y1.7604
X2.9618Y1.4604
X3.05Y0.91
X3.05Y0.61
X3.0618Y1.7604
X3.0618Y1.4604
X3.15Y0.91
X3.15Y0.61
X3.1618Y1.7604
X3.1618Y1.4604
X3.25Y0.91
X3.25Y0.61
X3.2618Y1.7604
X3.2618Y1.4604
X3.35Y0.91
X3.35Y0.61
X3.3618Y1.7604
X3.3618Y1.4604
X3.45Y0.91
X3.45Y0.61
X3.4618Y1.7604
X3.4618Y1.4604
X3.5618Y1.7604
X3.5618Y1.4604
X3.6618Y1.7604
X3.6618Y1.4604
X3.7618Y1.7604
X3.7618Y1.4604
X3.8618Y1.7604
X3.8618Y1.4604
X3.9618Y1.7604
X3.9618Y1.4604
X3.9996Y0.7204
X3.9996Y0.6204
X3.9996Y0.5204
X3.9996Y0.4204
X4.1998Y1.7604
X4.1998Y1.4604
X4.2996Y0.7204
X4.2996Y0.6204
X4.2996Y0.5204
X4.2996Y0.4204
X4.2998Y1.7604
X4.2998Y1.4604
X4.3998Y1.7604
X4.3998Y1.4604
X4.4998Y1.7604
X4.4998Y1.4604
X4.5998Y1.7604
X4.5998Y1.4604
X4.6998Y1.7604
X4.6998Y1.4604
X4.7998Y1.7604
X4.7998Y1.4604
X4.8998Y1.7604
X4.8998Y1.4604
X4.9998Y1.7604
X4.9998Y1.4604
X5.0998Y1.7604
X5.0998Y1.4604
X5.1998Y1.7604
X5.1998Y1.4604
X5.2998Y1.7604
X5.2998Y1.4604
T4
X1.58Y0.24
X1.82Y0.24
X2.15Y0.4694
X2.15Y0.3694
X2.15Y0.2694
X2.25Y0.4694
X2.25Y0.3694
X2.25Y0.2694
X2.49Y1.31
X2.69Y0.27
X2.79Y0.27
X2.89Y0.27
X3.05Y0.27
X3.15Y0.27
X3.25Y0.27
X3.35Y0.27
X3.45Y0.27
X3.75Y1.11
X3.75Y1.01
X3.75Y0.91
X3.75Y0.81
X3.75Y0.71
X3.75Y0.61
X3.93Y1.19
X4.17Y1.19
X4.31Y1.17
X5.29Y1.33
T5
X4.9Y1.0695
X4.9Y0.2628
T6
X0.1965Y3.3478
X0.1965Y0.1982
X5.3146Y3.3478
X5.3146Y0.1982
T4
G00X1.1013Y0.6034
M15
G01X1.1013Y0.6821
M16
G05
G00X1.1998Y0.7491
M15
G01X1.1998Y0.8278
M16
G05
G00X1.2608Y0.5522
M15
G01X1.3592Y0.5522
M16
G05
T0
M30
