%TF.GenerationSoftware,KiCad,Pcbnew,(6.0.5)*%
%TF.CreationDate,2022-07-22T04:36:01-07:00*%
%TF.ProjectId,CLOCK,434c4f43-4b2e-46b6-9963-61645f706362,rev?*%
%TF.SameCoordinates,PX4c4db10PY8a50b10*%
%TF.FileFunction,Legend,Bot*%
%TF.FilePolarity,Positive*%
%FSLAX46Y46*%
G04 Gerber Fmt 4.6, Leading zero omitted, Abs format (unit mm)*
G04 Created by KiCad (PCBNEW (6.0.5)) date 2022-07-22 04:36:01*
%MOMM*%
%LPD*%
G01*
G04 APERTURE LIST*
G04 Aperture macros list*
%AMRoundRect*
0 Rectangle with rounded corners*
0 $1 Rounding radius*
0 $2 $3 $4 $5 $6 $7 $8 $9 X,Y pos of 4 corners*
0 Add a 4 corners polygon primitive as box body*
4,1,4,$2,$3,$4,$5,$6,$7,$8,$9,$2,$3,0*
0 Add four circle primitives for the rounded corners*
1,1,$1+$1,$2,$3*
1,1,$1+$1,$4,$5*
1,1,$1+$1,$6,$7*
1,1,$1+$1,$8,$9*
0 Add four rect primitives between the rounded corners*
20,1,$1+$1,$2,$3,$4,$5,0*
20,1,$1+$1,$4,$5,$6,$7,0*
20,1,$1+$1,$6,$7,$8,$9,0*
20,1,$1+$1,$8,$9,$2,$3,0*%
G04 Aperture macros list end*
%ADD10C,0.304800*%
%ADD11C,0.150000*%
%ADD12C,0.120000*%
%ADD13C,3.200000*%
%ADD14C,1.524000*%
%ADD15C,2.000000*%
%ADD16R,3.000000X3.000000*%
%ADD17C,3.000000*%
%ADD18R,1.600000X1.600000*%
%ADD19O,1.600000X1.600000*%
%ADD20O,1.700000X1.700000*%
%ADD21R,1.700000X1.700000*%
%ADD22RoundRect,0.500000X-1.750000X-0.500000X1.750000X-0.500000X1.750000X0.500000X-1.750000X0.500000X0*%
%ADD23RoundRect,0.500000X0.500000X-1.500000X0.500000X1.500000X-0.500000X1.500000X-0.500000X-1.500000X0*%
G04 APERTURE END LIST*
D10*
X93181714Y20173043D02*
X91744800Y20173043D01*
X92463257Y17658443D02*
X92463257Y20173043D01*
X89469685Y17658443D02*
X90307885Y18855872D01*
X90906600Y17658443D02*
X90906600Y20173043D01*
X89948657Y20173043D01*
X89709171Y20053300D01*
X89589428Y19933558D01*
X89469685Y19694072D01*
X89469685Y19334843D01*
X89589428Y19095358D01*
X89709171Y18975615D01*
X89948657Y18855872D01*
X90906600Y18855872D01*
X88392000Y20173043D02*
X88392000Y18137415D01*
X88272257Y17897929D01*
X88152514Y17778186D01*
X87913028Y17658443D01*
X87434057Y17658443D01*
X87194571Y17778186D01*
X87074828Y17897929D01*
X86955085Y18137415D01*
X86955085Y20173043D01*
X86116885Y20173043D02*
X84679971Y20173043D01*
X85398428Y17658443D02*
X85398428Y20173043D01*
X83841771Y17658443D02*
X83841771Y20173043D01*
X83841771Y18975615D02*
X82404857Y18975615D01*
X82404857Y17658443D02*
X82404857Y20173043D01*
X81087685Y17778186D02*
X81087685Y17658443D01*
X81207428Y17418958D01*
X81327171Y17299215D01*
X78812571Y17658443D02*
X80010000Y17658443D01*
X80010000Y20173043D01*
X77495400Y20173043D02*
X77016428Y20173043D01*
X76776942Y20053300D01*
X76537457Y19813815D01*
X76417714Y19334843D01*
X76417714Y18496643D01*
X76537457Y18017672D01*
X76776942Y17778186D01*
X77016428Y17658443D01*
X77495400Y17658443D01*
X77734885Y17778186D01*
X77974371Y18017672D01*
X78094114Y18496643D01*
X78094114Y19334843D01*
X77974371Y19813815D01*
X77734885Y20053300D01*
X77495400Y20173043D01*
X74861057Y18855872D02*
X74861057Y17658443D01*
X75699257Y20173043D02*
X74861057Y18855872D01*
X74022857Y20173043D01*
X73304400Y18376900D02*
X72106971Y18376900D01*
X73543885Y17658443D02*
X72705685Y20173043D01*
X71867485Y17658443D01*
X69831857Y17658443D02*
X71029285Y17658443D01*
X71029285Y20173043D01*
X69352885Y20173043D02*
X67915971Y20173043D01*
X68634428Y17658443D02*
X68634428Y20173043D01*
X66598800Y18855872D02*
X66598800Y17658443D01*
X67437000Y20173043D02*
X66598800Y18855872D01*
X65760600Y20173043D01*
X64802657Y17778186D02*
X64802657Y17658443D01*
X64922400Y17418958D01*
X65042142Y17299215D01*
X63964457Y20173043D02*
X63365742Y17658443D01*
X62886771Y19454586D01*
X62407800Y17658443D01*
X61809085Y20173043D01*
X60851142Y17658443D02*
X60851142Y20173043D01*
X59773457Y17778186D02*
X59414228Y17658443D01*
X58815514Y17658443D01*
X58576028Y17778186D01*
X58456285Y17897929D01*
X58336542Y18137415D01*
X58336542Y18376900D01*
X58456285Y18616386D01*
X58576028Y18736129D01*
X58815514Y18855872D01*
X59294485Y18975615D01*
X59533971Y19095358D01*
X59653714Y19215100D01*
X59773457Y19454586D01*
X59773457Y19694072D01*
X59653714Y19933558D01*
X59533971Y20053300D01*
X59294485Y20173043D01*
X58695771Y20173043D01*
X58336542Y20053300D01*
X57258857Y17658443D02*
X57258857Y20173043D01*
X56660142Y20173043D01*
X56300914Y20053300D01*
X56061428Y19813815D01*
X55941685Y19574329D01*
X55821942Y19095358D01*
X55821942Y18736129D01*
X55941685Y18257158D01*
X56061428Y18017672D01*
X56300914Y17778186D01*
X56660142Y17658443D01*
X57258857Y17658443D01*
X54265285Y20173043D02*
X53786314Y20173043D01*
X53546828Y20053300D01*
X53307342Y19813815D01*
X53187600Y19334843D01*
X53187600Y18496643D01*
X53307342Y18017672D01*
X53546828Y17778186D01*
X53786314Y17658443D01*
X54265285Y17658443D01*
X54504771Y17778186D01*
X54744257Y18017672D01*
X54864000Y18496643D01*
X54864000Y19334843D01*
X54744257Y19813815D01*
X54504771Y20053300D01*
X54265285Y20173043D01*
X52109914Y17658443D02*
X52109914Y20173043D01*
X51271714Y18376900D01*
X50433514Y20173043D01*
X50433514Y17658443D01*
X120588314Y5099958D02*
X120588314Y3086100D01*
X120722571Y2683329D01*
X120991085Y2414815D01*
X121393857Y2280558D01*
X121662371Y2280558D01*
X119245742Y5099958D02*
X119245742Y2817586D01*
X119111485Y2549072D01*
X118977228Y2414815D01*
X118708714Y2280558D01*
X118171685Y2280558D01*
X117903171Y2414815D01*
X117768914Y2549072D01*
X117634657Y2817586D01*
X117634657Y5099958D01*
X116292085Y2280558D02*
X116292085Y5099958D01*
X114681000Y2280558D01*
X114681000Y5099958D01*
X113338428Y3757386D02*
X112398628Y3757386D01*
X111995857Y2280558D02*
X113338428Y2280558D01*
X113338428Y5099958D01*
X111995857Y5099958D01*
X110787542Y3354615D02*
X108639428Y3354615D01*
X107431114Y3086100D02*
X106088542Y3086100D01*
X107699628Y2280558D02*
X106759828Y5099958D01*
X105820028Y2280558D01*
X104880228Y5099958D02*
X104880228Y2817586D01*
X104745971Y2549072D01*
X104611714Y2414815D01*
X104343200Y2280558D01*
X103806171Y2280558D01*
X103537657Y2414815D01*
X103403400Y2549072D01*
X103269142Y2817586D01*
X103269142Y5099958D01*
X100449742Y4965700D02*
X100718257Y5099958D01*
X101121028Y5099958D01*
X101523800Y4965700D01*
X101792314Y4697186D01*
X101926571Y4428672D01*
X102060828Y3891643D01*
X102060828Y3488872D01*
X101926571Y2951843D01*
X101792314Y2683329D01*
X101523800Y2414815D01*
X101121028Y2280558D01*
X100852514Y2280558D01*
X100449742Y2414815D01*
X100315485Y2549072D01*
X100315485Y3488872D01*
X100852514Y3488872D01*
X99107171Y5099958D02*
X99107171Y2817586D01*
X98972914Y2549072D01*
X98838657Y2414815D01*
X98570142Y2280558D01*
X98033114Y2280558D01*
X97764600Y2414815D01*
X97630342Y2549072D01*
X97496085Y2817586D01*
X97496085Y5099958D01*
X96287771Y2414815D02*
X95885000Y2280558D01*
X95213714Y2280558D01*
X94945200Y2414815D01*
X94810942Y2549072D01*
X94676685Y2817586D01*
X94676685Y3086100D01*
X94810942Y3354615D01*
X94945200Y3488872D01*
X95213714Y3623129D01*
X95750742Y3757386D01*
X96019257Y3891643D01*
X96153514Y4025900D01*
X96287771Y4294415D01*
X96287771Y4562929D01*
X96153514Y4831443D01*
X96019257Y4965700D01*
X95750742Y5099958D01*
X95079457Y5099958D01*
X94676685Y4965700D01*
X93871142Y5099958D02*
X92260057Y5099958D01*
X93065600Y2280558D02*
X93065600Y5099958D01*
X89306400Y4831443D02*
X89172142Y4965700D01*
X88903628Y5099958D01*
X88232342Y5099958D01*
X87963828Y4965700D01*
X87829571Y4831443D01*
X87695314Y4562929D01*
X87695314Y4294415D01*
X87829571Y3891643D01*
X89440657Y2280558D01*
X87695314Y2280558D01*
X85949971Y5099958D02*
X85681457Y5099958D01*
X85412942Y4965700D01*
X85278685Y4831443D01*
X85144428Y4562929D01*
X85010171Y4025900D01*
X85010171Y3354615D01*
X85144428Y2817586D01*
X85278685Y2549072D01*
X85412942Y2414815D01*
X85681457Y2280558D01*
X85949971Y2280558D01*
X86218485Y2414815D01*
X86352742Y2549072D01*
X86487000Y2817586D01*
X86621257Y3354615D01*
X86621257Y4025900D01*
X86487000Y4562929D01*
X86352742Y4831443D01*
X86218485Y4965700D01*
X85949971Y5099958D01*
X83936114Y4831443D02*
X83801857Y4965700D01*
X83533342Y5099958D01*
X82862057Y5099958D01*
X82593542Y4965700D01*
X82459285Y4831443D01*
X82325028Y4562929D01*
X82325028Y4294415D01*
X82459285Y3891643D01*
X84070371Y2280558D01*
X82325028Y2280558D01*
X81250971Y4831443D02*
X81116714Y4965700D01*
X80848200Y5099958D01*
X80176914Y5099958D01*
X79908400Y4965700D01*
X79774142Y4831443D01*
X79639885Y4562929D01*
X79639885Y4294415D01*
X79774142Y3891643D01*
X81385228Y2280558D01*
X79639885Y2280558D01*
X58695771Y61183158D02*
X59279971Y62017729D01*
X59697257Y61183158D02*
X59697257Y62935758D01*
X59029600Y62935758D01*
X58862685Y62852300D01*
X58779228Y62768843D01*
X58695771Y62601929D01*
X58695771Y62351558D01*
X58779228Y62184643D01*
X58862685Y62101186D01*
X59029600Y62017729D01*
X59697257Y62017729D01*
X57944657Y62101186D02*
X57360457Y62101186D01*
X57110085Y61183158D02*
X57944657Y61183158D01*
X57944657Y62935758D01*
X57110085Y62935758D01*
X56442428Y61266615D02*
X56192057Y61183158D01*
X55774771Y61183158D01*
X55607857Y61266615D01*
X55524400Y61350072D01*
X55440942Y61516986D01*
X55440942Y61683900D01*
X55524400Y61850815D01*
X55607857Y61934272D01*
X55774771Y62017729D01*
X56108600Y62101186D01*
X56275514Y62184643D01*
X56358971Y62268100D01*
X56442428Y62435015D01*
X56442428Y62601929D01*
X56358971Y62768843D01*
X56275514Y62852300D01*
X56108600Y62935758D01*
X55691314Y62935758D01*
X55440942Y62852300D01*
X54689828Y61183158D02*
X54689828Y62935758D01*
X54022171Y62935758D01*
X53855257Y62852300D01*
X53771800Y62768843D01*
X53688342Y62601929D01*
X53688342Y62351558D01*
X53771800Y62184643D01*
X53855257Y62101186D01*
X54022171Y62017729D01*
X54689828Y62017729D01*
X52937228Y62101186D02*
X52353028Y62101186D01*
X52102657Y61183158D02*
X52937228Y61183158D01*
X52937228Y62935758D01*
X52102657Y62935758D01*
X51601914Y62935758D02*
X50600428Y62935758D01*
X51101171Y61183158D02*
X51101171Y62935758D01*
X49682400Y62935758D02*
X49348571Y62935758D01*
X49181657Y62852300D01*
X49014742Y62685386D01*
X48931285Y62351558D01*
X48931285Y61767358D01*
X49014742Y61433529D01*
X49181657Y61266615D01*
X49348571Y61183158D01*
X49682400Y61183158D01*
X49849314Y61266615D01*
X50016228Y61433529D01*
X50099685Y61767358D01*
X50099685Y62351558D01*
X50016228Y62685386D01*
X49849314Y62852300D01*
X49682400Y62935758D01*
X88811100Y61683900D02*
X87976528Y61683900D01*
X88978014Y61183158D02*
X88393814Y62935758D01*
X87809614Y61183158D01*
X87225414Y61183158D02*
X87225414Y62935758D01*
X86641214Y61683900D01*
X86057014Y62935758D01*
X86057014Y61183158D01*
X84888614Y62935758D02*
X84554785Y62935758D01*
X84387871Y62852300D01*
X84220957Y62685386D01*
X84137500Y62351558D01*
X84137500Y61767358D01*
X84220957Y61433529D01*
X84387871Y61266615D01*
X84554785Y61183158D01*
X84888614Y61183158D01*
X85055528Y61266615D01*
X85222442Y61433529D01*
X85305900Y61767358D01*
X85305900Y62351558D01*
X85222442Y62685386D01*
X85055528Y62852300D01*
X84888614Y62935758D01*
X82384900Y61183158D02*
X82969100Y62017729D01*
X83386385Y61183158D02*
X83386385Y62935758D01*
X82718728Y62935758D01*
X82551814Y62852300D01*
X82468357Y62768843D01*
X82384900Y62601929D01*
X82384900Y62351558D01*
X82468357Y62184643D01*
X82551814Y62101186D01*
X82718728Y62017729D01*
X83386385Y62017729D01*
X90973728Y28696558D02*
X92316300Y28696558D01*
X92316300Y31515958D01*
X90033928Y31515958D02*
X90033928Y29233586D01*
X89899671Y28965072D01*
X89765414Y28830815D01*
X89496900Y28696558D01*
X88959871Y28696558D01*
X88691357Y28830815D01*
X88557100Y28965072D01*
X88422842Y29233586D01*
X88422842Y31515958D01*
X86274728Y31515958D02*
X86274728Y29502100D01*
X86408985Y29099329D01*
X86677500Y28830815D01*
X87080271Y28696558D01*
X87348785Y28696558D01*
X85066414Y29502100D02*
X83723842Y29502100D01*
X85334928Y28696558D02*
X84395128Y31515958D01*
X83455328Y28696558D01*
X82515528Y28696558D02*
X82515528Y31515958D01*
X80904442Y28696558D01*
X80904442Y31515958D01*
X77816528Y31515958D02*
X76876728Y28696558D01*
X75936928Y31515958D01*
X74997128Y28696558D02*
X74997128Y31515958D01*
X72311985Y28696558D02*
X73654557Y28696558D01*
X73654557Y31515958D01*
X70029614Y28696558D02*
X71372185Y28696558D01*
X71372185Y31515958D01*
X69224071Y29502100D02*
X67881500Y29502100D01*
X69492585Y28696558D02*
X68552785Y31515958D01*
X67612985Y28696558D01*
X66807442Y28830815D02*
X66404671Y28696558D01*
X65733385Y28696558D01*
X65464871Y28830815D01*
X65330614Y28965072D01*
X65196357Y29233586D01*
X65196357Y29502100D01*
X65330614Y29770615D01*
X65464871Y29904872D01*
X65733385Y30039129D01*
X66270414Y30173386D01*
X66538928Y30307643D01*
X66673185Y30441900D01*
X66807442Y30710415D01*
X66807442Y30978929D01*
X66673185Y31247443D01*
X66538928Y31381700D01*
X66270414Y31515958D01*
X65599128Y31515958D01*
X65196357Y31381700D01*
X64122300Y29502100D02*
X62779728Y29502100D01*
X64390814Y28696558D02*
X63451014Y31515958D01*
X62511214Y28696558D01*
X61571414Y28696558D02*
X61571414Y31515958D01*
X59960328Y28696558D01*
X59960328Y31515958D01*
X58752014Y29502100D02*
X57409442Y29502100D01*
X59020528Y28696558D02*
X58080728Y31515958D01*
X57140928Y28696558D01*
X89395300Y59053186D02*
X89979500Y59053186D01*
X89979500Y58135158D02*
X89979500Y59887758D01*
X89144928Y59887758D01*
X88560728Y58635900D02*
X87726157Y58635900D01*
X88727642Y58135158D02*
X88143442Y59887758D01*
X87559242Y58135158D01*
X86975042Y58135158D02*
X86975042Y59887758D01*
X86390842Y58635900D01*
X85806642Y59887758D01*
X85806642Y58135158D01*
X84972071Y58135158D02*
X84972071Y59887758D01*
X83302928Y58135158D02*
X84137500Y58135158D01*
X84137500Y59887758D01*
X82718728Y58135158D02*
X82718728Y59887758D01*
X81967614Y58635900D02*
X81133042Y58635900D01*
X82134528Y58135158D02*
X81550328Y59887758D01*
X80966128Y58135158D01*
X85031942Y49644300D02*
X85198857Y49727758D01*
X85449228Y49727758D01*
X85699600Y49644300D01*
X85866514Y49477386D01*
X85949971Y49310472D01*
X86033428Y48976643D01*
X86033428Y48726272D01*
X85949971Y48392443D01*
X85866514Y48225529D01*
X85699600Y48058615D01*
X85449228Y47975158D01*
X85282314Y47975158D01*
X85031942Y48058615D01*
X84948485Y48142072D01*
X84948485Y48726272D01*
X85282314Y48726272D01*
X84197371Y47975158D02*
X84197371Y49727758D01*
X82528228Y47975158D02*
X83362800Y47975158D01*
X83362800Y49727758D01*
X81359828Y48893186D02*
X81109457Y48809729D01*
X81026000Y48726272D01*
X80942542Y48559358D01*
X80942542Y48308986D01*
X81026000Y48142072D01*
X81109457Y48058615D01*
X81276371Y47975158D01*
X81944028Y47975158D01*
X81944028Y49727758D01*
X81359828Y49727758D01*
X81192914Y49644300D01*
X81109457Y49560843D01*
X81026000Y49393929D01*
X81026000Y49227015D01*
X81109457Y49060100D01*
X81192914Y48976643D01*
X81359828Y48893186D01*
X81944028Y48893186D01*
X80191428Y48893186D02*
X79607228Y48893186D01*
X79356857Y47975158D02*
X80191428Y47975158D01*
X80191428Y49727758D01*
X79356857Y49727758D01*
X77604257Y47975158D02*
X78188457Y48809729D01*
X78605742Y47975158D02*
X78605742Y49727758D01*
X77938085Y49727758D01*
X77771171Y49644300D01*
X77687714Y49560843D01*
X77604257Y49393929D01*
X77604257Y49143558D01*
X77687714Y48976643D01*
X77771171Y48893186D01*
X77938085Y48809729D01*
X78605742Y48809729D01*
X77103514Y49727758D02*
X76102028Y49727758D01*
X76602771Y47975158D02*
X76602771Y49727758D01*
X75184000Y49727758D02*
X74850171Y49727758D01*
X74683257Y49644300D01*
X74516342Y49477386D01*
X74432885Y49143558D01*
X74432885Y48559358D01*
X74516342Y48225529D01*
X74683257Y48058615D01*
X74850171Y47975158D01*
X75184000Y47975158D01*
X75350914Y48058615D01*
X75517828Y48225529D01*
X75601285Y48559358D01*
X75601285Y49143558D01*
X75517828Y49477386D01*
X75350914Y49644300D01*
X75184000Y49727758D01*
X73431400Y49727758D02*
X73431400Y49310472D01*
X73848685Y49477386D02*
X73431400Y49310472D01*
X73014114Y49477386D01*
X73681771Y48976643D02*
X73431400Y49310472D01*
X73181028Y48976643D01*
X71511885Y47975158D02*
X72346457Y47975158D01*
X72346457Y49727758D01*
X71011142Y48475900D02*
X70176571Y48475900D01*
X71178057Y47975158D02*
X70593857Y49727758D01*
X70009657Y47975158D01*
X69425457Y49727758D02*
X69425457Y48308986D01*
X69342000Y48142072D01*
X69258542Y48058615D01*
X69091628Y47975158D01*
X68757800Y47975158D01*
X68590885Y48058615D01*
X68507428Y48142072D01*
X68423971Y48308986D01*
X68423971Y49727758D01*
X66587914Y47975158D02*
X67172114Y48809729D01*
X67589400Y47975158D02*
X67589400Y49727758D01*
X66921742Y49727758D01*
X66754828Y49644300D01*
X66671371Y49560843D01*
X66587914Y49393929D01*
X66587914Y49143558D01*
X66671371Y48976643D01*
X66754828Y48893186D01*
X66921742Y48809729D01*
X67589400Y48809729D01*
X65920257Y48475900D02*
X65085685Y48475900D01*
X66087171Y47975158D02*
X65502971Y49727758D01*
X64918771Y47975158D01*
X64084200Y49727758D02*
X64084200Y49310472D01*
X64501485Y49477386D02*
X64084200Y49310472D01*
X63666914Y49477386D01*
X64334571Y48976643D02*
X64084200Y49310472D01*
X63833828Y48976643D01*
X62415057Y48893186D02*
X62164685Y48809729D01*
X62081228Y48726272D01*
X61997771Y48559358D01*
X61997771Y48308986D01*
X62081228Y48142072D01*
X62164685Y48058615D01*
X62331600Y47975158D01*
X62999257Y47975158D01*
X62999257Y49727758D01*
X62415057Y49727758D01*
X62248142Y49644300D01*
X62164685Y49560843D01*
X62081228Y49393929D01*
X62081228Y49227015D01*
X62164685Y49060100D01*
X62248142Y48976643D01*
X62415057Y48893186D01*
X62999257Y48893186D01*
X61246657Y48893186D02*
X60662457Y48893186D01*
X60412085Y47975158D02*
X61246657Y47975158D01*
X61246657Y49727758D01*
X60412085Y49727758D01*
X58659485Y47975158D02*
X59243685Y48809729D01*
X59660971Y47975158D02*
X59660971Y49727758D01*
X58993314Y49727758D01*
X58826400Y49644300D01*
X58742942Y49560843D01*
X58659485Y49393929D01*
X58659485Y49143558D01*
X58742942Y48976643D01*
X58826400Y48893186D01*
X58993314Y48809729D01*
X59660971Y48809729D01*
X57908371Y47975158D02*
X57908371Y49727758D01*
X56906885Y47975158D01*
X56906885Y49727758D01*
X56072314Y47975158D02*
X56072314Y49727758D01*
X54236257Y48142072D02*
X54319714Y48058615D01*
X54570085Y47975158D01*
X54737000Y47975158D01*
X54987371Y48058615D01*
X55154285Y48225529D01*
X55237742Y48392443D01*
X55321200Y48726272D01*
X55321200Y48976643D01*
X55237742Y49310472D01*
X55154285Y49477386D01*
X54987371Y49644300D01*
X54737000Y49727758D01*
X54570085Y49727758D01*
X54319714Y49644300D01*
X54236257Y49560843D01*
X53485142Y48893186D02*
X52900942Y48893186D01*
X52650571Y47975158D02*
X53485142Y47975158D01*
X53485142Y49727758D01*
X52650571Y49727758D01*
X67375314Y73375158D02*
X67959514Y74209729D01*
X68376800Y73375158D02*
X68376800Y75127758D01*
X67709142Y75127758D01*
X67542228Y75044300D01*
X67458771Y74960843D01*
X67375314Y74793929D01*
X67375314Y74543558D01*
X67458771Y74376643D01*
X67542228Y74293186D01*
X67709142Y74209729D01*
X68376800Y74209729D01*
X66624200Y73375158D02*
X66624200Y75127758D01*
X66040000Y75127758D02*
X65455800Y73375158D01*
X64871600Y75127758D01*
X64287400Y74293186D02*
X63703200Y74293186D01*
X63452828Y73375158D02*
X64287400Y73375158D01*
X64287400Y75127758D01*
X63452828Y75127758D01*
X61700228Y73375158D02*
X62284428Y74209729D01*
X62701714Y73375158D02*
X62701714Y75127758D01*
X62034057Y75127758D01*
X61867142Y75044300D01*
X61783685Y74960843D01*
X61700228Y74793929D01*
X61700228Y74543558D01*
X61783685Y74376643D01*
X61867142Y74293186D01*
X62034057Y74209729D01*
X62701714Y74209729D01*
X61032571Y73458615D02*
X60782200Y73375158D01*
X60364914Y73375158D01*
X60198000Y73458615D01*
X60114542Y73542072D01*
X60031085Y73708986D01*
X60031085Y73875900D01*
X60114542Y74042815D01*
X60198000Y74126272D01*
X60364914Y74209729D01*
X60698742Y74293186D01*
X60865657Y74376643D01*
X60949114Y74460100D01*
X61032571Y74627015D01*
X61032571Y74793929D01*
X60949114Y74960843D01*
X60865657Y75044300D01*
X60698742Y75127758D01*
X60281457Y75127758D01*
X60031085Y75044300D01*
X59279971Y73375158D02*
X59279971Y75127758D01*
X58445400Y73375158D02*
X58445400Y75127758D01*
X58028114Y75127758D01*
X57777742Y75044300D01*
X57610828Y74877386D01*
X57527371Y74710472D01*
X57443914Y74376643D01*
X57443914Y74126272D01*
X57527371Y73792443D01*
X57610828Y73625529D01*
X57777742Y73458615D01*
X58028114Y73375158D01*
X58445400Y73375158D01*
X56692800Y74293186D02*
X56108600Y74293186D01*
X55858228Y73375158D02*
X56692800Y73375158D01*
X56692800Y75127758D01*
X55858228Y75127758D01*
X55023657Y73458615D02*
X55023657Y73375158D01*
X55107114Y73208243D01*
X55190571Y73124786D01*
X53271057Y73542072D02*
X53354514Y73458615D01*
X53604885Y73375158D01*
X53771800Y73375158D01*
X54022171Y73458615D01*
X54189085Y73625529D01*
X54272542Y73792443D01*
X54356000Y74126272D01*
X54356000Y74376643D01*
X54272542Y74710472D01*
X54189085Y74877386D01*
X54022171Y75044300D01*
X53771800Y75127758D01*
X53604885Y75127758D01*
X53354514Y75044300D01*
X53271057Y74960843D01*
X52603400Y73875900D02*
X51768828Y73875900D01*
X52770314Y73375158D02*
X52186114Y75127758D01*
X51601914Y73375158D01*
X50183142Y73375158D02*
X51017714Y73375158D01*
X51017714Y75127758D01*
X49598942Y73375158D02*
X49598942Y75127758D01*
X48180171Y74293186D02*
X48764371Y74293186D01*
X48764371Y73375158D02*
X48764371Y75127758D01*
X47929800Y75127758D01*
X46928314Y75127758D02*
X46594485Y75127758D01*
X46427571Y75044300D01*
X46260657Y74877386D01*
X46177200Y74543558D01*
X46177200Y73959358D01*
X46260657Y73625529D01*
X46427571Y73458615D01*
X46594485Y73375158D01*
X46928314Y73375158D01*
X47095228Y73458615D01*
X47262142Y73625529D01*
X47345600Y73959358D01*
X47345600Y74543558D01*
X47262142Y74877386D01*
X47095228Y75044300D01*
X46928314Y75127758D01*
X44424600Y73375158D02*
X45008800Y74209729D01*
X45426085Y73375158D02*
X45426085Y75127758D01*
X44758428Y75127758D01*
X44591514Y75044300D01*
X44508057Y74960843D01*
X44424600Y74793929D01*
X44424600Y74543558D01*
X44508057Y74376643D01*
X44591514Y74293186D01*
X44758428Y74209729D01*
X45426085Y74209729D01*
X43673485Y73375158D02*
X43673485Y75127758D01*
X42672000Y73375158D01*
X42672000Y75127758D01*
X41837428Y73375158D02*
X41837428Y75127758D01*
X41086314Y73875900D02*
X40251742Y73875900D01*
X41253228Y73375158D02*
X40669028Y75127758D01*
X40084828Y73375158D01*
X97991385Y73375158D02*
X97991385Y75127758D01*
X97323728Y75127758D01*
X97156814Y75044300D01*
X97073357Y74960843D01*
X96989900Y74793929D01*
X96989900Y74543558D01*
X97073357Y74376643D01*
X97156814Y74293186D01*
X97323728Y74209729D01*
X97991385Y74209729D01*
X96322242Y73875900D02*
X95487671Y73875900D01*
X96489157Y73375158D02*
X95904957Y75127758D01*
X95320757Y73375158D01*
X94736557Y73375158D02*
X94736557Y75127758D01*
X93735071Y73375158D01*
X93735071Y75127758D01*
X92900500Y75127758D02*
X92900500Y73708986D01*
X92817042Y73542072D01*
X92733585Y73458615D01*
X92566671Y73375158D01*
X92232842Y73375158D01*
X92065928Y73458615D01*
X91982471Y73542072D01*
X91899014Y73708986D01*
X91899014Y75127758D01*
X90062957Y73542072D02*
X90146414Y73458615D01*
X90396785Y73375158D01*
X90563700Y73375158D01*
X90814071Y73458615D01*
X90980985Y73625529D01*
X91064442Y73792443D01*
X91147900Y74126272D01*
X91147900Y74376643D01*
X91064442Y74710472D01*
X90980985Y74877386D01*
X90814071Y75044300D01*
X90563700Y75127758D01*
X90396785Y75127758D01*
X90146414Y75044300D01*
X90062957Y74960843D01*
X88978014Y75127758D02*
X88644185Y75127758D01*
X88477271Y75044300D01*
X88310357Y74877386D01*
X88226900Y74543558D01*
X88226900Y73959358D01*
X88310357Y73625529D01*
X88477271Y73458615D01*
X88644185Y73375158D01*
X88978014Y73375158D01*
X89144928Y73458615D01*
X89311842Y73625529D01*
X89395300Y73959358D01*
X89395300Y74543558D01*
X89311842Y74877386D01*
X89144928Y75044300D01*
X88978014Y75127758D01*
X87392328Y73458615D02*
X87392328Y73375158D01*
X87475785Y73208243D01*
X87559242Y73124786D01*
X86808128Y75127758D02*
X85639728Y75127758D01*
X86808128Y73375158D01*
X85639728Y73375158D01*
X85055528Y73875900D02*
X84220957Y73875900D01*
X85222442Y73375158D02*
X84638242Y75127758D01*
X84054042Y73375158D01*
X82468357Y73542072D02*
X82551814Y73458615D01*
X82802185Y73375158D01*
X82969100Y73375158D01*
X83219471Y73458615D01*
X83386385Y73625529D01*
X83469842Y73792443D01*
X83553300Y74126272D01*
X83553300Y74376643D01*
X83469842Y74710472D01*
X83386385Y74877386D01*
X83219471Y75044300D01*
X82969100Y75127758D01*
X82802185Y75127758D01*
X82551814Y75044300D01*
X82468357Y74960843D01*
X81800700Y73875900D02*
X80966128Y73875900D01*
X81967614Y73375158D02*
X81383414Y75127758D01*
X80799214Y73375158D01*
X80465385Y75127758D02*
X79463900Y75127758D01*
X79964642Y73375158D02*
X79964642Y75127758D01*
X78879700Y74293186D02*
X78295500Y74293186D01*
X78045128Y73375158D02*
X78879700Y73375158D01*
X78879700Y75127758D01*
X78045128Y75127758D01*
X76292528Y73542072D02*
X76375985Y73458615D01*
X76626357Y73375158D01*
X76793271Y73375158D01*
X77043642Y73458615D01*
X77210557Y73625529D01*
X77294014Y73792443D01*
X77377471Y74126272D01*
X77377471Y74376643D01*
X77294014Y74710472D01*
X77210557Y74877386D01*
X77043642Y75044300D01*
X76793271Y75127758D01*
X76626357Y75127758D01*
X76375985Y75044300D01*
X76292528Y74960843D01*
X75624871Y73875900D02*
X74790300Y73875900D01*
X75791785Y73375158D02*
X75207585Y75127758D01*
X74623385Y73375158D01*
X74122642Y73458615D02*
X73872271Y73375158D01*
X73454985Y73375158D01*
X73288071Y73458615D01*
X73204614Y73542072D01*
X73121157Y73708986D01*
X73121157Y73875900D01*
X73204614Y74042815D01*
X73288071Y74126272D01*
X73454985Y74209729D01*
X73788814Y74293186D01*
X73955728Y74376643D01*
X74039185Y74460100D01*
X74122642Y74627015D01*
X74122642Y74793929D01*
X74039185Y74960843D01*
X73955728Y75044300D01*
X73788814Y75127758D01*
X73371528Y75127758D01*
X73121157Y75044300D01*
X110853680Y42278300D02*
X111010162Y42361758D01*
X111260533Y42361758D01*
X111521337Y42278300D01*
X111709116Y42111386D01*
X111813437Y41944472D01*
X111938623Y41610643D01*
X111969919Y41360272D01*
X111928191Y41026443D01*
X111865598Y40859529D01*
X111719548Y40692615D01*
X111479608Y40609158D01*
X111312694Y40609158D01*
X111051891Y40692615D01*
X110958001Y40776072D01*
X110884976Y41360272D01*
X111218805Y41360272D01*
X109674848Y42361758D02*
X109341019Y42361758D01*
X109184537Y42278300D01*
X109038487Y42111386D01*
X108996758Y41777558D01*
X109069783Y41193358D01*
X109194969Y40859529D01*
X109382748Y40692615D01*
X109560094Y40609158D01*
X109893923Y40609158D01*
X110050405Y40692615D01*
X110196455Y40859529D01*
X110238183Y41193358D01*
X110165158Y41777558D01*
X110039973Y42111386D01*
X109852194Y42278300D01*
X109674848Y42361758D01*
X108391694Y40609158D02*
X108172619Y42361758D01*
X107755333Y42361758D01*
X107515394Y42278300D01*
X107369344Y42111386D01*
X107306751Y41944472D01*
X107265023Y41610643D01*
X107296319Y41360272D01*
X107421505Y41026443D01*
X107525826Y40859529D01*
X107713605Y40692615D01*
X107974408Y40609158D01*
X108391694Y40609158D01*
X104604826Y41527186D02*
X104364887Y41443729D01*
X104291862Y41360272D01*
X104229269Y41193358D01*
X104260566Y40942986D01*
X104364887Y40776072D01*
X104458776Y40692615D01*
X104636123Y40609158D01*
X105303780Y40609158D01*
X105084705Y42361758D01*
X104500505Y42361758D01*
X104344023Y42278300D01*
X104270998Y42194843D01*
X104208405Y42027929D01*
X104229269Y41861015D01*
X104333591Y41694100D01*
X104427480Y41610643D01*
X104604826Y41527186D01*
X105189026Y41527186D01*
X102549694Y40609158D02*
X103029573Y41443729D01*
X103551180Y40609158D02*
X103332105Y42361758D01*
X102664448Y42361758D01*
X102507966Y42278300D01*
X102434941Y42194843D01*
X102372348Y42027929D01*
X102403644Y41777558D01*
X102507966Y41610643D01*
X102601855Y41527186D01*
X102779201Y41443729D01*
X103446858Y41443729D01*
X101798580Y40609158D02*
X101579505Y42361758D01*
X100964008Y40609158D02*
X100744933Y42361758D01*
X99962523Y40609158D01*
X99743448Y42361758D01*
X98001280Y42278300D02*
X98157762Y42361758D01*
X98408133Y42361758D01*
X98668937Y42278300D01*
X98856716Y42111386D01*
X98961037Y41944472D01*
X99086223Y41610643D01*
X99117519Y41360272D01*
X99075791Y41026443D01*
X99013198Y40859529D01*
X98867148Y40692615D01*
X98627208Y40609158D01*
X98460294Y40609158D01*
X98199491Y40692615D01*
X98105601Y40776072D01*
X98032576Y41360272D01*
X98366405Y41360272D01*
X97448376Y40692615D02*
X97208437Y40609158D01*
X96791151Y40609158D01*
X96613805Y40692615D01*
X96519916Y40776072D01*
X96415594Y40942986D01*
X96394730Y41109900D01*
X96457323Y41276815D01*
X96530348Y41360272D01*
X96686830Y41443729D01*
X97010226Y41527186D01*
X97166708Y41610643D01*
X97239733Y41694100D01*
X97302326Y41861015D01*
X97281462Y42027929D01*
X97177141Y42194843D01*
X97083251Y42278300D01*
X96905905Y42361758D01*
X96488619Y42361758D01*
X96248680Y42278300D01*
X93817991Y42361758D02*
X93484162Y42361758D01*
X93327680Y42278300D01*
X93181630Y42111386D01*
X93139901Y41777558D01*
X93212926Y41193358D01*
X93338112Y40859529D01*
X93525891Y40692615D01*
X93703237Y40609158D01*
X94037066Y40609158D01*
X94193548Y40692615D01*
X94339598Y40859529D01*
X94381326Y41193358D01*
X94308301Y41777558D01*
X94183116Y42111386D01*
X93995337Y42278300D01*
X93817991Y42361758D01*
X92534837Y40609158D02*
X92315762Y42361758D01*
X91648105Y42361758D01*
X91491623Y42278300D01*
X91418598Y42194843D01*
X91356005Y42027929D01*
X91387301Y41777558D01*
X91491623Y41610643D01*
X91585512Y41527186D01*
X91762858Y41443729D01*
X92430516Y41443729D01*
X90782237Y40609158D02*
X90563162Y42361758D01*
X89895505Y42361758D01*
X89739023Y42278300D01*
X89665998Y42194843D01*
X89603405Y42027929D01*
X89634701Y41777558D01*
X89739023Y41610643D01*
X89832912Y41527186D01*
X90010258Y41443729D01*
X90677916Y41443729D01*
X88476733Y42361758D02*
X88142905Y42361758D01*
X87986423Y42278300D01*
X87840373Y42111386D01*
X87798644Y41777558D01*
X87871669Y41193358D01*
X87996855Y40859529D01*
X88184633Y40692615D01*
X88361980Y40609158D01*
X88695808Y40609158D01*
X88852291Y40692615D01*
X88998341Y40859529D01*
X89040069Y41193358D01*
X88967044Y41777558D01*
X88841858Y42111386D01*
X88654080Y42278300D01*
X88476733Y42361758D01*
X86192094Y40609158D02*
X86671973Y41443729D01*
X87193580Y40609158D02*
X86974505Y42361758D01*
X86306848Y42361758D01*
X86150366Y42278300D01*
X86077341Y42194843D01*
X86014748Y42027929D01*
X86046044Y41777558D01*
X86150366Y41610643D01*
X86244255Y41527186D01*
X86421601Y41443729D01*
X87089258Y41443729D01*
X85472276Y42361758D02*
X84470791Y42361758D01*
X85190608Y40609158D02*
X84971533Y42361758D01*
X83886591Y42361758D02*
X84063937Y40942986D01*
X84001344Y40776072D01*
X83928319Y40692615D01*
X83771837Y40609158D01*
X83438008Y40609158D01*
X83260662Y40692615D01*
X83166773Y40776072D01*
X83062451Y40942986D01*
X82885105Y42361758D01*
X82269608Y40609158D02*
X82050533Y42361758D01*
X81268123Y40609158D01*
X81049048Y42361758D01*
X80433551Y40609158D02*
X80214476Y42361758D01*
X79630276Y42361758D02*
X78628791Y42361758D01*
X79348608Y40609158D02*
X79129533Y42361758D01*
X78263666Y40609158D02*
X78044591Y42361758D01*
X77314341Y41527186D02*
X76730141Y41527186D01*
X76594523Y40609158D02*
X77429094Y40609158D01*
X77210019Y42361758D01*
X76375448Y42361758D01*
X75916433Y40692615D02*
X75676494Y40609158D01*
X75259208Y40609158D01*
X75081862Y40692615D01*
X74987973Y40776072D01*
X74883651Y40942986D01*
X74862787Y41109900D01*
X74925380Y41276815D01*
X74998405Y41360272D01*
X75154887Y41443729D01*
X75478283Y41527186D01*
X75634766Y41610643D01*
X75707791Y41694100D01*
X75770383Y41861015D01*
X75749519Y42027929D01*
X75645198Y42194843D01*
X75551308Y42278300D01*
X75373962Y42361758D01*
X74956676Y42361758D01*
X74716737Y42278300D01*
X74080376Y40692615D02*
X74090808Y40609158D01*
X74195130Y40442243D01*
X74289019Y40358786D01*
X71566230Y41443729D02*
X71670551Y40609158D01*
X72035676Y42361758D02*
X71566230Y41443729D01*
X70867276Y42361758D01*
X69949248Y42361758D02*
X69615419Y42361758D01*
X69458937Y42278300D01*
X69312887Y42111386D01*
X69271158Y41777558D01*
X69344183Y41193358D01*
X69469369Y40859529D01*
X69657148Y40692615D01*
X69834494Y40609158D01*
X70168323Y40609158D01*
X70324805Y40692615D01*
X70470855Y40859529D01*
X70512583Y41193358D01*
X70439558Y41777558D01*
X70314373Y42111386D01*
X70126594Y42278300D01*
X69949248Y42361758D01*
X68447019Y42361758D02*
X68624366Y40942986D01*
X68561773Y40776072D01*
X68488748Y40692615D01*
X68332266Y40609158D01*
X67998437Y40609158D01*
X67821091Y40692615D01*
X67727201Y40776072D01*
X67622880Y40942986D01*
X67445533Y42361758D01*
X65494723Y40609158D02*
X65275648Y42361758D01*
X64858362Y42361758D01*
X64618423Y42278300D01*
X64472373Y42111386D01*
X64409780Y41944472D01*
X64368051Y41610643D01*
X64399348Y41360272D01*
X64524533Y41026443D01*
X64628855Y40859529D01*
X64816633Y40692615D01*
X65077437Y40609158D01*
X65494723Y40609158D01*
X63627369Y41527186D02*
X63043169Y41527186D01*
X62907551Y40609158D02*
X63742123Y40609158D01*
X63523048Y42361758D01*
X62688476Y42361758D01*
X61134087Y40776072D02*
X61227976Y40692615D01*
X61488780Y40609158D01*
X61655694Y40609158D01*
X61895633Y40692615D01*
X62041683Y40859529D01*
X62104276Y41026443D01*
X62146005Y41360272D01*
X62114708Y41610643D01*
X61989523Y41944472D01*
X61885201Y42111386D01*
X61697423Y42278300D01*
X61436619Y42361758D01*
X61269705Y42361758D01*
X61029766Y42278300D01*
X60956741Y42194843D01*
X60403837Y40609158D02*
X60184762Y42361758D01*
X59569266Y40609158D02*
X59350191Y42361758D01*
X58932905Y42361758D01*
X58692966Y42278300D01*
X58546916Y42111386D01*
X58484323Y41944472D01*
X58442594Y41610643D01*
X58473891Y41360272D01*
X58599076Y41026443D01*
X58703398Y40859529D01*
X58891176Y40692615D01*
X59151980Y40609158D01*
X59569266Y40609158D01*
X57701912Y41527186D02*
X57117712Y41527186D01*
X56982094Y40609158D02*
X57816666Y40609158D01*
X57597591Y42361758D01*
X56763019Y42361758D01*
X54843505Y42361758D02*
X54645294Y40609158D01*
X54154983Y41861015D01*
X53977637Y40609158D01*
X53341276Y42361758D01*
X52892694Y40609158D02*
X52673619Y42361758D01*
X52777941Y41527186D02*
X51776455Y41527186D01*
X51891208Y40609158D02*
X51672133Y42361758D01*
X50941883Y41527186D02*
X50357683Y41527186D01*
X50222066Y40609158D02*
X51056637Y40609158D01*
X50837562Y42361758D01*
X50002991Y42361758D01*
X49470951Y40609158D02*
X49251876Y42361758D01*
X48469466Y40609158D01*
X48250391Y42361758D01*
X46330876Y42361758D02*
X45329391Y42361758D01*
X46049208Y40609158D02*
X45830133Y42361758D01*
X44411362Y42361758D02*
X44077533Y42361758D01*
X43921051Y42278300D01*
X43775001Y42111386D01*
X43733273Y41777558D01*
X43806298Y41193358D01*
X43931483Y40859529D01*
X44119262Y40692615D01*
X44296608Y40609158D01*
X44630437Y40609158D01*
X44786919Y40692615D01*
X44932969Y40859529D01*
X44974698Y41193358D01*
X44901673Y41777558D01*
X44776487Y42111386D01*
X44588708Y42278300D01*
X44411362Y42361758D01*
X41824191Y42361758D02*
X40822705Y42361758D01*
X41542523Y40609158D02*
X41323448Y42361758D01*
X40478444Y41109900D02*
X39643873Y41109900D01*
X40707951Y40609158D02*
X39904676Y42361758D01*
X39539551Y40609158D01*
X38955351Y40609158D02*
X38736276Y42361758D01*
X37953866Y40609158D02*
X38579794Y41610643D01*
X37734791Y42361758D02*
X38861462Y41360272D01*
X37087998Y41527186D02*
X36503798Y41527186D01*
X36368180Y40609158D02*
X37202751Y40609158D01*
X36983676Y42361758D01*
X36149105Y42361758D01*
X34302616Y41109900D02*
X33468044Y41109900D01*
X34532123Y40609158D02*
X33728848Y42361758D01*
X33363723Y40609158D01*
X31757173Y40776072D02*
X31851062Y40692615D01*
X32111866Y40609158D01*
X32278780Y40609158D01*
X32518719Y40692615D01*
X32664769Y40859529D01*
X32727362Y41026443D01*
X32769091Y41360272D01*
X32737794Y41610643D01*
X32612608Y41944472D01*
X32508287Y42111386D01*
X32320508Y42278300D01*
X32059705Y42361758D01*
X31892791Y42361758D01*
X31652851Y42278300D01*
X31579826Y42194843D01*
X31058219Y42361758D02*
X30056733Y42361758D01*
X30776551Y40609158D02*
X30557476Y42361758D01*
X29691608Y40609158D02*
X29472533Y42361758D01*
X28304133Y42361758D02*
X27970305Y42361758D01*
X27813823Y42278300D01*
X27667773Y42111386D01*
X27626044Y41777558D01*
X27699069Y41193358D01*
X27824255Y40859529D01*
X28012033Y40692615D01*
X28189380Y40609158D01*
X28523208Y40609158D01*
X28679691Y40692615D01*
X28825741Y40859529D01*
X28867469Y41193358D01*
X28794444Y41777558D01*
X28669258Y42111386D01*
X28481480Y42278300D01*
X28304133Y42361758D01*
X27020980Y40609158D02*
X26801905Y42361758D01*
X26019494Y40609158D01*
X25800419Y42361758D01*
X58487128Y58135158D02*
X58487128Y59887758D01*
X58487128Y59053186D02*
X57485642Y59053186D01*
X57485642Y58135158D02*
X57485642Y59887758D01*
X56317242Y59887758D02*
X55983414Y59887758D01*
X55816500Y59804300D01*
X55649585Y59637386D01*
X55566128Y59303558D01*
X55566128Y58719358D01*
X55649585Y58385529D01*
X55816500Y58218615D01*
X55983414Y58135158D01*
X56317242Y58135158D01*
X56484157Y58218615D01*
X56651071Y58385529D01*
X56734528Y58719358D01*
X56734528Y59303558D01*
X56651071Y59637386D01*
X56484157Y59804300D01*
X56317242Y59887758D01*
X54815014Y58135158D02*
X54815014Y59887758D01*
X53813528Y58135158D01*
X53813528Y59887758D01*
X52645128Y59887758D02*
X52311300Y59887758D01*
X52144385Y59804300D01*
X51977471Y59637386D01*
X51894014Y59303558D01*
X51894014Y58719358D01*
X51977471Y58385529D01*
X52144385Y58218615D01*
X52311300Y58135158D01*
X52645128Y58135158D01*
X52812042Y58218615D01*
X52978957Y58385529D01*
X53062414Y58719358D01*
X53062414Y59303558D01*
X52978957Y59637386D01*
X52812042Y59804300D01*
X52645128Y59887758D01*
X50141414Y58135158D02*
X50725614Y58969729D01*
X51142900Y58135158D02*
X51142900Y59887758D01*
X50475242Y59887758D01*
X50308328Y59804300D01*
X50224871Y59720843D01*
X50141414Y59553929D01*
X50141414Y59303558D01*
X50224871Y59136643D01*
X50308328Y59053186D01*
X50475242Y58969729D01*
X51142900Y58969729D01*
D11*
%TO.C,REF\u002A\u002A1*%
X37821619Y15716477D02*
X38297809Y15383143D01*
X37821619Y15145048D02*
X38821619Y15145048D01*
X38821619Y15526000D01*
X38774000Y15621239D01*
X38726380Y15668858D01*
X38631142Y15716477D01*
X38488285Y15716477D01*
X38393047Y15668858D01*
X38345428Y15621239D01*
X38297809Y15526000D01*
X38297809Y15145048D01*
X38345428Y16145048D02*
X38345428Y16478381D01*
X37821619Y16621239D02*
X37821619Y16145048D01*
X38821619Y16145048D01*
X38821619Y16621239D01*
X38345428Y17383143D02*
X38345428Y17049810D01*
X37821619Y17049810D02*
X38821619Y17049810D01*
X38821619Y17526000D01*
X38821619Y18049810D02*
X38583523Y18049810D01*
X38678761Y17811715D02*
X38583523Y18049810D01*
X38678761Y18287905D01*
X38393047Y17906953D02*
X38583523Y18049810D01*
X38393047Y18192667D01*
X38821619Y18811715D02*
X38583523Y18811715D01*
X38678761Y18573620D02*
X38583523Y18811715D01*
X38678761Y19049810D01*
X38393047Y18668858D02*
X38583523Y18811715D01*
X38393047Y18954572D01*
X37821619Y19954572D02*
X37821619Y19383143D01*
X37821619Y19668858D02*
X38821619Y19668858D01*
X38678761Y19573620D01*
X38583523Y19478381D01*
X38535904Y19383143D01*
%TO.C,D3*%
X43356000Y70866000D02*
G75*
G03*
X43356000Y70866000I-1000000J0D01*
G01*
%TO.C,D4*%
X74598000Y70866000D02*
G75*
G03*
X74598000Y70866000I-1000000J0D01*
G01*
%TO.C,D5*%
X106094000Y70866000D02*
G75*
G03*
X106094000Y70866000I-1000000J0D01*
G01*
%TO.C,D2*%
X11860000Y70866000D02*
G75*
G03*
X11860000Y70866000I-1000000J0D01*
G01*
D12*
%TO.C,REF\u002A\u002A1*%
X37474000Y13026000D02*
X35524000Y13026000D01*
X26774000Y22026000D02*
X29524000Y22026000D01*
X26774000Y13026000D02*
X26774000Y22026000D01*
X26774000Y13026000D02*
X31024000Y13026000D01*
X37474000Y22026000D02*
X31524000Y22026000D01*
X37474000Y13026000D02*
X37474000Y22026000D01*
X35574000Y15326000D02*
G75*
G03*
X31890295Y20392245I-2300000J2200000D01*
G01*
X30074000Y17526000D02*
G75*
G03*
X31011258Y15263258I3199997J-2D01*
G01*
%TO.C,G\u002A\u002A\u002A*%
G36*
X30831248Y26072181D02*
G01*
X30995970Y26017934D01*
X31097570Y25888071D01*
X31118025Y25725194D01*
X31039313Y25571899D01*
X30974840Y25529665D01*
X30827647Y25494929D01*
X30737779Y25506663D01*
X30592846Y25605251D01*
X30539010Y25783566D01*
X30550744Y25873434D01*
X30649332Y26018367D01*
X30827647Y26072202D01*
X30831248Y26072181D01*
G37*
G36*
X22065607Y33871413D02*
G01*
X22284847Y33767145D01*
X22450509Y33636835D01*
X22522332Y33771037D01*
X22586776Y33849202D01*
X22734133Y33885312D01*
X22772053Y33878061D01*
X22814335Y33853891D01*
X22843804Y33796558D01*
X22863372Y33687039D01*
X22875950Y33506313D01*
X22884447Y33235360D01*
X22891775Y32855157D01*
X22909439Y31844929D01*
X22457192Y31844929D01*
X22457192Y32491277D01*
X22457072Y32618032D01*
X22453358Y32871552D01*
X22439083Y33039186D01*
X22407136Y33151559D01*
X22350409Y33239297D01*
X22261792Y33333025D01*
X22136571Y33444309D01*
X22006989Y33500204D01*
X21844873Y33492478D01*
X21811247Y33487098D01*
X21680978Y33478289D01*
X21631289Y33530807D01*
X21623354Y33676992D01*
X21623701Y33728898D01*
X21640630Y33844817D01*
X21710628Y33889864D01*
X21871269Y33897455D01*
X22065607Y33871413D01*
G37*
G36*
X52282931Y26330440D02*
G01*
X52135587Y26015222D01*
X51909176Y25746623D01*
X51612118Y25551352D01*
X51401728Y25476629D01*
X51039415Y25438828D01*
X50697865Y25506239D01*
X50394752Y25664557D01*
X50147752Y25899477D01*
X49974539Y26196692D01*
X49892788Y26541899D01*
X49902202Y26672160D01*
X50475896Y26672160D01*
X50507443Y26445671D01*
X50628228Y26245200D01*
X50842871Y26098843D01*
X50867560Y26088756D01*
X51031475Y26032294D01*
X51142379Y26010629D01*
X51168287Y26012790D01*
X51354894Y26083047D01*
X51541450Y26224237D01*
X51676868Y26399217D01*
X51708927Y26472822D01*
X51739462Y26719268D01*
X51668018Y26948427D01*
X51513957Y27134031D01*
X51296639Y27249811D01*
X51035426Y27269499D01*
X50870464Y27226791D01*
X50662027Y27090815D01*
X50528964Y26896574D01*
X50475896Y26672160D01*
X49902202Y26672160D01*
X49920172Y26920790D01*
X49960741Y27062493D01*
X50140042Y27393701D01*
X50410181Y27646500D01*
X50755534Y27808943D01*
X51160475Y27869085D01*
X51481182Y27872826D01*
X52282950Y29257438D01*
X52452902Y29551327D01*
X52662062Y29914149D01*
X52844426Y30231773D01*
X52990587Y30487763D01*
X53091141Y30665688D01*
X53136682Y30749111D01*
X53140450Y30759296D01*
X53130774Y30857700D01*
X53062805Y31029115D01*
X52931609Y31284342D01*
X52732249Y31634185D01*
X52275850Y32412201D01*
X51937569Y32377287D01*
X51875346Y32372215D01*
X51505459Y32402571D01*
X51190287Y32528097D01*
X50935224Y32729763D01*
X50745667Y32988540D01*
X50627012Y33285398D01*
X50584653Y33601308D01*
X50589669Y33641593D01*
X51192267Y33641593D01*
X51209028Y33407741D01*
X51313261Y33195063D01*
X51511969Y33032209D01*
X51759783Y32952538D01*
X52011895Y32974008D01*
X52219128Y33097566D01*
X52359551Y33309464D01*
X52411232Y33595953D01*
X52384763Y33775141D01*
X52259853Y34002956D01*
X52056597Y34159783D01*
X51801889Y34218162D01*
X51596769Y34183681D01*
X51393141Y34058214D01*
X51255972Y33867967D01*
X51192267Y33641593D01*
X50589669Y33641593D01*
X50623988Y33917239D01*
X50750410Y34214163D01*
X50969317Y34473050D01*
X51286104Y34674870D01*
X51388648Y34716442D01*
X51766503Y34789961D01*
X52133766Y34747459D01*
X52468574Y34597641D01*
X52749064Y34349215D01*
X52953373Y34010887D01*
X52954991Y34007002D01*
X53039858Y33702333D01*
X53035582Y33595953D01*
X53027739Y33400816D01*
X52917040Y33060808D01*
X52781434Y32745582D01*
X53301889Y31849777D01*
X53414371Y31653641D01*
X53576269Y31361341D01*
X53705604Y31115269D01*
X53791315Y30936735D01*
X53822344Y30847048D01*
X53821961Y30843254D01*
X53784284Y30750503D01*
X53690809Y30564088D01*
X53549807Y30299299D01*
X53369551Y29971421D01*
X53158312Y29595742D01*
X52924364Y29187549D01*
X52895841Y29138195D01*
X52664482Y28734854D01*
X52456724Y28367466D01*
X52280802Y28050985D01*
X52144948Y27800368D01*
X52057397Y27630570D01*
X52026384Y27556547D01*
X52026982Y27548362D01*
X52070496Y27439088D01*
X52161793Y27294968D01*
X52166364Y27288727D01*
X52306739Y26993900D01*
X52336892Y26719268D01*
X52342788Y26665568D01*
X52282931Y26330440D01*
G37*
G36*
X44537199Y23501927D02*
G01*
X44479909Y23310570D01*
X44359558Y23109666D01*
X44337570Y23079308D01*
X44125200Y22856434D01*
X43882011Y22688742D01*
X43560609Y22577805D01*
X43194290Y22562069D01*
X42846478Y22652742D01*
X42540098Y22839639D01*
X42298073Y23112572D01*
X42143328Y23461356D01*
X42107265Y23732965D01*
X42112933Y23776235D01*
X42722491Y23776235D01*
X42766522Y23531669D01*
X42913369Y23309187D01*
X43097281Y23177359D01*
X43333760Y23120850D01*
X43562432Y23164885D01*
X43757592Y23297670D01*
X43893538Y23507412D01*
X43944566Y23782317D01*
X43918096Y23961505D01*
X43793186Y24189320D01*
X43589930Y24346147D01*
X43335222Y24404525D01*
X43097315Y24356889D01*
X42898884Y24217400D01*
X42770277Y24014330D01*
X42722491Y23776235D01*
X42112933Y23776235D01*
X42149307Y24053934D01*
X42278094Y24436596D01*
X42295012Y24481322D01*
X42310180Y24557508D01*
X42299365Y24645991D01*
X42254548Y24766303D01*
X42167707Y24937975D01*
X42030823Y25180538D01*
X41835877Y25513522D01*
X41726661Y25701380D01*
X41563456Y25992495D01*
X41433108Y26238213D01*
X41346829Y26417097D01*
X41315832Y26507714D01*
X41317049Y26515248D01*
X41359901Y26616576D01*
X41458028Y26810545D01*
X41603249Y27082074D01*
X41787386Y27416080D01*
X42002257Y27797479D01*
X42239684Y28211189D01*
X43162473Y29804973D01*
X43010014Y30029635D01*
X43006516Y30034820D01*
X42850187Y30376939D01*
X42807553Y30747919D01*
X42822419Y30826748D01*
X43411259Y30826748D01*
X43422550Y30600993D01*
X43506795Y30366374D01*
X43640270Y30190184D01*
X43674810Y30165123D01*
X43883692Y30089226D01*
X44127656Y30081457D01*
X44343837Y30145784D01*
X44485681Y30247549D01*
X44611570Y30442270D01*
X44650121Y30714661D01*
X44634039Y30855667D01*
X44527374Y31080017D01*
X44345708Y31238065D01*
X44118409Y31316258D01*
X43874841Y31301042D01*
X43644372Y31178863D01*
X43615690Y31153196D01*
X43483931Y30992832D01*
X43412808Y30835422D01*
X43411259Y30826748D01*
X42822419Y30826748D01*
X42877644Y31119597D01*
X43059486Y31463811D01*
X43153937Y31572157D01*
X43432185Y31767234D01*
X43765383Y31879364D01*
X44120201Y31904384D01*
X44463311Y31838128D01*
X44761384Y31676434D01*
X44821578Y31625660D01*
X45070791Y31327974D01*
X45213215Y30990557D01*
X45241299Y30714661D01*
X45249285Y30636203D01*
X45179436Y30287706D01*
X45004103Y29967862D01*
X44723718Y29699465D01*
X44710625Y29690276D01*
X44519314Y29577523D01*
X44325335Y29520483D01*
X44066518Y29500317D01*
X43677075Y29490319D01*
X42874101Y28118003D01*
X42709189Y27835627D01*
X42497299Y27471152D01*
X42311725Y27150045D01*
X42162135Y26889116D01*
X42058197Y26705173D01*
X42009581Y26615024D01*
X42008332Y26612305D01*
X41995648Y26537998D01*
X42020283Y26430656D01*
X42090394Y26271652D01*
X42214137Y26042362D01*
X42399668Y25724160D01*
X42851301Y24963958D01*
X43327899Y24956843D01*
X43368424Y24956177D01*
X43611790Y24945601D01*
X43777129Y24916224D01*
X43908740Y24855406D01*
X44050921Y24750503D01*
X44134406Y24679792D01*
X44376590Y24408001D01*
X44510554Y24108889D01*
X44548227Y23782317D01*
X44551771Y23751599D01*
X44537199Y23501927D01*
G37*
G36*
X25450912Y29582874D02*
G01*
X25512370Y29574274D01*
X25843330Y29460524D01*
X26102901Y29252164D01*
X26280064Y28965942D01*
X26363802Y28618602D01*
X26343096Y28226890D01*
X26331635Y28177086D01*
X26207702Y27910486D01*
X26005368Y27671816D01*
X25763655Y27509393D01*
X25563157Y27444564D01*
X25204321Y27425765D01*
X24858570Y27520766D01*
X24557823Y27723889D01*
X24470826Y27811198D01*
X24395008Y27923042D01*
X24422046Y27998903D01*
X24551464Y28064265D01*
X24589571Y28077747D01*
X24727673Y28088616D01*
X24856135Y28003290D01*
X24948936Y27930854D01*
X25191000Y27835653D01*
X25441001Y27840202D01*
X25664645Y27940007D01*
X25827641Y28130577D01*
X25920185Y28406691D01*
X25915195Y28685623D01*
X25813924Y28925968D01*
X25626829Y29103707D01*
X25364367Y29194818D01*
X25197777Y29207114D01*
X25061610Y29171863D01*
X24930550Y29064523D01*
X24845775Y28987193D01*
X24732271Y28934170D01*
X24604967Y28958932D01*
X24547295Y28984979D01*
X24457512Y29080899D01*
X24489276Y29207878D01*
X24642944Y29369802D01*
X24671262Y29393127D01*
X24895972Y29534071D01*
X25139867Y29593104D01*
X25450912Y29582874D01*
G37*
G36*
X31052142Y23121697D02*
G01*
X30603152Y23121697D01*
X30603152Y25174222D01*
X31052142Y25174222D01*
X31052142Y23121697D01*
G37*
G36*
X33612122Y27945296D02*
G01*
X33402047Y27674420D01*
X33104634Y27491232D01*
X32809571Y27422849D01*
X32460045Y27448277D01*
X32134302Y27576403D01*
X31868637Y27798215D01*
X31725447Y28008965D01*
X31612363Y28332384D01*
X31610661Y28394566D01*
X32040869Y28394566D01*
X32139206Y28139164D01*
X32154390Y28116110D01*
X32291235Y27962744D01*
X32435387Y27866563D01*
X32614687Y27814960D01*
X32805551Y27826141D01*
X33017877Y27927579D01*
X33078525Y27969611D01*
X33253932Y28180591D01*
X33331917Y28444946D01*
X33299651Y28726315D01*
X33198045Y28940266D01*
X33009211Y29112608D01*
X32733895Y29195721D01*
X32509308Y29182657D01*
X32292451Y29073110D01*
X32132252Y28887763D01*
X32043471Y28652841D01*
X32040869Y28394566D01*
X31610661Y28394566D01*
X31603479Y28656966D01*
X31688593Y28962375D01*
X31857507Y29228272D01*
X32100019Y29434320D01*
X32405931Y29560182D01*
X32765041Y29585519D01*
X32940691Y29559265D01*
X33275708Y29427154D01*
X33529319Y29203102D01*
X33689964Y28899559D01*
X33746081Y28528976D01*
X33739231Y28444946D01*
X33726646Y28290574D01*
X33612122Y27945296D01*
G37*
G36*
X27472931Y25792158D02*
G01*
X27515201Y25700605D01*
X27536885Y25510965D01*
X27543851Y25417300D01*
X27569173Y25275576D01*
X27624911Y25210504D01*
X27732823Y25185997D01*
X27757831Y25182683D01*
X27876907Y25133502D01*
X27909212Y25017626D01*
X27908118Y24989274D01*
X27859883Y24885548D01*
X27716788Y24831066D01*
X27524364Y24792581D01*
X27522324Y24133528D01*
X27522095Y24082565D01*
X27514209Y23762001D01*
X27489714Y23539619D01*
X27440526Y23389015D01*
X27358558Y23283785D01*
X27235727Y23197524D01*
X27213835Y23186529D01*
X27050365Y23146218D01*
X26850879Y23138038D01*
X26806024Y23141023D01*
X26662261Y23164625D01*
X26598261Y23228219D01*
X26574044Y23364512D01*
X26568534Y23503470D01*
X26607788Y23551036D01*
X26719195Y23533738D01*
X26728455Y23531462D01*
X26874482Y23516566D01*
X26974261Y23565190D01*
X27035719Y23693319D01*
X27066781Y23916936D01*
X27075374Y24252026D01*
X27075374Y24853515D01*
X26850879Y24853515D01*
X26718635Y24861035D01*
X26643157Y24905428D01*
X26626384Y25013869D01*
X26636911Y25108329D01*
X26699062Y25162242D01*
X26850879Y25174222D01*
X26944537Y25175689D01*
X27035990Y25199730D01*
X27070219Y25281389D01*
X27075374Y25455996D01*
X27076686Y25522047D01*
X27111503Y25702236D01*
X27210887Y25791557D01*
X27397813Y25815636D01*
X27472931Y25792158D01*
G37*
G36*
X34836485Y22287859D02*
G01*
X34836485Y23382103D01*
X34645917Y23241210D01*
X34642970Y23239043D01*
X34375306Y23116588D01*
X34079106Y23100176D01*
X33783864Y23181719D01*
X33519070Y23353134D01*
X33314217Y23606332D01*
X33295542Y23640997D01*
X33194196Y23955577D01*
X33186821Y24201879D01*
X33612123Y24201879D01*
X33649160Y23944137D01*
X33783853Y23703891D01*
X33885848Y23597852D01*
X34026052Y23524576D01*
X34227142Y23506545D01*
X34390237Y23516592D01*
X34537995Y23574876D01*
X34677330Y23712091D01*
X34700476Y23740034D01*
X34794397Y23881083D01*
X34828640Y24026771D01*
X34819551Y24237484D01*
X34794541Y24387627D01*
X34679047Y24641651D01*
X34484734Y24799348D01*
X34218631Y24853515D01*
X33982114Y24802876D01*
X33789084Y24658970D01*
X33662259Y24449398D01*
X33612123Y24201879D01*
X33186821Y24201879D01*
X33184081Y24293389D01*
X33258094Y24620661D01*
X33409136Y24903627D01*
X33630104Y25108516D01*
X33721586Y25155767D01*
X34024676Y25230965D01*
X34344838Y25216012D01*
X34628025Y25110784D01*
X34741371Y25046661D01*
X34817097Y25028120D01*
X34836485Y25078953D01*
X34836740Y25085781D01*
X34894239Y25152990D01*
X35060980Y25174222D01*
X35285475Y25174222D01*
X35285475Y22287859D01*
X34836485Y22287859D01*
G37*
G36*
X36824182Y26039710D02*
G01*
X37020330Y26030491D01*
X37149397Y25997576D01*
X37253561Y25925936D01*
X37374999Y25800543D01*
X37510078Y25633106D01*
X37577806Y25472337D01*
X37594566Y25265040D01*
X37594027Y25232411D01*
X37545601Y24992296D01*
X37409218Y24794622D01*
X37171438Y24625642D01*
X36818822Y24471611D01*
X36590963Y24375021D01*
X36342742Y24228355D01*
X36178622Y24076397D01*
X36119313Y23935030D01*
X36119418Y23931295D01*
X36160132Y23818057D01*
X36252251Y23675549D01*
X36327757Y23593748D01*
X36461588Y23524490D01*
X36664173Y23506545D01*
X36716864Y23507147D01*
X36882134Y23528991D01*
X37010632Y23602457D01*
X37156613Y23754910D01*
X37164434Y23763983D01*
X37303595Y23908240D01*
X37407021Y23964666D01*
X37507826Y23951829D01*
X37597636Y23908965D01*
X37683131Y23839625D01*
X37690077Y23773550D01*
X37626877Y23636509D01*
X37499122Y23476190D01*
X37331202Y23321633D01*
X37147503Y23201874D01*
X37058565Y23161033D01*
X36841605Y23086925D01*
X36664515Y23057556D01*
X36469321Y23083971D01*
X36187774Y23197582D01*
X35941136Y23375385D01*
X35775956Y23589511D01*
X35760051Y23623600D01*
X35687337Y23920452D01*
X35737957Y24196916D01*
X35908143Y24447190D01*
X36194124Y24665472D01*
X36592133Y24845960D01*
X36647385Y24865936D01*
X36947271Y25001473D01*
X37123707Y25141981D01*
X37180900Y25292304D01*
X37123055Y25457285D01*
X37118105Y25464618D01*
X36970254Y25589691D01*
X36770900Y25652460D01*
X36560777Y25652613D01*
X36380619Y25589838D01*
X36271161Y25463821D01*
X36199536Y25386325D01*
X36059035Y25377845D01*
X35891042Y25459469D01*
X35829899Y25511612D01*
X35815646Y25568869D01*
X35871439Y25653328D01*
X36008135Y25796211D01*
X36070271Y25858199D01*
X36189193Y25960861D01*
X36305030Y26015152D01*
X36461566Y26036450D01*
X36702584Y26040131D01*
X36824182Y26039710D01*
G37*
G36*
X31883013Y25211292D02*
G01*
X32095906Y25110081D01*
X32121811Y25089892D01*
X32254049Y25000440D01*
X32318194Y24997407D01*
X32334970Y25078010D01*
X32374627Y25145537D01*
X32527394Y25174222D01*
X32719818Y25174222D01*
X32719818Y23121697D01*
X32351785Y23121697D01*
X32321800Y23795914D01*
X32308079Y24060878D01*
X32287739Y24287397D01*
X32257413Y24438448D01*
X32210865Y24542933D01*
X32141858Y24629753D01*
X32090092Y24679774D01*
X31933879Y24765621D01*
X31714446Y24789374D01*
X31603846Y24790413D01*
X31487414Y24809116D01*
X31443662Y24873999D01*
X31436990Y25013869D01*
X31437351Y25068715D01*
X31454296Y25185660D01*
X31524283Y25230862D01*
X31684906Y25238364D01*
X31883013Y25211292D01*
G37*
G36*
X35683900Y34141865D02*
G01*
X35702394Y33544677D01*
X37076564Y33508315D01*
X37095034Y34103769D01*
X37113505Y34699222D01*
X37498354Y34699222D01*
X37515616Y33272076D01*
X37532879Y31844929D01*
X37081434Y31844929D01*
X37081434Y33063616D01*
X35670323Y33063616D01*
X35670323Y31844929D01*
X35218879Y31844929D01*
X35236142Y33272076D01*
X35253404Y34699222D01*
X35459405Y34719138D01*
X35665407Y34739054D01*
X35683900Y34141865D01*
G37*
G36*
X52738256Y24534960D02*
G01*
X52675980Y24444550D01*
X52671182Y24439195D01*
X52629670Y24410002D01*
X52557763Y24387098D01*
X52441475Y24369745D01*
X52266825Y24357204D01*
X52019829Y24348737D01*
X51686504Y24343604D01*
X51252867Y24341066D01*
X50704935Y24340384D01*
X48821920Y24340384D01*
X48699159Y24099854D01*
X48595069Y23922043D01*
X48409531Y23718581D01*
X48145828Y23549212D01*
X48143836Y23548166D01*
X47913127Y23476083D01*
X47619238Y23448496D01*
X47319039Y23466381D01*
X47069400Y23530716D01*
X46852871Y23652669D01*
X46598054Y23910714D01*
X46437671Y24243715D01*
X46381940Y24635256D01*
X46388775Y24704595D01*
X46959862Y24704595D01*
X46985487Y24456383D01*
X47135601Y24219296D01*
X47340285Y24055225D01*
X47577897Y23992841D01*
X47840608Y24052487D01*
X47947834Y24114874D01*
X48116177Y24298609D01*
X48213709Y24527591D01*
X48216014Y24756059D01*
X48203065Y24801237D01*
X48070059Y25034534D01*
X47867391Y25184563D01*
X47625589Y25242907D01*
X47375183Y25201150D01*
X47146703Y25050873D01*
X47058485Y24945929D01*
X46959862Y24704595D01*
X46388775Y24704595D01*
X46410778Y24927796D01*
X46542047Y25256726D01*
X46788462Y25541338D01*
X46806894Y25557214D01*
X47131080Y25755068D01*
X47483661Y25841626D01*
X47840413Y25821618D01*
X48177111Y25699772D01*
X48469532Y25480816D01*
X48693450Y25169479D01*
X48822969Y24915602D01*
X50563872Y24932664D01*
X52304775Y24949727D01*
X52753801Y25710933D01*
X52778362Y25752633D01*
X52953876Y26057096D01*
X53068833Y26273708D01*
X53131038Y26420510D01*
X53148295Y26515541D01*
X53128409Y26576842D01*
X53017602Y26747034D01*
X52837638Y27147014D01*
X52777190Y27529254D01*
X52786359Y27585216D01*
X53372947Y27585216D01*
X53379346Y27334265D01*
X53487347Y27108262D01*
X53692777Y26938775D01*
X53775897Y26900814D01*
X54047278Y26852812D01*
X54296150Y26930761D01*
X54519040Y27133841D01*
X54519264Y27134126D01*
X54635922Y27363430D01*
X54645029Y27589432D01*
X54566581Y27795366D01*
X54420572Y27964467D01*
X54226998Y28079970D01*
X54005855Y28125109D01*
X53777138Y28083120D01*
X53560844Y27937237D01*
X53472319Y27829544D01*
X53372947Y27585216D01*
X52786359Y27585216D01*
X52835405Y27884551D01*
X53011430Y28203702D01*
X53304415Y28477505D01*
X53422252Y28555711D01*
X53577930Y28628771D01*
X53755914Y28662041D01*
X54008957Y28669929D01*
X54095028Y28669241D01*
X54333548Y28652643D01*
X54507744Y28605192D01*
X54666666Y28515360D01*
X54857929Y28358230D01*
X55086469Y28057422D01*
X55211308Y27719280D01*
X55217873Y27589432D01*
X55229152Y27366363D01*
X55136711Y27021225D01*
X54930691Y26706425D01*
X54758645Y26528988D01*
X54575028Y26392471D01*
X54369037Y26315117D01*
X54090022Y26270671D01*
X53745188Y26232556D01*
X53254599Y25390636D01*
X53171824Y25249236D01*
X52999885Y24959715D01*
X52876237Y24756059D01*
X52850793Y24714152D01*
X52738256Y24534960D01*
G37*
G36*
X28614528Y28754170D02*
G01*
X28611639Y28407662D01*
X28600856Y28161644D01*
X28578650Y27988947D01*
X28541488Y27862116D01*
X28485840Y27753697D01*
X28470100Y27729064D01*
X28342360Y27577743D01*
X28213479Y27485162D01*
X28086485Y27446024D01*
X27765795Y27437622D01*
X27443470Y27547455D01*
X27295281Y27624860D01*
X27190406Y27666506D01*
X27147653Y27650427D01*
X27139515Y27579525D01*
X27099858Y27511998D01*
X26947091Y27483313D01*
X26754667Y27483313D01*
X26754667Y29535838D01*
X27203657Y29535838D01*
X27203657Y28857420D01*
X27203883Y28692180D01*
X27208081Y28441921D01*
X27222561Y28276034D01*
X27253667Y28165209D01*
X27307747Y28080138D01*
X27391147Y27991511D01*
X27582192Y27851682D01*
X27799638Y27810513D01*
X28009200Y27894849D01*
X28010662Y27895922D01*
X28064944Y27951678D01*
X28103220Y28040679D01*
X28129866Y28186682D01*
X28149260Y28413444D01*
X28165778Y28744723D01*
X28197849Y29503768D01*
X28406308Y29523867D01*
X28614768Y29543966D01*
X28614528Y28754170D01*
G37*
G36*
X31163363Y28035487D02*
G01*
X30996932Y27746405D01*
X30732435Y27538096D01*
X30606023Y27482631D01*
X30317197Y27423917D01*
X30038807Y27445679D01*
X29815952Y27547455D01*
X29785990Y27570771D01*
X29655823Y27658051D01*
X29593123Y27658795D01*
X29576889Y27575461D01*
X29574978Y27553315D01*
X29519509Y27498165D01*
X29368429Y27495285D01*
X29159970Y27515384D01*
X29159970Y28556659D01*
X29580448Y28556659D01*
X29603180Y28293408D01*
X29713914Y28060968D01*
X29906898Y27895422D01*
X30150042Y27812597D01*
X30388155Y27839675D01*
X30608086Y27991511D01*
X30718826Y28121275D01*
X30779808Y28272905D01*
X30794150Y28488606D01*
X30793180Y28528957D01*
X30733364Y28815881D01*
X30597033Y29029191D01*
X30406809Y29159018D01*
X30185311Y29195496D01*
X29955160Y29128756D01*
X29738976Y28948929D01*
X29651469Y28814636D01*
X29580448Y28556659D01*
X29159970Y28556659D01*
X29159970Y30337606D01*
X29368429Y30357705D01*
X29576889Y30377805D01*
X29576889Y29283139D01*
X29817419Y29447387D01*
X29939042Y29522618D01*
X30119947Y29583955D01*
X30337878Y29580790D01*
X30413785Y29570081D01*
X30743064Y29455373D01*
X30992928Y29243252D01*
X31156808Y28941273D01*
X31228135Y28556991D01*
X31228771Y28488606D01*
X31229586Y28400937D01*
X31163363Y28035487D01*
G37*
G36*
X29183133Y25211629D02*
G01*
X29401967Y25110081D01*
X29427871Y25089892D01*
X29560110Y25000440D01*
X29624254Y24997407D01*
X29641030Y25078010D01*
X29680688Y25145537D01*
X29833455Y25174222D01*
X30025879Y25174222D01*
X30025879Y23113569D01*
X29817419Y23133668D01*
X29608960Y23153768D01*
X29576889Y23881258D01*
X29572221Y23984358D01*
X29555964Y24271476D01*
X29535561Y24463741D01*
X29505403Y24587124D01*
X29459883Y24667597D01*
X29393394Y24731131D01*
X29219291Y24823783D01*
X28984172Y24845061D01*
X28771345Y24762686D01*
X28769884Y24761614D01*
X28715602Y24705857D01*
X28677326Y24616856D01*
X28650680Y24470854D01*
X28631286Y24244091D01*
X28614768Y23912812D01*
X28582697Y23153768D01*
X28197849Y23153768D01*
X28177991Y23827253D01*
X28174170Y24123766D01*
X28192557Y24491808D01*
X28244250Y24765610D01*
X28333512Y24964209D01*
X28464608Y25106640D01*
X28646881Y25198819D01*
X28913151Y25241141D01*
X29183133Y25211629D01*
G37*
G36*
X28396520Y33897455D02*
G01*
X28420429Y33897197D01*
X28558435Y33883241D01*
X28614768Y33854546D01*
X28612451Y33843259D01*
X28582153Y33737989D01*
X28522956Y33544263D01*
X28442755Y33287025D01*
X28349443Y32991218D01*
X28250913Y32681789D01*
X28155060Y32383680D01*
X28069777Y32121837D01*
X28002958Y31921203D01*
X27922615Y31864495D01*
X27734864Y31857062D01*
X27495343Y31877000D01*
X27278093Y32572083D01*
X27193860Y32826079D01*
X27112092Y33041590D01*
X27047757Y33178087D01*
X27010078Y33213497D01*
X26983271Y33161757D01*
X26923590Y33006282D01*
X26845198Y32777150D01*
X26758024Y32502379D01*
X26556734Y31844929D01*
X26071410Y31844929D01*
X25770764Y32791015D01*
X25714155Y32970713D01*
X25617689Y33284934D01*
X25540489Y33546964D01*
X25489328Y33733525D01*
X25470978Y33821342D01*
X25516819Y33877418D01*
X25675358Y33885483D01*
X25685737Y33884471D01*
X25764723Y33874329D01*
X25825947Y33849449D01*
X25878415Y33791780D01*
X25931131Y33683269D01*
X25993100Y33505864D01*
X26073325Y33241513D01*
X26180812Y32872165D01*
X26320081Y32392077D01*
X26537708Y33087289D01*
X26616982Y33336895D01*
X26697415Y33581985D01*
X26758415Y33758725D01*
X26790857Y33839978D01*
X26793162Y33843181D01*
X26882570Y33881619D01*
X27037529Y33897455D01*
X27248679Y33897455D01*
X27466008Y33191899D01*
X27549294Y32930492D01*
X27628549Y32699951D01*
X27689052Y32543797D01*
X27721981Y32486343D01*
X27736186Y32497538D01*
X27784337Y32594617D01*
X27840122Y32758944D01*
X27947672Y33128253D01*
X28037303Y33430620D01*
X28105088Y33641523D01*
X28159031Y33777344D01*
X28207140Y33854466D01*
X28257421Y33889270D01*
X28317879Y33898139D01*
X28396520Y33897455D01*
G37*
G36*
X42261335Y29272503D02*
G01*
X42052351Y28988763D01*
X41752964Y28775489D01*
X41488859Y28679398D01*
X41108404Y28646367D01*
X40738872Y28725655D01*
X40406179Y28910547D01*
X40136243Y29194330D01*
X40050039Y29341824D01*
X39951990Y29672739D01*
X39956264Y29887229D01*
X40534294Y29887229D01*
X40578066Y29634521D01*
X40732561Y29402622D01*
X40854441Y29305701D01*
X41100624Y29217448D01*
X41353424Y29237238D01*
X41582185Y29359765D01*
X41756251Y29579728D01*
X41798780Y29686663D01*
X41813969Y29928158D01*
X41732459Y30148358D01*
X41576051Y30326791D01*
X41366548Y30442984D01*
X41125754Y30476465D01*
X40875471Y30406760D01*
X40761517Y30332809D01*
X40596894Y30130181D01*
X40534294Y29887229D01*
X39956264Y29887229D01*
X39958745Y30011717D01*
X40058647Y30337263D01*
X40240035Y30627883D01*
X40491249Y30862080D01*
X40800631Y31018362D01*
X41156520Y31075232D01*
X41427085Y31075232D01*
X41925924Y31946356D01*
X42021995Y32112895D01*
X42193228Y32403582D01*
X42341466Y32647536D01*
X42381837Y32710838D01*
X46959212Y32710838D01*
X46959583Y32685277D01*
X47005464Y32476965D01*
X47146703Y32288985D01*
X47162451Y32273692D01*
X47384873Y32133998D01*
X47620530Y32097243D01*
X47845964Y32148615D01*
X48037717Y32273302D01*
X48172334Y32456492D01*
X48226355Y32683373D01*
X48176325Y32939133D01*
X48068141Y33122834D01*
X47863765Y33271689D01*
X47581421Y33320182D01*
X47402233Y33293712D01*
X47174418Y33168802D01*
X47017590Y32965546D01*
X46959212Y32710838D01*
X42381837Y32710838D01*
X42453410Y32823065D01*
X42515762Y32908477D01*
X42532200Y32921117D01*
X42597652Y32945518D01*
X42712876Y32964513D01*
X42890956Y32978704D01*
X43144974Y32988694D01*
X43488014Y32995085D01*
X43933157Y32998478D01*
X44493489Y32999475D01*
X46380218Y32999475D01*
X46469391Y33207934D01*
X46622693Y33453676D01*
X46853367Y33680138D01*
X47107706Y33829233D01*
X47245191Y33869890D01*
X47589346Y33898710D01*
X47943160Y33846300D01*
X48264741Y33721492D01*
X48512195Y33533119D01*
X48600687Y33420945D01*
X48754212Y33095825D01*
X48806381Y32737826D01*
X48799306Y32683373D01*
X48759465Y32376749D01*
X48615734Y32042395D01*
X48377459Y31764564D01*
X48358040Y31748758D01*
X48122102Y31605749D01*
X47847933Y31501277D01*
X47600626Y31460796D01*
X47509810Y31466266D01*
X47197844Y31552765D01*
X46893345Y31723819D01*
X46636561Y31952715D01*
X46467737Y32212740D01*
X46380218Y32422202D01*
X42883740Y32422202D01*
X42414383Y31614470D01*
X41945026Y30806739D01*
X42071384Y30668385D01*
X42110954Y30622970D01*
X42304725Y30301944D01*
X42391636Y29953553D01*
X42390491Y29928158D01*
X42375801Y29602253D01*
X42261335Y29272503D01*
G37*
G36*
X52170110Y30032787D02*
G01*
X51919528Y29747036D01*
X51568083Y29536860D01*
X51552937Y29530751D01*
X51298213Y29482816D01*
X50991390Y29496852D01*
X50684585Y29566125D01*
X50429916Y29683901D01*
X50168100Y29924196D01*
X49988692Y30238824D01*
X49908932Y30592962D01*
X49918186Y30723617D01*
X50487975Y30723617D01*
X50532899Y30497712D01*
X50705071Y30267051D01*
X50747577Y30226031D01*
X50938897Y30089936D01*
X51128404Y30048970D01*
X51168590Y30050550D01*
X51355357Y30109226D01*
X51551737Y30267051D01*
X51665114Y30399085D01*
X51765005Y30625990D01*
X51737841Y30853025D01*
X51583958Y31088798D01*
X51475858Y31196801D01*
X51328147Y31276919D01*
X51128404Y31296812D01*
X50980383Y31287865D01*
X50824046Y31229150D01*
X50672850Y31088798D01*
X50569961Y30953373D01*
X50487975Y30723617D01*
X49918186Y30723617D01*
X49934866Y30959101D01*
X50072541Y31309729D01*
X50089764Y31339369D01*
X50175460Y31509024D01*
X50195662Y31625293D01*
X50159440Y31732283D01*
X50128676Y31787754D01*
X50036221Y31949352D01*
X49895622Y32192470D01*
X49716802Y32500014D01*
X49509684Y32854891D01*
X49284191Y33240005D01*
X48484868Y34603010D01*
X46698088Y34603010D01*
X46579450Y34330409D01*
X46579016Y34329413D01*
X46374850Y34001375D01*
X46091940Y33742866D01*
X45758414Y33573428D01*
X45402402Y33512606D01*
X45142633Y33553675D01*
X44831532Y33688997D01*
X44551621Y33893570D01*
X44346774Y34141265D01*
X44262529Y34320523D01*
X44184573Y34646427D01*
X44184167Y34839510D01*
X44779308Y34839510D01*
X44804783Y34590091D01*
X44954793Y34349746D01*
X45120518Y34210223D01*
X45368563Y34123784D01*
X45626480Y34162461D01*
X45882270Y34326557D01*
X45980155Y34462009D01*
X46033807Y34689088D01*
X46008381Y34933664D01*
X45909824Y35153576D01*
X45744078Y35306664D01*
X45723682Y35317058D01*
X45462801Y35378315D01*
X45195033Y35332000D01*
X44965894Y35185217D01*
X44878140Y35080934D01*
X44779308Y34839510D01*
X44184167Y34839510D01*
X44183889Y34971457D01*
X44264055Y35247758D01*
X44270951Y35260953D01*
X44515321Y35594814D01*
X44838587Y35837407D01*
X45220044Y35973024D01*
X45352628Y35987238D01*
X45682402Y35946530D01*
X46006588Y35817342D01*
X46285603Y35618641D01*
X46479866Y35369391D01*
X46577658Y35180283D01*
X47693830Y35180283D01*
X47772522Y35180279D01*
X48154970Y35179526D01*
X48432182Y35175724D01*
X48623794Y35166381D01*
X48749438Y35149003D01*
X48828749Y35121099D01*
X48881360Y35080174D01*
X48926905Y35023738D01*
X48983089Y34938157D01*
X49096560Y34753753D01*
X49135453Y34689088D01*
X49255177Y34490030D01*
X49449078Y34163505D01*
X49668402Y33790700D01*
X49903286Y33388132D01*
X50762765Y31909071D01*
X51075927Y31909071D01*
X51135823Y31908050D01*
X51541488Y31840067D01*
X51876844Y31673383D01*
X52130495Y31418923D01*
X52291043Y31087615D01*
X52347091Y30690384D01*
X52340025Y30625990D01*
X52313565Y30384840D01*
X52170110Y30032787D01*
G37*
G36*
X21467454Y32617056D02*
G01*
X21360215Y32315532D01*
X21166156Y32058496D01*
X20885727Y31871333D01*
X20773744Y31831904D01*
X20491922Y31788669D01*
X20203144Y31801660D01*
X19968527Y31870906D01*
X19967028Y31871689D01*
X19798648Y31985177D01*
X19636651Y32130850D01*
X19553654Y32227262D01*
X19522979Y32305550D01*
X19572509Y32360457D01*
X19573460Y32361057D01*
X19703236Y32414213D01*
X19842533Y32393969D01*
X20034303Y32294159D01*
X20084284Y32265418D01*
X20366214Y32171022D01*
X20627072Y32200455D01*
X20858591Y32353127D01*
X20890083Y32384948D01*
X21009221Y32520089D01*
X21052760Y32616499D01*
X21010171Y32681284D01*
X20870926Y32721553D01*
X20624494Y32744413D01*
X20260349Y32756970D01*
X19474616Y32774980D01*
X19454078Y32953886D01*
X19467592Y33157981D01*
X19470808Y33166154D01*
X19910625Y33166154D01*
X19958443Y33135842D01*
X20104882Y33105166D01*
X20312696Y33084291D01*
X20544644Y33074575D01*
X20763488Y33077376D01*
X20931986Y33094051D01*
X21012899Y33125960D01*
X21016585Y33152474D01*
X20967132Y33258338D01*
X20854785Y33393063D01*
X20840726Y33407045D01*
X20700585Y33525952D01*
X20570447Y33568387D01*
X20386191Y33556748D01*
X20220429Y33513031D01*
X20043920Y33414071D01*
X19930188Y33289851D01*
X19910625Y33166154D01*
X19470808Y33166154D01*
X19572344Y33424188D01*
X19751453Y33661968D01*
X19979783Y33829458D01*
X20031932Y33853801D01*
X20330740Y33946474D01*
X20611799Y33934494D01*
X20920243Y33817278D01*
X21019210Y33760306D01*
X21263752Y33534692D01*
X21419673Y33252023D01*
X21441129Y33152474D01*
X21487424Y32937682D01*
X21467454Y32617056D01*
G37*
G36*
X50887525Y22088848D02*
G01*
X50705845Y21789001D01*
X50448011Y21548136D01*
X50122348Y21390960D01*
X49942542Y21347410D01*
X49710443Y21339233D01*
X49440152Y21394505D01*
X49349411Y21427619D01*
X49135797Y21547851D01*
X48923544Y21710451D01*
X48751215Y21883801D01*
X48657376Y22036282D01*
X48642797Y22070426D01*
X48605623Y22105812D01*
X48531720Y22130380D01*
X48402779Y22146086D01*
X48200488Y22154883D01*
X47906539Y22158729D01*
X47502621Y22159576D01*
X47149094Y22161330D01*
X46790973Y22169333D01*
X46540151Y22184540D01*
X46384813Y22207748D01*
X46313140Y22239753D01*
X46311027Y22242217D01*
X46254623Y22326201D01*
X46143347Y22504457D01*
X46063832Y22634834D01*
X49139505Y22634834D01*
X49171239Y22386381D01*
X49327511Y22154642D01*
X49343024Y22139567D01*
X49565818Y21999366D01*
X49801621Y21962452D01*
X50027014Y22013969D01*
X50218581Y22139058D01*
X50352902Y22322865D01*
X50406559Y22550533D01*
X50356133Y22807204D01*
X50227510Y23007820D01*
X50019627Y23154176D01*
X49777679Y23205370D01*
X49533416Y23155538D01*
X49318587Y22998816D01*
X49232464Y22885325D01*
X49139505Y22634834D01*
X46063832Y22634834D01*
X45986312Y22761940D01*
X45792635Y23083608D01*
X45571430Y23454417D01*
X45331812Y23859323D01*
X44424341Y25398717D01*
X44040135Y25432778D01*
X44038390Y25432934D01*
X43613350Y25522080D01*
X43269477Y25702705D01*
X43014710Y25968892D01*
X42856984Y26314724D01*
X42834784Y26397323D01*
X42797546Y26593021D01*
X42799896Y26647515D01*
X43431434Y26647515D01*
X43446110Y26483229D01*
X43545757Y26263576D01*
X43750858Y26104937D01*
X43952544Y26031478D01*
X44209543Y26037102D01*
X44431034Y26162859D01*
X44604939Y26404513D01*
X44608950Y26412721D01*
X44676609Y26576648D01*
X44681228Y26703895D01*
X44626027Y26864772D01*
X44576415Y26963157D01*
X44391763Y27162055D01*
X44150903Y27255926D01*
X43877090Y27233327D01*
X43653231Y27119466D01*
X43489266Y26914985D01*
X43431434Y26647515D01*
X42799896Y26647515D01*
X42804946Y26764589D01*
X42856984Y26984225D01*
X42936640Y27195415D01*
X43137599Y27484961D01*
X43404200Y27692200D01*
X43714799Y27815763D01*
X44047756Y27854281D01*
X44381427Y27806387D01*
X44694170Y27670710D01*
X44964344Y27445883D01*
X45170305Y27130535D01*
X45252893Y26875262D01*
X45264325Y26703895D01*
X45275820Y26531593D01*
X45209569Y26205963D01*
X45057958Y25938869D01*
X45010203Y25868105D01*
X44971638Y25746444D01*
X44997802Y25680050D01*
X45081634Y25515810D01*
X45214724Y25271258D01*
X45388400Y24962032D01*
X45593987Y24603767D01*
X45822811Y24212101D01*
X46673174Y22768919D01*
X47577526Y22751174D01*
X48481879Y22733428D01*
X48655355Y23088002D01*
X48779590Y23298898D01*
X49046180Y23572801D01*
X49380499Y23737828D01*
X49781056Y23793044D01*
X49848242Y23791777D01*
X50194876Y23731688D01*
X50491125Y23571471D01*
X50764804Y23297101D01*
X50892364Y23095232D01*
X50989111Y22766669D01*
X50986351Y22550533D01*
X50984722Y22422973D01*
X50887525Y22088848D01*
G37*
G36*
X37081434Y27483313D02*
G01*
X37081434Y28555111D01*
X36629638Y28592988D01*
X36396199Y28622433D01*
X36053987Y28722283D01*
X35805996Y28888384D01*
X35638061Y29128383D01*
X35607267Y29201781D01*
X35557380Y29506697D01*
X35566402Y29547524D01*
X36009965Y29547524D01*
X36017854Y29364445D01*
X36148468Y29180145D01*
X36189467Y29141475D01*
X36305420Y29066775D01*
X36458393Y29031545D01*
X36693670Y29022707D01*
X37081434Y29022707D01*
X37081434Y29920687D01*
X36669171Y29920687D01*
X36470720Y29917077D01*
X36313581Y29896056D01*
X36211381Y29845074D01*
X36123969Y29751683D01*
X36123853Y29751536D01*
X36009965Y29547524D01*
X35566402Y29547524D01*
X35622418Y29801011D01*
X35792997Y30059597D01*
X36059731Y30257330D01*
X36130548Y30288751D01*
X36311127Y30336264D01*
X36559306Y30361880D01*
X36905046Y30369577D01*
X37530424Y30369677D01*
X37530424Y27483313D01*
X37081434Y27483313D01*
G37*
G36*
X31626448Y33870383D02*
G01*
X31839341Y33769172D01*
X31903976Y33719080D01*
X32008920Y33653650D01*
X32062592Y33671821D01*
X32098316Y33774246D01*
X32152098Y33867047D01*
X32282186Y33886493D01*
X32329417Y33877751D01*
X32372313Y33853344D01*
X32401907Y33795929D01*
X32421278Y33686454D01*
X32433506Y33505868D01*
X32441669Y33235120D01*
X32448846Y32855157D01*
X32466510Y31844929D01*
X32014263Y31844929D01*
X32014263Y32490560D01*
X32011972Y32668875D01*
X31999586Y32934849D01*
X31978871Y33140338D01*
X31952573Y33251460D01*
X31913087Y33305710D01*
X31749867Y33420369D01*
X31540265Y33488071D01*
X31342023Y33486579D01*
X31337931Y33485557D01*
X31232253Y33471629D01*
X31188838Y33523277D01*
X31180424Y33671738D01*
X31180789Y33727471D01*
X31197739Y33844728D01*
X31267723Y33889979D01*
X31428340Y33897455D01*
X31626448Y33870383D01*
G37*
G36*
X34815114Y32310609D02*
G01*
X34705530Y32049568D01*
X34508718Y31870298D01*
X34444018Y31840114D01*
X34178628Y31787718D01*
X33888868Y31811326D01*
X33633833Y31908368D01*
X33520488Y31972491D01*
X33444761Y31991032D01*
X33425374Y31940199D01*
X33425119Y31933371D01*
X33367620Y31866162D01*
X33200879Y31844929D01*
X32976384Y31844929D01*
X32976742Y32502379D01*
X32977852Y32556812D01*
X33445192Y32556812D01*
X33496870Y32403228D01*
X33638698Y32266818D01*
X33778293Y32190078D01*
X33996101Y32135339D01*
X34195071Y32184681D01*
X34214598Y32195201D01*
X34345401Y32332933D01*
X34371914Y32509799D01*
X34286496Y32684057D01*
X34138152Y32769609D01*
X33924547Y32806736D01*
X33701987Y32791784D01*
X33525985Y32721986D01*
X33492566Y32691622D01*
X33445192Y32556812D01*
X32977852Y32556812D01*
X32984564Y32885909D01*
X33014859Y33220844D01*
X33072616Y33465748D01*
X33162721Y33640295D01*
X33290060Y33764165D01*
X33475766Y33863363D01*
X33784174Y33935620D01*
X34106818Y33927995D01*
X34403703Y33842909D01*
X34634834Y33682781D01*
X34777606Y33530808D01*
X34623818Y33430042D01*
X34546920Y33383423D01*
X34457102Y33364904D01*
X34373446Y33425861D01*
X34357247Y33439882D01*
X34215313Y33509911D01*
X34027507Y33555704D01*
X33967132Y33562341D01*
X33772137Y33546758D01*
X33601763Y33449917D01*
X33587314Y33438166D01*
X33472468Y33313405D01*
X33425360Y33203279D01*
X33425482Y33197075D01*
X33446896Y33144878D01*
X33522330Y33114066D01*
X33676497Y33099411D01*
X33934107Y33095687D01*
X34073186Y33095072D01*
X34285377Y33086173D01*
X34425327Y33058638D01*
X34530830Y33002377D01*
X34639677Y32907298D01*
X34688470Y32858131D01*
X34803453Y32687037D01*
X34831175Y32509799D01*
X34834212Y32490379D01*
X34815114Y32310609D01*
G37*
G36*
X34278823Y29568572D02*
G01*
X34534389Y29444619D01*
X34616669Y29389475D01*
X34721906Y29329334D01*
X34764422Y29337390D01*
X34772344Y29409489D01*
X34774120Y29440103D01*
X34823572Y29515405D01*
X34964768Y29535838D01*
X35157192Y29535838D01*
X35157192Y27483313D01*
X34784365Y27483313D01*
X34762319Y28120211D01*
X34753783Y28305854D01*
X34718632Y28639937D01*
X34652947Y28872428D01*
X34546339Y29021154D01*
X34388417Y29103943D01*
X34168791Y29138624D01*
X34028683Y29149464D01*
X33918040Y29176153D01*
X33881270Y29238948D01*
X33886609Y29363119D01*
X33902147Y29463855D01*
X33962140Y29554086D01*
X34101434Y29587005D01*
X34278823Y29568572D01*
G37*
G36*
X49840501Y28644266D02*
G01*
X49786440Y28511864D01*
X49683963Y28303168D01*
X49546441Y28041897D01*
X49387243Y27751767D01*
X49219737Y27456497D01*
X49057294Y27179805D01*
X48913283Y26945409D01*
X48801073Y26777026D01*
X48734034Y26698374D01*
X48671664Y26685814D01*
X48496945Y26673846D01*
X48234801Y26666092D01*
X47907637Y26663163D01*
X47537856Y26665672D01*
X46416753Y26681545D01*
X45978330Y27419172D01*
X45963677Y27443847D01*
X45786758Y27745116D01*
X45623022Y28029488D01*
X45490139Y28265967D01*
X45405779Y28423556D01*
X45284648Y28664465D01*
X45977170Y28664465D01*
X45982826Y28641825D01*
X46037946Y28523360D01*
X46138590Y28336065D01*
X46268470Y28107706D01*
X46411298Y27866052D01*
X46550789Y27638871D01*
X46670656Y27453929D01*
X46754611Y27338995D01*
X46807391Y27294061D01*
X46898554Y27259948D01*
X47046883Y27239431D01*
X47276058Y27229400D01*
X47609763Y27226748D01*
X48368714Y27226748D01*
X48518992Y27467278D01*
X48593149Y27586742D01*
X48782379Y27898635D01*
X48949461Y28183696D01*
X49082830Y28421501D01*
X49170921Y28591630D01*
X49202169Y28673660D01*
X49202111Y28674488D01*
X49168290Y28753178D01*
X49081231Y28917268D01*
X48953853Y29143236D01*
X48799077Y29407556D01*
X48397979Y30081040D01*
X47639587Y30099171D01*
X47481578Y30101967D01*
X47138364Y30098422D01*
X46906806Y30079470D01*
X46794813Y30045612D01*
X46742560Y29983347D01*
X46638499Y29830939D01*
X46505360Y29620384D01*
X46359534Y29379371D01*
X46217411Y29135585D01*
X46095382Y28916714D01*
X46009838Y28750445D01*
X45977170Y28664465D01*
X45284648Y28664465D01*
X45271651Y28690313D01*
X45802097Y29610172D01*
X45926212Y29822871D01*
X46101851Y30115103D01*
X46253662Y30357501D01*
X46368606Y30529419D01*
X46433642Y30610207D01*
X46470396Y30624616D01*
X46623094Y30648134D01*
X46862847Y30667082D01*
X47162884Y30681097D01*
X47496436Y30689816D01*
X47836732Y30692878D01*
X48157001Y30689919D01*
X48430474Y30680577D01*
X48630379Y30664490D01*
X48729947Y30641296D01*
X48751150Y30621085D01*
X48838239Y30502448D01*
X48965151Y30304169D01*
X49118517Y30049867D01*
X49284969Y29763163D01*
X49451136Y29467676D01*
X49603650Y29187026D01*
X49729140Y28944833D01*
X49814239Y28764716D01*
X49844459Y28673660D01*
X49845576Y28670295D01*
X49840501Y28644266D01*
G37*
G36*
X25231570Y32239874D02*
G01*
X25061333Y31998869D01*
X24918014Y31871944D01*
X24763979Y31799030D01*
X24564237Y31781028D01*
X24314269Y31814171D01*
X24076763Y31908368D01*
X23963417Y31972491D01*
X23887691Y31991032D01*
X23868303Y31940199D01*
X23867705Y31929846D01*
X23807456Y31865202D01*
X23638711Y31844929D01*
X23409119Y31844929D01*
X23429028Y32625839D01*
X23867723Y32625839D01*
X23879847Y32481516D01*
X24012621Y32309855D01*
X24180832Y32194546D01*
X24394863Y32135791D01*
X24593085Y32159210D01*
X24744485Y32260041D01*
X24818051Y32433522D01*
X24818543Y32493428D01*
X24745675Y32654005D01*
X24581139Y32765221D01*
X24351127Y32806175D01*
X24179973Y32795152D01*
X23969885Y32733493D01*
X23867723Y32625839D01*
X23429028Y32625839D01*
X23430251Y32673798D01*
X23438029Y32947160D01*
X23450189Y33209189D01*
X23468750Y33387269D01*
X23498185Y33506488D01*
X23542964Y33591938D01*
X23607560Y33668710D01*
X23823198Y33824471D01*
X24120610Y33920897D01*
X24444470Y33940178D01*
X24753747Y33880254D01*
X25007414Y33739061D01*
X25037725Y33712868D01*
X25130649Y33619356D01*
X25136349Y33550559D01*
X25064492Y33459043D01*
X25035242Y33427052D01*
X24960672Y33366425D01*
X24881064Y33375327D01*
X24744386Y33452732D01*
X24740416Y33455137D01*
X24506046Y33548887D01*
X24271803Y33565179D01*
X24067534Y33511724D01*
X23923085Y33396233D01*
X23868303Y33226415D01*
X23868324Y33217621D01*
X23877632Y33138693D01*
X23924500Y33100587D01*
X24038928Y33094212D01*
X24250920Y33110475D01*
X24304047Y33114726D01*
X24665365Y33102680D01*
X24943075Y33006754D01*
X25153305Y32821789D01*
X25209799Y32737769D01*
X25281287Y32493428D01*
X25281708Y32491989D01*
X25231570Y32239874D01*
G37*
G36*
X30974193Y32401164D02*
G01*
X30821688Y32120414D01*
X30584529Y31906794D01*
X30489307Y31858364D01*
X30189870Y31787529D01*
X29872621Y31804226D01*
X29592924Y31908368D01*
X29479579Y31972491D01*
X29403852Y31991032D01*
X29384465Y31940199D01*
X29384139Y31932503D01*
X29325968Y31865925D01*
X29158743Y31844929D01*
X28933021Y31844929D01*
X28944645Y32805974D01*
X29388890Y32805974D01*
X29449601Y32551934D01*
X29608653Y32320466D01*
X29750305Y32217199D01*
X29995827Y32165636D01*
X30030002Y32166580D01*
X30272580Y32234804D01*
X30457536Y32390807D01*
X30574596Y32606215D01*
X30613486Y32852651D01*
X30563933Y33101743D01*
X30415661Y33325116D01*
X30222275Y33468511D01*
X30007392Y33512606D01*
X29949579Y33510077D01*
X29706864Y33434637D01*
X29526514Y33274214D01*
X29417525Y33055697D01*
X29388890Y32805974D01*
X28944645Y32805974D01*
X28950283Y33272076D01*
X28967546Y34699222D01*
X29352394Y34699222D01*
X29371064Y34167564D01*
X29389733Y33635905D01*
X29581572Y33772506D01*
X29655926Y33817557D01*
X29930488Y33900805D01*
X30235178Y33899729D01*
X30517961Y33812128D01*
X30757466Y33628908D01*
X30933680Y33362916D01*
X31029200Y33050742D01*
X31037504Y32852651D01*
X31043034Y32720716D01*
X30974193Y32401164D01*
G37*
G36*
X23591452Y30112440D02*
G01*
X23687581Y30090787D01*
X23732314Y30011999D01*
X23752368Y29840510D01*
X23755045Y29805610D01*
X23779587Y29648306D01*
X23835537Y29575045D01*
X23948480Y29547613D01*
X24011434Y29537488D01*
X24102897Y29480489D01*
X24124869Y29343414D01*
X24122105Y29277460D01*
X24077529Y29176971D01*
X23948480Y29139215D01*
X23772091Y29118919D01*
X23740020Y28423499D01*
X23737118Y28361538D01*
X23720531Y28070092D01*
X23699933Y27875366D01*
X23669191Y27750472D01*
X23622170Y27668522D01*
X23552735Y27602626D01*
X23516097Y27575355D01*
X23343532Y27504605D01*
X23103745Y27496279D01*
X23034083Y27501365D01*
X22884925Y27525905D01*
X22815806Y27580551D01*
X22790070Y27687670D01*
X22789102Y27696256D01*
X22791478Y27806161D01*
X22854048Y27857551D01*
X23010855Y27880095D01*
X23161649Y27903504D01*
X23252978Y27969275D01*
X23306304Y28112995D01*
X23326988Y28234527D01*
X23343451Y28469322D01*
X23342085Y28722338D01*
X23323101Y29118919D01*
X23082571Y29138827D01*
X23078658Y29139152D01*
X22922199Y29163165D01*
X22855829Y29220618D01*
X22842041Y29343414D01*
X22842043Y29346418D01*
X22856453Y29467741D01*
X22924126Y29524302D01*
X23082571Y29548002D01*
X23164571Y29555802D01*
X23275418Y29586831D01*
X23323398Y29668878D01*
X23342824Y29840510D01*
X23347950Y29905045D01*
X23372727Y30044348D01*
X23430370Y30101848D01*
X23547596Y30113111D01*
X23591452Y30112440D01*
G37*
%TD*%
%LPC*%
D13*
%TO.C,H4*%
X134990000Y5034000D03*
%TD*%
D14*
%TO.C,D3*%
X66356000Y70866000D03*
X66356000Y68326000D03*
X66356000Y65786000D03*
X66356000Y63246000D03*
X66356000Y60706000D03*
X66356000Y58166000D03*
X66356000Y55626000D03*
X66356000Y53086000D03*
X42356000Y53086000D03*
X42356000Y55626000D03*
X42356000Y58166000D03*
X42356000Y60706000D03*
X42356000Y63246000D03*
X42356000Y65786000D03*
X42356000Y68326000D03*
X42356000Y70866000D03*
%TD*%
D15*
%TO.C,GND*%
X46228000Y6096000D03*
%TD*%
D16*
%TO.C,BT1*%
X124460017Y6674314D03*
D17*
X124460017Y27164314D03*
%TD*%
D15*
%TO.C,DDATA*%
X99822000Y30226000D03*
%TD*%
D14*
%TO.C,D4*%
X97598000Y70866000D03*
X97598000Y68326000D03*
X97598000Y65786000D03*
X97598000Y63246000D03*
X97598000Y60706000D03*
X97598000Y58166000D03*
X97598000Y55626000D03*
X97598000Y53086000D03*
X73598000Y53086000D03*
X73598000Y55626000D03*
X73598000Y58166000D03*
X73598000Y60706000D03*
X73598000Y63246000D03*
X73598000Y65786000D03*
X73598000Y68326000D03*
X73598000Y70866000D03*
%TD*%
D15*
%TO.C,CLK*%
X63246000Y33274000D03*
%TD*%
D18*
%TO.C,U3*%
X109210000Y10678000D03*
D19*
X109210000Y13218000D03*
X109210000Y15758000D03*
X109210000Y18298000D03*
X101590000Y18298000D03*
X101590000Y15758000D03*
X101590000Y13218000D03*
X101590000Y10678000D03*
%TD*%
D15*
%TO.C,SDA*%
X109474000Y29718000D03*
%TD*%
D20*
%TO.C,J4*%
X87630000Y6858000D03*
X85090000Y6858000D03*
X82550000Y6858000D03*
X80010000Y6858000D03*
D21*
X77470000Y6858000D03*
%TD*%
D18*
%TO.C,U6*%
X72690000Y37094000D03*
D19*
X75230000Y37094000D03*
X77770000Y37094000D03*
X80310000Y37094000D03*
X82850000Y37094000D03*
X85390000Y37094000D03*
X87930000Y37094000D03*
X90470000Y37094000D03*
X93010000Y37094000D03*
X95550000Y37094000D03*
X98090000Y37094000D03*
X100630000Y37094000D03*
X100630000Y44714000D03*
X98090000Y44714000D03*
X95550000Y44714000D03*
X93010000Y44714000D03*
X90470000Y44714000D03*
X87930000Y44714000D03*
X85390000Y44714000D03*
X82850000Y44714000D03*
X80310000Y44714000D03*
X77770000Y44714000D03*
X75230000Y44714000D03*
X72690000Y44714000D03*
%TD*%
D21*
%TO.C,J3*%
X54610000Y11923000D03*
D20*
X57150000Y11923000D03*
X54610000Y9383000D03*
X57150000Y9383000D03*
X54610000Y6843000D03*
X57150000Y6843000D03*
%TD*%
D18*
%TO.C,U7*%
X106675000Y37094000D03*
D19*
X109215000Y37094000D03*
X111755000Y37094000D03*
X114295000Y37094000D03*
X116835000Y37094000D03*
X119375000Y37094000D03*
X121915000Y37094000D03*
X124455000Y37094000D03*
X126995000Y37094000D03*
X129535000Y37094000D03*
X132075000Y37094000D03*
X134615000Y37094000D03*
X134615000Y44714000D03*
X132075000Y44714000D03*
X129535000Y44714000D03*
X126995000Y44714000D03*
X124455000Y44714000D03*
X121915000Y44714000D03*
X119375000Y44714000D03*
X116835000Y44714000D03*
X114295000Y44714000D03*
X111755000Y44714000D03*
X109215000Y44714000D03*
X106675000Y44714000D03*
%TD*%
D15*
%TO.C,VCC*%
X40132000Y6096000D03*
%TD*%
D18*
%TO.C,U1*%
X87630000Y23114000D03*
D19*
X85090000Y23114000D03*
X82550000Y23114000D03*
X80010000Y23114000D03*
X77470000Y23114000D03*
X74930000Y23114000D03*
X72390000Y23114000D03*
X69850000Y23114000D03*
X67310000Y23114000D03*
X64770000Y23114000D03*
X62230000Y23114000D03*
X59690000Y23114000D03*
X57150000Y23114000D03*
X54610000Y23114000D03*
X54610000Y15494000D03*
X57150000Y15494000D03*
X59690000Y15494000D03*
X62230000Y15494000D03*
X64770000Y15494000D03*
X67310000Y15494000D03*
X69850000Y15494000D03*
X72390000Y15494000D03*
X74930000Y15494000D03*
X77470000Y15494000D03*
X80010000Y15494000D03*
X82550000Y15494000D03*
X85090000Y15494000D03*
X87630000Y15494000D03*
%TD*%
D18*
%TO.C,U4*%
X5075000Y37094000D03*
D19*
X7615000Y37094000D03*
X10155000Y37094000D03*
X12695000Y37094000D03*
X15235000Y37094000D03*
X17775000Y37094000D03*
X20315000Y37094000D03*
X22855000Y37094000D03*
X25395000Y37094000D03*
X27935000Y37094000D03*
X30475000Y37094000D03*
X33015000Y37094000D03*
X33015000Y44714000D03*
X30475000Y44714000D03*
X27935000Y44714000D03*
X25395000Y44714000D03*
X22855000Y44714000D03*
X20315000Y44714000D03*
X17775000Y44714000D03*
X15235000Y44714000D03*
X12695000Y44714000D03*
X10155000Y44714000D03*
X7615000Y44714000D03*
X5075000Y44714000D03*
%TD*%
D13*
%TO.C,H2*%
X134990000Y85034000D03*
%TD*%
%TO.C,H3*%
X4990000Y5034000D03*
%TD*%
D21*
%TO.C,J1*%
X95250000Y15494000D03*
D20*
X95250000Y18034000D03*
X95250000Y20574000D03*
X95250000Y23114000D03*
X95250000Y25654000D03*
X95250000Y28194000D03*
%TD*%
D13*
%TO.C,H1*%
X4990000Y85034000D03*
%TD*%
D15*
%TO.C,SCL*%
X105918000Y30226000D03*
%TD*%
D14*
%TO.C,D5*%
X105094000Y70866000D03*
X105094000Y68326000D03*
X105094000Y65786000D03*
X105094000Y63246000D03*
X105094000Y60706000D03*
X105094000Y58166000D03*
X105094000Y55626000D03*
X105094000Y53086000D03*
X129094000Y53086000D03*
X129094000Y55626000D03*
X129094000Y58166000D03*
X129094000Y60706000D03*
X129094000Y63246000D03*
X129094000Y65786000D03*
X129094000Y68326000D03*
X129094000Y70866000D03*
%TD*%
D15*
%TO.C,DLOAD*%
X134366000Y33782000D03*
%TD*%
D18*
%TO.C,U5*%
X38990000Y37094000D03*
D19*
X41530000Y37094000D03*
X44070000Y37094000D03*
X46610000Y37094000D03*
X49150000Y37094000D03*
X51690000Y37094000D03*
X54230000Y37094000D03*
X56770000Y37094000D03*
X59310000Y37094000D03*
X61850000Y37094000D03*
X64390000Y37094000D03*
X66930000Y37094000D03*
X66930000Y44714000D03*
X64390000Y44714000D03*
X61850000Y44714000D03*
X59310000Y44714000D03*
X56770000Y44714000D03*
X54230000Y44714000D03*
X51690000Y44714000D03*
X49150000Y44714000D03*
X46610000Y44714000D03*
X44070000Y44714000D03*
X41530000Y44714000D03*
X38990000Y44714000D03*
%TD*%
D20*
%TO.C,J5*%
X68326000Y6858000D03*
X70866000Y6858000D03*
D21*
X73406000Y6858000D03*
%TD*%
D14*
%TO.C,D2*%
X10860000Y70866000D03*
X10860000Y68326000D03*
X10860000Y65786000D03*
X10860000Y63246000D03*
X10860000Y60706000D03*
X10860000Y58166000D03*
X10860000Y55626000D03*
X10860000Y53086000D03*
X34860000Y53086000D03*
X34860000Y55626000D03*
X34860000Y58166000D03*
X34860000Y60706000D03*
X34860000Y63246000D03*
X34860000Y65786000D03*
X34860000Y68326000D03*
X34860000Y70866000D03*
%TD*%
D22*
%TO.C,REF\u002A\u002A1*%
X33274000Y14026000D03*
D23*
X27974000Y16326000D03*
X30474000Y20026000D03*
%TD*%
M02*
