%TF.GenerationSoftware,KiCad,Pcbnew,(6.0.5)*%
%TF.CreationDate,2022-07-18T02:26:31-07:00*%
%TF.ProjectId,CLOCK,434c4f43-4b2e-46b6-9963-61645f706362,rev?*%
%TF.SameCoordinates,PX4c8bb40PY8b0aba0*%
%TF.FileFunction,Soldermask,Bot*%
%TF.FilePolarity,Negative*%
%FSLAX46Y46*%
G04 Gerber Fmt 4.6, Leading zero omitted, Abs format (unit mm)*
G04 Created by KiCad (PCBNEW (6.0.5)) date 2022-07-18 02:26:31*
%MOMM*%
%LPD*%
G01*
G04 APERTURE LIST*
G04 Aperture macros list*
%AMRoundRect*
0 Rectangle with rounded corners*
0 $1 Rounding radius*
0 $2 $3 $4 $5 $6 $7 $8 $9 X,Y pos of 4 corners*
0 Add a 4 corners polygon primitive as box body*
4,1,4,$2,$3,$4,$5,$6,$7,$8,$9,$2,$3,0*
0 Add four circle primitives for the rounded corners*
1,1,$1+$1,$2,$3*
1,1,$1+$1,$4,$5*
1,1,$1+$1,$6,$7*
1,1,$1+$1,$8,$9*
0 Add four rect primitives between the rounded corners*
20,1,$1+$1,$2,$3,$4,$5,0*
20,1,$1+$1,$4,$5,$6,$7,0*
20,1,$1+$1,$6,$7,$8,$9,0*
20,1,$1+$1,$8,$9,$2,$3,0*%
G04 Aperture macros list end*
%ADD10C,3.200000*%
%ADD11C,1.524000*%
%ADD12C,3.000000*%
%ADD13R,3.000000X3.000000*%
%ADD14R,1.600000X1.600000*%
%ADD15O,1.600000X1.600000*%
%ADD16R,1.700000X1.700000*%
%ADD17O,1.700000X1.700000*%
%ADD18RoundRect,0.500000X0.500000X-1.750000X0.500000X1.750000X-0.500000X1.750000X-0.500000X-1.750000X0*%
%ADD19RoundRect,0.500000X1.500000X0.500000X-1.500000X0.500000X-1.500000X-0.500000X1.500000X-0.500000X0*%
G04 APERTURE END LIST*
D10*
%TO.C,H4*%
X134736000Y5796000D03*
%TD*%
D11*
%TO.C,D3*%
X40436000Y72686000D03*
X40436000Y70146000D03*
X40436000Y67606000D03*
X40436000Y65066000D03*
X40436000Y62526000D03*
X40436000Y59986000D03*
X40436000Y57446000D03*
X40436000Y54906000D03*
X64436000Y54906000D03*
X64436000Y57446000D03*
X64436000Y59986000D03*
X64436000Y62526000D03*
X64436000Y65066000D03*
X64436000Y67606000D03*
X64436000Y70146000D03*
X64436000Y72686000D03*
%TD*%
D12*
%TO.C,BT1*%
X124968025Y27164307D03*
D13*
X124968025Y6674307D03*
%TD*%
D11*
%TO.C,D4*%
X74436000Y72686000D03*
X74436000Y70146000D03*
X74436000Y67606000D03*
X74436000Y65066000D03*
X74436000Y62526000D03*
X74436000Y59986000D03*
X74436000Y57446000D03*
X74436000Y54906000D03*
X98436000Y54906000D03*
X98436000Y57446000D03*
X98436000Y59986000D03*
X98436000Y62526000D03*
X98436000Y65066000D03*
X98436000Y67606000D03*
X98436000Y70146000D03*
X98436000Y72686000D03*
%TD*%
D14*
%TO.C,U3*%
X106736000Y5796000D03*
D15*
X106736000Y8336000D03*
X106736000Y10876000D03*
X106736000Y13416000D03*
X99116000Y13416000D03*
X99116000Y10876000D03*
X99116000Y8336000D03*
X99116000Y5796000D03*
%TD*%
D16*
%TO.C,J4*%
X77216000Y6096000D03*
D17*
X79756000Y6096000D03*
X82296000Y6096000D03*
X84836000Y6096000D03*
X87376000Y6096000D03*
%TD*%
D14*
%TO.C,U6*%
X72436000Y37856000D03*
D15*
X74976000Y37856000D03*
X77516000Y37856000D03*
X80056000Y37856000D03*
X82596000Y37856000D03*
X85136000Y37856000D03*
X87676000Y37856000D03*
X90216000Y37856000D03*
X92756000Y37856000D03*
X95296000Y37856000D03*
X97836000Y37856000D03*
X100376000Y37856000D03*
X100376000Y45476000D03*
X97836000Y45476000D03*
X95296000Y45476000D03*
X92756000Y45476000D03*
X90216000Y45476000D03*
X87676000Y45476000D03*
X85136000Y45476000D03*
X82596000Y45476000D03*
X80056000Y45476000D03*
X77516000Y45476000D03*
X74976000Y45476000D03*
X72436000Y45476000D03*
%TD*%
D16*
%TO.C,J3*%
X54356000Y11176000D03*
D17*
X56896000Y11176000D03*
X54356000Y8636000D03*
X56896000Y8636000D03*
X54356000Y6096000D03*
X56896000Y6096000D03*
%TD*%
D14*
%TO.C,U7*%
X106421000Y37856000D03*
D15*
X108961000Y37856000D03*
X111501000Y37856000D03*
X114041000Y37856000D03*
X116581000Y37856000D03*
X119121000Y37856000D03*
X121661000Y37856000D03*
X124201000Y37856000D03*
X126741000Y37856000D03*
X129281000Y37856000D03*
X131821000Y37856000D03*
X134361000Y37856000D03*
X134361000Y45476000D03*
X131821000Y45476000D03*
X129281000Y45476000D03*
X126741000Y45476000D03*
X124201000Y45476000D03*
X121661000Y45476000D03*
X119121000Y45476000D03*
X116581000Y45476000D03*
X114041000Y45476000D03*
X111501000Y45476000D03*
X108961000Y45476000D03*
X106421000Y45476000D03*
%TD*%
D14*
%TO.C,U1*%
X87376000Y23876000D03*
D15*
X84836000Y23876000D03*
X82296000Y23876000D03*
X79756000Y23876000D03*
X77216000Y23876000D03*
X74676000Y23876000D03*
X72136000Y23876000D03*
X69596000Y23876000D03*
X67056000Y23876000D03*
X64516000Y23876000D03*
X61976000Y23876000D03*
X59436000Y23876000D03*
X56896000Y23876000D03*
X54356000Y23876000D03*
X54356000Y16256000D03*
X56896000Y16256000D03*
X59436000Y16256000D03*
X61976000Y16256000D03*
X64516000Y16256000D03*
X67056000Y16256000D03*
X69596000Y16256000D03*
X72136000Y16256000D03*
X74676000Y16256000D03*
X77216000Y16256000D03*
X79756000Y16256000D03*
X82296000Y16256000D03*
X84836000Y16256000D03*
X87376000Y16256000D03*
%TD*%
D14*
%TO.C,U4*%
X4821000Y37856000D03*
D15*
X7361000Y37856000D03*
X9901000Y37856000D03*
X12441000Y37856000D03*
X14981000Y37856000D03*
X17521000Y37856000D03*
X20061000Y37856000D03*
X22601000Y37856000D03*
X25141000Y37856000D03*
X27681000Y37856000D03*
X30221000Y37856000D03*
X32761000Y37856000D03*
X32761000Y45476000D03*
X30221000Y45476000D03*
X27681000Y45476000D03*
X25141000Y45476000D03*
X22601000Y45476000D03*
X20061000Y45476000D03*
X17521000Y45476000D03*
X14981000Y45476000D03*
X12441000Y45476000D03*
X9901000Y45476000D03*
X7361000Y45476000D03*
X4821000Y45476000D03*
%TD*%
D10*
%TO.C,H2*%
X134736000Y85796000D03*
%TD*%
%TO.C,H3*%
X4736000Y5796000D03*
%TD*%
D16*
%TO.C,J1*%
X94996000Y16256000D03*
D17*
X94996000Y18796000D03*
X94996000Y21336000D03*
X94996000Y23876000D03*
X94996000Y26416000D03*
X94996000Y28956000D03*
%TD*%
D10*
%TO.C,H1*%
X4736000Y85796000D03*
%TD*%
D11*
%TO.C,D5*%
X108396000Y72686000D03*
X108396000Y70146000D03*
X108396000Y67606000D03*
X108396000Y65066000D03*
X108396000Y62526000D03*
X108396000Y59986000D03*
X108396000Y57446000D03*
X108396000Y54906000D03*
X132396000Y54906000D03*
X132396000Y57446000D03*
X132396000Y59986000D03*
X132396000Y62526000D03*
X132396000Y65066000D03*
X132396000Y67606000D03*
X132396000Y70146000D03*
X132396000Y72686000D03*
%TD*%
D14*
%TO.C,U5*%
X38736000Y37856000D03*
D15*
X41276000Y37856000D03*
X43816000Y37856000D03*
X46356000Y37856000D03*
X48896000Y37856000D03*
X51436000Y37856000D03*
X53976000Y37856000D03*
X56516000Y37856000D03*
X59056000Y37856000D03*
X61596000Y37856000D03*
X64136000Y37856000D03*
X66676000Y37856000D03*
X66676000Y45476000D03*
X64136000Y45476000D03*
X61596000Y45476000D03*
X59056000Y45476000D03*
X56516000Y45476000D03*
X53976000Y45476000D03*
X51436000Y45476000D03*
X48896000Y45476000D03*
X46356000Y45476000D03*
X43816000Y45476000D03*
X41276000Y45476000D03*
X38736000Y45476000D03*
%TD*%
D16*
%TO.C,J5*%
X73152000Y6096000D03*
D17*
X70612000Y6096000D03*
X68072000Y6096000D03*
%TD*%
D11*
%TO.C,D2*%
X6736000Y72686000D03*
X6736000Y70146000D03*
X6736000Y67606000D03*
X6736000Y65066000D03*
X6736000Y62526000D03*
X6736000Y59986000D03*
X6736000Y57446000D03*
X6736000Y54906000D03*
X30736000Y54906000D03*
X30736000Y57446000D03*
X30736000Y59986000D03*
X30736000Y62526000D03*
X30736000Y65066000D03*
X30736000Y67606000D03*
X30736000Y70146000D03*
X30736000Y72686000D03*
%TD*%
D18*
%TO.C,REF\u002A\u002A1*%
X12136000Y17296000D03*
D19*
X9836000Y11996000D03*
X6136000Y14496000D03*
%TD*%
M02*
