%TF.GenerationSoftware,KiCad,Pcbnew,(6.0.5)*%
%TF.CreationDate,2022-07-22T04:36:01-07:00*%
%TF.ProjectId,CLOCK,434c4f43-4b2e-46b6-9963-61645f706362,rev?*%
%TF.SameCoordinates,PX4c4db10PY8a50b10*%
%TF.FileFunction,Paste,Top*%
%TF.FilePolarity,Positive*%
%FSLAX46Y46*%
G04 Gerber Fmt 4.6, Leading zero omitted, Abs format (unit mm)*
G04 Created by KiCad (PCBNEW (6.0.5)) date 2022-07-22 04:36:01*
%MOMM*%
%LPD*%
G01*
G04 APERTURE LIST*
G04 Aperture macros list*
%AMRoundRect*
0 Rectangle with rounded corners*
0 $1 Rounding radius*
0 $2 $3 $4 $5 $6 $7 $8 $9 X,Y pos of 4 corners*
0 Add a 4 corners polygon primitive as box body*
4,1,4,$2,$3,$4,$5,$6,$7,$8,$9,$2,$3,0*
0 Add four circle primitives for the rounded corners*
1,1,$1+$1,$2,$3*
1,1,$1+$1,$4,$5*
1,1,$1+$1,$6,$7*
1,1,$1+$1,$8,$9*
0 Add four rect primitives between the rounded corners*
20,1,$1+$1,$2,$3,$4,$5,0*
20,1,$1+$1,$4,$5,$6,$7,0*
20,1,$1+$1,$6,$7,$8,$9,0*
20,1,$1+$1,$8,$9,$2,$3,0*%
G04 Aperture macros list end*
%ADD10R,1.400000X1.150000*%
%ADD11R,1.150000X1.400000*%
%ADD12R,4.500000X2.000000*%
%ADD13R,1.600000X1.400000*%
%ADD14R,1.800000X1.000000*%
%ADD15RoundRect,0.150000X-0.825000X-0.150000X0.825000X-0.150000X0.825000X0.150000X-0.825000X0.150000X0*%
%ADD16R,1.200000X2.200000*%
%ADD17R,2.750000X3.050000*%
%ADD18RoundRect,0.243750X0.456250X-0.243750X0.456250X0.243750X-0.456250X0.243750X-0.456250X-0.243750X0*%
G04 APERTURE END LIST*
D10*
%TO.C,C7*%
X12192000Y7962000D03*
X12192000Y6262000D03*
%TD*%
D11*
%TO.C,R11*%
X17184000Y34034000D03*
X18884000Y34034000D03*
%TD*%
D12*
%TO.C,Y1*%
X65600000Y28194000D03*
X74100000Y28194000D03*
%TD*%
D11*
%TO.C,R5*%
X55206000Y86614000D03*
X53506000Y86614000D03*
%TD*%
D13*
%TO.C,UP*%
X58356000Y79792000D03*
X50356000Y79792000D03*
X58356000Y84292000D03*
X50356000Y84292000D03*
%TD*%
D11*
%TO.C,C5*%
X60540000Y28194000D03*
X58840000Y28194000D03*
%TD*%
D10*
%TO.C,C14*%
X77490000Y32844000D03*
X77490000Y34544000D03*
%TD*%
%TO.C,C10*%
X80030000Y34544000D03*
X80030000Y32844000D03*
%TD*%
%TO.C,C8*%
X12695000Y34124000D03*
X12695000Y32424000D03*
%TD*%
%TO.C,C12*%
X10160000Y32424000D03*
X10160000Y34124000D03*
%TD*%
%TO.C,C13*%
X46610000Y33184000D03*
X46610000Y34884000D03*
%TD*%
D14*
%TO.C,Y2*%
X112268000Y13188000D03*
X112268000Y10688000D03*
%TD*%
D10*
%TO.C,R3*%
X91690000Y23684000D03*
X91690000Y25384000D03*
%TD*%
D11*
%TO.C,R12*%
X52920000Y34544000D03*
X51220000Y34544000D03*
%TD*%
D15*
%TO.C,U8*%
X101515000Y25939000D03*
X101515000Y24669000D03*
X101515000Y23399000D03*
X101515000Y22129000D03*
X106465000Y22129000D03*
X106465000Y23399000D03*
X106465000Y24669000D03*
X106465000Y25939000D03*
%TD*%
D10*
%TO.C,R1*%
X61468000Y9574000D03*
X61468000Y7874000D03*
%TD*%
D13*
%TO.C,MODE*%
X26860000Y79792000D03*
X18860000Y79792000D03*
X26860000Y84292000D03*
X18860000Y84292000D03*
%TD*%
D11*
%TO.C,R13*%
X85940000Y34034000D03*
X84240000Y34034000D03*
%TD*%
D13*
%TO.C,DOWN*%
X89598000Y79792000D03*
X81598000Y79792000D03*
X89598000Y84292000D03*
X81598000Y84292000D03*
%TD*%
D10*
%TO.C,C15*%
X110490000Y32844000D03*
X110490000Y34544000D03*
%TD*%
%TO.C,C9*%
X43990000Y34884000D03*
X43990000Y33184000D03*
%TD*%
%TO.C,R4*%
X91690000Y29044000D03*
X91690000Y27344000D03*
%TD*%
D11*
%TO.C,R9*%
X94400000Y11938000D03*
X96100000Y11938000D03*
%TD*%
D13*
%TO.C,SELECT*%
X121094000Y79792000D03*
X113094000Y79792000D03*
X121094000Y84292000D03*
X113094000Y84292000D03*
%TD*%
D16*
%TO.C,U2*%
X15246000Y13412000D03*
X19806000Y13412000D03*
D17*
X19051000Y8787000D03*
X16001000Y8787000D03*
X16001000Y5437000D03*
X19051000Y5437000D03*
%TD*%
D11*
%TO.C,C1*%
X71240000Y12954000D03*
X72940000Y12954000D03*
%TD*%
D10*
%TO.C,C11*%
X114295000Y34544000D03*
X114295000Y32844000D03*
%TD*%
D11*
%TO.C,R10*%
X94400000Y9398000D03*
X96100000Y9398000D03*
%TD*%
%TO.C,C3*%
X90590000Y18034000D03*
X92290000Y18034000D03*
%TD*%
%TO.C,R7*%
X117944000Y86868000D03*
X116244000Y86868000D03*
%TD*%
D10*
%TO.C,C16*%
X109990000Y25884000D03*
X109990000Y24184000D03*
%TD*%
D11*
%TO.C,R2*%
X90590000Y20574000D03*
X92290000Y20574000D03*
%TD*%
%TO.C,C4*%
X80860000Y28194000D03*
X79160000Y28194000D03*
%TD*%
D18*
%TO.C,D1*%
X64516000Y7952500D03*
X64516000Y9827500D03*
%TD*%
D11*
%TO.C,R14*%
X120440000Y34034000D03*
X118740000Y34034000D03*
%TD*%
%TO.C,C2*%
X65340000Y12954000D03*
X67040000Y12954000D03*
%TD*%
D13*
%TO.C,RESET*%
X40450000Y19268000D03*
X48450000Y19268000D03*
X40450000Y14768000D03*
X48450000Y14768000D03*
%TD*%
D10*
%TO.C,C6*%
X23622000Y8470000D03*
X23622000Y6770000D03*
%TD*%
D11*
%TO.C,R6*%
X86448000Y86868000D03*
X84748000Y86868000D03*
%TD*%
%TO.C,R8*%
X23710000Y86614000D03*
X22010000Y86614000D03*
%TD*%
M02*
