M48
; DRILL file {KiCad (6.0.5)} date Mon Jul 18 02:27:18 2022
; FORMAT={-:-/ absolute / inch / decimal}
; #@! TF.CreationDate,2022-07-18T02:27:18-07:00
; #@! TF.GenerationSoftware,Kicad,Pcbnew,(6.0.5)
; #@! TF.FileFunction,MixedPlating,1,2
FMAT,2
INCH
; #@! TA.AperFunction,Plated,PTH,ViaDrill
T1C0.0160
; #@! TA.AperFunction,Plated,PTH,ComponentDrill
T2C0.0300
; #@! TA.AperFunction,Plated,PTH,ComponentDrill
T3C0.0315
; #@! TA.AperFunction,Plated,PTH,ComponentDrill
T4C0.0394
; #@! TA.AperFunction,Plated,PTH,ComponentDrill
T5C0.0591
; #@! TA.AperFunction,NonPlated,NPTH,ComponentDrill
T6C0.1260
%
G90
G05
T1
X1.04Y3.24
X1.39Y2.89
X1.44Y1.34
X2.24Y1.14
X2.34Y3.24
X2.69Y2.89
X2.69Y1.44
X2.74Y2.89
X3.24Y1.14
X3.4723Y0.84
X3.5908Y0.24
X3.64Y3.24
X3.64Y0.64
X3.8315Y0.9993
X3.9723Y0.84
X4.04Y2.89
X4.2723Y0.84
X5.04Y3.24
T2
X0.2652Y2.8617
X0.2652Y2.7617
X0.2652Y2.6617
X0.2652Y2.5617
X0.2652Y2.4617
X0.2652Y2.3617
X0.2652Y2.2617
X0.2652Y2.1617
X1.2101Y2.8617
X1.2101Y2.7617
X1.2101Y2.6617
X1.2101Y2.5617
X1.2101Y2.4617
X1.2101Y2.3617
X1.2101Y2.2617
X1.2101Y2.1617
X1.592Y2.8617
X1.592Y2.7617
X1.592Y2.6617
X1.592Y2.5617
X1.592Y2.4617
X1.592Y2.3617
X1.592Y2.2617
X1.592Y2.1617
X2.5369Y2.8617
X2.5369Y2.7617
X2.5369Y2.6617
X2.5369Y2.5617
X2.5369Y2.4617
X2.5369Y2.3617
X2.5369Y2.2617
X2.5369Y2.1617
X2.9306Y2.8617
X2.9306Y2.7617
X2.9306Y2.6617
X2.9306Y2.5617
X2.9306Y2.4617
X2.9306Y2.3617
X2.9306Y2.2617
X2.9306Y2.1617
X3.8754Y2.8617
X3.8754Y2.7617
X3.8754Y2.6617
X3.8754Y2.5617
X3.8754Y2.4617
X3.8754Y2.3617
X3.8754Y2.2617
X3.8754Y2.1617
X4.2676Y2.8617
X4.2676Y2.7617
X4.2676Y2.6617
X4.2676Y2.5617
X4.2676Y2.4617
X4.2676Y2.3617
X4.2676Y2.2617
X4.2676Y2.1617
X5.2124Y2.8617
X5.2124Y2.7617
X5.2124Y2.6617
X5.2124Y2.5617
X5.2124Y2.4617
X5.2124Y2.3617
X5.2124Y2.2617
X5.2124Y2.1617
T3
X0.1898Y1.7904
X0.1898Y1.4904
X0.2898Y1.7904
X0.2898Y1.4904
X0.3898Y1.7904
X0.3898Y1.4904
X0.4898Y1.7904
X0.4898Y1.4904
X0.5898Y1.7904
X0.5898Y1.4904
X0.6898Y1.7904
X0.6898Y1.4904
X0.7898Y1.7904
X0.7898Y1.4904
X0.8898Y1.7904
X0.8898Y1.4904
X0.9898Y1.7904
X0.9898Y1.4904
X1.0898Y1.7904
X1.0898Y1.4904
X1.1898Y1.7904
X1.1898Y1.4904
X1.2898Y1.7904
X1.2898Y1.4904
X1.525Y1.7904
X1.525Y1.4904
X1.625Y1.7904
X1.625Y1.4904
X1.725Y1.7904
X1.725Y1.4904
X1.825Y1.7904
X1.825Y1.4904
X1.925Y1.7904
X1.925Y1.4904
X2.025Y1.7904
X2.025Y1.4904
X2.125Y1.7904
X2.125Y1.4904
X2.14Y0.94
X2.14Y0.64
X2.225Y1.7904
X2.225Y1.4904
X2.24Y0.94
X2.24Y0.64
X2.325Y1.7904
X2.325Y1.4904
X2.34Y0.94
X2.34Y0.64
X2.425Y1.7904
X2.425Y1.4904
X2.44Y0.94
X2.44Y0.64
X2.525Y1.7904
X2.525Y1.4904
X2.54Y0.94
X2.54Y0.64
X2.625Y1.7904
X2.625Y1.4904
X2.64Y0.94
X2.64Y0.64
X2.74Y0.94
X2.74Y0.64
X2.84Y0.94
X2.84Y0.64
X2.8518Y1.7904
X2.8518Y1.4904
X2.94Y0.94
X2.94Y0.64
X2.9518Y1.7904
X2.9518Y1.4904
X3.04Y0.94
X3.04Y0.64
X3.0518Y1.7904
X3.0518Y1.4904
X3.14Y0.94
X3.14Y0.64
X3.1518Y1.7904
X3.1518Y1.4904
X3.24Y0.94
X3.24Y0.64
X3.2518Y1.7904
X3.2518Y1.4904
X3.34Y0.94
X3.34Y0.64
X3.3518Y1.7904
X3.3518Y1.4904
X3.44Y0.94
X3.44Y0.64
X3.4518Y1.7904
X3.4518Y1.4904
X3.5518Y1.7904
X3.5518Y1.4904
X3.6518Y1.7904
X3.6518Y1.4904
X3.7518Y1.7904
X3.7518Y1.4904
X3.8518Y1.7904
X3.8518Y1.4904
X3.9022Y0.5282
X3.9022Y0.4282
X3.9022Y0.3282
X3.9022Y0.2282
X3.9518Y1.7904
X3.9518Y1.4904
X4.1898Y1.7904
X4.1898Y1.4904
X4.2022Y0.5282
X4.2022Y0.4282
X4.2022Y0.3282
X4.2022Y0.2282
X4.2898Y1.7904
X4.2898Y1.4904
X4.3898Y1.7904
X4.3898Y1.4904
X4.4898Y1.7904
X4.4898Y1.4904
X4.5898Y1.7904
X4.5898Y1.4904
X4.6898Y1.7904
X4.6898Y1.4904
X4.7898Y1.7904
X4.7898Y1.4904
X4.8898Y1.7904
X4.8898Y1.4904
X4.9898Y1.7904
X4.9898Y1.4904
X5.0898Y1.7904
X5.0898Y1.4904
X5.1898Y1.7904
X5.1898Y1.4904
X5.2898Y1.7904
X5.2898Y1.4904
T4
X2.14Y0.44
X2.14Y0.34
X2.14Y0.24
X2.24Y0.44
X2.24Y0.34
X2.24Y0.24
X2.68Y0.24
X2.78Y0.24
X2.88Y0.24
X3.04Y0.24
X3.14Y0.24
X3.24Y0.24
X3.34Y0.24
X3.44Y0.24
X3.74Y1.14
X3.74Y1.04
X3.74Y0.94
X3.74Y0.84
X3.74Y0.74
X3.74Y0.64
T5
X4.92Y1.0695
X4.92Y0.2628
T6
X0.1865Y3.3778
X0.1865Y0.2282
X5.3046Y3.3778
X5.3046Y0.2282
T4
G00X0.2809Y0.5707
M15
G01X0.2022Y0.5707
M16
G05
G00X0.4266Y0.4723
M15
G01X0.3479Y0.4723
M16
G05
G00X0.4778Y0.6317
M15
G01X0.4778Y0.7302
M16
G05
T0
M30
