%TF.GenerationSoftware,KiCad,Pcbnew,(6.0.5)*%
%TF.CreationDate,2022-07-18T02:26:31-07:00*%
%TF.ProjectId,CLOCK,434c4f43-4b2e-46b6-9963-61645f706362,rev?*%
%TF.SameCoordinates,PX4c8bb40PY8b0aba0*%
%TF.FileFunction,Paste,Top*%
%TF.FilePolarity,Positive*%
%FSLAX46Y46*%
G04 Gerber Fmt 4.6, Leading zero omitted, Abs format (unit mm)*
G04 Created by KiCad (PCBNEW (6.0.5)) date 2022-07-18 02:26:31*
%MOMM*%
%LPD*%
G01*
G04 APERTURE LIST*
G04 Aperture macros list*
%AMRoundRect*
0 Rectangle with rounded corners*
0 $1 Rounding radius*
0 $2 $3 $4 $5 $6 $7 $8 $9 X,Y pos of 4 corners*
0 Add a 4 corners polygon primitive as box body*
4,1,4,$2,$3,$4,$5,$6,$7,$8,$9,$2,$3,0*
0 Add four circle primitives for the rounded corners*
1,1,$1+$1,$2,$3*
1,1,$1+$1,$4,$5*
1,1,$1+$1,$6,$7*
1,1,$1+$1,$8,$9*
0 Add four rect primitives between the rounded corners*
20,1,$1+$1,$2,$3,$4,$5,0*
20,1,$1+$1,$4,$5,$6,$7,0*
20,1,$1+$1,$6,$7,$8,$9,0*
20,1,$1+$1,$8,$9,$2,$3,0*%
G04 Aperture macros list end*
%ADD10R,1.400000X1.150000*%
%ADD11R,1.150000X1.400000*%
%ADD12R,4.500000X2.000000*%
%ADD13R,1.600000X1.400000*%
%ADD14R,1.800000X1.000000*%
%ADD15RoundRect,0.150000X-0.825000X-0.150000X0.825000X-0.150000X0.825000X0.150000X-0.825000X0.150000X0*%
%ADD16R,2.750000X3.050000*%
%ADD17R,1.200000X2.200000*%
%ADD18RoundRect,0.243750X0.243750X0.456250X-0.243750X0.456250X-0.243750X-0.456250X0.243750X-0.456250X0*%
G04 APERTURE END LIST*
D10*
%TO.C,C7*%
X13716000Y6946000D03*
X13716000Y5246000D03*
%TD*%
D11*
%TO.C,R11*%
X16695990Y34796000D03*
X18395990Y34796000D03*
%TD*%
D12*
%TO.C,Y1*%
X65346000Y28956000D03*
X73846000Y28956000D03*
%TD*%
D10*
%TO.C,R5*%
X12036000Y83736000D03*
X12036000Y85436000D03*
%TD*%
D13*
%TO.C,SW2*%
X22736000Y82336000D03*
X14736000Y82336000D03*
X22736000Y86836000D03*
X14736000Y86836000D03*
%TD*%
D11*
%TO.C,C5*%
X60286000Y28956000D03*
X58586000Y28956000D03*
%TD*%
D10*
%TO.C,C14*%
X77236000Y33606000D03*
X77236000Y35306000D03*
%TD*%
%TO.C,C10*%
X79776000Y35306000D03*
X79776000Y33606000D03*
%TD*%
%TO.C,C8*%
X12441000Y34886000D03*
X12441000Y33186000D03*
%TD*%
%TO.C,C12*%
X9906000Y33186000D03*
X9906000Y34886000D03*
%TD*%
%TO.C,C13*%
X46356000Y33946000D03*
X46356000Y35646000D03*
%TD*%
D14*
%TO.C,Y2*%
X111736000Y7346000D03*
X111736000Y4846000D03*
%TD*%
D10*
%TO.C,R3*%
X91436000Y24446000D03*
X91436000Y26146000D03*
%TD*%
D11*
%TO.C,R12*%
X50966000Y35306000D03*
X52666000Y35306000D03*
%TD*%
D15*
%TO.C,U8*%
X101261000Y26701000D03*
X101261000Y25431000D03*
X101261000Y24161000D03*
X101261000Y22891000D03*
X106211000Y22891000D03*
X106211000Y24161000D03*
X106211000Y25431000D03*
X106211000Y26701000D03*
%TD*%
D11*
%TO.C,R1*%
X62085996Y5496001D03*
X60385996Y5496001D03*
%TD*%
D13*
%TO.C,SW5*%
X90436000Y82336000D03*
X82436000Y82336000D03*
X90436000Y86836000D03*
X82436000Y86836000D03*
%TD*%
D11*
%TO.C,R13*%
X83986000Y34796000D03*
X85686000Y34796000D03*
%TD*%
D13*
%TO.C,SW3*%
X124396000Y82336000D03*
X116396000Y82336000D03*
X124396000Y86836000D03*
X116396000Y86836000D03*
%TD*%
D10*
%TO.C,C15*%
X110236000Y33606000D03*
X110236000Y35306000D03*
%TD*%
%TO.C,C9*%
X43736000Y35646000D03*
X43736000Y33946000D03*
%TD*%
%TO.C,R4*%
X91436000Y29806000D03*
X91436000Y28106000D03*
%TD*%
D11*
%TO.C,R9*%
X94146000Y11176000D03*
X95846000Y11176000D03*
%TD*%
D13*
%TO.C,SW4*%
X56436000Y82336000D03*
X48436000Y82336000D03*
X56436000Y86836000D03*
X48436000Y86836000D03*
%TD*%
D16*
%TO.C,U2*%
X20321000Y6021000D03*
X17271000Y6021000D03*
X17271000Y9371000D03*
X20321000Y9371000D03*
D17*
X21076000Y13996000D03*
X16516000Y13996000D03*
%TD*%
D11*
%TO.C,C1*%
X70986000Y13716000D03*
X72686000Y13716000D03*
%TD*%
D10*
%TO.C,C11*%
X114041000Y35306000D03*
X114041000Y33606000D03*
%TD*%
D11*
%TO.C,R10*%
X94146000Y8636000D03*
X95846000Y8636000D03*
%TD*%
%TO.C,C3*%
X90336000Y18796000D03*
X92036000Y18796000D03*
%TD*%
D10*
%TO.C,R7*%
X45736000Y83736000D03*
X45736000Y85436000D03*
%TD*%
%TO.C,C16*%
X109736000Y26646000D03*
X109736000Y24946000D03*
%TD*%
D11*
%TO.C,R2*%
X90336000Y21336000D03*
X92036000Y21336000D03*
%TD*%
%TO.C,C4*%
X80606000Y28956000D03*
X78906000Y28956000D03*
%TD*%
D18*
%TO.C,D1*%
X62173500Y8636000D03*
X60298500Y8636000D03*
%TD*%
D11*
%TO.C,R14*%
X118486000Y34796000D03*
X120186000Y34796000D03*
%TD*%
%TO.C,C2*%
X65086000Y13716000D03*
X66786000Y13716000D03*
%TD*%
D13*
%TO.C,SW1*%
X30036000Y11046000D03*
X38036000Y11046000D03*
X30036000Y6546000D03*
X38036000Y6546000D03*
%TD*%
D10*
%TO.C,C6*%
X23876000Y6946000D03*
X23876000Y5246000D03*
%TD*%
%TO.C,R6*%
X113636000Y83736000D03*
X113636000Y85436000D03*
%TD*%
%TO.C,R8*%
X79636000Y83736000D03*
X79636000Y85436000D03*
%TD*%
M02*
