%TF.GenerationSoftware,KiCad,Pcbnew,(6.0.5)*%
%TF.CreationDate,2022-07-18T02:26:31-07:00*%
%TF.ProjectId,CLOCK,434c4f43-4b2e-46b6-9963-61645f706362,rev?*%
%TF.SameCoordinates,PX4c8bb40PY8b0aba0*%
%TF.FileFunction,Legend,Top*%
%TF.FilePolarity,Positive*%
%FSLAX46Y46*%
G04 Gerber Fmt 4.6, Leading zero omitted, Abs format (unit mm)*
G04 Created by KiCad (PCBNEW (6.0.5)) date 2022-07-18 02:26:31*
%MOMM*%
%LPD*%
G01*
G04 APERTURE LIST*
%ADD10C,0.438150*%
%ADD11C,0.533400*%
%ADD12C,0.150000*%
%ADD13C,0.120000*%
G04 APERTURE END LIST*
D10*
X35052000Y34995758D02*
X35052000Y34578472D01*
X34634714Y34745386D02*
X35052000Y34578472D01*
X35469285Y34745386D01*
X34801628Y34244643D02*
X35052000Y34578472D01*
X35302371Y34244643D01*
X32004000Y34995758D02*
X32004000Y34578472D01*
X31586714Y34745386D02*
X32004000Y34578472D01*
X32421285Y34745386D01*
X31753628Y34244643D02*
X32004000Y34578472D01*
X32254371Y34244643D01*
X33528000Y34995758D02*
X33528000Y34578472D01*
X33110714Y34745386D02*
X33528000Y34578472D01*
X33945285Y34745386D01*
X33277628Y34244643D02*
X33528000Y34578472D01*
X33778371Y34244643D01*
X36068000Y20771758D02*
X36068000Y20354472D01*
X35650714Y20521386D02*
X36068000Y20354472D01*
X36485285Y20521386D01*
X35817628Y20020643D02*
X36068000Y20354472D01*
X36318371Y20020643D01*
X23876000Y20771758D02*
X23876000Y20354472D01*
X23458714Y20521386D02*
X23876000Y20354472D01*
X24293285Y20521386D01*
X23625628Y20020643D02*
X23876000Y20354472D01*
X24126371Y20020643D01*
X37546642Y19527158D02*
X37546642Y21279758D01*
X37963928Y21279758D01*
X38214300Y21196300D01*
X38381214Y21029386D01*
X38464671Y20862472D01*
X38548128Y20528643D01*
X38548128Y20278272D01*
X38464671Y19944443D01*
X38381214Y19777529D01*
X38214300Y19610615D01*
X37963928Y19527158D01*
X37546642Y19527158D01*
X39299242Y20445186D02*
X39883442Y20445186D01*
X40133814Y19527158D02*
X39299242Y19527158D01*
X39299242Y21279758D01*
X40133814Y21279758D01*
X41886414Y19694072D02*
X41802957Y19610615D01*
X41552585Y19527158D01*
X41385671Y19527158D01*
X41135300Y19610615D01*
X40968385Y19777529D01*
X40884928Y19944443D01*
X40801471Y20278272D01*
X40801471Y20528643D01*
X40884928Y20862472D01*
X40968385Y21029386D01*
X41135300Y21196300D01*
X41385671Y21279758D01*
X41552585Y21279758D01*
X41802957Y21196300D01*
X41886414Y21112843D01*
X42637528Y19527158D02*
X42637528Y21279758D01*
X43388642Y19610615D02*
X43639014Y19527158D01*
X44056300Y19527158D01*
X44223214Y19610615D01*
X44306671Y19694072D01*
X44390128Y19860986D01*
X44390128Y20027900D01*
X44306671Y20194815D01*
X44223214Y20278272D01*
X44056300Y20361729D01*
X43722471Y20445186D01*
X43555557Y20528643D01*
X43472100Y20612100D01*
X43388642Y20779015D01*
X43388642Y20945929D01*
X43472100Y21112843D01*
X43555557Y21196300D01*
X43722471Y21279758D01*
X44139757Y21279758D01*
X44390128Y21196300D01*
X45141242Y19527158D02*
X45141242Y21279758D01*
X46309642Y21279758D02*
X46643471Y21279758D01*
X46810385Y21196300D01*
X46977300Y21029386D01*
X47060757Y20695558D01*
X47060757Y20111358D01*
X46977300Y19777529D01*
X46810385Y19610615D01*
X46643471Y19527158D01*
X46309642Y19527158D01*
X46142728Y19610615D01*
X45975814Y19777529D01*
X45892357Y20111358D01*
X45892357Y20695558D01*
X45975814Y21029386D01*
X46142728Y21196300D01*
X46309642Y21279758D01*
X47811871Y19527158D02*
X47811871Y21279758D01*
X48813357Y19527158D01*
X48813357Y21279758D01*
X25256671Y19527158D02*
X25256671Y21279758D01*
X26925814Y19527158D02*
X26091242Y19527158D01*
X26091242Y21279758D01*
X27510014Y21279758D02*
X27510014Y19860986D01*
X27593471Y19694072D01*
X27676928Y19610615D01*
X27843842Y19527158D01*
X28177671Y19527158D01*
X28344585Y19610615D01*
X28428042Y19694072D01*
X28511500Y19860986D01*
X28511500Y21279758D01*
X29262614Y19610615D02*
X29512985Y19527158D01*
X29930271Y19527158D01*
X30097185Y19610615D01*
X30180642Y19694072D01*
X30264100Y19860986D01*
X30264100Y20027900D01*
X30180642Y20194815D01*
X30097185Y20278272D01*
X29930271Y20361729D01*
X29596442Y20445186D01*
X29429528Y20528643D01*
X29346071Y20612100D01*
X29262614Y20779015D01*
X29262614Y20945929D01*
X29346071Y21112843D01*
X29429528Y21196300D01*
X29596442Y21279758D01*
X30013728Y21279758D01*
X30264100Y21196300D01*
X31015214Y19527158D02*
X31015214Y21279758D01*
X32183614Y21279758D02*
X32517442Y21279758D01*
X32684357Y21196300D01*
X32851271Y21029386D01*
X32934728Y20695558D01*
X32934728Y20111358D01*
X32851271Y19777529D01*
X32684357Y19610615D01*
X32517442Y19527158D01*
X32183614Y19527158D01*
X32016700Y19610615D01*
X31849785Y19777529D01*
X31766328Y20111358D01*
X31766328Y20695558D01*
X31849785Y21029386D01*
X32016700Y21196300D01*
X32183614Y21279758D01*
X33685842Y19527158D02*
X33685842Y21279758D01*
X34687328Y19527158D01*
X34687328Y21279758D01*
X20793528Y20445186D02*
X20209328Y20445186D01*
X20209328Y19527158D02*
X20209328Y21279758D01*
X21043900Y21279758D01*
X21711557Y20445186D02*
X22295757Y20445186D01*
X22546128Y19527158D02*
X21711557Y19527158D01*
X21711557Y21279758D01*
X22546128Y21279758D01*
D11*
X28694742Y25659443D02*
X28829000Y25793700D01*
X29097514Y25927958D01*
X29768800Y25927958D01*
X30037314Y25793700D01*
X30171571Y25659443D01*
X30305828Y25390929D01*
X30305828Y25122415D01*
X30171571Y24719643D01*
X28560485Y23108558D01*
X30305828Y23108558D01*
X32051171Y25927958D02*
X32319685Y25927958D01*
X32588200Y25793700D01*
X32722457Y25659443D01*
X32856714Y25390929D01*
X32990971Y24853900D01*
X32990971Y24182615D01*
X32856714Y23645586D01*
X32722457Y23377072D01*
X32588200Y23242815D01*
X32319685Y23108558D01*
X32051171Y23108558D01*
X31782657Y23242815D01*
X31648400Y23377072D01*
X31514142Y23645586D01*
X31379885Y24182615D01*
X31379885Y24853900D01*
X31514142Y25390929D01*
X31648400Y25659443D01*
X31782657Y25793700D01*
X32051171Y25927958D01*
X34065028Y25659443D02*
X34199285Y25793700D01*
X34467800Y25927958D01*
X35139085Y25927958D01*
X35407600Y25793700D01*
X35541857Y25659443D01*
X35676114Y25390929D01*
X35676114Y25122415D01*
X35541857Y24719643D01*
X33930771Y23108558D01*
X35676114Y23108558D01*
X36750171Y25659443D02*
X36884428Y25793700D01*
X37152942Y25927958D01*
X37824228Y25927958D01*
X38092742Y25793700D01*
X38227000Y25659443D01*
X38361257Y25390929D01*
X38361257Y25122415D01*
X38227000Y24719643D01*
X36615914Y23108558D01*
X38361257Y23108558D01*
D10*
X8802914Y28816300D02*
X8636000Y28899758D01*
X8385628Y28899758D01*
X8135257Y28816300D01*
X7968342Y28649386D01*
X7884885Y28482472D01*
X7801428Y28148643D01*
X7801428Y27898272D01*
X7884885Y27564443D01*
X7968342Y27397529D01*
X8135257Y27230615D01*
X8385628Y27147158D01*
X8552542Y27147158D01*
X8802914Y27230615D01*
X8886371Y27314072D01*
X8886371Y27898272D01*
X8552542Y27898272D01*
X9971314Y28899758D02*
X10305142Y28899758D01*
X10472057Y28816300D01*
X10638971Y28649386D01*
X10722428Y28315558D01*
X10722428Y27731358D01*
X10638971Y27397529D01*
X10472057Y27230615D01*
X10305142Y27147158D01*
X9971314Y27147158D01*
X9804400Y27230615D01*
X9637485Y27397529D01*
X9554028Y27731358D01*
X9554028Y28315558D01*
X9637485Y28649386D01*
X9804400Y28816300D01*
X9971314Y28899758D01*
X11807371Y28899758D02*
X12141200Y28899758D01*
X12308114Y28816300D01*
X12475028Y28649386D01*
X12558485Y28315558D01*
X12558485Y27731358D01*
X12475028Y27397529D01*
X12308114Y27230615D01*
X12141200Y27147158D01*
X11807371Y27147158D01*
X11640457Y27230615D01*
X11473542Y27397529D01*
X11390085Y27731358D01*
X11390085Y28315558D01*
X11473542Y28649386D01*
X11640457Y28816300D01*
X11807371Y28899758D01*
X14227628Y28816300D02*
X14060714Y28899758D01*
X13810342Y28899758D01*
X13559971Y28816300D01*
X13393057Y28649386D01*
X13309600Y28482472D01*
X13226142Y28148643D01*
X13226142Y27898272D01*
X13309600Y27564443D01*
X13393057Y27397529D01*
X13559971Y27230615D01*
X13810342Y27147158D01*
X13977257Y27147158D01*
X14227628Y27230615D01*
X14311085Y27314072D01*
X14311085Y27898272D01*
X13977257Y27898272D01*
X15896771Y27147158D02*
X15062200Y27147158D01*
X15062200Y28899758D01*
X16480971Y28065186D02*
X17065171Y28065186D01*
X17315542Y27147158D02*
X16480971Y27147158D01*
X16480971Y28899758D01*
X17315542Y28899758D01*
X19401971Y27147158D02*
X19401971Y28899758D01*
X19401971Y28065186D02*
X20403457Y28065186D01*
X20403457Y27147158D02*
X20403457Y28899758D01*
X21154571Y27647900D02*
X21989142Y27647900D01*
X20987657Y27147158D02*
X21571857Y28899758D01*
X22156057Y27147158D01*
X23741742Y27147158D02*
X23157542Y27981729D01*
X22740257Y27147158D02*
X22740257Y28899758D01*
X23407914Y28899758D01*
X23574828Y28816300D01*
X23658285Y28732843D01*
X23741742Y28565929D01*
X23741742Y28315558D01*
X23658285Y28148643D01*
X23574828Y28065186D01*
X23407914Y27981729D01*
X22740257Y27981729D01*
X24492857Y27147158D02*
X24492857Y28899758D01*
X24910142Y28899758D01*
X25160514Y28816300D01*
X25327428Y28649386D01*
X25410885Y28482472D01*
X25494342Y28148643D01*
X25494342Y27898272D01*
X25410885Y27564443D01*
X25327428Y27397529D01*
X25160514Y27230615D01*
X24910142Y27147158D01*
X24492857Y27147158D01*
X26078542Y28899758D02*
X26495828Y27147158D01*
X26829657Y28399015D01*
X27163485Y27147158D01*
X27580771Y28899758D01*
X28164971Y27647900D02*
X28999542Y27647900D01*
X27998057Y27147158D02*
X28582257Y28899758D01*
X29166457Y27147158D01*
X30752142Y27147158D02*
X30167942Y27981729D01*
X29750657Y27147158D02*
X29750657Y28899758D01*
X30418314Y28899758D01*
X30585228Y28816300D01*
X30668685Y28732843D01*
X30752142Y28565929D01*
X30752142Y28315558D01*
X30668685Y28148643D01*
X30585228Y28065186D01*
X30418314Y27981729D01*
X29750657Y27981729D01*
X31503257Y28065186D02*
X32087457Y28065186D01*
X32337828Y27147158D02*
X31503257Y27147158D01*
X31503257Y28899758D01*
X32337828Y28899758D01*
X34424257Y27147158D02*
X34424257Y28899758D01*
X35091914Y28899758D01*
X35258828Y28816300D01*
X35342285Y28732843D01*
X35425742Y28565929D01*
X35425742Y28315558D01*
X35342285Y28148643D01*
X35258828Y28065186D01*
X35091914Y27981729D01*
X34424257Y27981729D01*
X37178342Y27147158D02*
X36594142Y27981729D01*
X36176857Y27147158D02*
X36176857Y28899758D01*
X36844514Y28899758D01*
X37011428Y28816300D01*
X37094885Y28732843D01*
X37178342Y28565929D01*
X37178342Y28315558D01*
X37094885Y28148643D01*
X37011428Y28065186D01*
X36844514Y27981729D01*
X36176857Y27981729D01*
X38263285Y28899758D02*
X38597114Y28899758D01*
X38764028Y28816300D01*
X38930942Y28649386D01*
X39014400Y28315558D01*
X39014400Y27731358D01*
X38930942Y27397529D01*
X38764028Y27230615D01*
X38597114Y27147158D01*
X38263285Y27147158D01*
X38096371Y27230615D01*
X37929457Y27397529D01*
X37846000Y27731358D01*
X37846000Y28315558D01*
X37929457Y28649386D01*
X38096371Y28816300D01*
X38263285Y28899758D01*
X39765514Y27147158D02*
X39765514Y28899758D01*
X40182800Y28899758D01*
X40433171Y28816300D01*
X40600085Y28649386D01*
X40683542Y28482472D01*
X40767000Y28148643D01*
X40767000Y27898272D01*
X40683542Y27564443D01*
X40600085Y27397529D01*
X40433171Y27230615D01*
X40182800Y27147158D01*
X39765514Y27147158D01*
X41518114Y28899758D02*
X41518114Y27480986D01*
X41601571Y27314072D01*
X41685028Y27230615D01*
X41851942Y27147158D01*
X42185771Y27147158D01*
X42352685Y27230615D01*
X42436142Y27314072D01*
X42519600Y27480986D01*
X42519600Y28899758D01*
X44355657Y27314072D02*
X44272200Y27230615D01*
X44021828Y27147158D01*
X43854914Y27147158D01*
X43604542Y27230615D01*
X43437628Y27397529D01*
X43354171Y27564443D01*
X43270714Y27898272D01*
X43270714Y28148643D01*
X43354171Y28482472D01*
X43437628Y28649386D01*
X43604542Y28816300D01*
X43854914Y28899758D01*
X44021828Y28899758D01*
X44272200Y28816300D01*
X44355657Y28732843D01*
X44856400Y28899758D02*
X45857885Y28899758D01*
X45357142Y27147158D02*
X45357142Y28899758D01*
X47693942Y27230615D02*
X47944314Y27147158D01*
X48361600Y27147158D01*
X48528514Y27230615D01*
X48611971Y27314072D01*
X48695428Y27480986D01*
X48695428Y27647900D01*
X48611971Y27814815D01*
X48528514Y27898272D01*
X48361600Y27981729D01*
X48027771Y28065186D01*
X47860857Y28148643D01*
X47777400Y28232100D01*
X47693942Y28399015D01*
X47693942Y28565929D01*
X47777400Y28732843D01*
X47860857Y28816300D01*
X48027771Y28899758D01*
X48445057Y28899758D01*
X48695428Y28816300D01*
X49446542Y27147158D02*
X49446542Y28899758D01*
X50114200Y28899758D01*
X50281114Y28816300D01*
X50364571Y28732843D01*
X50448028Y28565929D01*
X50448028Y28315558D01*
X50364571Y28148643D01*
X50281114Y28065186D01*
X50114200Y27981729D01*
X49446542Y27981729D01*
X52200628Y27147158D02*
X51616428Y27981729D01*
X51199142Y27147158D02*
X51199142Y28899758D01*
X51866800Y28899758D01*
X52033714Y28816300D01*
X52117171Y28732843D01*
X52200628Y28565929D01*
X52200628Y28315558D01*
X52117171Y28148643D01*
X52033714Y28065186D01*
X51866800Y27981729D01*
X51199142Y27981729D01*
X52951742Y27147158D02*
X52951742Y28899758D01*
X53786314Y27147158D02*
X53786314Y28899758D01*
X54787800Y27147158D01*
X54787800Y28899758D01*
X55372000Y28899758D02*
X56373485Y28899758D01*
X55872742Y27147158D02*
X55872742Y28899758D01*
D11*
X32051171Y30220558D02*
X30708600Y30220558D01*
X30708600Y33039958D01*
X34333542Y30220558D02*
X32990971Y30220558D01*
X32990971Y33039958D01*
X34870571Y33039958D02*
X35810371Y30220558D01*
X36750171Y33039958D01*
D12*
%TO.C,C7*%
X11533142Y5929334D02*
X11580761Y5881715D01*
X11628380Y5738858D01*
X11628380Y5643620D01*
X11580761Y5500762D01*
X11485523Y5405524D01*
X11390285Y5357905D01*
X11199809Y5310286D01*
X11056952Y5310286D01*
X10866476Y5357905D01*
X10771238Y5405524D01*
X10676000Y5500762D01*
X10628380Y5643620D01*
X10628380Y5738858D01*
X10676000Y5881715D01*
X10723619Y5929334D01*
X10628380Y6262667D02*
X10628380Y6929334D01*
X11628380Y6500762D01*
%TO.C,H4*%
X133974095Y9543620D02*
X133974095Y10543620D01*
X133974095Y10067429D02*
X134545523Y10067429D01*
X134545523Y9543620D02*
X134545523Y10543620D01*
X135450285Y10210286D02*
X135450285Y9543620D01*
X135212190Y10591239D02*
X134974095Y9876953D01*
X135593142Y9876953D01*
%TO.C,R11*%
X16903132Y32693620D02*
X16569799Y33169810D01*
X16331704Y32693620D02*
X16331704Y33693620D01*
X16712656Y33693620D01*
X16807894Y33646000D01*
X16855513Y33598381D01*
X16903132Y33503143D01*
X16903132Y33360286D01*
X16855513Y33265048D01*
X16807894Y33217429D01*
X16712656Y33169810D01*
X16331704Y33169810D01*
X17855513Y32693620D02*
X17284085Y32693620D01*
X17569799Y32693620D02*
X17569799Y33693620D01*
X17474561Y33550762D01*
X17379323Y33455524D01*
X17284085Y33407905D01*
X18807894Y32693620D02*
X18236466Y32693620D01*
X18522180Y32693620D02*
X18522180Y33693620D01*
X18426942Y33550762D01*
X18331704Y33455524D01*
X18236466Y33407905D01*
%TO.C,D3*%
X51697904Y76343620D02*
X51697904Y77343620D01*
X51936000Y77343620D01*
X52078857Y77296000D01*
X52174095Y77200762D01*
X52221714Y77105524D01*
X52269333Y76915048D01*
X52269333Y76772191D01*
X52221714Y76581715D01*
X52174095Y76486477D01*
X52078857Y76391239D01*
X51936000Y76343620D01*
X51697904Y76343620D01*
X52602666Y77343620D02*
X53221714Y77343620D01*
X52888380Y76962667D01*
X53031238Y76962667D01*
X53126476Y76915048D01*
X53174095Y76867429D01*
X53221714Y76772191D01*
X53221714Y76534096D01*
X53174095Y76438858D01*
X53126476Y76391239D01*
X53031238Y76343620D01*
X52745523Y76343620D01*
X52650285Y76391239D01*
X52602666Y76438858D01*
X42721714Y72343620D02*
X42150285Y72343620D01*
X42436000Y72343620D02*
X42436000Y73343620D01*
X42340761Y73200762D01*
X42245523Y73105524D01*
X42150285Y73057905D01*
X62245523Y72343620D02*
X61674095Y72343620D01*
X61959809Y72343620D02*
X61959809Y73343620D01*
X61864571Y73200762D01*
X61769333Y73105524D01*
X61674095Y73057905D01*
X63102666Y73343620D02*
X62912190Y73343620D01*
X62816952Y73296000D01*
X62769333Y73248381D01*
X62674095Y73105524D01*
X62626476Y72915048D01*
X62626476Y72534096D01*
X62674095Y72438858D01*
X62721714Y72391239D01*
X62816952Y72343620D01*
X63007428Y72343620D01*
X63102666Y72391239D01*
X63150285Y72438858D01*
X63197904Y72534096D01*
X63197904Y72772191D01*
X63150285Y72867429D01*
X63102666Y72915048D01*
X63007428Y72962667D01*
X62816952Y72962667D01*
X62721714Y72915048D01*
X62674095Y72867429D01*
X62626476Y72772191D01*
X62245523Y54343620D02*
X62436000Y54343620D01*
X62531238Y54391239D01*
X62578857Y54438858D01*
X62674095Y54581715D01*
X62721714Y54772191D01*
X62721714Y55153143D01*
X62674095Y55248381D01*
X62626476Y55296000D01*
X62531238Y55343620D01*
X62340761Y55343620D01*
X62245523Y55296000D01*
X62197904Y55248381D01*
X62150285Y55153143D01*
X62150285Y54915048D01*
X62197904Y54819810D01*
X62245523Y54772191D01*
X62340761Y54724572D01*
X62531238Y54724572D01*
X62626476Y54772191D01*
X62674095Y54819810D01*
X62721714Y54915048D01*
X42340761Y54915048D02*
X42245523Y54962667D01*
X42197904Y55010286D01*
X42150285Y55105524D01*
X42150285Y55153143D01*
X42197904Y55248381D01*
X42245523Y55296000D01*
X42340761Y55343620D01*
X42531238Y55343620D01*
X42626476Y55296000D01*
X42674095Y55248381D01*
X42721714Y55153143D01*
X42721714Y55105524D01*
X42674095Y55010286D01*
X42626476Y54962667D01*
X42531238Y54915048D01*
X42340761Y54915048D01*
X42245523Y54867429D01*
X42197904Y54819810D01*
X42150285Y54724572D01*
X42150285Y54534096D01*
X42197904Y54438858D01*
X42245523Y54391239D01*
X42340761Y54343620D01*
X42531238Y54343620D01*
X42626476Y54391239D01*
X42674095Y54438858D01*
X42721714Y54534096D01*
X42721714Y54724572D01*
X42674095Y54819810D01*
X42626476Y54867429D01*
X42531238Y54915048D01*
%TO.C,Y1*%
X69119809Y32529810D02*
X69119809Y32053620D01*
X68786476Y33053620D02*
X69119809Y32529810D01*
X69453142Y33053620D01*
X70310285Y32053620D02*
X69738857Y32053620D01*
X70024571Y32053620D02*
X70024571Y33053620D01*
X69929333Y32910762D01*
X69834095Y32815524D01*
X69738857Y32767905D01*
%TO.C,R5*%
X10838380Y84419334D02*
X10362190Y84086000D01*
X10838380Y83847905D02*
X9838380Y83847905D01*
X9838380Y84228858D01*
X9886000Y84324096D01*
X9933619Y84371715D01*
X10028857Y84419334D01*
X10171714Y84419334D01*
X10266952Y84371715D01*
X10314571Y84324096D01*
X10362190Y84228858D01*
X10362190Y83847905D01*
X9838380Y85324096D02*
X9838380Y84847905D01*
X10314571Y84800286D01*
X10266952Y84847905D01*
X10219333Y84943143D01*
X10219333Y85181239D01*
X10266952Y85276477D01*
X10314571Y85324096D01*
X10409809Y85371715D01*
X10647904Y85371715D01*
X10743142Y85324096D01*
X10790761Y85276477D01*
X10838380Y85181239D01*
X10838380Y84943143D01*
X10790761Y84847905D01*
X10743142Y84800286D01*
%TO.C,SW2*%
X17402666Y79881239D02*
X17545523Y79833620D01*
X17783619Y79833620D01*
X17878857Y79881239D01*
X17926476Y79928858D01*
X17974095Y80024096D01*
X17974095Y80119334D01*
X17926476Y80214572D01*
X17878857Y80262191D01*
X17783619Y80309810D01*
X17593142Y80357429D01*
X17497904Y80405048D01*
X17450285Y80452667D01*
X17402666Y80547905D01*
X17402666Y80643143D01*
X17450285Y80738381D01*
X17497904Y80786000D01*
X17593142Y80833620D01*
X17831238Y80833620D01*
X17974095Y80786000D01*
X18307428Y80833620D02*
X18545523Y79833620D01*
X18736000Y80547905D01*
X18926476Y79833620D01*
X19164571Y80833620D01*
X19497904Y80738381D02*
X19545523Y80786000D01*
X19640761Y80833620D01*
X19878857Y80833620D01*
X19974095Y80786000D01*
X20021714Y80738381D01*
X20069333Y80643143D01*
X20069333Y80547905D01*
X20021714Y80405048D01*
X19450285Y79833620D01*
X20069333Y79833620D01*
%TO.C,C5*%
X59269333Y26948858D02*
X59221714Y26901239D01*
X59078857Y26853620D01*
X58983619Y26853620D01*
X58840761Y26901239D01*
X58745523Y26996477D01*
X58697904Y27091715D01*
X58650285Y27282191D01*
X58650285Y27425048D01*
X58697904Y27615524D01*
X58745523Y27710762D01*
X58840761Y27806000D01*
X58983619Y27853620D01*
X59078857Y27853620D01*
X59221714Y27806000D01*
X59269333Y27758381D01*
X60174095Y27853620D02*
X59697904Y27853620D01*
X59650285Y27377429D01*
X59697904Y27425048D01*
X59793142Y27472667D01*
X60031238Y27472667D01*
X60126476Y27425048D01*
X60174095Y27377429D01*
X60221714Y27282191D01*
X60221714Y27044096D01*
X60174095Y26948858D01*
X60126476Y26901239D01*
X60031238Y26853620D01*
X59793142Y26853620D01*
X59697904Y26901239D01*
X59650285Y26948858D01*
%TO.C,C14*%
X75541142Y33813143D02*
X75588761Y33765524D01*
X75636380Y33622667D01*
X75636380Y33527429D01*
X75588761Y33384572D01*
X75493523Y33289334D01*
X75398285Y33241715D01*
X75207809Y33194096D01*
X75064952Y33194096D01*
X74874476Y33241715D01*
X74779238Y33289334D01*
X74684000Y33384572D01*
X74636380Y33527429D01*
X74636380Y33622667D01*
X74684000Y33765524D01*
X74731619Y33813143D01*
X75636380Y34765524D02*
X75636380Y34194096D01*
X75636380Y34479810D02*
X74636380Y34479810D01*
X74779238Y34384572D01*
X74874476Y34289334D01*
X74922095Y34194096D01*
X74969714Y35622667D02*
X75636380Y35622667D01*
X74588761Y35384572D02*
X75303047Y35146477D01*
X75303047Y35765524D01*
%TO.C,BT1*%
X120396596Y4638593D02*
X120444215Y4781450D01*
X120491834Y4829069D01*
X120587072Y4876688D01*
X120729929Y4876688D01*
X120825167Y4829069D01*
X120872786Y4781450D01*
X120920405Y4686212D01*
X120920405Y4305260D01*
X119920405Y4305260D01*
X119920405Y4638593D01*
X119968025Y4733831D01*
X120015644Y4781450D01*
X120110882Y4829069D01*
X120206120Y4829069D01*
X120301358Y4781450D01*
X120348977Y4733831D01*
X120396596Y4638593D01*
X120396596Y4305260D01*
X119920405Y5162403D02*
X119920405Y5733831D01*
X120920405Y5448117D02*
X119920405Y5448117D01*
X120920405Y6590974D02*
X120920405Y6019546D01*
X120920405Y6305260D02*
X119920405Y6305260D01*
X120063263Y6210022D01*
X120158501Y6114784D01*
X120206120Y6019546D01*
X125075167Y8852879D02*
X125075167Y9995736D01*
X125646596Y9424307D02*
X124503739Y9424307D01*
%TO.C,C10*%
X82145142Y33813143D02*
X82192761Y33765524D01*
X82240380Y33622667D01*
X82240380Y33527429D01*
X82192761Y33384572D01*
X82097523Y33289334D01*
X82002285Y33241715D01*
X81811809Y33194096D01*
X81668952Y33194096D01*
X81478476Y33241715D01*
X81383238Y33289334D01*
X81288000Y33384572D01*
X81240380Y33527429D01*
X81240380Y33622667D01*
X81288000Y33765524D01*
X81335619Y33813143D01*
X82240380Y34765524D02*
X82240380Y34194096D01*
X82240380Y34479810D02*
X81240380Y34479810D01*
X81383238Y34384572D01*
X81478476Y34289334D01*
X81526095Y34194096D01*
X81240380Y35384572D02*
X81240380Y35479810D01*
X81288000Y35575048D01*
X81335619Y35622667D01*
X81430857Y35670286D01*
X81621333Y35717905D01*
X81859428Y35717905D01*
X82049904Y35670286D01*
X82145142Y35622667D01*
X82192761Y35575048D01*
X82240380Y35479810D01*
X82240380Y35384572D01*
X82192761Y35289334D01*
X82145142Y35241715D01*
X82049904Y35194096D01*
X81859428Y35146477D01*
X81621333Y35146477D01*
X81430857Y35194096D01*
X81335619Y35241715D01*
X81288000Y35289334D01*
X81240380Y35384572D01*
%TO.C,D4*%
X85697904Y76343620D02*
X85697904Y77343620D01*
X85936000Y77343620D01*
X86078857Y77296000D01*
X86174095Y77200762D01*
X86221714Y77105524D01*
X86269333Y76915048D01*
X86269333Y76772191D01*
X86221714Y76581715D01*
X86174095Y76486477D01*
X86078857Y76391239D01*
X85936000Y76343620D01*
X85697904Y76343620D01*
X87126476Y77010286D02*
X87126476Y76343620D01*
X86888380Y77391239D02*
X86650285Y76676953D01*
X87269333Y76676953D01*
X96245523Y72343620D02*
X95674095Y72343620D01*
X95959809Y72343620D02*
X95959809Y73343620D01*
X95864571Y73200762D01*
X95769333Y73105524D01*
X95674095Y73057905D01*
X97102666Y73343620D02*
X96912190Y73343620D01*
X96816952Y73296000D01*
X96769333Y73248381D01*
X96674095Y73105524D01*
X96626476Y72915048D01*
X96626476Y72534096D01*
X96674095Y72438858D01*
X96721714Y72391239D01*
X96816952Y72343620D01*
X97007428Y72343620D01*
X97102666Y72391239D01*
X97150285Y72438858D01*
X97197904Y72534096D01*
X97197904Y72772191D01*
X97150285Y72867429D01*
X97102666Y72915048D01*
X97007428Y72962667D01*
X96816952Y72962667D01*
X96721714Y72915048D01*
X96674095Y72867429D01*
X96626476Y72772191D01*
X96245523Y54343620D02*
X96436000Y54343620D01*
X96531238Y54391239D01*
X96578857Y54438858D01*
X96674095Y54581715D01*
X96721714Y54772191D01*
X96721714Y55153143D01*
X96674095Y55248381D01*
X96626476Y55296000D01*
X96531238Y55343620D01*
X96340761Y55343620D01*
X96245523Y55296000D01*
X96197904Y55248381D01*
X96150285Y55153143D01*
X96150285Y54915048D01*
X96197904Y54819810D01*
X96245523Y54772191D01*
X96340761Y54724572D01*
X96531238Y54724572D01*
X96626476Y54772191D01*
X96674095Y54819810D01*
X96721714Y54915048D01*
X76721714Y72343620D02*
X76150285Y72343620D01*
X76436000Y72343620D02*
X76436000Y73343620D01*
X76340761Y73200762D01*
X76245523Y73105524D01*
X76150285Y73057905D01*
X76340761Y54915048D02*
X76245523Y54962667D01*
X76197904Y55010286D01*
X76150285Y55105524D01*
X76150285Y55153143D01*
X76197904Y55248381D01*
X76245523Y55296000D01*
X76340761Y55343620D01*
X76531238Y55343620D01*
X76626476Y55296000D01*
X76674095Y55248381D01*
X76721714Y55153143D01*
X76721714Y55105524D01*
X76674095Y55010286D01*
X76626476Y54962667D01*
X76531238Y54915048D01*
X76340761Y54915048D01*
X76245523Y54867429D01*
X76197904Y54819810D01*
X76150285Y54724572D01*
X76150285Y54534096D01*
X76197904Y54438858D01*
X76245523Y54391239D01*
X76340761Y54343620D01*
X76531238Y54343620D01*
X76626476Y54391239D01*
X76674095Y54438858D01*
X76721714Y54534096D01*
X76721714Y54724572D01*
X76674095Y54819810D01*
X76626476Y54867429D01*
X76531238Y54915048D01*
%TO.C,C8*%
X14448142Y33869334D02*
X14495761Y33821715D01*
X14543380Y33678858D01*
X14543380Y33583620D01*
X14495761Y33440762D01*
X14400523Y33345524D01*
X14305285Y33297905D01*
X14114809Y33250286D01*
X13971952Y33250286D01*
X13781476Y33297905D01*
X13686238Y33345524D01*
X13591000Y33440762D01*
X13543380Y33583620D01*
X13543380Y33678858D01*
X13591000Y33821715D01*
X13638619Y33869334D01*
X13971952Y34440762D02*
X13924333Y34345524D01*
X13876714Y34297905D01*
X13781476Y34250286D01*
X13733857Y34250286D01*
X13638619Y34297905D01*
X13591000Y34345524D01*
X13543380Y34440762D01*
X13543380Y34631239D01*
X13591000Y34726477D01*
X13638619Y34774096D01*
X13733857Y34821715D01*
X13781476Y34821715D01*
X13876714Y34774096D01*
X13924333Y34726477D01*
X13971952Y34631239D01*
X13971952Y34440762D01*
X14019571Y34345524D01*
X14067190Y34297905D01*
X14162428Y34250286D01*
X14352904Y34250286D01*
X14448142Y34297905D01*
X14495761Y34345524D01*
X14543380Y34440762D01*
X14543380Y34631239D01*
X14495761Y34726477D01*
X14448142Y34774096D01*
X14352904Y34821715D01*
X14162428Y34821715D01*
X14067190Y34774096D01*
X14019571Y34726477D01*
X13971952Y34631239D01*
%TO.C,U3*%
X102164095Y4013620D02*
X102164095Y3204096D01*
X102211714Y3108858D01*
X102259333Y3061239D01*
X102354571Y3013620D01*
X102545047Y3013620D01*
X102640285Y3061239D01*
X102687904Y3108858D01*
X102735523Y3204096D01*
X102735523Y4013620D01*
X103116476Y4013620D02*
X103735523Y4013620D01*
X103402190Y3632667D01*
X103545047Y3632667D01*
X103640285Y3585048D01*
X103687904Y3537429D01*
X103735523Y3442191D01*
X103735523Y3204096D01*
X103687904Y3108858D01*
X103640285Y3061239D01*
X103545047Y3013620D01*
X103259333Y3013620D01*
X103164095Y3061239D01*
X103116476Y3108858D01*
%TO.C,J4*%
X80692666Y9183620D02*
X80692666Y8469334D01*
X80645047Y8326477D01*
X80549809Y8231239D01*
X80406952Y8183620D01*
X80311714Y8183620D01*
X81597428Y8850286D02*
X81597428Y8183620D01*
X81359333Y9231239D02*
X81121238Y8516953D01*
X81740285Y8516953D01*
%TO.C,U6*%
X69558380Y40904096D02*
X70367904Y40904096D01*
X70463142Y40951715D01*
X70510761Y40999334D01*
X70558380Y41094572D01*
X70558380Y41285048D01*
X70510761Y41380286D01*
X70463142Y41427905D01*
X70367904Y41475524D01*
X69558380Y41475524D01*
X69558380Y42380286D02*
X69558380Y42189810D01*
X69606000Y42094572D01*
X69653619Y42046953D01*
X69796476Y41951715D01*
X69986952Y41904096D01*
X70367904Y41904096D01*
X70463142Y41951715D01*
X70510761Y41999334D01*
X70558380Y42094572D01*
X70558380Y42285048D01*
X70510761Y42380286D01*
X70463142Y42427905D01*
X70367904Y42475524D01*
X70129809Y42475524D01*
X70034571Y42427905D01*
X69986952Y42380286D01*
X69939333Y42285048D01*
X69939333Y42094572D01*
X69986952Y41999334D01*
X70034571Y41951715D01*
X70129809Y41904096D01*
%TO.C,J3*%
X55292666Y14053620D02*
X55292666Y13339334D01*
X55245047Y13196477D01*
X55149809Y13101239D01*
X55006952Y13053620D01*
X54911714Y13053620D01*
X55673619Y14053620D02*
X56292666Y14053620D01*
X55959333Y13672667D01*
X56102190Y13672667D01*
X56197428Y13625048D01*
X56245047Y13577429D01*
X56292666Y13482191D01*
X56292666Y13244096D01*
X56245047Y13148858D01*
X56197428Y13101239D01*
X56102190Y13053620D01*
X55816476Y13053620D01*
X55721238Y13101239D01*
X55673619Y13148858D01*
%TO.C,C12*%
X8613142Y33393143D02*
X8660761Y33345524D01*
X8708380Y33202667D01*
X8708380Y33107429D01*
X8660761Y32964572D01*
X8565523Y32869334D01*
X8470285Y32821715D01*
X8279809Y32774096D01*
X8136952Y32774096D01*
X7946476Y32821715D01*
X7851238Y32869334D01*
X7756000Y32964572D01*
X7708380Y33107429D01*
X7708380Y33202667D01*
X7756000Y33345524D01*
X7803619Y33393143D01*
X8708380Y34345524D02*
X8708380Y33774096D01*
X8708380Y34059810D02*
X7708380Y34059810D01*
X7851238Y33964572D01*
X7946476Y33869334D01*
X7994095Y33774096D01*
X7803619Y34726477D02*
X7756000Y34774096D01*
X7708380Y34869334D01*
X7708380Y35107429D01*
X7756000Y35202667D01*
X7803619Y35250286D01*
X7898857Y35297905D01*
X7994095Y35297905D01*
X8136952Y35250286D01*
X8708380Y34678858D01*
X8708380Y35297905D01*
%TO.C,C13*%
X48363142Y34153143D02*
X48410761Y34105524D01*
X48458380Y33962667D01*
X48458380Y33867429D01*
X48410761Y33724572D01*
X48315523Y33629334D01*
X48220285Y33581715D01*
X48029809Y33534096D01*
X47886952Y33534096D01*
X47696476Y33581715D01*
X47601238Y33629334D01*
X47506000Y33724572D01*
X47458380Y33867429D01*
X47458380Y33962667D01*
X47506000Y34105524D01*
X47553619Y34153143D01*
X48458380Y35105524D02*
X48458380Y34534096D01*
X48458380Y34819810D02*
X47458380Y34819810D01*
X47601238Y34724572D01*
X47696476Y34629334D01*
X47744095Y34534096D01*
X47458380Y35438858D02*
X47458380Y36057905D01*
X47839333Y35724572D01*
X47839333Y35867429D01*
X47886952Y35962667D01*
X47934571Y36010286D01*
X48029809Y36057905D01*
X48267904Y36057905D01*
X48363142Y36010286D01*
X48410761Y35962667D01*
X48458380Y35867429D01*
X48458380Y35581715D01*
X48410761Y35486477D01*
X48363142Y35438858D01*
%TO.C,Y2*%
X113662190Y5619810D02*
X114138380Y5619810D01*
X113138380Y5286477D02*
X113662190Y5619810D01*
X113138380Y5953143D01*
X113233619Y6238858D02*
X113186000Y6286477D01*
X113138380Y6381715D01*
X113138380Y6619810D01*
X113186000Y6715048D01*
X113233619Y6762667D01*
X113328857Y6810286D01*
X113424095Y6810286D01*
X113566952Y6762667D01*
X114138380Y6191239D01*
X114138380Y6810286D01*
%TO.C,R3*%
X90238380Y25129334D02*
X89762190Y24796000D01*
X90238380Y24557905D02*
X89238380Y24557905D01*
X89238380Y24938858D01*
X89286000Y25034096D01*
X89333619Y25081715D01*
X89428857Y25129334D01*
X89571714Y25129334D01*
X89666952Y25081715D01*
X89714571Y25034096D01*
X89762190Y24938858D01*
X89762190Y24557905D01*
X89238380Y25462667D02*
X89238380Y26081715D01*
X89619333Y25748381D01*
X89619333Y25891239D01*
X89666952Y25986477D01*
X89714571Y26034096D01*
X89809809Y26081715D01*
X90047904Y26081715D01*
X90143142Y26034096D01*
X90190761Y25986477D01*
X90238380Y25891239D01*
X90238380Y25605524D01*
X90190761Y25510286D01*
X90143142Y25462667D01*
%TO.C,U7*%
X103543380Y40904096D02*
X104352904Y40904096D01*
X104448142Y40951715D01*
X104495761Y40999334D01*
X104543380Y41094572D01*
X104543380Y41285048D01*
X104495761Y41380286D01*
X104448142Y41427905D01*
X104352904Y41475524D01*
X103543380Y41475524D01*
X103543380Y41856477D02*
X103543380Y42523143D01*
X104543380Y42094572D01*
%TO.C,R12*%
X51173142Y33203620D02*
X50839809Y33679810D01*
X50601714Y33203620D02*
X50601714Y34203620D01*
X50982666Y34203620D01*
X51077904Y34156000D01*
X51125523Y34108381D01*
X51173142Y34013143D01*
X51173142Y33870286D01*
X51125523Y33775048D01*
X51077904Y33727429D01*
X50982666Y33679810D01*
X50601714Y33679810D01*
X52125523Y33203620D02*
X51554095Y33203620D01*
X51839809Y33203620D02*
X51839809Y34203620D01*
X51744571Y34060762D01*
X51649333Y33965524D01*
X51554095Y33917905D01*
X52506476Y34108381D02*
X52554095Y34156000D01*
X52649333Y34203620D01*
X52887428Y34203620D01*
X52982666Y34156000D01*
X53030285Y34108381D01*
X53077904Y34013143D01*
X53077904Y33917905D01*
X53030285Y33775048D01*
X52458857Y33203620D01*
X53077904Y33203620D01*
%TO.C,U1*%
X51268380Y19304096D02*
X52077904Y19304096D01*
X52173142Y19351715D01*
X52220761Y19399334D01*
X52268380Y19494572D01*
X52268380Y19685048D01*
X52220761Y19780286D01*
X52173142Y19827905D01*
X52077904Y19875524D01*
X51268380Y19875524D01*
X52268380Y20875524D02*
X52268380Y20304096D01*
X52268380Y20589810D02*
X51268380Y20589810D01*
X51411238Y20494572D01*
X51506476Y20399334D01*
X51554095Y20304096D01*
%TO.C,U8*%
X102974095Y28743620D02*
X102974095Y27934096D01*
X103021714Y27838858D01*
X103069333Y27791239D01*
X103164571Y27743620D01*
X103355047Y27743620D01*
X103450285Y27791239D01*
X103497904Y27838858D01*
X103545523Y27934096D01*
X103545523Y28743620D01*
X104164571Y28315048D02*
X104069333Y28362667D01*
X104021714Y28410286D01*
X103974095Y28505524D01*
X103974095Y28553143D01*
X104021714Y28648381D01*
X104069333Y28696000D01*
X104164571Y28743620D01*
X104355047Y28743620D01*
X104450285Y28696000D01*
X104497904Y28648381D01*
X104545523Y28553143D01*
X104545523Y28505524D01*
X104497904Y28410286D01*
X104450285Y28362667D01*
X104355047Y28315048D01*
X104164571Y28315048D01*
X104069333Y28267429D01*
X104021714Y28219810D01*
X103974095Y28124572D01*
X103974095Y27934096D01*
X104021714Y27838858D01*
X104069333Y27791239D01*
X104164571Y27743620D01*
X104355047Y27743620D01*
X104450285Y27791239D01*
X104497904Y27838858D01*
X104545523Y27934096D01*
X104545523Y28124572D01*
X104497904Y28219810D01*
X104450285Y28267429D01*
X104355047Y28315048D01*
%TO.C,R1*%
X61069329Y3393621D02*
X60735996Y3869811D01*
X60497900Y3393621D02*
X60497900Y4393621D01*
X60878853Y4393621D01*
X60974091Y4346001D01*
X61021710Y4298382D01*
X61069329Y4203144D01*
X61069329Y4060287D01*
X61021710Y3965049D01*
X60974091Y3917430D01*
X60878853Y3869811D01*
X60497900Y3869811D01*
X62021710Y3393621D02*
X61450281Y3393621D01*
X61735996Y3393621D02*
X61735996Y4393621D01*
X61640757Y4250763D01*
X61545519Y4155525D01*
X61450281Y4107906D01*
%TO.C,SW5*%
X85102666Y79881239D02*
X85245523Y79833620D01*
X85483619Y79833620D01*
X85578857Y79881239D01*
X85626476Y79928858D01*
X85674095Y80024096D01*
X85674095Y80119334D01*
X85626476Y80214572D01*
X85578857Y80262191D01*
X85483619Y80309810D01*
X85293142Y80357429D01*
X85197904Y80405048D01*
X85150285Y80452667D01*
X85102666Y80547905D01*
X85102666Y80643143D01*
X85150285Y80738381D01*
X85197904Y80786000D01*
X85293142Y80833620D01*
X85531238Y80833620D01*
X85674095Y80786000D01*
X86007428Y80833620D02*
X86245523Y79833620D01*
X86436000Y80547905D01*
X86626476Y79833620D01*
X86864571Y80833620D01*
X87721714Y80833620D02*
X87245523Y80833620D01*
X87197904Y80357429D01*
X87245523Y80405048D01*
X87340761Y80452667D01*
X87578857Y80452667D01*
X87674095Y80405048D01*
X87721714Y80357429D01*
X87769333Y80262191D01*
X87769333Y80024096D01*
X87721714Y79928858D01*
X87674095Y79881239D01*
X87578857Y79833620D01*
X87340761Y79833620D01*
X87245523Y79881239D01*
X87197904Y79928858D01*
%TO.C,U4*%
X1943380Y40904096D02*
X2752904Y40904096D01*
X2848142Y40951715D01*
X2895761Y40999334D01*
X2943380Y41094572D01*
X2943380Y41285048D01*
X2895761Y41380286D01*
X2848142Y41427905D01*
X2752904Y41475524D01*
X1943380Y41475524D01*
X2276714Y42380286D02*
X2943380Y42380286D01*
X1895761Y42142191D02*
X2610047Y41904096D01*
X2610047Y42523143D01*
%TO.C,R13*%
X84193142Y32313620D02*
X83859809Y32789810D01*
X83621714Y32313620D02*
X83621714Y33313620D01*
X84002666Y33313620D01*
X84097904Y33266000D01*
X84145523Y33218381D01*
X84193142Y33123143D01*
X84193142Y32980286D01*
X84145523Y32885048D01*
X84097904Y32837429D01*
X84002666Y32789810D01*
X83621714Y32789810D01*
X85145523Y32313620D02*
X84574095Y32313620D01*
X84859809Y32313620D02*
X84859809Y33313620D01*
X84764571Y33170762D01*
X84669333Y33075524D01*
X84574095Y33027905D01*
X85478857Y33313620D02*
X86097904Y33313620D01*
X85764571Y32932667D01*
X85907428Y32932667D01*
X86002666Y32885048D01*
X86050285Y32837429D01*
X86097904Y32742191D01*
X86097904Y32504096D01*
X86050285Y32408858D01*
X86002666Y32361239D01*
X85907428Y32313620D01*
X85621714Y32313620D01*
X85526476Y32361239D01*
X85478857Y32408858D01*
%TO.C,H2*%
X133974095Y89543620D02*
X133974095Y90543620D01*
X133974095Y90067429D02*
X134545523Y90067429D01*
X134545523Y89543620D02*
X134545523Y90543620D01*
X134974095Y90448381D02*
X135021714Y90496000D01*
X135116952Y90543620D01*
X135355047Y90543620D01*
X135450285Y90496000D01*
X135497904Y90448381D01*
X135545523Y90353143D01*
X135545523Y90257905D01*
X135497904Y90115048D01*
X134926476Y89543620D01*
X135545523Y89543620D01*
%TO.C,SW3*%
X119062666Y79881239D02*
X119205523Y79833620D01*
X119443619Y79833620D01*
X119538857Y79881239D01*
X119586476Y79928858D01*
X119634095Y80024096D01*
X119634095Y80119334D01*
X119586476Y80214572D01*
X119538857Y80262191D01*
X119443619Y80309810D01*
X119253142Y80357429D01*
X119157904Y80405048D01*
X119110285Y80452667D01*
X119062666Y80547905D01*
X119062666Y80643143D01*
X119110285Y80738381D01*
X119157904Y80786000D01*
X119253142Y80833620D01*
X119491238Y80833620D01*
X119634095Y80786000D01*
X119967428Y80833620D02*
X120205523Y79833620D01*
X120396000Y80547905D01*
X120586476Y79833620D01*
X120824571Y80833620D01*
X121110285Y80833620D02*
X121729333Y80833620D01*
X121396000Y80452667D01*
X121538857Y80452667D01*
X121634095Y80405048D01*
X121681714Y80357429D01*
X121729333Y80262191D01*
X121729333Y80024096D01*
X121681714Y79928858D01*
X121634095Y79881239D01*
X121538857Y79833620D01*
X121253142Y79833620D01*
X121157904Y79881239D01*
X121110285Y79928858D01*
%TO.C,C15*%
X108053142Y33813143D02*
X108100761Y33765524D01*
X108148380Y33622667D01*
X108148380Y33527429D01*
X108100761Y33384572D01*
X108005523Y33289334D01*
X107910285Y33241715D01*
X107719809Y33194096D01*
X107576952Y33194096D01*
X107386476Y33241715D01*
X107291238Y33289334D01*
X107196000Y33384572D01*
X107148380Y33527429D01*
X107148380Y33622667D01*
X107196000Y33765524D01*
X107243619Y33813143D01*
X108148380Y34765524D02*
X108148380Y34194096D01*
X108148380Y34479810D02*
X107148380Y34479810D01*
X107291238Y34384572D01*
X107386476Y34289334D01*
X107434095Y34194096D01*
X107148380Y35670286D02*
X107148380Y35194096D01*
X107624571Y35146477D01*
X107576952Y35194096D01*
X107529333Y35289334D01*
X107529333Y35527429D01*
X107576952Y35622667D01*
X107624571Y35670286D01*
X107719809Y35717905D01*
X107957904Y35717905D01*
X108053142Y35670286D01*
X108100761Y35622667D01*
X108148380Y35527429D01*
X108148380Y35289334D01*
X108100761Y35194096D01*
X108053142Y35146477D01*
%TO.C,H3*%
X3974095Y9543620D02*
X3974095Y10543620D01*
X3974095Y10067429D02*
X4545523Y10067429D01*
X4545523Y9543620D02*
X4545523Y10543620D01*
X4926476Y10543620D02*
X5545523Y10543620D01*
X5212190Y10162667D01*
X5355047Y10162667D01*
X5450285Y10115048D01*
X5497904Y10067429D01*
X5545523Y9972191D01*
X5545523Y9734096D01*
X5497904Y9638858D01*
X5450285Y9591239D01*
X5355047Y9543620D01*
X5069333Y9543620D01*
X4974095Y9591239D01*
X4926476Y9638858D01*
%TO.C,C9*%
X42443142Y34629334D02*
X42490761Y34581715D01*
X42538380Y34438858D01*
X42538380Y34343620D01*
X42490761Y34200762D01*
X42395523Y34105524D01*
X42300285Y34057905D01*
X42109809Y34010286D01*
X41966952Y34010286D01*
X41776476Y34057905D01*
X41681238Y34105524D01*
X41586000Y34200762D01*
X41538380Y34343620D01*
X41538380Y34438858D01*
X41586000Y34581715D01*
X41633619Y34629334D01*
X42538380Y35105524D02*
X42538380Y35296000D01*
X42490761Y35391239D01*
X42443142Y35438858D01*
X42300285Y35534096D01*
X42109809Y35581715D01*
X41728857Y35581715D01*
X41633619Y35534096D01*
X41586000Y35486477D01*
X41538380Y35391239D01*
X41538380Y35200762D01*
X41586000Y35105524D01*
X41633619Y35057905D01*
X41728857Y35010286D01*
X41966952Y35010286D01*
X42062190Y35057905D01*
X42109809Y35105524D01*
X42157428Y35200762D01*
X42157428Y35391239D01*
X42109809Y35486477D01*
X42062190Y35534096D01*
X41966952Y35581715D01*
%TO.C,R4*%
X90368380Y28789334D02*
X89892190Y28456000D01*
X90368380Y28217905D02*
X89368380Y28217905D01*
X89368380Y28598858D01*
X89416000Y28694096D01*
X89463619Y28741715D01*
X89558857Y28789334D01*
X89701714Y28789334D01*
X89796952Y28741715D01*
X89844571Y28694096D01*
X89892190Y28598858D01*
X89892190Y28217905D01*
X89701714Y29646477D02*
X90368380Y29646477D01*
X89320761Y29408381D02*
X90035047Y29170286D01*
X90035047Y29789334D01*
%TO.C,J1*%
X94662666Y14473620D02*
X94662666Y13759334D01*
X94615047Y13616477D01*
X94519809Y13521239D01*
X94376952Y13473620D01*
X94281714Y13473620D01*
X95662666Y13473620D02*
X95091238Y13473620D01*
X95376952Y13473620D02*
X95376952Y14473620D01*
X95281714Y14330762D01*
X95186476Y14235524D01*
X95091238Y14187905D01*
%TO.C,R9*%
X92908380Y11009334D02*
X92432190Y10676000D01*
X92908380Y10437905D02*
X91908380Y10437905D01*
X91908380Y10818858D01*
X91956000Y10914096D01*
X92003619Y10961715D01*
X92098857Y11009334D01*
X92241714Y11009334D01*
X92336952Y10961715D01*
X92384571Y10914096D01*
X92432190Y10818858D01*
X92432190Y10437905D01*
X92908380Y11485524D02*
X92908380Y11676000D01*
X92860761Y11771239D01*
X92813142Y11818858D01*
X92670285Y11914096D01*
X92479809Y11961715D01*
X92098857Y11961715D01*
X92003619Y11914096D01*
X91956000Y11866477D01*
X91908380Y11771239D01*
X91908380Y11580762D01*
X91956000Y11485524D01*
X92003619Y11437905D01*
X92098857Y11390286D01*
X92336952Y11390286D01*
X92432190Y11437905D01*
X92479809Y11485524D01*
X92527428Y11580762D01*
X92527428Y11771239D01*
X92479809Y11866477D01*
X92432190Y11914096D01*
X92336952Y11961715D01*
%TO.C,H1*%
X3974095Y89543620D02*
X3974095Y90543620D01*
X3974095Y90067429D02*
X4545523Y90067429D01*
X4545523Y89543620D02*
X4545523Y90543620D01*
X5545523Y89543620D02*
X4974095Y89543620D01*
X5259809Y89543620D02*
X5259809Y90543620D01*
X5164571Y90400762D01*
X5069333Y90305524D01*
X4974095Y90257905D01*
%TO.C,SW4*%
X51102666Y79881239D02*
X51245523Y79833620D01*
X51483619Y79833620D01*
X51578857Y79881239D01*
X51626476Y79928858D01*
X51674095Y80024096D01*
X51674095Y80119334D01*
X51626476Y80214572D01*
X51578857Y80262191D01*
X51483619Y80309810D01*
X51293142Y80357429D01*
X51197904Y80405048D01*
X51150285Y80452667D01*
X51102666Y80547905D01*
X51102666Y80643143D01*
X51150285Y80738381D01*
X51197904Y80786000D01*
X51293142Y80833620D01*
X51531238Y80833620D01*
X51674095Y80786000D01*
X52007428Y80833620D02*
X52245523Y79833620D01*
X52436000Y80547905D01*
X52626476Y79833620D01*
X52864571Y80833620D01*
X53674095Y80500286D02*
X53674095Y79833620D01*
X53436000Y80881239D02*
X53197904Y80166953D01*
X53816952Y80166953D01*
%TO.C,U2*%
X22748380Y9034096D02*
X23557904Y9034096D01*
X23653142Y9081715D01*
X23700761Y9129334D01*
X23748380Y9224572D01*
X23748380Y9415048D01*
X23700761Y9510286D01*
X23653142Y9557905D01*
X23557904Y9605524D01*
X22748380Y9605524D01*
X22843619Y10034096D02*
X22796000Y10081715D01*
X22748380Y10176953D01*
X22748380Y10415048D01*
X22796000Y10510286D01*
X22843619Y10557905D01*
X22938857Y10605524D01*
X23034095Y10605524D01*
X23176952Y10557905D01*
X23748380Y9986477D01*
X23748380Y10605524D01*
%TO.C,D5*%
X119657904Y76343620D02*
X119657904Y77343620D01*
X119896000Y77343620D01*
X120038857Y77296000D01*
X120134095Y77200762D01*
X120181714Y77105524D01*
X120229333Y76915048D01*
X120229333Y76772191D01*
X120181714Y76581715D01*
X120134095Y76486477D01*
X120038857Y76391239D01*
X119896000Y76343620D01*
X119657904Y76343620D01*
X121134095Y77343620D02*
X120657904Y77343620D01*
X120610285Y76867429D01*
X120657904Y76915048D01*
X120753142Y76962667D01*
X120991238Y76962667D01*
X121086476Y76915048D01*
X121134095Y76867429D01*
X121181714Y76772191D01*
X121181714Y76534096D01*
X121134095Y76438858D01*
X121086476Y76391239D01*
X120991238Y76343620D01*
X120753142Y76343620D01*
X120657904Y76391239D01*
X120610285Y76438858D01*
X130205523Y54343620D02*
X130396000Y54343620D01*
X130491238Y54391239D01*
X130538857Y54438858D01*
X130634095Y54581715D01*
X130681714Y54772191D01*
X130681714Y55153143D01*
X130634095Y55248381D01*
X130586476Y55296000D01*
X130491238Y55343620D01*
X130300761Y55343620D01*
X130205523Y55296000D01*
X130157904Y55248381D01*
X130110285Y55153143D01*
X130110285Y54915048D01*
X130157904Y54819810D01*
X130205523Y54772191D01*
X130300761Y54724572D01*
X130491238Y54724572D01*
X130586476Y54772191D01*
X130634095Y54819810D01*
X130681714Y54915048D01*
X110300761Y54915048D02*
X110205523Y54962667D01*
X110157904Y55010286D01*
X110110285Y55105524D01*
X110110285Y55153143D01*
X110157904Y55248381D01*
X110205523Y55296000D01*
X110300761Y55343620D01*
X110491238Y55343620D01*
X110586476Y55296000D01*
X110634095Y55248381D01*
X110681714Y55153143D01*
X110681714Y55105524D01*
X110634095Y55010286D01*
X110586476Y54962667D01*
X110491238Y54915048D01*
X110300761Y54915048D01*
X110205523Y54867429D01*
X110157904Y54819810D01*
X110110285Y54724572D01*
X110110285Y54534096D01*
X110157904Y54438858D01*
X110205523Y54391239D01*
X110300761Y54343620D01*
X110491238Y54343620D01*
X110586476Y54391239D01*
X110634095Y54438858D01*
X110681714Y54534096D01*
X110681714Y54724572D01*
X110634095Y54819810D01*
X110586476Y54867429D01*
X110491238Y54915048D01*
X130205523Y72343620D02*
X129634095Y72343620D01*
X129919809Y72343620D02*
X129919809Y73343620D01*
X129824571Y73200762D01*
X129729333Y73105524D01*
X129634095Y73057905D01*
X131062666Y73343620D02*
X130872190Y73343620D01*
X130776952Y73296000D01*
X130729333Y73248381D01*
X130634095Y73105524D01*
X130586476Y72915048D01*
X130586476Y72534096D01*
X130634095Y72438858D01*
X130681714Y72391239D01*
X130776952Y72343620D01*
X130967428Y72343620D01*
X131062666Y72391239D01*
X131110285Y72438858D01*
X131157904Y72534096D01*
X131157904Y72772191D01*
X131110285Y72867429D01*
X131062666Y72915048D01*
X130967428Y72962667D01*
X130776952Y72962667D01*
X130681714Y72915048D01*
X130634095Y72867429D01*
X130586476Y72772191D01*
X110681714Y72343620D02*
X110110285Y72343620D01*
X110396000Y72343620D02*
X110396000Y73343620D01*
X110300761Y73200762D01*
X110205523Y73105524D01*
X110110285Y73057905D01*
%TO.C,C1*%
X74509333Y13358858D02*
X74461714Y13311239D01*
X74318857Y13263620D01*
X74223619Y13263620D01*
X74080761Y13311239D01*
X73985523Y13406477D01*
X73937904Y13501715D01*
X73890285Y13692191D01*
X73890285Y13835048D01*
X73937904Y14025524D01*
X73985523Y14120762D01*
X74080761Y14216000D01*
X74223619Y14263620D01*
X74318857Y14263620D01*
X74461714Y14216000D01*
X74509333Y14168381D01*
X75461714Y13263620D02*
X74890285Y13263620D01*
X75176000Y13263620D02*
X75176000Y14263620D01*
X75080761Y14120762D01*
X74985523Y14025524D01*
X74890285Y13977905D01*
%TO.C,C11*%
X116943142Y33813143D02*
X116990761Y33765524D01*
X117038380Y33622667D01*
X117038380Y33527429D01*
X116990761Y33384572D01*
X116895523Y33289334D01*
X116800285Y33241715D01*
X116609809Y33194096D01*
X116466952Y33194096D01*
X116276476Y33241715D01*
X116181238Y33289334D01*
X116086000Y33384572D01*
X116038380Y33527429D01*
X116038380Y33622667D01*
X116086000Y33765524D01*
X116133619Y33813143D01*
X117038380Y34765524D02*
X117038380Y34194096D01*
X117038380Y34479810D02*
X116038380Y34479810D01*
X116181238Y34384572D01*
X116276476Y34289334D01*
X116324095Y34194096D01*
X117038380Y35717905D02*
X117038380Y35146477D01*
X117038380Y35432191D02*
X116038380Y35432191D01*
X116181238Y35336953D01*
X116276476Y35241715D01*
X116324095Y35146477D01*
%TO.C,R10*%
X92908380Y7993143D02*
X92432190Y7659810D01*
X92908380Y7421715D02*
X91908380Y7421715D01*
X91908380Y7802667D01*
X91956000Y7897905D01*
X92003619Y7945524D01*
X92098857Y7993143D01*
X92241714Y7993143D01*
X92336952Y7945524D01*
X92384571Y7897905D01*
X92432190Y7802667D01*
X92432190Y7421715D01*
X92908380Y8945524D02*
X92908380Y8374096D01*
X92908380Y8659810D02*
X91908380Y8659810D01*
X92051238Y8564572D01*
X92146476Y8469334D01*
X92194095Y8374096D01*
X91908380Y9564572D02*
X91908380Y9659810D01*
X91956000Y9755048D01*
X92003619Y9802667D01*
X92098857Y9850286D01*
X92289333Y9897905D01*
X92527428Y9897905D01*
X92717904Y9850286D01*
X92813142Y9802667D01*
X92860761Y9755048D01*
X92908380Y9659810D01*
X92908380Y9564572D01*
X92860761Y9469334D01*
X92813142Y9421715D01*
X92717904Y9374096D01*
X92527428Y9326477D01*
X92289333Y9326477D01*
X92098857Y9374096D01*
X92003619Y9421715D01*
X91956000Y9469334D01*
X91908380Y9564572D01*
%TO.C,C3*%
X91019333Y15898858D02*
X90971714Y15851239D01*
X90828857Y15803620D01*
X90733619Y15803620D01*
X90590761Y15851239D01*
X90495523Y15946477D01*
X90447904Y16041715D01*
X90400285Y16232191D01*
X90400285Y16375048D01*
X90447904Y16565524D01*
X90495523Y16660762D01*
X90590761Y16756000D01*
X90733619Y16803620D01*
X90828857Y16803620D01*
X90971714Y16756000D01*
X91019333Y16708381D01*
X91352666Y16803620D02*
X91971714Y16803620D01*
X91638380Y16422667D01*
X91781238Y16422667D01*
X91876476Y16375048D01*
X91924095Y16327429D01*
X91971714Y16232191D01*
X91971714Y15994096D01*
X91924095Y15898858D01*
X91876476Y15851239D01*
X91781238Y15803620D01*
X91495523Y15803620D01*
X91400285Y15851239D01*
X91352666Y15898858D01*
%TO.C,R7*%
X44538380Y84419334D02*
X44062190Y84086000D01*
X44538380Y83847905D02*
X43538380Y83847905D01*
X43538380Y84228858D01*
X43586000Y84324096D01*
X43633619Y84371715D01*
X43728857Y84419334D01*
X43871714Y84419334D01*
X43966952Y84371715D01*
X44014571Y84324096D01*
X44062190Y84228858D01*
X44062190Y83847905D01*
X43538380Y84752667D02*
X43538380Y85419334D01*
X44538380Y84990762D01*
%TO.C,C16*%
X109093142Y27978858D02*
X109045523Y27931239D01*
X108902666Y27883620D01*
X108807428Y27883620D01*
X108664571Y27931239D01*
X108569333Y28026477D01*
X108521714Y28121715D01*
X108474095Y28312191D01*
X108474095Y28455048D01*
X108521714Y28645524D01*
X108569333Y28740762D01*
X108664571Y28836000D01*
X108807428Y28883620D01*
X108902666Y28883620D01*
X109045523Y28836000D01*
X109093142Y28788381D01*
X110045523Y27883620D02*
X109474095Y27883620D01*
X109759809Y27883620D02*
X109759809Y28883620D01*
X109664571Y28740762D01*
X109569333Y28645524D01*
X109474095Y28597905D01*
X110902666Y28883620D02*
X110712190Y28883620D01*
X110616952Y28836000D01*
X110569333Y28788381D01*
X110474095Y28645524D01*
X110426476Y28455048D01*
X110426476Y28074096D01*
X110474095Y27978858D01*
X110521714Y27931239D01*
X110616952Y27883620D01*
X110807428Y27883620D01*
X110902666Y27931239D01*
X110950285Y27978858D01*
X110997904Y28074096D01*
X110997904Y28312191D01*
X110950285Y28407429D01*
X110902666Y28455048D01*
X110807428Y28502667D01*
X110616952Y28502667D01*
X110521714Y28455048D01*
X110474095Y28407429D01*
X110426476Y28312191D01*
%TO.C,R2*%
X91019333Y22153620D02*
X90686000Y22629810D01*
X90447904Y22153620D02*
X90447904Y23153620D01*
X90828857Y23153620D01*
X90924095Y23106000D01*
X90971714Y23058381D01*
X91019333Y22963143D01*
X91019333Y22820286D01*
X90971714Y22725048D01*
X90924095Y22677429D01*
X90828857Y22629810D01*
X90447904Y22629810D01*
X91400285Y23058381D02*
X91447904Y23106000D01*
X91543142Y23153620D01*
X91781238Y23153620D01*
X91876476Y23106000D01*
X91924095Y23058381D01*
X91971714Y22963143D01*
X91971714Y22867905D01*
X91924095Y22725048D01*
X91352666Y22153620D01*
X91971714Y22153620D01*
%TO.C,C4*%
X79589333Y26948858D02*
X79541714Y26901239D01*
X79398857Y26853620D01*
X79303619Y26853620D01*
X79160761Y26901239D01*
X79065523Y26996477D01*
X79017904Y27091715D01*
X78970285Y27282191D01*
X78970285Y27425048D01*
X79017904Y27615524D01*
X79065523Y27710762D01*
X79160761Y27806000D01*
X79303619Y27853620D01*
X79398857Y27853620D01*
X79541714Y27806000D01*
X79589333Y27758381D01*
X80446476Y27520286D02*
X80446476Y26853620D01*
X80208380Y27901239D02*
X79970285Y27186953D01*
X80589333Y27186953D01*
%TO.C,D1*%
X59967904Y10723620D02*
X59967904Y11723620D01*
X60206000Y11723620D01*
X60348857Y11676000D01*
X60444095Y11580762D01*
X60491714Y11485524D01*
X60539333Y11295048D01*
X60539333Y11152191D01*
X60491714Y10961715D01*
X60444095Y10866477D01*
X60348857Y10771239D01*
X60206000Y10723620D01*
X59967904Y10723620D01*
X61491714Y10723620D02*
X60920285Y10723620D01*
X61206000Y10723620D02*
X61206000Y11723620D01*
X61110761Y11580762D01*
X61015523Y11485524D01*
X60920285Y11437905D01*
%TO.C,U5*%
X35858380Y40904096D02*
X36667904Y40904096D01*
X36763142Y40951715D01*
X36810761Y40999334D01*
X36858380Y41094572D01*
X36858380Y41285048D01*
X36810761Y41380286D01*
X36763142Y41427905D01*
X36667904Y41475524D01*
X35858380Y41475524D01*
X35858380Y42427905D02*
X35858380Y41951715D01*
X36334571Y41904096D01*
X36286952Y41951715D01*
X36239333Y42046953D01*
X36239333Y42285048D01*
X36286952Y42380286D01*
X36334571Y42427905D01*
X36429809Y42475524D01*
X36667904Y42475524D01*
X36763142Y42427905D01*
X36810761Y42380286D01*
X36858380Y42285048D01*
X36858380Y42046953D01*
X36810761Y41951715D01*
X36763142Y41904096D01*
%TO.C,R14*%
X118693142Y35993620D02*
X118359809Y36469810D01*
X118121714Y35993620D02*
X118121714Y36993620D01*
X118502666Y36993620D01*
X118597904Y36946000D01*
X118645523Y36898381D01*
X118693142Y36803143D01*
X118693142Y36660286D01*
X118645523Y36565048D01*
X118597904Y36517429D01*
X118502666Y36469810D01*
X118121714Y36469810D01*
X119645523Y35993620D02*
X119074095Y35993620D01*
X119359809Y35993620D02*
X119359809Y36993620D01*
X119264571Y36850762D01*
X119169333Y36755524D01*
X119074095Y36707905D01*
X120502666Y36660286D02*
X120502666Y35993620D01*
X120264571Y37041239D02*
X120026476Y36326953D01*
X120645523Y36326953D01*
%TO.C,C2*%
X63079333Y13358858D02*
X63031714Y13311239D01*
X62888857Y13263620D01*
X62793619Y13263620D01*
X62650761Y13311239D01*
X62555523Y13406477D01*
X62507904Y13501715D01*
X62460285Y13692191D01*
X62460285Y13835048D01*
X62507904Y14025524D01*
X62555523Y14120762D01*
X62650761Y14216000D01*
X62793619Y14263620D01*
X62888857Y14263620D01*
X63031714Y14216000D01*
X63079333Y14168381D01*
X63460285Y14168381D02*
X63507904Y14216000D01*
X63603142Y14263620D01*
X63841238Y14263620D01*
X63936476Y14216000D01*
X63984095Y14168381D01*
X64031714Y14073143D01*
X64031714Y13977905D01*
X63984095Y13835048D01*
X63412666Y13263620D01*
X64031714Y13263620D01*
%TO.C,J5*%
X69458666Y9183620D02*
X69458666Y8469334D01*
X69411047Y8326477D01*
X69315809Y8231239D01*
X69172952Y8183620D01*
X69077714Y8183620D01*
X70411047Y9183620D02*
X69934857Y9183620D01*
X69887238Y8707429D01*
X69934857Y8755048D01*
X70030095Y8802667D01*
X70268190Y8802667D01*
X70363428Y8755048D01*
X70411047Y8707429D01*
X70458666Y8612191D01*
X70458666Y8374096D01*
X70411047Y8278858D01*
X70363428Y8231239D01*
X70268190Y8183620D01*
X70030095Y8183620D01*
X69934857Y8231239D01*
X69887238Y8278858D01*
%TO.C,SW1*%
X32702666Y12691239D02*
X32845523Y12643620D01*
X33083619Y12643620D01*
X33178857Y12691239D01*
X33226476Y12738858D01*
X33274095Y12834096D01*
X33274095Y12929334D01*
X33226476Y13024572D01*
X33178857Y13072191D01*
X33083619Y13119810D01*
X32893142Y13167429D01*
X32797904Y13215048D01*
X32750285Y13262667D01*
X32702666Y13357905D01*
X32702666Y13453143D01*
X32750285Y13548381D01*
X32797904Y13596000D01*
X32893142Y13643620D01*
X33131238Y13643620D01*
X33274095Y13596000D01*
X33607428Y13643620D02*
X33845523Y12643620D01*
X34036000Y13357905D01*
X34226476Y12643620D01*
X34464571Y13643620D01*
X35369333Y12643620D02*
X34797904Y12643620D01*
X35083619Y12643620D02*
X35083619Y13643620D01*
X34988380Y13500762D01*
X34893142Y13405524D01*
X34797904Y13357905D01*
%TO.C,C6*%
X26773142Y5929334D02*
X26820761Y5881715D01*
X26868380Y5738858D01*
X26868380Y5643620D01*
X26820761Y5500762D01*
X26725523Y5405524D01*
X26630285Y5357905D01*
X26439809Y5310286D01*
X26296952Y5310286D01*
X26106476Y5357905D01*
X26011238Y5405524D01*
X25916000Y5500762D01*
X25868380Y5643620D01*
X25868380Y5738858D01*
X25916000Y5881715D01*
X25963619Y5929334D01*
X25868380Y6786477D02*
X25868380Y6596000D01*
X25916000Y6500762D01*
X25963619Y6453143D01*
X26106476Y6357905D01*
X26296952Y6310286D01*
X26677904Y6310286D01*
X26773142Y6357905D01*
X26820761Y6405524D01*
X26868380Y6500762D01*
X26868380Y6691239D01*
X26820761Y6786477D01*
X26773142Y6834096D01*
X26677904Y6881715D01*
X26439809Y6881715D01*
X26344571Y6834096D01*
X26296952Y6786477D01*
X26249333Y6691239D01*
X26249333Y6500762D01*
X26296952Y6405524D01*
X26344571Y6357905D01*
X26439809Y6310286D01*
%TO.C,R6*%
X112438380Y84419334D02*
X111962190Y84086000D01*
X112438380Y83847905D02*
X111438380Y83847905D01*
X111438380Y84228858D01*
X111486000Y84324096D01*
X111533619Y84371715D01*
X111628857Y84419334D01*
X111771714Y84419334D01*
X111866952Y84371715D01*
X111914571Y84324096D01*
X111962190Y84228858D01*
X111962190Y83847905D01*
X111438380Y85276477D02*
X111438380Y85086000D01*
X111486000Y84990762D01*
X111533619Y84943143D01*
X111676476Y84847905D01*
X111866952Y84800286D01*
X112247904Y84800286D01*
X112343142Y84847905D01*
X112390761Y84895524D01*
X112438380Y84990762D01*
X112438380Y85181239D01*
X112390761Y85276477D01*
X112343142Y85324096D01*
X112247904Y85371715D01*
X112009809Y85371715D01*
X111914571Y85324096D01*
X111866952Y85276477D01*
X111819333Y85181239D01*
X111819333Y84990762D01*
X111866952Y84895524D01*
X111914571Y84847905D01*
X112009809Y84800286D01*
%TO.C,R8*%
X78438380Y84419334D02*
X77962190Y84086000D01*
X78438380Y83847905D02*
X77438380Y83847905D01*
X77438380Y84228858D01*
X77486000Y84324096D01*
X77533619Y84371715D01*
X77628857Y84419334D01*
X77771714Y84419334D01*
X77866952Y84371715D01*
X77914571Y84324096D01*
X77962190Y84228858D01*
X77962190Y83847905D01*
X77866952Y84990762D02*
X77819333Y84895524D01*
X77771714Y84847905D01*
X77676476Y84800286D01*
X77628857Y84800286D01*
X77533619Y84847905D01*
X77486000Y84895524D01*
X77438380Y84990762D01*
X77438380Y85181239D01*
X77486000Y85276477D01*
X77533619Y85324096D01*
X77628857Y85371715D01*
X77676476Y85371715D01*
X77771714Y85324096D01*
X77819333Y85276477D01*
X77866952Y85181239D01*
X77866952Y84990762D01*
X77914571Y84895524D01*
X77962190Y84847905D01*
X78057428Y84800286D01*
X78247904Y84800286D01*
X78343142Y84847905D01*
X78390761Y84895524D01*
X78438380Y84990762D01*
X78438380Y85181239D01*
X78390761Y85276477D01*
X78343142Y85324096D01*
X78247904Y85371715D01*
X78057428Y85371715D01*
X77962190Y85324096D01*
X77914571Y85276477D01*
X77866952Y85181239D01*
%TO.C,D2*%
X17997904Y76343620D02*
X17997904Y77343620D01*
X18236000Y77343620D01*
X18378857Y77296000D01*
X18474095Y77200762D01*
X18521714Y77105524D01*
X18569333Y76915048D01*
X18569333Y76772191D01*
X18521714Y76581715D01*
X18474095Y76486477D01*
X18378857Y76391239D01*
X18236000Y76343620D01*
X17997904Y76343620D01*
X18950285Y77248381D02*
X18997904Y77296000D01*
X19093142Y77343620D01*
X19331238Y77343620D01*
X19426476Y77296000D01*
X19474095Y77248381D01*
X19521714Y77153143D01*
X19521714Y77057905D01*
X19474095Y76915048D01*
X18902666Y76343620D01*
X19521714Y76343620D01*
X8640761Y54915048D02*
X8545523Y54962667D01*
X8497904Y55010286D01*
X8450285Y55105524D01*
X8450285Y55153143D01*
X8497904Y55248381D01*
X8545523Y55296000D01*
X8640761Y55343620D01*
X8831238Y55343620D01*
X8926476Y55296000D01*
X8974095Y55248381D01*
X9021714Y55153143D01*
X9021714Y55105524D01*
X8974095Y55010286D01*
X8926476Y54962667D01*
X8831238Y54915048D01*
X8640761Y54915048D01*
X8545523Y54867429D01*
X8497904Y54819810D01*
X8450285Y54724572D01*
X8450285Y54534096D01*
X8497904Y54438858D01*
X8545523Y54391239D01*
X8640761Y54343620D01*
X8831238Y54343620D01*
X8926476Y54391239D01*
X8974095Y54438858D01*
X9021714Y54534096D01*
X9021714Y54724572D01*
X8974095Y54819810D01*
X8926476Y54867429D01*
X8831238Y54915048D01*
X9021714Y72343620D02*
X8450285Y72343620D01*
X8736000Y72343620D02*
X8736000Y73343620D01*
X8640761Y73200762D01*
X8545523Y73105524D01*
X8450285Y73057905D01*
X28545523Y72343620D02*
X27974095Y72343620D01*
X28259809Y72343620D02*
X28259809Y73343620D01*
X28164571Y73200762D01*
X28069333Y73105524D01*
X27974095Y73057905D01*
X29402666Y73343620D02*
X29212190Y73343620D01*
X29116952Y73296000D01*
X29069333Y73248381D01*
X28974095Y73105524D01*
X28926476Y72915048D01*
X28926476Y72534096D01*
X28974095Y72438858D01*
X29021714Y72391239D01*
X29116952Y72343620D01*
X29307428Y72343620D01*
X29402666Y72391239D01*
X29450285Y72438858D01*
X29497904Y72534096D01*
X29497904Y72772191D01*
X29450285Y72867429D01*
X29402666Y72915048D01*
X29307428Y72962667D01*
X29116952Y72962667D01*
X29021714Y72915048D01*
X28974095Y72867429D01*
X28926476Y72772191D01*
X28545523Y54343620D02*
X28736000Y54343620D01*
X28831238Y54391239D01*
X28878857Y54438858D01*
X28974095Y54581715D01*
X29021714Y54772191D01*
X29021714Y55153143D01*
X28974095Y55248381D01*
X28926476Y55296000D01*
X28831238Y55343620D01*
X28640761Y55343620D01*
X28545523Y55296000D01*
X28497904Y55248381D01*
X28450285Y55153143D01*
X28450285Y54915048D01*
X28497904Y54819810D01*
X28545523Y54772191D01*
X28640761Y54724572D01*
X28831238Y54724572D01*
X28926476Y54772191D01*
X28974095Y54819810D01*
X29021714Y54915048D01*
%TO.C,D3*%
X65436000Y78796000D02*
X67436000Y78796000D01*
X38436000Y64796000D02*
X38436000Y62796000D01*
X66686000Y72796000D02*
X66436000Y72046000D01*
X65436000Y75796000D02*
X63436000Y75796000D01*
X37436000Y76796000D02*
X37436000Y78796000D01*
X39436000Y48796000D02*
X37436000Y48796000D01*
X37436000Y64796000D02*
X38436000Y64796000D01*
X37436000Y64796000D02*
X37436000Y66796000D01*
X63436000Y75546000D02*
X63436000Y76046000D01*
X37436000Y78796000D02*
X39436000Y78796000D01*
X63436000Y76046000D02*
X62686000Y75796000D01*
X67436000Y48796000D02*
X65436000Y48796000D01*
X37436000Y48796000D02*
X37436000Y50796000D01*
X66186000Y72796000D02*
X66686000Y72796000D01*
X38436000Y62796000D02*
X37436000Y62796000D01*
X66436000Y74796000D02*
X66436000Y72796000D01*
X66436000Y72046000D02*
X66186000Y72796000D01*
X37436000Y62796000D02*
X37436000Y60796000D01*
X67436000Y78796000D02*
X67436000Y76796000D01*
X62686000Y75796000D02*
X63436000Y75546000D01*
X67436000Y50796000D02*
X67436000Y48796000D01*
X41436000Y72686000D02*
G75*
G03*
X41436000Y72686000I-1000000J0D01*
G01*
D13*
%TO.C,Y1*%
X62896000Y26406000D02*
X75496000Y26406000D01*
X75496000Y31506000D02*
X62896000Y31506000D01*
X62896000Y31506000D02*
X62896000Y26406000D01*
%TO.C,SW2*%
X23836000Y81286000D02*
X22836000Y81286000D01*
X15836000Y81336000D02*
X21636000Y81336000D01*
X23836000Y82286000D02*
X23836000Y81286000D01*
X15736000Y87836000D02*
X21736000Y87836000D01*
X15636000Y83286000D02*
X15636000Y85886000D01*
X21836000Y83286000D02*
X21836000Y85886000D01*
%TO.C,BT1*%
X125484016Y31937750D02*
G75*
G03*
X121448025Y8324307I-515991J-12063443D01*
G01*
X127468025Y4624307D02*
G75*
G03*
X128018025Y5174307I1J549999D01*
G01*
X121918025Y5174307D02*
G75*
G03*
X122468025Y4624307I549999J-1D01*
G01*
X121918025Y7624307D02*
G75*
G03*
X121424540Y8329076I-750000J0D01*
G01*
X128488025Y8324307D02*
G75*
G03*
X124452034Y31937750I-3520000J11550000D01*
G01*
X128511510Y8329076D02*
G75*
G03*
X128018025Y7624307I256515J-704769D01*
G01*
X122468025Y4624307D02*
X127468025Y4624307D01*
X128018025Y5174307D02*
X128018025Y7624307D01*
X121918025Y7624307D02*
X121918025Y5174307D01*
D12*
%TO.C,D4*%
X73436000Y48796000D02*
X71436000Y48796000D01*
X71436000Y62796000D02*
X71436000Y60796000D01*
X99436000Y78796000D02*
X101436000Y78796000D01*
X101436000Y50796000D02*
X101436000Y48796000D01*
X71436000Y76796000D02*
X71436000Y78796000D01*
X100436000Y72046000D02*
X100186000Y72796000D01*
X72436000Y64796000D02*
X72436000Y62796000D01*
X100186000Y72796000D02*
X100686000Y72796000D01*
X71436000Y64796000D02*
X72436000Y64796000D01*
X99436000Y75796000D02*
X97436000Y75796000D01*
X72436000Y62796000D02*
X71436000Y62796000D01*
X71436000Y48796000D02*
X71436000Y50796000D01*
X101436000Y48796000D02*
X99436000Y48796000D01*
X101436000Y78796000D02*
X101436000Y76796000D01*
X100686000Y72796000D02*
X100436000Y72046000D01*
X71436000Y64796000D02*
X71436000Y66796000D01*
X100436000Y74796000D02*
X100436000Y72796000D01*
X96686000Y75796000D02*
X97436000Y75546000D01*
X71436000Y78796000D02*
X73436000Y78796000D01*
X97436000Y76046000D02*
X96686000Y75796000D01*
X97436000Y75546000D02*
X97436000Y76046000D01*
X75436000Y72686000D02*
G75*
G03*
X75436000Y72686000I-1000000J0D01*
G01*
D13*
%TO.C,U3*%
X105576000Y4466000D02*
X105576000Y14746000D01*
X100276000Y14746000D02*
X100276000Y4466000D01*
X103926000Y4466000D02*
X105576000Y4466000D01*
X105576000Y14746000D02*
X100276000Y14746000D01*
X100276000Y4466000D02*
X101926000Y4466000D01*
X103926000Y4466000D02*
G75*
G03*
X101926000Y4466000I-1000000J0D01*
G01*
%TO.C,J4*%
X78486000Y4766000D02*
X78486000Y7426000D01*
X78486000Y7426000D02*
X88706000Y7426000D01*
X77216000Y4766000D02*
X75886000Y4766000D01*
X78486000Y4766000D02*
X88706000Y4766000D01*
X88706000Y4766000D02*
X88706000Y7426000D01*
X75886000Y4766000D02*
X75886000Y6096000D01*
%TO.C,U6*%
X101706000Y39016000D02*
X101706000Y44316000D01*
X71106000Y44316000D02*
X71106000Y42666000D01*
X101706000Y44316000D02*
X71106000Y44316000D01*
X71106000Y40666000D02*
X71106000Y39016000D01*
X71106000Y39016000D02*
X101706000Y39016000D01*
X71106000Y40666000D02*
G75*
G03*
X71106000Y42666000I0J1000000D01*
G01*
%TO.C,J3*%
X53026000Y9906000D02*
X53026000Y4766000D01*
X53026000Y9906000D02*
X55626000Y9906000D01*
X53026000Y12506000D02*
X54356000Y12506000D01*
X55626000Y9906000D02*
X55626000Y12506000D01*
X53026000Y4766000D02*
X58226000Y4766000D01*
X55626000Y12506000D02*
X58226000Y12506000D01*
X53026000Y11176000D02*
X53026000Y12506000D01*
X58226000Y12506000D02*
X58226000Y4766000D01*
%TO.C,Y2*%
X110786000Y6646000D02*
X110786000Y5546000D01*
X112686000Y6646000D02*
X112686000Y5546000D01*
X112636000Y8046000D02*
X110836000Y8046000D01*
%TO.C,U7*%
X135691000Y39016000D02*
X135691000Y44316000D01*
X105091000Y39016000D02*
X135691000Y39016000D01*
X105091000Y44316000D02*
X105091000Y42666000D01*
X135691000Y44316000D02*
X105091000Y44316000D01*
X105091000Y40666000D02*
X105091000Y39016000D01*
X105091000Y40666000D02*
G75*
G03*
X105091000Y42666000I0J1000000D01*
G01*
%TO.C,U1*%
X88706000Y22716000D02*
X53026000Y22716000D01*
X53026000Y17416000D02*
X88706000Y17416000D01*
X53026000Y22716000D02*
X53026000Y17416000D01*
X88706000Y17416000D02*
X88706000Y19066000D01*
X88706000Y21066000D02*
X88706000Y22716000D01*
X88706000Y21066000D02*
G75*
G03*
X88706000Y19066000I0J-1000000D01*
G01*
%TO.C,U8*%
X103736000Y27356000D02*
X105686000Y27356000D01*
X103736000Y22236000D02*
X101786000Y22236000D01*
X103736000Y22236000D02*
X105686000Y22236000D01*
X103736000Y27356000D02*
X100286000Y27356000D01*
%TO.C,SW5*%
X91536000Y81286000D02*
X90536000Y81286000D01*
X91536000Y82286000D02*
X91536000Y81286000D01*
X89536000Y83286000D02*
X89536000Y85886000D01*
X83536000Y81336000D02*
X89336000Y81336000D01*
X83336000Y83286000D02*
X83336000Y85886000D01*
X83436000Y87836000D02*
X89436000Y87836000D01*
%TO.C,U4*%
X3491000Y40666000D02*
X3491000Y39016000D01*
X3491000Y44316000D02*
X3491000Y42666000D01*
X34091000Y39016000D02*
X34091000Y44316000D01*
X3491000Y39016000D02*
X34091000Y39016000D01*
X34091000Y44316000D02*
X3491000Y44316000D01*
X3491000Y40666000D02*
G75*
G03*
X3491000Y42666000I0J1000000D01*
G01*
%TO.C,SW3*%
X117396000Y87836000D02*
X123396000Y87836000D01*
X125496000Y82286000D02*
X125496000Y81286000D01*
X123496000Y83286000D02*
X123496000Y85886000D01*
X117296000Y83286000D02*
X117296000Y85886000D01*
X125496000Y81286000D02*
X124496000Y81286000D01*
X117496000Y81336000D02*
X123296000Y81336000D01*
%TO.C,J1*%
X96326000Y17526000D02*
X96326000Y30286000D01*
X96326000Y17526000D02*
X93666000Y17526000D01*
X96326000Y14926000D02*
X94996000Y14926000D01*
X96326000Y30286000D02*
X93666000Y30286000D01*
X96326000Y16256000D02*
X96326000Y14926000D01*
X93666000Y17526000D02*
X93666000Y30286000D01*
%TO.C,SW4*%
X49336000Y83286000D02*
X49336000Y85886000D01*
X57536000Y81286000D02*
X56536000Y81286000D01*
X55536000Y83286000D02*
X55536000Y85886000D01*
X49536000Y81336000D02*
X55336000Y81336000D01*
X57536000Y82286000D02*
X57536000Y81286000D01*
X49436000Y87836000D02*
X55436000Y87836000D01*
%TO.C,U2*%
X21976000Y12266000D02*
X21976000Y15096000D01*
X15346000Y12266000D02*
X15616000Y12266000D01*
X22246000Y12266000D02*
X21976000Y12266000D01*
X22246000Y10766000D02*
X22246000Y12266000D01*
X15616000Y12266000D02*
X15616000Y13366000D01*
X15346000Y10766000D02*
X15346000Y12266000D01*
D12*
%TO.C,D5*%
X135396000Y50796000D02*
X135396000Y48796000D01*
X131396000Y76046000D02*
X130646000Y75796000D01*
X134396000Y74796000D02*
X134396000Y72796000D01*
X106396000Y64796000D02*
X106396000Y62796000D01*
X135396000Y78796000D02*
X135396000Y76796000D01*
X106396000Y62796000D02*
X105396000Y62796000D01*
X105396000Y48796000D02*
X105396000Y50796000D01*
X107396000Y48796000D02*
X105396000Y48796000D01*
X134646000Y72796000D02*
X134396000Y72046000D01*
X105396000Y62796000D02*
X105396000Y60796000D01*
X130646000Y75796000D02*
X131396000Y75546000D01*
X135396000Y48796000D02*
X133396000Y48796000D01*
X105396000Y76796000D02*
X105396000Y78796000D01*
X105396000Y78796000D02*
X107396000Y78796000D01*
X131396000Y75546000D02*
X131396000Y76046000D01*
X134396000Y72046000D02*
X134146000Y72796000D01*
X133396000Y78796000D02*
X135396000Y78796000D01*
X105396000Y64796000D02*
X105396000Y66796000D01*
X134146000Y72796000D02*
X134646000Y72796000D01*
X133396000Y75796000D02*
X131396000Y75796000D01*
X105396000Y64796000D02*
X106396000Y64796000D01*
X109396000Y72686000D02*
G75*
G03*
X109396000Y72686000I-1000000J0D01*
G01*
D13*
%TO.C,D1*%
X60236000Y7676000D02*
X62921000Y7676000D01*
X62921000Y9596000D02*
X60236000Y9596000D01*
X62921000Y7676000D02*
X62921000Y9596000D01*
%TO.C,U5*%
X37406000Y39016000D02*
X68006000Y39016000D01*
X37406000Y44316000D02*
X37406000Y42666000D01*
X37406000Y40666000D02*
X37406000Y39016000D01*
X68006000Y39016000D02*
X68006000Y44316000D01*
X68006000Y44316000D02*
X37406000Y44316000D01*
X37406000Y40666000D02*
G75*
G03*
X37406000Y42666000I0J1000000D01*
G01*
%TO.C,J5*%
X71882000Y7426000D02*
X71882000Y4766000D01*
X74482000Y7426000D02*
X74482000Y6096000D01*
X71882000Y7426000D02*
X66742000Y7426000D01*
X73152000Y7426000D02*
X74482000Y7426000D01*
X71882000Y4766000D02*
X66742000Y4766000D01*
X66742000Y7426000D02*
X66742000Y4766000D01*
%TO.C,SW1*%
X28936000Y11096000D02*
X28936000Y12096000D01*
X37036000Y5546000D02*
X31036000Y5546000D01*
X28936000Y12096000D02*
X29936000Y12096000D01*
X37136000Y10096000D02*
X37136000Y7496000D01*
X36936000Y12046000D02*
X31136000Y12046000D01*
X30936000Y10096000D02*
X30936000Y7496000D01*
D12*
%TO.C,D2*%
X5736000Y48796000D02*
X3736000Y48796000D01*
X28986000Y75796000D02*
X29736000Y75546000D01*
X3736000Y64796000D02*
X3736000Y66796000D01*
X3736000Y48796000D02*
X3736000Y50796000D01*
X32736000Y72046000D02*
X32486000Y72796000D01*
X33736000Y50796000D02*
X33736000Y48796000D01*
X32486000Y72796000D02*
X32986000Y72796000D01*
X29736000Y75546000D02*
X29736000Y76046000D01*
X32986000Y72796000D02*
X32736000Y72046000D01*
X3736000Y62796000D02*
X3736000Y60796000D01*
X29736000Y76046000D02*
X28986000Y75796000D01*
X32736000Y74796000D02*
X32736000Y72796000D01*
X3736000Y78796000D02*
X5736000Y78796000D01*
X4736000Y64796000D02*
X4736000Y62796000D01*
X4736000Y62796000D02*
X3736000Y62796000D01*
X3736000Y64796000D02*
X4736000Y64796000D01*
X33736000Y78796000D02*
X33736000Y76796000D01*
X33736000Y48796000D02*
X31736000Y48796000D01*
X31736000Y78796000D02*
X33736000Y78796000D01*
X3736000Y76796000D02*
X3736000Y78796000D01*
X31736000Y75796000D02*
X29736000Y75796000D01*
X7736000Y72686000D02*
G75*
G03*
X7736000Y72686000I-1000000J0D01*
G01*
%TD*%
M02*
